<svg width="51" height="82" viewBox="0 0 51 82" fill="none" xmlns="http://www.w3.org/2000/svg">
<path d="M26.329 5.02203L24.5685 2.62911L25.3989 2.70967L25.4561 2.71522L25.5131 2.70764L28.6775 2.28668L28.8029 2.26999L28.9053 2.19563L30.0552 1.36062L31.4834 0.937444L33.6266 0.828904L37.1709 1.95915L38.3293 2.6593L38.7002 3.31472L38.7619 3.42358L38.8675 3.4906L50.3121 10.7529L49.0613 15.2584L49.0504 15.2977L49.046 15.3383L48.596 19.4898L48.5922 19.525L48.5934 19.5604L48.7676 24.7715L48.7683 24.7923L48.7707 24.8129L49.8088 33.6798L49.3762 37.1266L47.3201 41.5148L43.4823 43.4546L43.4009 43.4958L43.3393 43.563L42.5409 44.434L42.4938 44.4854L42.4626 44.5477L40.0384 49.3814L40.0145 49.429L40.0012 49.4807L38.5931 54.9406L37.7871 56.4794L37.0572 55.8814L36.9503 55.7938L36.8134 55.7735L35.536 55.5848L35.0777 55.5171L34.9753 55.969L34.5543 57.827L34.4588 58.2486L34.8622 58.404L36.3257 58.9678L33.7627 64.5695L29.1797 69.6706L28.9794 69.4452L28.6621 69.5578L25.9622 70.5158L25.8026 70.5725L25.7103 70.7144L24.549 72.4998L24.4745 72.6144L24.4686 72.7509L24.3845 74.6979L23.825 76.3633L21.5705 79.2275L21.5053 79.3103L21.4791 79.4124L21.2318 80.3762L19.4647 79.2199L19.3114 79.1196L19.1295 79.1421L14.8776 79.6683L8.71217 78.2335L5.37841 76.7266L4.44454 70.1618L4.40355 69.8736L4.13272 69.767L1.34859 68.6707L1.28918 68.642L1.84658 65.6777L2.65106 63.8429L2.71318 63.7012L2.68444 63.5492L1.85428 59.1592L2.00643 58.7598L4.29843 56.0147L11.5383 56.0569L11.6747 56.0577L11.7927 55.9891L12.591 55.5246L12.7619 55.4252L12.8185 55.2358L14.1954 50.6367L15.7353 48.8749L15.7937 48.8081L15.8256 48.7252L17.1029 45.4012L17.1234 45.3477L17.1314 45.2909L17.4659 42.8933L17.7368 42.435L19.4468 41.2489L19.5044 41.209L19.5488 41.1547L22.031 38.1209L22.1129 38.0209L22.136 37.8937L22.9198 33.5826L22.9333 33.5086L22.9244 33.4339L22.5034 29.9066L22.4943 29.8301L22.4626 29.7599L20.6191 25.6811L20.5891 25.6147L20.5414 25.5596L18.9447 23.7162L18.8279 23.5813L18.6521 23.5508L17.8972 23.4202L17.705 23.3869L17.5411 23.4926L17.0975 23.7784L16.3771 23.513L15.9646 22.9152L16.2237 22.5838L18.0268 22.4741L19.0776 22.9339L19.1661 22.9726L19.2626 22.9756L20.6706 23.0191L20.7406 23.0213L20.8085 23.0041L22.1875 22.6558L22.3568 22.613L22.4627 22.474L22.9272 21.8643L23.0464 21.7079L23.0271 21.5121L22.7803 19.0155L22.7463 18.6709L22.4118 18.5816L20.7249 18.1309L20.6002 17.8874L21.0026 15.8217L21.0111 15.7782L21.0117 15.7339L21.0553 12.9469L21.0581 12.7692L20.9481 12.6296L20.1933 11.6716L20.1246 11.5844L20.0255 11.5345L18.2578 10.6439L17.9954 10.0317L19.4967 7.5553L22.4367 5.78043L22.5889 5.77061L23.9688 6.74314L24.0769 6.81928L24.2084 6.83209L25.8487 6.99174L26.3837 7.04381L26.397 6.50645L26.426 5.33068L26.4303 5.15976L26.329 5.02203Z" fill="black" stroke="white"/>
</svg>
