<svg width="130" height="188" viewBox="0 0 130 188" fill="none" xmlns="http://www.w3.org/2000/svg">
<mask id="path-1-outside-1_2_49" maskUnits="userSpaceOnUse" x="-0.0712891" y="0.111237" width="130" height="188" fill="black">
<rect fill="white" x="-0.0712891" y="0.111237" width="130" height="188"/>
<path d="M101.056 5.21758L102.957 5.39177L103.959 5.05791L107.211 5.79821L108.648 7.03204L109.112 7.90297L108.952 9.06422L107.37 11.7496L105.077 14.6092L104.815 16.7285L105.236 18.601L107.849 25.4524L112.422 34.7714L113.06 37.2826L115.034 39.5906L115.005 40.6938L113.931 42.6679L115.078 48.2854L114.381 50.6079L115.833 53.5256L116.704 57.8657L115.847 60.1592L114.686 61.0011L116.022 62.0027L116.181 62.5543L117.546 74.399L117.197 75.0523L118.3 78.7828L119.825 86.3309L121.291 90.2066L123.192 91.1501L126.908 91.8323L128.026 93.5161L128.011 94.5177L125.834 97.7837L124.179 102.298L124.295 103.706L125.283 104.693L125.195 106.609L122.597 106.841L121.842 107.32L121.683 107.974L121.77 109.353L122.641 110.993L122.539 114.172L124.891 116.465L125.311 117.249L125.224 120.544L124.15 123.099L118.504 128.717L117.096 129.123L113.772 131.054L112.988 132.316L110.128 134.799L106.325 136.642L105.672 138.326L103.495 141.664L101.97 142.637L100.824 142.376L97.9205 142.927L98.0802 146.411L95.3803 149.024L94.9158 148.951L94.0158 148.051L90.8805 148.037L89.6902 149.459L88.5725 149.982L84.6097 150.475L82.4178 152.421L81.2276 154.191L78.7599 154.337L76.6116 155.266L72.2569 155.425L71.0666 155.019L70.7908 154.612L70.9796 153.654L68.4973 152.232L66.5668 151.666L64.5491 152.464L61.4573 153.088L60.9928 152.827L60.3976 151.477L58.2203 150.809L55.3897 150.838L50.6867 153.233L50.5996 154.583L53.8511 161.028L54.0253 162.698L53.6043 166.428L53.2415 167.749L52.1963 168.997L47.9142 176.328L43.6031 179.841L41.6434 180.45L39.4952 179.681L37.5501 179.434L34.3566 180.523L32.6583 181.815L31.6857 183.078L30.0309 183.629L28.9423 185.734L28.4633 186.039L25.4005 185.777L22.7877 186.532L16.7201 183.847L14.1508 180.232L13.3815 177.025L12.4235 175.515L10.3333 173.57L6.9511 173.599L2.68351 173.294L2.75611 170.507L3.13349 168.968L4.80282 165.412L4.99149 156.18L6.09469 154.148L6.13823 153.408L3.62701 148.966L2.94478 144.335L1.92871 141.519L2.98837 138.616L5.456 136.584L7.19789 132.984L7.3866 130.792L7.88013 129.587L8.31558 129.283L10.4058 125.305L11.3203 121.938L11.8864 117.627L13.309 113.301L16.4008 110.47L20.349 109.367L24.1376 108.917L25.6908 108.38L28.1585 106.159L29.6826 106.101L31.6277 105.346L35.7792 101.616L39.1758 100.295L42.0934 97.3918L43.0079 96.1289V95.4612L45.7659 92.6742L46.4917 92.3549L47.711 92.0065L48.0448 92.442L49.6706 92.0646L51.1221 91.1936L53.2415 90.9178L54.7075 91.2227L58.3509 93.8645L60.5428 93.7194L64.0846 92.471L65.2894 92.4129L66.2329 92.8194L69.5425 92.3984L71.2989 90.4969L72.0247 88.3776L72.1989 86.6212L72.6198 85.9825L73.1859 82.7891L72.9972 81.5553L72.7505 80.8295L70.4134 79.5085L67.8296 76.5619L67.0893 73.2233L66.9297 70.1605L67.1764 66.5606L73.1278 60.1302L73.4327 59.3318L73.5778 55.8045L72.7795 51.4789L70.486 47.4145L72.1408 43.2485L72.5472 41.1147L71.9956 39.2712L70.2102 38.0519L69.7022 35.2649L70.8199 33.7408L71.7489 33.494L72.9391 30.6199L75.6826 27.9345L76.96 25.2782L76.9019 22.6799L81.1405 17.7301L82.3163 17.9623L87.1209 17.2946L93.1159 11.5319L95.7141 8.23684L96.2803 6.01594L95.3513 5.24662L95.0319 4.20149L95.6997 2.11124L96.7593 2.28543L98.8931 3.54829L99.6334 4.28858L99.4447 4.73857L101.056 5.21758Z"/>
</mask>
<path d="M101.056 5.21758L102.957 5.39177L103.959 5.05791L107.211 5.79821L108.648 7.03204L109.112 7.90297L108.952 9.06422L107.37 11.7496L105.077 14.6092L104.815 16.7285L105.236 18.601L107.849 25.4524L112.422 34.7714L113.06 37.2826L115.034 39.5906L115.005 40.6938L113.931 42.6679L115.078 48.2854L114.381 50.6079L115.833 53.5256L116.704 57.8657L115.847 60.1592L114.686 61.0011L116.022 62.0027L116.181 62.5543L117.546 74.399L117.197 75.0523L118.3 78.7828L119.825 86.3309L121.291 90.2066L123.192 91.1501L126.908 91.8323L128.026 93.5161L128.011 94.5177L125.834 97.7837L124.179 102.298L124.295 103.706L125.283 104.693L125.195 106.609L122.597 106.841L121.842 107.32L121.683 107.974L121.77 109.353L122.641 110.993L122.539 114.172L124.891 116.465L125.311 117.249L125.224 120.544L124.15 123.099L118.504 128.717L117.096 129.123L113.772 131.054L112.988 132.316L110.128 134.799L106.325 136.642L105.672 138.326L103.495 141.664L101.97 142.637L100.824 142.376L97.9205 142.927L98.0802 146.411L95.3803 149.024L94.9158 148.951L94.0158 148.051L90.8805 148.037L89.6902 149.459L88.5725 149.982L84.6097 150.475L82.4178 152.421L81.2276 154.191L78.7599 154.337L76.6116 155.266L72.2569 155.425L71.0666 155.019L70.7908 154.612L70.9796 153.654L68.4973 152.232L66.5668 151.666L64.5491 152.464L61.4573 153.088L60.9928 152.827L60.3976 151.477L58.2203 150.809L55.3897 150.838L50.6867 153.233L50.5996 154.583L53.8511 161.028L54.0253 162.698L53.6043 166.428L53.2415 167.749L52.1963 168.997L47.9142 176.328L43.6031 179.841L41.6434 180.45L39.4952 179.681L37.5501 179.434L34.3566 180.523L32.6583 181.815L31.6857 183.078L30.0309 183.629L28.9423 185.734L28.4633 186.039L25.4005 185.777L22.7877 186.532L16.7201 183.847L14.1508 180.232L13.3815 177.025L12.4235 175.515L10.3333 173.57L6.9511 173.599L2.68351 173.294L2.75611 170.507L3.13349 168.968L4.80282 165.412L4.99149 156.18L6.09469 154.148L6.13823 153.408L3.62701 148.966L2.94478 144.335L1.92871 141.519L2.98837 138.616L5.456 136.584L7.19789 132.984L7.3866 130.792L7.88013 129.587L8.31558 129.283L10.4058 125.305L11.3203 121.938L11.8864 117.627L13.309 113.301L16.4008 110.47L20.349 109.367L24.1376 108.917L25.6908 108.38L28.1585 106.159L29.6826 106.101L31.6277 105.346L35.7792 101.616L39.1758 100.295L42.0934 97.3918L43.0079 96.1289V95.4612L45.7659 92.6742L46.4917 92.3549L47.711 92.0065L48.0448 92.442L49.6706 92.0646L51.1221 91.1936L53.2415 90.9178L54.7075 91.2227L58.3509 93.8645L60.5428 93.7194L64.0846 92.471L65.2894 92.4129L66.2329 92.8194L69.5425 92.3984L71.2989 90.4969L72.0247 88.3776L72.1989 86.6212L72.6198 85.9825L73.1859 82.7891L72.9972 81.5553L72.7505 80.8295L70.4134 79.5085L67.8296 76.5619L67.0893 73.2233L66.9297 70.1605L67.1764 66.5606L73.1278 60.1302L73.4327 59.3318L73.5778 55.8045L72.7795 51.4789L70.486 47.4145L72.1408 43.2485L72.5472 41.1147L71.9956 39.2712L70.2102 38.0519L69.7022 35.2649L70.8199 33.7408L71.7489 33.494L72.9391 30.6199L75.6826 27.9345L76.96 25.2782L76.9019 22.6799L81.1405 17.7301L82.3163 17.9623L87.1209 17.2946L93.1159 11.5319L95.7141 8.23684L96.2803 6.01594L95.3513 5.24662L95.0319 4.20149L95.6997 2.11124L96.7593 2.28543L98.8931 3.54829L99.6334 4.28858L99.4447 4.73857L101.056 5.21758Z" fill="black"/>
<path d="M101.056 5.21758L102.957 5.39177L103.959 5.05791L107.211 5.79821L108.648 7.03204L109.112 7.90297L108.952 9.06422L107.37 11.7496L105.077 14.6092L104.815 16.7285L105.236 18.601L107.849 25.4524L112.422 34.7714L113.06 37.2826L115.034 39.5906L115.005 40.6938L113.931 42.6679L115.078 48.2854L114.381 50.6079L115.833 53.5256L116.704 57.8657L115.847 60.1592L114.686 61.0011L116.022 62.0027L116.181 62.5543L117.546 74.399L117.197 75.0523L118.3 78.7828L119.825 86.3309L121.291 90.2066L123.192 91.1501L126.908 91.8323L128.026 93.5161L128.011 94.5177L125.834 97.7837L124.179 102.298L124.295 103.706L125.283 104.693L125.195 106.609L122.597 106.841L121.842 107.32L121.683 107.974L121.77 109.353L122.641 110.993L122.539 114.172L124.891 116.465L125.311 117.249L125.224 120.544L124.15 123.099L118.504 128.717L117.096 129.123L113.772 131.054L112.988 132.316L110.128 134.799L106.325 136.642L105.672 138.326L103.495 141.664L101.97 142.637L100.824 142.376L97.9205 142.927L98.0802 146.411L95.3803 149.024L94.9158 148.951L94.0158 148.051L90.8805 148.037L89.6902 149.459L88.5725 149.982L84.6097 150.475L82.4178 152.421L81.2276 154.191L78.7599 154.337L76.6116 155.266L72.2569 155.425L71.0666 155.019L70.7908 154.612L70.9796 153.654L68.4973 152.232L66.5668 151.666L64.5491 152.464L61.4573 153.088L60.9928 152.827L60.3976 151.477L58.2203 150.809L55.3897 150.838L50.6867 153.233L50.5996 154.583L53.8511 161.028L54.0253 162.698L53.6043 166.428L53.2415 167.749L52.1963 168.997L47.9142 176.328L43.6031 179.841L41.6434 180.45L39.4952 179.681L37.5501 179.434L34.3566 180.523L32.6583 181.815L31.6857 183.078L30.0309 183.629L28.9423 185.734L28.4633 186.039L25.4005 185.777L22.7877 186.532L16.7201 183.847L14.1508 180.232L13.3815 177.025L12.4235 175.515L10.3333 173.57L6.9511 173.599L2.68351 173.294L2.75611 170.507L3.13349 168.968L4.80282 165.412L4.99149 156.18L6.09469 154.148L6.13823 153.408L3.62701 148.966L2.94478 144.335L1.92871 141.519L2.98837 138.616L5.456 136.584L7.19789 132.984L7.3866 130.792L7.88013 129.587L8.31558 129.283L10.4058 125.305L11.3203 121.938L11.8864 117.627L13.309 113.301L16.4008 110.47L20.349 109.367L24.1376 108.917L25.6908 108.38L28.1585 106.159L29.6826 106.101L31.6277 105.346L35.7792 101.616L39.1758 100.295L42.0934 97.3918L43.0079 96.1289V95.4612L45.7659 92.6742L46.4917 92.3549L47.711 92.0065L48.0448 92.442L49.6706 92.0646L51.1221 91.1936L53.2415 90.9178L54.7075 91.2227L58.3509 93.8645L60.5428 93.7194L64.0846 92.471L65.2894 92.4129L66.2329 92.8194L69.5425 92.3984L71.2989 90.4969L72.0247 88.3776L72.1989 86.6212L72.6198 85.9825L73.1859 82.7891L72.9972 81.5553L72.7505 80.8295L70.4134 79.5085L67.8296 76.5619L67.0893 73.2233L66.9297 70.1605L67.1764 66.5606L73.1278 60.1302L73.4327 59.3318L73.5778 55.8045L72.7795 51.4789L70.486 47.4145L72.1408 43.2485L72.5472 41.1147L71.9956 39.2712L70.2102 38.0519L69.7022 35.2649L70.8199 33.7408L71.7489 33.494L72.9391 30.6199L75.6826 27.9345L76.96 25.2782L76.9019 22.6799L81.1405 17.7301L82.3163 17.9623L87.1209 17.2946L93.1159 11.5319L95.7141 8.23684L96.2803 6.01594L95.3513 5.24662L95.0319 4.20149L95.6997 2.11124L96.7593 2.28543L98.8931 3.54829L99.6334 4.28858L99.4447 4.73857L101.056 5.21758Z" stroke="white" stroke-width="2" mask="url(#path-1-outside-1_2_49)"/>
</svg>
