<svg width="210" height="231" viewBox="0 0 210 231" fill="none" xmlns="http://www.w3.org/2000/svg">
<mask id="path-1-outside-1_2_38" maskUnits="userSpaceOnUse" x="-0.483887" y="-0.277161" width="211" height="231" fill="black">
<rect fill="white" x="-0.483887" y="-0.277161" width="211" height="231"/>
<path d="M145.7 220.299L145.177 219.094L146.164 217.135L146.15 216.365L145.381 214.856L139.386 210.428L139.168 209.688L139.487 207.496L138.66 205.711L137.716 206.059L137.426 206.712L136.932 206.974L136.613 206.611L137.382 200.224L138.573 195.434L139.763 194.156L143.348 194.505L144.829 193.474V192.865L144.016 191.384L144.248 187.537L151.448 181.412L153.582 176.941L152.972 175.243L151.84 173.762L150.548 173.675L149.488 173.123L145.381 169.538L142.303 169.567L139.124 168.696L135.829 167.128L131.866 166.316L128.992 166.112L127.076 167.549L124.942 168.275L121.154 167.622L120.326 167.927L119.688 162.179L110.224 153.179L109.672 152.918L103.3 154.703L101.079 152.903L100.338 153.208L98.9885 152.889L95.3016 151.118L92.1516 148.766L90.7291 149.027L84.4148 143.758L82.8181 142.974L78.8554 141.886L76.2861 142.249L73.5571 143.555L72.3814 145.181L71.4524 145.442L63.7155 143.308L62.8301 142.597L62.4527 140.42L62.6559 139.128L64.5284 135.15L63.2801 134.483L59.9705 133.728L56.8061 133.67L55.0642 132.944L52.4659 132.828L46.9065 135.121L40.7228 139.52L39.7938 141.131L34.9021 143.845L31.9699 144.426L30.5909 146.139L27.9636 148.389L25.8878 149.144L24.4363 148.926L21.7509 152.671L20.2413 153.789L17.1494 153.237L16.1043 153.426L15.1027 154.877L13.1576 156.213L12.577 155.864L14.6527 150.885L13.9124 147.387L16.0608 144.528L16.4236 143.41L16.0898 141.566L15.1172 139.07L15.2624 138.097L16.293 136.036L16.2204 135.368L11.5609 131.565L9.10776 126.543L8.2078 121.433L8.28036 119.183L10.0222 113.624L12.3302 112.129L12.6641 111.577L12.7512 110.213L10.3851 108.993L10.2255 108.514L10.9222 104.856L12.9979 103.318L12.9689 102.781L9.02067 99.2098L8.96259 97.8598L10.9367 94.4051L10.8787 92.8519L10.6319 92.2423L8.51261 91.531L7.14814 90.5875L6.64013 88.7585L6.72722 84.52L7.00302 83.2861L9.83354 80.862L11.4883 80.2524L12.8818 79.2072L12.4609 78.2927L11.619 77.5379L10.2835 77.117L8.78841 77.3783L8.28036 76.8993L8.14972 76.1735L8.7594 74.78L11.7206 73.5897L12.5335 72.9365L12.4754 71.8333L9.74645 70.4108L4.54987 69.4382L1.84994 66.5931L1.51611 65.2577L2.24189 63.5739L3.70794 62.5143L5.91435 57.4628L7.22074 56.5774L8.68679 56.1855L9.19485 55.6339L7.32236 53.0211L7.59812 52.484L12.2577 48.6809L17.8026 45.7487L18.6155 45.0665L18.9349 43.644L19.9364 42.7004L23.3186 42.6714L25.4088 44.6165L26.3669 46.1261L27.1362 49.3341L29.6909 52.9485L35.7585 55.6484L38.3713 54.8936L41.4341 55.1549L41.9131 54.85L43.0018 52.7453L44.6566 52.2082L45.6291 50.9453L47.3274 49.6534L50.5354 48.5648L52.4659 48.8115L54.6143 49.5809L56.5739 48.9712L60.885 45.4584L65.1671 38.128L66.2122 36.8797L66.5606 35.5443L66.9961 31.8283L66.8219 30.1444L63.5704 23.714L63.643 22.3641L68.346 19.969L71.1766 19.94L73.3539 20.6077L73.9491 21.9576L74.4136 22.2189L77.4909 21.5947L79.5085 20.8109L81.4391 21.3625L83.9213 22.7995L83.7326 23.743L84.0084 24.164L85.1987 24.5704L89.5534 24.4108L91.6872 23.4818L94.1548 23.3366L95.3451 21.5657L97.537 19.6206L101.5 19.1271L102.617 18.6045L103.793 17.182L106.943 17.1965L107.843 18.111L108.293 18.1836L110.993 15.5562L110.848 12.0725L113.736 11.5209L114.883 11.7822L116.407 10.8241L118.585 7.47101L119.252 5.80173L120.544 6.38234L122.228 5.99044L125.422 6.41138L129.515 8.42905L130.154 9.16936L130.066 13.1321L131.112 15.9482L134.32 17.2691L134.711 20.1722L133.376 22.6108L136.032 23.5108L137.426 23.1914L138.616 21.856L142.782 20.5786L143.9 15.382L144.626 14.1192L145.714 13.8869L146.847 14.6563L147.761 14.7288L151.23 13.2482L152.827 11.4483L153.074 10.5919L152.711 8.61776L153.132 8.25487L156.383 7.60167L157.501 4.62596L159.896 3.98727L163.569 1.86798L164.425 1.72284L166.588 2.53571L167.793 4.62596L169.767 5.80173L173.192 6.93394L177.533 7.51458L179.826 9.18387L180.61 11.5789L181.176 11.9709L181.8 11.7531L182.221 9.21291L182.845 8.57422L184.297 8.55969L184.95 9.0242L184.979 9.93869L184.079 11.216L184.732 12.4208L185.458 12.9579L188.506 14.2063L188.535 15.5707L190.306 19.998L191.09 22.0302L192.571 22.4512L193.224 22.3205L195.3 23.4672L195.59 24.5124L194.617 26.1962L194.922 29.3025L196.78 32.9314L199.669 35.762L200.758 37.4313L200.641 41.9602L199.683 44.3117L199.553 45.5891L200.656 49.5809L200.221 50.4228L199.219 51.2211L195.517 52.6727L193.877 51.584L191.395 51.5695L190.93 52.005L190.074 54.2984L190.103 55.4161L191.482 57.7386L193.079 58.6967L193.834 60.8595L195.909 63.0513L196.127 63.6175L195.938 65.6787L195.445 66.2448L195.619 66.8545L196.475 67.6093L199.277 68.9447L199.974 69.9753L200.758 70.4688L203.007 71.3978L207.203 70.1205L208.132 70.0914L208.654 70.6866L202.732 83.5039L197.172 91.0375L195.677 94.4196L188.376 102.752L184.819 104.581L183.557 104.566L183.992 102.49L184.529 102.273L184.732 100.676L184.079 97.8743L181.365 97.5115L180.741 95.6244L179.754 94.5357L179.216 95.4067L178.549 98.7888L177.823 100.052L177.025 100.603L176.212 100.182L175.5 97.6566L175.66 97.1921L176.11 97.0034L176.066 96.4373L174.804 98.3098L176.154 100.763L176.821 101.097L177.358 100.879L179.028 101.256L178.36 103.884L176.604 105.553L176.241 108.195L174.426 109.603L173.918 110.576L173.628 111.795L173.889 113.029L171.93 112.463L171.625 113.029L171.102 116.687L171.625 115.641L172.713 115.946L173.062 116.73L172.728 117.325L172.815 118.225L173.25 118.661L173.729 120.112L172.22 123.756L173.047 128.749L172.249 129.46L171.421 129.141L171.218 130.781L172.075 131.449L173.831 128.952L173.149 125.744L174.339 124.859L174.702 125.643L174.615 128.197L173.221 131.986L172.147 139.868L171.407 142.495L171.697 146.081L172.83 150.218L173.105 156.808L174.368 166.112L175.805 171.077L172.597 180.744L170.638 190.397L169.955 191.863L169.723 196.014L168.185 201.414L168.054 204.796L168.62 211.212L169.912 213.694L166.66 218.02L164.033 218.993L162.669 219.922L158.72 225.568L157.893 228.529L146.15 221.068L145.7 220.299ZM178.041 107.077L177.707 105.335L178.781 104.74L180.32 103.231L180.552 102.302L180.015 101.242L181.118 101.445L182.308 102.969L182.236 103.739L178.041 107.077ZM174.368 117.02L173.454 116.977L173.468 116.004L173.846 115.482L172.684 115.162L172.075 114.582L172.263 113.029L174.978 112.811L175.21 113.101L175.37 114.741L174.368 117.02Z"/>
</mask>
<path d="M145.7 220.299L145.177 219.094L146.164 217.135L146.15 216.365L145.381 214.856L139.386 210.428L139.168 209.688L139.487 207.496L138.66 205.711L137.716 206.059L137.426 206.712L136.932 206.974L136.613 206.611L137.382 200.224L138.573 195.434L139.763 194.156L143.348 194.505L144.829 193.474V192.865L144.016 191.384L144.248 187.537L151.448 181.412L153.582 176.941L152.972 175.243L151.84 173.762L150.548 173.675L149.488 173.123L145.381 169.538L142.303 169.567L139.124 168.696L135.829 167.128L131.866 166.316L128.992 166.112L127.076 167.549L124.942 168.275L121.154 167.622L120.326 167.927L119.688 162.179L110.224 153.179L109.672 152.918L103.3 154.703L101.079 152.903L100.338 153.208L98.9885 152.889L95.3016 151.118L92.1516 148.766L90.7291 149.027L84.4148 143.758L82.8181 142.974L78.8554 141.886L76.2861 142.249L73.5571 143.555L72.3814 145.181L71.4524 145.442L63.7155 143.308L62.8301 142.597L62.4527 140.42L62.6559 139.128L64.5284 135.15L63.2801 134.483L59.9705 133.728L56.8061 133.67L55.0642 132.944L52.4659 132.828L46.9065 135.121L40.7228 139.52L39.7938 141.131L34.9021 143.845L31.9699 144.426L30.5909 146.139L27.9636 148.389L25.8878 149.144L24.4363 148.926L21.7509 152.671L20.2413 153.789L17.1494 153.237L16.1043 153.426L15.1027 154.877L13.1576 156.213L12.577 155.864L14.6527 150.885L13.9124 147.387L16.0608 144.528L16.4236 143.41L16.0898 141.566L15.1172 139.07L15.2624 138.097L16.293 136.036L16.2204 135.368L11.5609 131.565L9.10776 126.543L8.2078 121.433L8.28036 119.183L10.0222 113.624L12.3302 112.129L12.6641 111.577L12.7512 110.213L10.3851 108.993L10.2255 108.514L10.9222 104.856L12.9979 103.318L12.9689 102.781L9.02067 99.2098L8.96259 97.8598L10.9367 94.4051L10.8787 92.8519L10.6319 92.2423L8.51261 91.531L7.14814 90.5875L6.64013 88.7585L6.72722 84.52L7.00302 83.2861L9.83354 80.862L11.4883 80.2524L12.8818 79.2072L12.4609 78.2927L11.619 77.5379L10.2835 77.117L8.78841 77.3783L8.28036 76.8993L8.14972 76.1735L8.7594 74.78L11.7206 73.5897L12.5335 72.9365L12.4754 71.8333L9.74645 70.4108L4.54987 69.4382L1.84994 66.5931L1.51611 65.2577L2.24189 63.5739L3.70794 62.5143L5.91435 57.4628L7.22074 56.5774L8.68679 56.1855L9.19485 55.6339L7.32236 53.0211L7.59812 52.484L12.2577 48.6809L17.8026 45.7487L18.6155 45.0665L18.9349 43.644L19.9364 42.7004L23.3186 42.6714L25.4088 44.6165L26.3669 46.1261L27.1362 49.3341L29.6909 52.9485L35.7585 55.6484L38.3713 54.8936L41.4341 55.1549L41.9131 54.85L43.0018 52.7453L44.6566 52.2082L45.6291 50.9453L47.3274 49.6534L50.5354 48.5648L52.4659 48.8115L54.6143 49.5809L56.5739 48.9712L60.885 45.4584L65.1671 38.128L66.2122 36.8797L66.5606 35.5443L66.9961 31.8283L66.8219 30.1444L63.5704 23.714L63.643 22.3641L68.346 19.969L71.1766 19.94L73.3539 20.6077L73.9491 21.9576L74.4136 22.2189L77.4909 21.5947L79.5085 20.8109L81.4391 21.3625L83.9213 22.7995L83.7326 23.743L84.0084 24.164L85.1987 24.5704L89.5534 24.4108L91.6872 23.4818L94.1548 23.3366L95.3451 21.5657L97.537 19.6206L101.5 19.1271L102.617 18.6045L103.793 17.182L106.943 17.1965L107.843 18.111L108.293 18.1836L110.993 15.5562L110.848 12.0725L113.736 11.5209L114.883 11.7822L116.407 10.8241L118.585 7.47101L119.252 5.80173L120.544 6.38234L122.228 5.99044L125.422 6.41138L129.515 8.42905L130.154 9.16936L130.066 13.1321L131.112 15.9482L134.32 17.2691L134.711 20.1722L133.376 22.6108L136.032 23.5108L137.426 23.1914L138.616 21.856L142.782 20.5786L143.9 15.382L144.626 14.1192L145.714 13.8869L146.847 14.6563L147.761 14.7288L151.23 13.2482L152.827 11.4483L153.074 10.5919L152.711 8.61776L153.132 8.25487L156.383 7.60167L157.501 4.62596L159.896 3.98727L163.569 1.86798L164.425 1.72284L166.588 2.53571L167.793 4.62596L169.767 5.80173L173.192 6.93394L177.533 7.51458L179.826 9.18387L180.61 11.5789L181.176 11.9709L181.8 11.7531L182.221 9.21291L182.845 8.57422L184.297 8.55969L184.95 9.0242L184.979 9.93869L184.079 11.216L184.732 12.4208L185.458 12.9579L188.506 14.2063L188.535 15.5707L190.306 19.998L191.09 22.0302L192.571 22.4512L193.224 22.3205L195.3 23.4672L195.59 24.5124L194.617 26.1962L194.922 29.3025L196.78 32.9314L199.669 35.762L200.758 37.4313L200.641 41.9602L199.683 44.3117L199.553 45.5891L200.656 49.5809L200.221 50.4228L199.219 51.2211L195.517 52.6727L193.877 51.584L191.395 51.5695L190.93 52.005L190.074 54.2984L190.103 55.4161L191.482 57.7386L193.079 58.6967L193.834 60.8595L195.909 63.0513L196.127 63.6175L195.938 65.6787L195.445 66.2448L195.619 66.8545L196.475 67.6093L199.277 68.9447L199.974 69.9753L200.758 70.4688L203.007 71.3978L207.203 70.1205L208.132 70.0914L208.654 70.6866L202.732 83.5039L197.172 91.0375L195.677 94.4196L188.376 102.752L184.819 104.581L183.557 104.566L183.992 102.49L184.529 102.273L184.732 100.676L184.079 97.8743L181.365 97.5115L180.741 95.6244L179.754 94.5357L179.216 95.4067L178.549 98.7888L177.823 100.052L177.025 100.603L176.212 100.182L175.5 97.6566L175.66 97.1921L176.11 97.0034L176.066 96.4373L174.804 98.3098L176.154 100.763L176.821 101.097L177.358 100.879L179.028 101.256L178.36 103.884L176.604 105.553L176.241 108.195L174.426 109.603L173.918 110.576L173.628 111.795L173.889 113.029L171.93 112.463L171.625 113.029L171.102 116.687L171.625 115.641L172.713 115.946L173.062 116.73L172.728 117.325L172.815 118.225L173.25 118.661L173.729 120.112L172.22 123.756L173.047 128.749L172.249 129.46L171.421 129.141L171.218 130.781L172.075 131.449L173.831 128.952L173.149 125.744L174.339 124.859L174.702 125.643L174.615 128.197L173.221 131.986L172.147 139.868L171.407 142.495L171.697 146.081L172.83 150.218L173.105 156.808L174.368 166.112L175.805 171.077L172.597 180.744L170.638 190.397L169.955 191.863L169.723 196.014L168.185 201.414L168.054 204.796L168.62 211.212L169.912 213.694L166.66 218.02L164.033 218.993L162.669 219.922L158.72 225.568L157.893 228.529L146.15 221.068L145.7 220.299ZM178.041 107.077L177.707 105.335L178.781 104.74L180.32 103.231L180.552 102.302L180.015 101.242L181.118 101.445L182.308 102.969L182.236 103.739L178.041 107.077ZM174.368 117.02L173.454 116.977L173.468 116.004L173.846 115.482L172.684 115.162L172.075 114.582L172.263 113.029L174.978 112.811L175.21 113.101L175.37 114.741L174.368 117.02Z" fill="black"/>
<path d="M145.7 220.299L145.177 219.094L146.164 217.135L146.15 216.365L145.381 214.856L139.386 210.428L139.168 209.688L139.487 207.496L138.66 205.711L137.716 206.059L137.426 206.712L136.932 206.974L136.613 206.611L137.382 200.224L138.573 195.434L139.763 194.156L143.348 194.505L144.829 193.474V192.865L144.016 191.384L144.248 187.537L151.448 181.412L153.582 176.941L152.972 175.243L151.84 173.762L150.548 173.675L149.488 173.123L145.381 169.538L142.303 169.567L139.124 168.696L135.829 167.128L131.866 166.316L128.992 166.112L127.076 167.549L124.942 168.275L121.154 167.622L120.326 167.927L119.688 162.179L110.224 153.179L109.672 152.918L103.3 154.703L101.079 152.903L100.338 153.208L98.9885 152.889L95.3016 151.118L92.1516 148.766L90.7291 149.027L84.4148 143.758L82.8181 142.974L78.8554 141.886L76.2861 142.249L73.5571 143.555L72.3814 145.181L71.4524 145.442L63.7155 143.308L62.8301 142.597L62.4527 140.42L62.6559 139.128L64.5284 135.15L63.2801 134.483L59.9705 133.728L56.8061 133.67L55.0642 132.944L52.4659 132.828L46.9065 135.121L40.7228 139.52L39.7938 141.131L34.9021 143.845L31.9699 144.426L30.5909 146.139L27.9636 148.389L25.8878 149.144L24.4363 148.926L21.7509 152.671L20.2413 153.789L17.1494 153.237L16.1043 153.426L15.1027 154.877L13.1576 156.213L12.577 155.864L14.6527 150.885L13.9124 147.387L16.0608 144.528L16.4236 143.41L16.0898 141.566L15.1172 139.07L15.2624 138.097L16.293 136.036L16.2204 135.368L11.5609 131.565L9.10776 126.543L8.2078 121.433L8.28036 119.183L10.0222 113.624L12.3302 112.129L12.6641 111.577L12.7512 110.213L10.3851 108.993L10.2255 108.514L10.9222 104.856L12.9979 103.318L12.9689 102.781L9.02067 99.2098L8.96259 97.8598L10.9367 94.4051L10.8787 92.8519L10.6319 92.2423L8.51261 91.531L7.14814 90.5875L6.64013 88.7585L6.72722 84.52L7.00302 83.2861L9.83354 80.862L11.4883 80.2524L12.8818 79.2072L12.4609 78.2927L11.619 77.5379L10.2835 77.117L8.78841 77.3783L8.28036 76.8993L8.14972 76.1735L8.7594 74.78L11.7206 73.5897L12.5335 72.9365L12.4754 71.8333L9.74645 70.4108L4.54987 69.4382L1.84994 66.5931L1.51611 65.2577L2.24189 63.5739L3.70794 62.5143L5.91435 57.4628L7.22074 56.5774L8.68679 56.1855L9.19485 55.6339L7.32236 53.0211L7.59812 52.484L12.2577 48.6809L17.8026 45.7487L18.6155 45.0665L18.9349 43.644L19.9364 42.7004L23.3186 42.6714L25.4088 44.6165L26.3669 46.1261L27.1362 49.3341L29.6909 52.9485L35.7585 55.6484L38.3713 54.8936L41.4341 55.1549L41.9131 54.85L43.0018 52.7453L44.6566 52.2082L45.6291 50.9453L47.3274 49.6534L50.5354 48.5648L52.4659 48.8115L54.6143 49.5809L56.5739 48.9712L60.885 45.4584L65.1671 38.128L66.2122 36.8797L66.5606 35.5443L66.9961 31.8283L66.8219 30.1444L63.5704 23.714L63.643 22.3641L68.346 19.969L71.1766 19.94L73.3539 20.6077L73.9491 21.9576L74.4136 22.2189L77.4909 21.5947L79.5085 20.8109L81.4391 21.3625L83.9213 22.7995L83.7326 23.743L84.0084 24.164L85.1987 24.5704L89.5534 24.4108L91.6872 23.4818L94.1548 23.3366L95.3451 21.5657L97.537 19.6206L101.5 19.1271L102.617 18.6045L103.793 17.182L106.943 17.1965L107.843 18.111L108.293 18.1836L110.993 15.5562L110.848 12.0725L113.736 11.5209L114.883 11.7822L116.407 10.8241L118.585 7.47101L119.252 5.80173L120.544 6.38234L122.228 5.99044L125.422 6.41138L129.515 8.42905L130.154 9.16936L130.066 13.1321L131.112 15.9482L134.32 17.2691L134.711 20.1722L133.376 22.6108L136.032 23.5108L137.426 23.1914L138.616 21.856L142.782 20.5786L143.9 15.382L144.626 14.1192L145.714 13.8869L146.847 14.6563L147.761 14.7288L151.23 13.2482L152.827 11.4483L153.074 10.5919L152.711 8.61776L153.132 8.25487L156.383 7.60167L157.501 4.62596L159.896 3.98727L163.569 1.86798L164.425 1.72284L166.588 2.53571L167.793 4.62596L169.767 5.80173L173.192 6.93394L177.533 7.51458L179.826 9.18387L180.61 11.5789L181.176 11.9709L181.8 11.7531L182.221 9.21291L182.845 8.57422L184.297 8.55969L184.95 9.0242L184.979 9.93869L184.079 11.216L184.732 12.4208L185.458 12.9579L188.506 14.2063L188.535 15.5707L190.306 19.998L191.09 22.0302L192.571 22.4512L193.224 22.3205L195.3 23.4672L195.59 24.5124L194.617 26.1962L194.922 29.3025L196.78 32.9314L199.669 35.762L200.758 37.4313L200.641 41.9602L199.683 44.3117L199.553 45.5891L200.656 49.5809L200.221 50.4228L199.219 51.2211L195.517 52.6727L193.877 51.584L191.395 51.5695L190.93 52.005L190.074 54.2984L190.103 55.4161L191.482 57.7386L193.079 58.6967L193.834 60.8595L195.909 63.0513L196.127 63.6175L195.938 65.6787L195.445 66.2448L195.619 66.8545L196.475 67.6093L199.277 68.9447L199.974 69.9753L200.758 70.4688L203.007 71.3978L207.203 70.1205L208.132 70.0914L208.654 70.6866L202.732 83.5039L197.172 91.0375L195.677 94.4196L188.376 102.752L184.819 104.581L183.557 104.566L183.992 102.49L184.529 102.273L184.732 100.676L184.079 97.8743L181.365 97.5115L180.741 95.6244L179.754 94.5357L179.216 95.4067L178.549 98.7888L177.823 100.052L177.025 100.603L176.212 100.182L175.5 97.6566L175.66 97.1921L176.11 97.0034L176.066 96.4373L174.804 98.3098L176.154 100.763L176.821 101.097L177.358 100.879L179.028 101.256L178.36 103.884L176.604 105.553L176.241 108.195L174.426 109.603L173.918 110.576L173.628 111.795L173.889 113.029L171.93 112.463L171.625 113.029L171.102 116.687L171.625 115.641L172.713 115.946L173.062 116.73L172.728 117.325L172.815 118.225L173.25 118.661L173.729 120.112L172.22 123.756L173.047 128.749L172.249 129.46L171.421 129.141L171.218 130.781L172.075 131.449L173.831 128.952L173.149 125.744L174.339 124.859L174.702 125.643L174.615 128.197L173.221 131.986L172.147 139.868L171.407 142.495L171.697 146.081L172.83 150.218L173.105 156.808L174.368 166.112L175.805 171.077L172.597 180.744L170.638 190.397L169.955 191.863L169.723 196.014L168.185 201.414L168.054 204.796L168.62 211.212L169.912 213.694L166.66 218.02L164.033 218.993L162.669 219.922L158.72 225.568L157.893 228.529L146.15 221.068L145.7 220.299ZM178.041 107.077L177.707 105.335L178.781 104.74L180.32 103.231L180.552 102.302L180.015 101.242L181.118 101.445L182.308 102.969L182.236 103.739L178.041 107.077ZM174.368 117.02L173.454 116.977L173.468 116.004L173.846 115.482L172.684 115.162L172.075 114.582L172.263 113.029L174.978 112.811L175.21 113.101L175.37 114.741L174.368 117.02Z" stroke="white" stroke-width="2" mask="url(#path-1-outside-1_2_38)"/>
</svg>
