<svg width="96" height="116" viewBox="0 0 96 116" fill="none" xmlns="http://www.w3.org/2000/svg">
<mask id="path-1-inside-1_2_39" fill="white">
<path d="M95.8927 46.6774L88.7947 48.9854L85.006 51.903L80.2159 61.614L78.9966 63.2397L77.7338 64.0671L76.7902 66.4912L77.008 67.5654L74.9757 71.1072L72.8564 73.299L72.029 74.8958L70.534 75.2732L69.4017 74.5329L68.6615 74.6345L67.4421 75.9119L65.3955 79.1779L64.9019 82.0374L65.8309 82.2842L66.7889 81.7326L66.6728 82.5165L65.4535 84.1858L63.9583 88.5405L64.7132 90.442L63.7552 92.3435L62.173 93.258L61.9262 93.8096L61.752 95.1596L62.1004 95.7547L62.9423 96.1757L63.4503 97.2208L63.4213 99.6304L65.2212 100.922L66.2228 101.038L66.7164 102.766L64.3794 107.832L62.652 109.457L62.8987 109.82L60.5907 110.532L59.0376 111.736L56.8022 115.06L54.4071 115.133L53.4926 112.753L52.3604 111.925L50.3863 111.228L48.9202 109.675L48.2524 108.238L45.5961 107.033L41.4591 104.275L36.9884 103.666L35.1158 103.811L32.0095 104.972L29.6435 105.248L28.3516 104.9L21.1954 104.609L21.2825 102.693L20.2954 101.706L20.1793 100.298L21.8341 95.7837L24.0114 92.5177L24.0259 91.5162L22.9082 89.8323L19.1922 89.1501L17.2907 88.2066L15.8246 84.3309L14.3005 76.7828L13.1973 73.0523L13.5456 72.3991L12.1811 60.5543L12.0215 60.0027L10.6861 59.0011L11.8473 58.1592L12.7037 55.8658L11.8328 51.5256L10.3812 48.608L11.0779 46.2855L9.93124 40.6679L11.0054 38.6938L11.0344 37.5906L9.06025 35.2826L8.42165 32.7714L3.84919 23.4524L1.23635 16.601L0.81543 14.7285L1.0767 12.6092L3.37015 9.74964L4.95239 7.06424L5.11204 5.90299L5.38784 5.69977L5.32977 4.79981L4.74915 3.84177L5.69266 2.66601L15.4762 2.34666L19.6713 1.72249L22.6759 0.764465L33.4175 1.9112L36.4948 3.53694L39.3108 5.7143L45.2913 8.87869L47.4106 9.63351L54.4071 13.9882L56.1635 14.2785L59.386 17.6026L63.7261 20.6654L67.4567 21.7105L70.9985 25.9346L72.7693 26.82L77.066 32.3505L83.1045 36.8213L85.2238 39.7244L86.7334 41.1615L88.9107 42.3517L90.58 42.3953L94.0202 43.7307L95.1669 44.7033L95.8927 46.6774Z"/>
</mask>
<path d="M95.8927 46.6774L88.7947 48.9854L85.006 51.903L80.2159 61.614L78.9966 63.2397L77.7338 64.0671L76.7902 66.4912L77.008 67.5654L74.9757 71.1072L72.8564 73.299L72.029 74.8958L70.534 75.2732L69.4017 74.5329L68.6615 74.6345L67.4421 75.9119L65.3955 79.1779L64.9019 82.0374L65.8309 82.2842L66.7889 81.7326L66.6728 82.5165L65.4535 84.1858L63.9583 88.5405L64.7132 90.442L63.7552 92.3435L62.173 93.258L61.9262 93.8096L61.752 95.1596L62.1004 95.7547L62.9423 96.1757L63.4503 97.2208L63.4213 99.6304L65.2212 100.922L66.2228 101.038L66.7164 102.766L64.3794 107.832L62.652 109.457L62.8987 109.82L60.5907 110.532L59.0376 111.736L56.8022 115.06L54.4071 115.133L53.4926 112.753L52.3604 111.925L50.3863 111.228L48.9202 109.675L48.2524 108.238L45.5961 107.033L41.4591 104.275L36.9884 103.666L35.1158 103.811L32.0095 104.972L29.6435 105.248L28.3516 104.9L21.1954 104.609L21.2825 102.693L20.2954 101.706L20.1793 100.298L21.8341 95.7837L24.0114 92.5177L24.0259 91.5162L22.9082 89.8323L19.1922 89.1501L17.2907 88.2066L15.8246 84.3309L14.3005 76.7828L13.1973 73.0523L13.5456 72.3991L12.1811 60.5543L12.0215 60.0027L10.6861 59.0011L11.8473 58.1592L12.7037 55.8658L11.8328 51.5256L10.3812 48.608L11.0779 46.2855L9.93124 40.6679L11.0054 38.6938L11.0344 37.5906L9.06025 35.2826L8.42165 32.7714L3.84919 23.4524L1.23635 16.601L0.81543 14.7285L1.0767 12.6092L3.37015 9.74964L4.95239 7.06424L5.11204 5.90299L5.38784 5.69977L5.32977 4.79981L4.74915 3.84177L5.69266 2.66601L15.4762 2.34666L19.6713 1.72249L22.6759 0.764465L33.4175 1.9112L36.4948 3.53694L39.3108 5.7143L45.2913 8.87869L47.4106 9.63351L54.4071 13.9882L56.1635 14.2785L59.386 17.6026L63.7261 20.6654L67.4567 21.7105L70.9985 25.9346L72.7693 26.82L77.066 32.3505L83.1045 36.8213L85.2238 39.7244L86.7334 41.1615L88.9107 42.3517L90.58 42.3953L94.0202 43.7307L95.1669 44.7033L95.8927 46.6774Z" fill="black" stroke="white" stroke-width="2" mask="url(#path-1-inside-1_2_39)"/>
</svg>
