<svg width="127" height="90" viewBox="0 0 127 90" fill="none" xmlns="http://www.w3.org/2000/svg">
<mask id="path-1-outside-1_2_56" maskUnits="userSpaceOnUse" x="-0.14917" y="-0.177002" width="127" height="90" fill="black">
<rect fill="white" x="-0.14917" y="-0.177002" width="127" height="90"/>
<path d="M95.5782 86.9861L94.925 87.0297L93.2267 85.7959L92.1671 84.4604L89.859 83.546L87.7107 84.7362L87.6962 86.1298L88.1027 87.5377L87.7107 87.8281L85.0979 86.1298L85.156 84.083L87.014 81.6299L88.7268 81.3395L89.4961 79.438L90.0333 77.1881L89.7139 74.0092L90.7735 71.3093L92.617 70.6997L95.6363 68.4062L94.3589 65.0095L89.4961 64.516L86.4334 65.0966L76.7224 63.5579L75.0386 62.7741L71.8887 58.913L71.1774 56.7646L68.8114 53.5567L64.4131 48.4907L62.1342 47.0536L61.1036 47.0972L59.1149 44.8473L51.0443 39.7087L48.4169 40.2023L48.2863 40.899L45.9638 40.6232L44.5122 37.0814L40.9269 35.0637L37.6318 33.7138L33.582 33.9461L31.3465 33.6848L27.587 34.2799L24.8145 32.6106L21.084 33.1332L18.718 31.7106L14.2471 31.7542L14.4649 30.4043L12.5053 29.5623L11.6924 30.7381L6.96031 32.422L1.85083 31.8558L3.95557 27.6028L5.01523 24.569L4.17329 19.8514L4.76844 15.1919L4.71041 11.4904L6.1039 8.95013L11.3731 8.97919L12.4037 8.42759L13.173 8.44212L14.7117 8.79048L15.1616 9.53079L18.1083 11.5775L21.9985 11.621L25.3952 10.7791L33.0739 13.2177L39.2576 13.7403L40.7382 14.6548L40.9849 15.25L43.2639 16.9628L48.7363 17.5724L54.9054 17.3838L56.836 20.1417L57.0973 19.4159L58.1714 18.8643L59.5069 18.8353L60.7697 17.5869L59.5359 13.2468L60.5375 10.9533L61.5826 9.82108L64.4857 8.16632L69.6678 8.74694L72.3822 7.33892L73.4419 6.07607L74.2983 3.92774L76.5192 2.98423L78.1304 2.78099L80.1917 3.88419L81.3674 3.92774L84.7495 3.681L88.872 2.62134L89.9606 2.63587L91.4703 3.21649L95.9992 6.99056L97.7846 7.89052L99.8748 8.12277L104.738 5.03094L106.697 2.95522L108.962 2.12781L109.136 2.6939L110.239 2.79552L112.765 2.46164L113.244 1.823L120.85 1.86654L120.284 3.78257L121.024 6.17769L120.923 6.74377L118.745 8.39857L117.323 7.70181L116.132 4.02936L116.103 5.6551L116.96 9.60335L119.442 12.013L120.255 13.392L118.789 16.716L118.556 20.0837L118.702 20.7078L119.805 21.7675L120.182 30.2736L120.632 31.0719L121.256 31.3623L122.374 30.6219L122.882 31.6671L123.027 32.93L122.345 33.0171L121.721 32.6106L119.993 33.5251L119.5 39.0991L120.327 42.8586L119.5 43.9473L119.95 46.7489L121.271 49.4778L120.023 52.8744L119.268 58.6952L116.786 65.4885L116.292 65.3434L115.769 64.2402L116.074 62.8321L114.739 61.1193L114.361 61.5983L114.623 65.1256L116.306 66.3304L114.971 68.74L112.591 69.6835L106.596 74.0963L102.531 77.8123L97.0878 84.2572L95.5782 86.9861ZM121.532 48.4472L121.314 47.7649L121.677 45.2247L122.781 41.741L122.2 40.0281L122.432 38.5475L124.464 37.4443L124.784 37.5314L125.742 38.8959L124.958 42.6119L123.768 43.8602L122.911 45.6311L123.201 47.3294L121.532 48.4472ZM120.879 13.0726L118.164 10.1404L121.866 6.59861L122.229 6.65668L123.172 8.1808L121.924 10.0969L120.879 13.0726Z"/>
</mask>
<path d="M95.5782 86.9861L94.925 87.0297L93.2267 85.7959L92.1671 84.4604L89.859 83.546L87.7107 84.7362L87.6962 86.1298L88.1027 87.5377L87.7107 87.8281L85.0979 86.1298L85.156 84.083L87.014 81.6299L88.7268 81.3395L89.4961 79.438L90.0333 77.1881L89.7139 74.0092L90.7735 71.3093L92.617 70.6997L95.6363 68.4062L94.3589 65.0095L89.4961 64.516L86.4334 65.0966L76.7224 63.5579L75.0386 62.7741L71.8887 58.913L71.1774 56.7646L68.8114 53.5567L64.4131 48.4907L62.1342 47.0536L61.1036 47.0972L59.1149 44.8473L51.0443 39.7087L48.4169 40.2023L48.2863 40.899L45.9638 40.6232L44.5122 37.0814L40.9269 35.0637L37.6318 33.7138L33.582 33.9461L31.3465 33.6848L27.587 34.2799L24.8145 32.6106L21.084 33.1332L18.718 31.7106L14.2471 31.7542L14.4649 30.4043L12.5053 29.5623L11.6924 30.7381L6.96031 32.422L1.85083 31.8558L3.95557 27.6028L5.01523 24.569L4.17329 19.8514L4.76844 15.1919L4.71041 11.4904L6.1039 8.95013L11.3731 8.97919L12.4037 8.42759L13.173 8.44212L14.7117 8.79048L15.1616 9.53079L18.1083 11.5775L21.9985 11.621L25.3952 10.7791L33.0739 13.2177L39.2576 13.7403L40.7382 14.6548L40.9849 15.25L43.2639 16.9628L48.7363 17.5724L54.9054 17.3838L56.836 20.1417L57.0973 19.4159L58.1714 18.8643L59.5069 18.8353L60.7697 17.5869L59.5359 13.2468L60.5375 10.9533L61.5826 9.82108L64.4857 8.16632L69.6678 8.74694L72.3822 7.33892L73.4419 6.07607L74.2983 3.92774L76.5192 2.98423L78.1304 2.78099L80.1917 3.88419L81.3674 3.92774L84.7495 3.681L88.872 2.62134L89.9606 2.63587L91.4703 3.21649L95.9992 6.99056L97.7846 7.89052L99.8748 8.12277L104.738 5.03094L106.697 2.95522L108.962 2.12781L109.136 2.6939L110.239 2.79552L112.765 2.46164L113.244 1.823L120.85 1.86654L120.284 3.78257L121.024 6.17769L120.923 6.74377L118.745 8.39857L117.323 7.70181L116.132 4.02936L116.103 5.6551L116.96 9.60335L119.442 12.013L120.255 13.392L118.789 16.716L118.556 20.0837L118.702 20.7078L119.805 21.7675L120.182 30.2736L120.632 31.0719L121.256 31.3623L122.374 30.6219L122.882 31.6671L123.027 32.93L122.345 33.0171L121.721 32.6106L119.993 33.5251L119.5 39.0991L120.327 42.8586L119.5 43.9473L119.95 46.7489L121.271 49.4778L120.023 52.8744L119.268 58.6952L116.786 65.4885L116.292 65.3434L115.769 64.2402L116.074 62.8321L114.739 61.1193L114.361 61.5983L114.623 65.1256L116.306 66.3304L114.971 68.74L112.591 69.6835L106.596 74.0963L102.531 77.8123L97.0878 84.2572L95.5782 86.9861ZM121.532 48.4472L121.314 47.7649L121.677 45.2247L122.781 41.741L122.2 40.0281L122.432 38.5475L124.464 37.4443L124.784 37.5314L125.742 38.8959L124.958 42.6119L123.768 43.8602L122.911 45.6311L123.201 47.3294L121.532 48.4472ZM120.879 13.0726L118.164 10.1404L121.866 6.59861L122.229 6.65668L123.172 8.1808L121.924 10.0969L120.879 13.0726Z" fill="black"/>
<path d="M95.5782 86.9861L94.925 87.0297L93.2267 85.7959L92.1671 84.4604L89.859 83.546L87.7107 84.7362L87.6962 86.1298L88.1027 87.5377L87.7107 87.8281L85.0979 86.1298L85.156 84.083L87.014 81.6299L88.7268 81.3395L89.4961 79.438L90.0333 77.1881L89.7139 74.0092L90.7735 71.3093L92.617 70.6997L95.6363 68.4062L94.3589 65.0095L89.4961 64.516L86.4334 65.0966L76.7224 63.5579L75.0386 62.7741L71.8887 58.913L71.1774 56.7646L68.8114 53.5567L64.4131 48.4907L62.1342 47.0536L61.1036 47.0972L59.1149 44.8473L51.0443 39.7087L48.4169 40.2023L48.2863 40.899L45.9638 40.6232L44.5122 37.0814L40.9269 35.0637L37.6318 33.7138L33.582 33.9461L31.3465 33.6848L27.587 34.2799L24.8145 32.6106L21.084 33.1332L18.718 31.7106L14.2471 31.7542L14.4649 30.4043L12.5053 29.5623L11.6924 30.7381L6.96031 32.422L1.85083 31.8558L3.95557 27.6028L5.01523 24.569L4.17329 19.8514L4.76844 15.1919L4.71041 11.4904L6.1039 8.95013L11.3731 8.97919L12.4037 8.42759L13.173 8.44212L14.7117 8.79048L15.1616 9.53079L18.1083 11.5775L21.9985 11.621L25.3952 10.7791L33.0739 13.2177L39.2576 13.7403L40.7382 14.6548L40.9849 15.25L43.2639 16.9628L48.7363 17.5724L54.9054 17.3838L56.836 20.1417L57.0973 19.4159L58.1714 18.8643L59.5069 18.8353L60.7697 17.5869L59.5359 13.2468L60.5375 10.9533L61.5826 9.82108L64.4857 8.16632L69.6678 8.74694L72.3822 7.33892L73.4419 6.07607L74.2983 3.92774L76.5192 2.98423L78.1304 2.78099L80.1917 3.88419L81.3674 3.92774L84.7495 3.681L88.872 2.62134L89.9606 2.63587L91.4703 3.21649L95.9992 6.99056L97.7846 7.89052L99.8748 8.12277L104.738 5.03094L106.697 2.95522L108.962 2.12781L109.136 2.6939L110.239 2.79552L112.765 2.46164L113.244 1.823L120.85 1.86654L120.284 3.78257L121.024 6.17769L120.923 6.74377L118.745 8.39857L117.323 7.70181L116.132 4.02936L116.103 5.6551L116.96 9.60335L119.442 12.013L120.255 13.392L118.789 16.716L118.556 20.0837L118.702 20.7078L119.805 21.7675L120.182 30.2736L120.632 31.0719L121.256 31.3623L122.374 30.6219L122.882 31.6671L123.027 32.93L122.345 33.0171L121.721 32.6106L119.993 33.5251L119.5 39.0991L120.327 42.8586L119.5 43.9473L119.95 46.7489L121.271 49.4778L120.023 52.8744L119.268 58.6952L116.786 65.4885L116.292 65.3434L115.769 64.2402L116.074 62.8321L114.739 61.1193L114.361 61.5983L114.623 65.1256L116.306 66.3304L114.971 68.74L112.591 69.6835L106.596 74.0963L102.531 77.8123L97.0878 84.2572L95.5782 86.9861ZM121.532 48.4472L121.314 47.7649L121.677 45.2247L122.781 41.741L122.2 40.0281L122.432 38.5475L124.464 37.4443L124.784 37.5314L125.742 38.8959L124.958 42.6119L123.768 43.8602L122.911 45.6311L123.201 47.3294L121.532 48.4472ZM120.879 13.0726L118.164 10.1404L121.866 6.59861L122.229 6.65668L123.172 8.1808L121.924 10.0969L120.879 13.0726Z" stroke="white" stroke-width="2" mask="url(#path-1-outside-1_2_56)"/>
</svg>
