<svg width="151" height="108" viewBox="0 0 151 108" fill="none" xmlns="http://www.w3.org/2000/svg">
<mask id="path-1-outside-1_2_50" maskUnits="userSpaceOnUse" x="-0.756592" y="-0.52887" width="152" height="108" fill="black">
<rect fill="white" x="-0.756592" y="-0.52887" width="152" height="108"/>
<path d="M137.908 86.9101L130.302 86.8666L129.823 87.5053L127.297 87.8536L126.194 87.752L126.034 87.1859L123.755 88.0133L121.796 90.089L116.933 93.1808L114.843 92.9486L113.057 92.0486L108.514 88.2746L107.019 87.7085L105.916 87.6939L101.793 88.7536L98.411 89.0004L97.2352 88.9568L95.174 87.8536L93.5628 88.0568L91.3419 89.0004L90.4854 91.1342L89.4258 92.397L86.7114 93.8195L81.5293 93.2244L78.6262 94.8937L77.5811 96.0114L76.5795 98.3194L77.8133 102.66L76.5505 103.908L75.215 103.937L74.1263 104.489L73.8796 105.2L71.949 102.456L65.7799 102.645L60.322 102.021L58.0285 100.308L57.7963 99.7129L56.3012 98.7984L50.1175 98.2758L42.4388 95.8372L39.0421 96.6646L35.1374 96.6211L32.2052 94.5744L31.7407 93.8341L30.2021 93.4857L29.4327 93.4712L28.4021 94.0082L23.1329 93.9792L22.8136 92.2228L19.1412 86.1553L19.1702 82.3957L17.7331 78.2152L12.7688 74.775L11.1866 76.4153L8.10927 76.2557L6.51259 76.8798L4.9594 78.1862L2.84014 76.6185L1.64984 76.7056L1.24341 73.5122L2.20144 71.2332L3.75458 69.3897L5.52549 66.2254L5.61258 65.7318L4.90133 64.6432L4.93039 62.8432L6.23679 57.5595L8.06572 53.1758L7.70283 49.8372L9.56083 46.3825L9.25602 44.9019L8.03671 43.6245L7.58673 41.302L8.54477 39.7634L9.69151 38.9795L13.1462 36.7151L13.6688 35.5248L15.9477 24.0284L16.4267 23.5204L18.038 23.0559L20.4476 21.5898L21.4201 20.6027L23.5249 15.4352L23.4958 13.7659L24.8458 10.3837L26.457 9.19345L34.31 5.89842L39.0421 2.57433L44.6016 3.51784L50.4223 3.35819L55.1689 3.77911L56.9253 2.87915L57.4334 2.0082L58.493 1.47113L60.1913 1.8921L62.3397 3.02431L65.9976 3.69202L69.8297 5.27422L71.7313 5.46293L73.2845 4.67907L77.0295 4.66459L78.1617 6.11615L80.7019 7.33545L85.7969 8.49669L86.7114 9.237L87.742 11.1531L90.2532 11.2546L90.8629 10.7611L93.2579 10.9789L94.216 11.7627L101.924 11.9514L106.235 10.7176L107.875 12.9675L113.086 17.0754L114.378 19.6302L114.393 23.6075L113.827 24.4494L113.594 25.6252L114.146 28.296L116.033 30.4878L115.917 33.0426L115.394 33.8555L117.557 38.2102L119.313 39.8795L120.286 40.2859L121.012 41.273L120.939 42.5649L122.275 45.4244L123.146 45.8454L123.508 46.4841L123.146 48.0082L121.302 51.1001L121.767 54.0613L122.638 54.6129L124.104 54.9177L127.558 54.7435L132.523 53.9742L133.248 54.5402L135.542 54.2644L137.85 54.4532L140.187 56.2821L139.984 56.8773L138.692 57.8208L137.69 62.6109L138.198 63.7431L139.751 64.5125L140.695 63.2787L142.292 59.2724L143.395 59.0256L146.501 59.8675L145.921 62.698L146.98 67.4882L149.042 68.3301L149.274 70.2462L147.314 71.7267L146.429 73.8751L145.63 73.7009L146.022 70.8849L148.112 69.5059L146.066 69.9123L144.774 70.6236L143.511 70.5945L143.017 70.0284L142.19 69.7817L141.406 70.3187L141 71.6687L141.755 72.8299L140.695 74.2234L140.26 74.3686L136.66 73.5993L135.513 72.8154L134.86 72.9896L134.598 74.296L135.092 74.8331L137.429 75.646L139.461 75.2831L142.553 76.154L142.945 76.8508L141.537 77.8379L139.301 81.8732L137.502 82.9909L133.989 83.8183L133.698 84.4715L137.981 84.1812L138.198 85.9085L137.908 86.9101Z"/>
</mask>
<path d="M137.908 86.9101L130.302 86.8666L129.823 87.5053L127.297 87.8536L126.194 87.752L126.034 87.1859L123.755 88.0133L121.796 90.089L116.933 93.1808L114.843 92.9486L113.057 92.0486L108.514 88.2746L107.019 87.7085L105.916 87.6939L101.793 88.7536L98.411 89.0004L97.2352 88.9568L95.174 87.8536L93.5628 88.0568L91.3419 89.0004L90.4854 91.1342L89.4258 92.397L86.7114 93.8195L81.5293 93.2244L78.6262 94.8937L77.5811 96.0114L76.5795 98.3194L77.8133 102.66L76.5505 103.908L75.215 103.937L74.1263 104.489L73.8796 105.2L71.949 102.456L65.7799 102.645L60.322 102.021L58.0285 100.308L57.7963 99.7129L56.3012 98.7984L50.1175 98.2758L42.4388 95.8372L39.0421 96.6646L35.1374 96.6211L32.2052 94.5744L31.7407 93.8341L30.2021 93.4857L29.4327 93.4712L28.4021 94.0082L23.1329 93.9792L22.8136 92.2228L19.1412 86.1553L19.1702 82.3957L17.7331 78.2152L12.7688 74.775L11.1866 76.4153L8.10927 76.2557L6.51259 76.8798L4.9594 78.1862L2.84014 76.6185L1.64984 76.7056L1.24341 73.5122L2.20144 71.2332L3.75458 69.3897L5.52549 66.2254L5.61258 65.7318L4.90133 64.6432L4.93039 62.8432L6.23679 57.5595L8.06572 53.1758L7.70283 49.8372L9.56083 46.3825L9.25602 44.9019L8.03671 43.6245L7.58673 41.302L8.54477 39.7634L9.69151 38.9795L13.1462 36.7151L13.6688 35.5248L15.9477 24.0284L16.4267 23.5204L18.038 23.0559L20.4476 21.5898L21.4201 20.6027L23.5249 15.4352L23.4958 13.7659L24.8458 10.3837L26.457 9.19345L34.31 5.89842L39.0421 2.57433L44.6016 3.51784L50.4223 3.35819L55.1689 3.77911L56.9253 2.87915L57.4334 2.0082L58.493 1.47113L60.1913 1.8921L62.3397 3.02431L65.9976 3.69202L69.8297 5.27422L71.7313 5.46293L73.2845 4.67907L77.0295 4.66459L78.1617 6.11615L80.7019 7.33545L85.7969 8.49669L86.7114 9.237L87.742 11.1531L90.2532 11.2546L90.8629 10.7611L93.2579 10.9789L94.216 11.7627L101.924 11.9514L106.235 10.7176L107.875 12.9675L113.086 17.0754L114.378 19.6302L114.393 23.6075L113.827 24.4494L113.594 25.6252L114.146 28.296L116.033 30.4878L115.917 33.0426L115.394 33.8555L117.557 38.2102L119.313 39.8795L120.286 40.2859L121.012 41.273L120.939 42.5649L122.275 45.4244L123.146 45.8454L123.508 46.4841L123.146 48.0082L121.302 51.1001L121.767 54.0613L122.638 54.6129L124.104 54.9177L127.558 54.7435L132.523 53.9742L133.248 54.5402L135.542 54.2644L137.85 54.4532L140.187 56.2821L139.984 56.8773L138.692 57.8208L137.69 62.6109L138.198 63.7431L139.751 64.5125L140.695 63.2787L142.292 59.2724L143.395 59.0256L146.501 59.8675L145.921 62.698L146.98 67.4882L149.042 68.3301L149.274 70.2462L147.314 71.7267L146.429 73.8751L145.63 73.7009L146.022 70.8849L148.112 69.5059L146.066 69.9123L144.774 70.6236L143.511 70.5945L143.017 70.0284L142.19 69.7817L141.406 70.3187L141 71.6687L141.755 72.8299L140.695 74.2234L140.26 74.3686L136.66 73.5993L135.513 72.8154L134.86 72.9896L134.598 74.296L135.092 74.8331L137.429 75.646L139.461 75.2831L142.553 76.154L142.945 76.8508L141.537 77.8379L139.301 81.8732L137.502 82.9909L133.989 83.8183L133.698 84.4715L137.981 84.1812L138.198 85.9085L137.908 86.9101Z" fill="black"/>
<path d="M137.908 86.9101L130.302 86.8666L129.823 87.5053L127.297 87.8536L126.194 87.752L126.034 87.1859L123.755 88.0133L121.796 90.089L116.933 93.1808L114.843 92.9486L113.057 92.0486L108.514 88.2746L107.019 87.7085L105.916 87.6939L101.793 88.7536L98.411 89.0004L97.2352 88.9568L95.174 87.8536L93.5628 88.0568L91.3419 89.0004L90.4854 91.1342L89.4258 92.397L86.7114 93.8195L81.5293 93.2244L78.6262 94.8937L77.5811 96.0114L76.5795 98.3194L77.8133 102.66L76.5505 103.908L75.215 103.937L74.1263 104.489L73.8796 105.2L71.949 102.456L65.7799 102.645L60.322 102.021L58.0285 100.308L57.7963 99.7129L56.3012 98.7984L50.1175 98.2758L42.4388 95.8372L39.0421 96.6646L35.1374 96.6211L32.2052 94.5744L31.7407 93.8341L30.2021 93.4857L29.4327 93.4712L28.4021 94.0082L23.1329 93.9792L22.8136 92.2228L19.1412 86.1553L19.1702 82.3957L17.7331 78.2152L12.7688 74.775L11.1866 76.4153L8.10927 76.2557L6.51259 76.8798L4.9594 78.1862L2.84014 76.6185L1.64984 76.7056L1.24341 73.5122L2.20144 71.2332L3.75458 69.3897L5.52549 66.2254L5.61258 65.7318L4.90133 64.6432L4.93039 62.8432L6.23679 57.5595L8.06572 53.1758L7.70283 49.8372L9.56083 46.3825L9.25602 44.9019L8.03671 43.6245L7.58673 41.302L8.54477 39.7634L9.69151 38.9795L13.1462 36.7151L13.6688 35.5248L15.9477 24.0284L16.4267 23.5204L18.038 23.0559L20.4476 21.5898L21.4201 20.6027L23.5249 15.4352L23.4958 13.7659L24.8458 10.3837L26.457 9.19345L34.31 5.89842L39.0421 2.57433L44.6016 3.51784L50.4223 3.35819L55.1689 3.77911L56.9253 2.87915L57.4334 2.0082L58.493 1.47113L60.1913 1.8921L62.3397 3.02431L65.9976 3.69202L69.8297 5.27422L71.7313 5.46293L73.2845 4.67907L77.0295 4.66459L78.1617 6.11615L80.7019 7.33545L85.7969 8.49669L86.7114 9.237L87.742 11.1531L90.2532 11.2546L90.8629 10.7611L93.2579 10.9789L94.216 11.7627L101.924 11.9514L106.235 10.7176L107.875 12.9675L113.086 17.0754L114.378 19.6302L114.393 23.6075L113.827 24.4494L113.594 25.6252L114.146 28.296L116.033 30.4878L115.917 33.0426L115.394 33.8555L117.557 38.2102L119.313 39.8795L120.286 40.2859L121.012 41.273L120.939 42.5649L122.275 45.4244L123.146 45.8454L123.508 46.4841L123.146 48.0082L121.302 51.1001L121.767 54.0613L122.638 54.6129L124.104 54.9177L127.558 54.7435L132.523 53.9742L133.248 54.5402L135.542 54.2644L137.85 54.4532L140.187 56.2821L139.984 56.8773L138.692 57.8208L137.69 62.6109L138.198 63.7431L139.751 64.5125L140.695 63.2787L142.292 59.2724L143.395 59.0256L146.501 59.8675L145.921 62.698L146.98 67.4882L149.042 68.3301L149.274 70.2462L147.314 71.7267L146.429 73.8751L145.63 73.7009L146.022 70.8849L148.112 69.5059L146.066 69.9123L144.774 70.6236L143.511 70.5945L143.017 70.0284L142.19 69.7817L141.406 70.3187L141 71.6687L141.755 72.8299L140.695 74.2234L140.26 74.3686L136.66 73.5993L135.513 72.8154L134.86 72.9896L134.598 74.296L135.092 74.8331L137.429 75.646L139.461 75.2831L142.553 76.154L142.945 76.8508L141.537 77.8379L139.301 81.8732L137.502 82.9909L133.989 83.8183L133.698 84.4715L137.981 84.1812L138.198 85.9085L137.908 86.9101Z" stroke="white" stroke-width="2" mask="url(#path-1-outside-1_2_50)"/>
</svg>
