<svg width="115" height="129" viewBox="0 0 115 129" fill="none" xmlns="http://www.w3.org/2000/svg">
<mask id="path-1-outside-1_2_37" maskUnits="userSpaceOnUse" x="0.614502" y="0.0751648" width="114" height="129" fill="black">
<rect fill="white" x="0.614502" y="0.0751648" width="114" height="129"/>
<path d="M67.7606 126.721L66.3962 126.634L65.2784 127.127L63.3914 127.301L59.3415 126.314L57.2368 124.819L56.6126 122.642L53.8982 120.624L53.7385 118.737L54.0434 117.736L53.5934 115.442L53.1144 114.76L51.7354 114.484L51.1402 113.12L51.2563 109.592L47.0033 104.831L45.871 105.354L44.6808 105.078L42.5034 100.027L42.6921 97.7331L41.8357 95.1058L40.9357 94.2929L39.9632 92.1011L39.6874 89.0383L40.3116 84.4804L40.0648 84.0013L36.3343 82.9417L33.4021 79.6612L32.2989 75.5532L32.5747 74.5081L33.5618 74.1743L32.8505 72.4614L31.8635 72.505L27.741 68.6438L26.3766 68.847L25.825 69.4567L23.8944 69.6599L22.6751 69.268L21.5138 67.8455L19.8591 66.6261L18.1317 66.452L17.4204 64.594L16.4479 63.4327L13.6464 61.9086L11.7739 61.1973L6.85304 60.6602L5.28537 61.0812L3.58702 61.0521L3.13704 60.2683L2.78868 58.1781L3.15157 51.588L4.05153 49.7009L3.51446 46.3623L2.6145 45.5349L3.12256 45.2301L4.55959 45.6656L4.54506 46.8413L4.12414 47.1026L4.61767 48.5106L6.75146 48.4236L7.94171 48.7574L8.44977 50.0638L9.66907 51.0944L12.9351 52.2267L17.7107 53.3153L21.7171 50.7315L22.2251 49.6284L24.7363 47.93L25.9411 47.5091L26.9427 48.8735L30.8764 50.238L32.4441 50.0638L34.9408 48.5977L35.115 47.9881L35.5795 48.0316L37.6987 49.9187L37.4085 51.1815L40.8487 50.9348L41.589 51.6605L42.9679 51.9073L43.8679 51.8928L45.1888 51.196L47.6129 49.0187L50.1967 47.422L52.737 44.0834L53.274 42.6318L52.9837 41.848L57.5271 32.4128L57.6868 29.771L59.298 27.8839L60.3577 27.6081L65.5833 19.2036L65.9171 17.5343L67.1364 15.7924L69.7347 13.5425L70.6492 11.1329L73.712 9.47813L74.3942 8.1427L75.9039 7.30079L76.7168 9.42007L77.9941 11.3942L75.57 4.4267L75.4684 2.55418L75.7297 2.07516L80.6215 5.58795L82.2763 7.34434L83.5972 9.11524L84.352 10.8426L84.3955 13.1361L85.0342 13.5861L85.4987 12.8893L86.0503 12.7441L86.3551 13.3248L86.66 24.7776L87.618 30.3951L91.5517 39.1771L95.4129 52.1541L100.232 59.4119L101.698 59.9199L106.445 59.8038L110.48 61.1683L112.353 62.4021L113.47 66.2487L113.238 71.0824L111.366 72.4759L108.854 73.1001L108.303 73.5791L110.901 73.3614L112.411 72.7517L112.817 73.0856L112.991 73.942L112.745 75.0017L105.443 80.895L103.745 83.9433L100.624 85.99L97.808 91.3898L93.5839 96.4703L92.5678 97.138L91.2034 97.0073L89.0986 97.7622L86.0793 102.088L84.1343 102.189L83.0456 103.496L80.9118 105.934L79.5038 109.157L77.878 111.871L76.6587 112.815L72.2895 117.823L71.7669 121.306L72.0137 123.919L69.1831 126.547L67.7606 126.721ZM101.669 58.5119L101.016 58.0329L99.4192 55.333L99.5208 54.0556L99.8547 53.4605L102.264 52.8073L102.888 53.3734L104.093 56.6684L102.656 58.2651L101.669 58.5119ZM105.283 84.0739L104.703 83.711L104.587 82.6804L106.198 81.0837L107.475 80.866L109.29 81.2143L109.958 81.0547L110.596 80.1257L110.669 80.9821L109.261 83.0723L107.824 83.7981L105.283 84.0739ZM110.277 79.9079L109.145 79.5741V78.7612L110.19 77.2516L112.004 77.1064L112.266 77.6145L112.12 78.3548L110.277 79.9079ZM99.8401 53.1702L98.737 52.4444L99.1144 51.2396L100.392 50.9928L101.64 51.4573L101.655 52.517L99.8401 53.1702Z"/>
</mask>
<path d="M67.7606 126.721L66.3962 126.634L65.2784 127.127L63.3914 127.301L59.3415 126.314L57.2368 124.819L56.6126 122.642L53.8982 120.624L53.7385 118.737L54.0434 117.736L53.5934 115.442L53.1144 114.76L51.7354 114.484L51.1402 113.12L51.2563 109.592L47.0033 104.831L45.871 105.354L44.6808 105.078L42.5034 100.027L42.6921 97.7331L41.8357 95.1058L40.9357 94.2929L39.9632 92.1011L39.6874 89.0383L40.3116 84.4804L40.0648 84.0013L36.3343 82.9417L33.4021 79.6612L32.2989 75.5532L32.5747 74.5081L33.5618 74.1743L32.8505 72.4614L31.8635 72.505L27.741 68.6438L26.3766 68.847L25.825 69.4567L23.8944 69.6599L22.6751 69.268L21.5138 67.8455L19.8591 66.6261L18.1317 66.452L17.4204 64.594L16.4479 63.4327L13.6464 61.9086L11.7739 61.1973L6.85304 60.6602L5.28537 61.0812L3.58702 61.0521L3.13704 60.2683L2.78868 58.1781L3.15157 51.588L4.05153 49.7009L3.51446 46.3623L2.6145 45.5349L3.12256 45.2301L4.55959 45.6656L4.54506 46.8413L4.12414 47.1026L4.61767 48.5106L6.75146 48.4236L7.94171 48.7574L8.44977 50.0638L9.66907 51.0944L12.9351 52.2267L17.7107 53.3153L21.7171 50.7315L22.2251 49.6284L24.7363 47.93L25.9411 47.5091L26.9427 48.8735L30.8764 50.238L32.4441 50.0638L34.9408 48.5977L35.115 47.9881L35.5795 48.0316L37.6987 49.9187L37.4085 51.1815L40.8487 50.9348L41.589 51.6605L42.9679 51.9073L43.8679 51.8928L45.1888 51.196L47.6129 49.0187L50.1967 47.422L52.737 44.0834L53.274 42.6318L52.9837 41.848L57.5271 32.4128L57.6868 29.771L59.298 27.8839L60.3577 27.6081L65.5833 19.2036L65.9171 17.5343L67.1364 15.7924L69.7347 13.5425L70.6492 11.1329L73.712 9.47813L74.3942 8.1427L75.9039 7.30079L76.7168 9.42007L77.9941 11.3942L75.57 4.4267L75.4684 2.55418L75.7297 2.07516L80.6215 5.58795L82.2763 7.34434L83.5972 9.11524L84.352 10.8426L84.3955 13.1361L85.0342 13.5861L85.4987 12.8893L86.0503 12.7441L86.3551 13.3248L86.66 24.7776L87.618 30.3951L91.5517 39.1771L95.4129 52.1541L100.232 59.4119L101.698 59.9199L106.445 59.8038L110.48 61.1683L112.353 62.4021L113.47 66.2487L113.238 71.0824L111.366 72.4759L108.854 73.1001L108.303 73.5791L110.901 73.3614L112.411 72.7517L112.817 73.0856L112.991 73.942L112.745 75.0017L105.443 80.895L103.745 83.9433L100.624 85.99L97.808 91.3898L93.5839 96.4703L92.5678 97.138L91.2034 97.0073L89.0986 97.7622L86.0793 102.088L84.1343 102.189L83.0456 103.496L80.9118 105.934L79.5038 109.157L77.878 111.871L76.6587 112.815L72.2895 117.823L71.7669 121.306L72.0137 123.919L69.1831 126.547L67.7606 126.721ZM101.669 58.5119L101.016 58.0329L99.4192 55.333L99.5208 54.0556L99.8547 53.4605L102.264 52.8073L102.888 53.3734L104.093 56.6684L102.656 58.2651L101.669 58.5119ZM105.283 84.0739L104.703 83.711L104.587 82.6804L106.198 81.0837L107.475 80.866L109.29 81.2143L109.958 81.0547L110.596 80.1257L110.669 80.9821L109.261 83.0723L107.824 83.7981L105.283 84.0739ZM110.277 79.9079L109.145 79.5741V78.7612L110.19 77.2516L112.004 77.1064L112.266 77.6145L112.12 78.3548L110.277 79.9079ZM99.8401 53.1702L98.737 52.4444L99.1144 51.2396L100.392 50.9928L101.64 51.4573L101.655 52.517L99.8401 53.1702Z" fill="black"/>
<path d="M67.7606 126.721L66.3962 126.634L65.2784 127.127L63.3914 127.301L59.3415 126.314L57.2368 124.819L56.6126 122.642L53.8982 120.624L53.7385 118.737L54.0434 117.736L53.5934 115.442L53.1144 114.76L51.7354 114.484L51.1402 113.12L51.2563 109.592L47.0033 104.831L45.871 105.354L44.6808 105.078L42.5034 100.027L42.6921 97.7331L41.8357 95.1058L40.9357 94.2929L39.9632 92.1011L39.6874 89.0383L40.3116 84.4804L40.0648 84.0013L36.3343 82.9417L33.4021 79.6612L32.2989 75.5532L32.5747 74.5081L33.5618 74.1743L32.8505 72.4614L31.8635 72.505L27.741 68.6438L26.3766 68.847L25.825 69.4567L23.8944 69.6599L22.6751 69.268L21.5138 67.8455L19.8591 66.6261L18.1317 66.452L17.4204 64.594L16.4479 63.4327L13.6464 61.9086L11.7739 61.1973L6.85304 60.6602L5.28537 61.0812L3.58702 61.0521L3.13704 60.2683L2.78868 58.1781L3.15157 51.588L4.05153 49.7009L3.51446 46.3623L2.6145 45.5349L3.12256 45.2301L4.55959 45.6656L4.54506 46.8413L4.12414 47.1026L4.61767 48.5106L6.75146 48.4236L7.94171 48.7574L8.44977 50.0638L9.66907 51.0944L12.9351 52.2267L17.7107 53.3153L21.7171 50.7315L22.2251 49.6284L24.7363 47.93L25.9411 47.5091L26.9427 48.8735L30.8764 50.238L32.4441 50.0638L34.9408 48.5977L35.115 47.9881L35.5795 48.0316L37.6987 49.9187L37.4085 51.1815L40.8487 50.9348L41.589 51.6605L42.9679 51.9073L43.8679 51.8928L45.1888 51.196L47.6129 49.0187L50.1967 47.422L52.737 44.0834L53.274 42.6318L52.9837 41.848L57.5271 32.4128L57.6868 29.771L59.298 27.8839L60.3577 27.6081L65.5833 19.2036L65.9171 17.5343L67.1364 15.7924L69.7347 13.5425L70.6492 11.1329L73.712 9.47813L74.3942 8.1427L75.9039 7.30079L76.7168 9.42007L77.9941 11.3942L75.57 4.4267L75.4684 2.55418L75.7297 2.07516L80.6215 5.58795L82.2763 7.34434L83.5972 9.11524L84.352 10.8426L84.3955 13.1361L85.0342 13.5861L85.4987 12.8893L86.0503 12.7441L86.3551 13.3248L86.66 24.7776L87.618 30.3951L91.5517 39.1771L95.4129 52.1541L100.232 59.4119L101.698 59.9199L106.445 59.8038L110.48 61.1683L112.353 62.4021L113.47 66.2487L113.238 71.0824L111.366 72.4759L108.854 73.1001L108.303 73.5791L110.901 73.3614L112.411 72.7517L112.817 73.0856L112.991 73.942L112.745 75.0017L105.443 80.895L103.745 83.9433L100.624 85.99L97.808 91.3898L93.5839 96.4703L92.5678 97.138L91.2034 97.0073L89.0986 97.7622L86.0793 102.088L84.1343 102.189L83.0456 103.496L80.9118 105.934L79.5038 109.157L77.878 111.871L76.6587 112.815L72.2895 117.823L71.7669 121.306L72.0137 123.919L69.1831 126.547L67.7606 126.721ZM101.669 58.5119L101.016 58.0329L99.4192 55.333L99.5208 54.0556L99.8547 53.4605L102.264 52.8073L102.888 53.3734L104.093 56.6684L102.656 58.2651L101.669 58.5119ZM105.283 84.0739L104.703 83.711L104.587 82.6804L106.198 81.0837L107.475 80.866L109.29 81.2143L109.958 81.0547L110.596 80.1257L110.669 80.9821L109.261 83.0723L107.824 83.7981L105.283 84.0739ZM110.277 79.9079L109.145 79.5741V78.7612L110.19 77.2516L112.004 77.1064L112.266 77.6145L112.12 78.3548L110.277 79.9079ZM99.8401 53.1702L98.737 52.4444L99.1144 51.2396L100.392 50.9928L101.64 51.4573L101.655 52.517L99.8401 53.1702Z" stroke="white" stroke-width="2" mask="url(#path-1-outside-1_2_37)"/>
</svg>
