<svg width="169" height="168" viewBox="0 0 169 168" fill="none" xmlns="http://www.w3.org/2000/svg">
<mask id="path-1-outside-1_2_41" maskUnits="userSpaceOnUse" x="-0.272217" y="-0.265778" width="169" height="168" fill="black">
<rect fill="white" x="-0.272217" y="-0.265778" width="169" height="168"/>
<path d="M135.881 84.633L134.618 83.1669L134.923 79.6251L135.78 77.8977L135.692 74.6898L133.036 71.8157L115.69 71.8011L115.138 77.2155L113.803 79.8719L114.558 84.6039L135.881 84.633L135.112 86.8393L135.562 89.1183L134.575 91.4263L133.065 93.2407L132.47 95.3745L133.704 97.1309L134.938 97.6244L136.999 99.1196L139.394 105.739V106.61L136.026 110.543L131.323 114.913L130.699 118.019L132.281 119.63L133.588 118.948L135.881 119.775L136.563 120.661L136.825 122.112L136.578 123.143L135.518 124.449L134.778 127.193L136.505 132.215L132.02 135.205L130.336 135.496L129.088 136.802L128.391 138.428L121.293 142.405L120.277 141.287L113.963 138.588L113.164 139.284L112.322 139.415L109.782 139.429L107.634 139.023L102.031 139.255L99.1131 137.963L93.1181 141.795L88.8941 146.034H88.4151L86.5135 143.973L84.3071 143.537L79.6767 145.918L74.2914 145.018L70.6915 146.411L67.4545 147.195L65.4078 150.244L63.6514 153.814L63.7385 155.266L62.5192 157.153L61.3289 157.559L60.1096 157.327L59.4564 157.53L58.0919 158.605L55.7114 161.653L54.884 164.411L55.6969 165.296L55.6823 165.79L55.1598 166.124L53.9114 165.456L53.5631 164.803L49.7019 161.551L45.1295 160.666L42.778 158.416L40.02 157.792L37.8571 157.734L32.9944 155.789L32.0074 154.555L27.551 152.29L26.5785 151.405L24.4883 150.374L22.8335 150.127L18.9143 147.689L14.8789 147.921L9.36297 146.905L9.17431 146.426L9.55168 145.207L10.3791 143.508L12.2806 140.954L12.1645 140.344L8.89851 139.038L7.2437 140.01L6.28567 139.734L5.87923 139.139L5.5454 137.528L5.92278 133.783L5.64698 131.214L4.26802 128.02L4.0067 123.041L1.96004 119.862L1.72778 118.832L2.3084 113.882L6.00987 108.293L6.56147 104.069L7.57758 102.952L10.5097 101.732L13.2967 99.1631L15.1112 96.231L15.5902 93.4004L16.316 91.9343L18.174 90.4247L19.3643 88.349L19.4804 86.1136L22.0206 84.7055L24.0528 80.9025L27.8995 80.7138L31.8477 79.4654L32.3122 79.0589L35.1863 72.9769L36.2169 71.5834L37.1459 65.632L37.6975 64.5579L40.4845 61.7418L42.8796 60.2758L44.4327 59.8983L46.2182 60.8854L47.9745 59.8257L49.9922 57.75L51.2115 53.497L52.9098 49.331L52.8954 48.1697L52.1986 46.5149L53.0405 42.5377L55.363 38.0523L55.1888 30.5332L56.9452 29.401L58.4403 25.5834L61.3434 20.982L61.9095 19.4288L61.6773 15.4805L62.1853 14.1741L63.5934 12.9258L63.9853 11.2855L63.8692 10.371L64.3627 9.71782L64.653 6.98887L65.611 5.20348L68.2383 2.16972L69.0513 1.73422L69.0077 4.21638L67.2368 6.94533L66.482 10.342L69.9657 10.9226L73.1592 12.4177L78.8638 12.9984L83.3491 15.4805L89.257 17.5562L90.1715 17.2224L92.5375 8.60013L94.6713 5.13087L96.3842 3.72286L98.0534 5.6244L99.5631 8.35334L101.174 13.7386L102.06 18.2385L103.715 18.3111L104.803 17.2224L105.239 15.7709L106.052 14.987L110.058 15.4805L116.633 14.7112L116.953 15.7853L116.14 18.0498L120.683 20.1836L125.546 21.1707L126.548 21.0545L127.288 16.2644L128.086 16.3079L130.278 20.111L130.946 20.4594L133.53 19.153L137.188 16.1337L143.763 14.6822H146.013L149.729 13.0855L152.255 11.1404L160.035 9.07913L163.983 12.65L164.012 13.2016L161.937 14.7402L161.24 18.3982L161.385 18.8772L163.751 20.0965L163.664 21.461L163.33 22.0126L161.022 23.5077L159.295 29.0672L159.222 31.3171L160.122 36.4266L162.59 41.449L167.249 45.2521L167.322 45.9343L166.277 47.9955L166.132 48.9681L167.104 51.4648L167.438 53.3228L167.075 54.4405L164.927 57.3L163.475 58.7661L158.787 58.2726L157.48 55.7178L153.968 53.5695L152.269 55.7324L153.111 61.2047L152.284 61.9886L151.703 62.1773L147.668 60.5225L145.97 60.8564L145.432 61.2628L144.387 65.8788L145.432 66.0239L146.144 67.7078L145.316 69.0722L144.257 70.0883L144.315 72.8463L144.924 73.7317L145.694 74.0075L146.695 80.1912L145.926 80.9605L141.049 82.2669L137.725 84.4588L135.881 84.633Z"/>
</mask>
<path d="M135.881 84.633L134.618 83.1669L134.923 79.6251L135.78 77.8977L135.692 74.6898L133.036 71.8157L115.69 71.8011L115.138 77.2155L113.803 79.8719L114.558 84.6039L135.881 84.633L135.112 86.8393L135.562 89.1183L134.575 91.4263L133.065 93.2407L132.47 95.3745L133.704 97.1309L134.938 97.6244L136.999 99.1196L139.394 105.739V106.61L136.026 110.543L131.323 114.913L130.699 118.019L132.281 119.63L133.588 118.948L135.881 119.775L136.563 120.661L136.825 122.112L136.578 123.143L135.518 124.449L134.778 127.193L136.505 132.215L132.02 135.205L130.336 135.496L129.088 136.802L128.391 138.428L121.293 142.405L120.277 141.287L113.963 138.588L113.164 139.284L112.322 139.415L109.782 139.429L107.634 139.023L102.031 139.255L99.1131 137.963L93.1181 141.795L88.8941 146.034H88.4151L86.5135 143.973L84.3071 143.537L79.6767 145.918L74.2914 145.018L70.6915 146.411L67.4545 147.195L65.4078 150.244L63.6514 153.814L63.7385 155.266L62.5192 157.153L61.3289 157.559L60.1096 157.327L59.4564 157.53L58.0919 158.605L55.7114 161.653L54.884 164.411L55.6969 165.296L55.6823 165.79L55.1598 166.124L53.9114 165.456L53.5631 164.803L49.7019 161.551L45.1295 160.666L42.778 158.416L40.02 157.792L37.8571 157.734L32.9944 155.789L32.0074 154.555L27.551 152.29L26.5785 151.405L24.4883 150.374L22.8335 150.127L18.9143 147.689L14.8789 147.921L9.36297 146.905L9.17431 146.426L9.55168 145.207L10.3791 143.508L12.2806 140.954L12.1645 140.344L8.89851 139.038L7.2437 140.01L6.28567 139.734L5.87923 139.139L5.5454 137.528L5.92278 133.783L5.64698 131.214L4.26802 128.02L4.0067 123.041L1.96004 119.862L1.72778 118.832L2.3084 113.882L6.00987 108.293L6.56147 104.069L7.57758 102.952L10.5097 101.732L13.2967 99.1631L15.1112 96.231L15.5902 93.4004L16.316 91.9343L18.174 90.4247L19.3643 88.349L19.4804 86.1136L22.0206 84.7055L24.0528 80.9025L27.8995 80.7138L31.8477 79.4654L32.3122 79.0589L35.1863 72.9769L36.2169 71.5834L37.1459 65.632L37.6975 64.5579L40.4845 61.7418L42.8796 60.2758L44.4327 59.8983L46.2182 60.8854L47.9745 59.8257L49.9922 57.75L51.2115 53.497L52.9098 49.331L52.8954 48.1697L52.1986 46.5149L53.0405 42.5377L55.363 38.0523L55.1888 30.5332L56.9452 29.401L58.4403 25.5834L61.3434 20.982L61.9095 19.4288L61.6773 15.4805L62.1853 14.1741L63.5934 12.9258L63.9853 11.2855L63.8692 10.371L64.3627 9.71782L64.653 6.98887L65.611 5.20348L68.2383 2.16972L69.0513 1.73422L69.0077 4.21638L67.2368 6.94533L66.482 10.342L69.9657 10.9226L73.1592 12.4177L78.8638 12.9984L83.3491 15.4805L89.257 17.5562L90.1715 17.2224L92.5375 8.60013L94.6713 5.13087L96.3842 3.72286L98.0534 5.6244L99.5631 8.35334L101.174 13.7386L102.06 18.2385L103.715 18.3111L104.803 17.2224L105.239 15.7709L106.052 14.987L110.058 15.4805L116.633 14.7112L116.953 15.7853L116.14 18.0498L120.683 20.1836L125.546 21.1707L126.548 21.0545L127.288 16.2644L128.086 16.3079L130.278 20.111L130.946 20.4594L133.53 19.153L137.188 16.1337L143.763 14.6822H146.013L149.729 13.0855L152.255 11.1404L160.035 9.07913L163.983 12.65L164.012 13.2016L161.937 14.7402L161.24 18.3982L161.385 18.8772L163.751 20.0965L163.664 21.461L163.33 22.0126L161.022 23.5077L159.295 29.0672L159.222 31.3171L160.122 36.4266L162.59 41.449L167.249 45.2521L167.322 45.9343L166.277 47.9955L166.132 48.9681L167.104 51.4648L167.438 53.3228L167.075 54.4405L164.927 57.3L163.475 58.7661L158.787 58.2726L157.48 55.7178L153.968 53.5695L152.269 55.7324L153.111 61.2047L152.284 61.9886L151.703 62.1773L147.668 60.5225L145.97 60.8564L145.432 61.2628L144.387 65.8788L145.432 66.0239L146.144 67.7078L145.316 69.0722L144.257 70.0883L144.315 72.8463L144.924 73.7317L145.694 74.0075L146.695 80.1912L145.926 80.9605L141.049 82.2669L137.725 84.4588L135.881 84.633Z" fill="black"/>
<path d="M134.618 83.1669L133.622 83.0812L133.586 83.5006L133.861 83.8195L134.618 83.1669ZM134.923 79.6251L134.027 79.1809L133.943 79.3506L133.927 79.5393L134.923 79.6251ZM135.78 77.8977L136.676 78.3419L136.786 78.1191L136.779 77.8706L135.78 77.8977ZM135.692 74.6898L136.692 74.6626L136.682 74.287L136.427 74.011L135.692 74.6898ZM133.036 71.8157L133.77 71.1369L133.474 70.816L133.037 70.8157L133.036 71.8157ZM115.69 71.8011L115.691 70.8011L114.787 70.8004L114.695 71.6998L115.69 71.8011ZM115.138 77.2155L116.032 77.6646L116.115 77.5001L116.133 77.3168L115.138 77.2155ZM113.803 79.8719L112.909 79.4227L112.765 79.7109L112.815 80.0294L113.803 79.8719ZM114.558 84.6039L113.57 84.7614L113.704 85.6028L114.556 85.6039L114.558 84.6039ZM135.112 86.8393L134.168 86.5101L134.078 86.7666L134.131 87.0331L135.112 86.8393ZM135.562 89.1183L136.481 89.5115L136.603 89.2276L136.543 88.9246L135.562 89.1183ZM134.575 91.4263L135.343 92.0659L135.437 91.9537L135.494 91.8195L134.575 91.4263ZM133.065 93.2407L132.296 92.6012L132.159 92.7658L132.102 92.9721L133.065 93.2407ZM132.47 95.3745L131.507 95.1059L131.38 95.5619L131.652 95.9494L132.47 95.3745ZM133.704 97.1309L132.886 97.7057L133.056 97.949L133.332 98.0594L133.704 97.1309ZM134.938 97.6244L135.525 96.815L135.424 96.7421L135.309 96.696L134.938 97.6244ZM136.999 99.1196L137.939 98.7793L137.835 98.4904L137.586 98.3101L136.999 99.1196ZM139.394 105.739H140.394V105.563L140.334 105.398L139.394 105.739ZM139.394 106.61L140.154 107.26L140.394 106.979V106.61H139.394ZM136.026 110.543L136.707 111.276L136.749 111.237L136.786 111.194L136.026 110.543ZM131.323 114.913L130.643 114.18L130.406 114.399L130.343 114.716L131.323 114.913ZM130.699 118.019L129.719 117.822L129.614 118.341L129.986 118.72L130.699 118.019ZM132.281 119.63L131.568 120.331L132.087 120.86L132.744 120.517L132.281 119.63ZM133.588 118.948L133.927 118.007L133.514 117.858L133.125 118.061L133.588 118.948ZM135.881 119.775L136.673 119.165L136.495 118.934L136.221 118.835L135.881 119.775ZM136.563 120.661L137.548 120.484L137.504 120.244L137.356 120.05L136.563 120.661ZM136.825 122.112L137.797 122.345L137.846 122.141L137.809 121.935L136.825 122.112ZM136.578 123.143L137.355 123.773L137.498 123.597L137.55 123.376L136.578 123.143ZM135.518 124.449L134.742 123.819L134.608 123.984L134.553 124.189L135.518 124.449ZM134.778 127.193L133.813 126.932L133.733 127.228L133.832 127.518L134.778 127.193ZM136.505 132.215L137.06 133.047L137.702 132.619L137.451 131.89L136.505 132.215ZM132.02 135.205L132.19 136.191L132.399 136.155L132.575 136.037L132.02 135.205ZM130.336 135.496L130.166 134.51L129.841 134.566L129.613 134.805L130.336 135.496ZM129.088 136.802L128.365 136.111L128.24 136.242L128.169 136.408L129.088 136.802ZM128.391 138.428L128.88 139.3L129.176 139.134L129.31 138.822L128.391 138.428ZM121.293 142.405L120.553 143.078L121.088 143.666L121.782 143.278L121.293 142.405ZM120.277 141.287L121.017 140.615L120.87 140.454L120.67 140.368L120.277 141.287ZM113.963 138.588L114.356 137.668L113.778 137.421L113.305 137.834L113.963 138.588ZM113.164 139.284L113.318 140.272L113.604 140.228L113.822 140.038L113.164 139.284ZM112.322 139.415L112.328 140.415L112.402 140.415L112.476 140.403L112.322 139.415ZM109.782 139.429L109.596 140.412L109.691 140.43L109.788 140.429L109.782 139.429ZM107.634 139.023L107.82 138.04L107.707 138.019L107.592 138.024L107.634 139.023ZM102.031 139.255L101.626 140.17L101.839 140.264L102.072 140.254L102.031 139.255ZM99.1131 137.963L99.518 137.049L99.027 136.832L98.5745 137.121L99.1131 137.963ZM93.1181 141.795L92.5796 140.953L92.4872 141.012L92.4098 141.09L93.1181 141.795ZM88.8941 146.034V147.034H89.3093L89.6024 146.74L88.8941 146.034ZM88.4151 146.034L87.6801 146.712L87.9771 147.034H88.4151V146.034ZM86.5135 143.973L87.2486 143.295L87.0273 143.055L86.7072 142.992L86.5135 143.973ZM84.3071 143.537L84.5008 142.556L84.1594 142.489L83.8499 142.648L84.3071 143.537ZM79.6767 145.918L79.5118 146.904L79.8389 146.959L80.1339 146.807L79.6767 145.918ZM74.2914 145.018L74.4562 144.032L74.1859 143.986L73.9304 144.085L74.2914 145.018ZM70.6915 146.411L70.9268 147.383L70.991 147.368L71.0525 147.344L70.6915 146.411ZM67.4545 147.195L67.2192 146.223L66.8411 146.315L66.6243 146.638L67.4545 147.195ZM65.4078 150.244L64.5776 149.686L64.5401 149.742L64.5105 149.802L65.4078 150.244ZM63.6514 153.814L62.7541 153.373L62.6374 153.61L62.6532 153.874L63.6514 153.814ZM63.7385 155.266L64.5785 155.809L64.7564 155.533L64.7367 155.206L63.7385 155.266ZM62.5192 157.153L62.8424 158.099L63.1708 157.987L63.3591 157.696L62.5192 157.153ZM61.3289 157.559L61.1418 158.542L61.4017 158.591L61.6521 158.506L61.3289 157.559ZM60.1096 157.327L60.2967 156.345L60.0512 156.298L59.8125 156.372L60.1096 157.327ZM59.4564 157.53L59.1593 156.576L58.983 156.63L58.8379 156.745L59.4564 157.53ZM58.0919 158.605L57.4734 157.819L57.3783 157.894L57.3038 157.989L58.0919 158.605ZM55.7114 161.653L54.9233 161.037L54.8076 161.186L54.7536 161.366L55.7114 161.653ZM54.884 164.411L53.9262 164.124L53.7628 164.668L54.1473 165.087L54.884 164.411ZM55.6969 165.296L56.6964 165.326L56.7084 164.919L56.4335 164.62L55.6969 165.296ZM55.6823 165.79L56.2208 166.632L56.6663 166.348L56.6819 165.819L55.6823 165.79ZM55.1598 166.124L54.6882 167.005L55.2046 167.282L55.6982 166.966L55.1598 166.124ZM53.9114 165.456L53.0291 165.927L53.172 166.195L53.4398 166.338L53.9114 165.456ZM53.5631 164.803L54.4454 164.332L54.3547 164.162L54.2072 164.038L53.5631 164.803ZM49.7019 161.551L50.346 160.786L50.1472 160.619L49.892 160.57L49.7019 161.551ZM45.1295 160.666L44.4382 161.388L44.6507 161.592L44.9394 161.648L45.1295 160.666ZM42.778 158.416L43.4693 157.693L43.269 157.502L42.9987 157.441L42.778 158.416ZM40.02 157.792L40.2407 156.816L40.145 156.795L40.0468 156.792L40.02 157.792ZM37.8571 157.734L37.4858 158.662L37.6517 158.729L37.8303 158.733L37.8571 157.734ZM32.9944 155.789L32.2135 156.413L32.3782 156.619L32.623 156.717L32.9944 155.789ZM32.0074 154.555L32.7882 153.93L32.6531 153.761L32.4604 153.663L32.0074 154.555ZM27.551 152.29L26.8778 153.03L26.9777 153.121L27.098 153.182L27.551 152.29ZM26.5785 151.405L27.2517 150.665L27.1474 150.57L27.0208 150.508L26.5785 151.405ZM24.4883 150.374L24.9305 149.477L24.7903 149.408L24.6357 149.385L24.4883 150.374ZM22.8335 150.127L22.3052 150.977L22.4811 151.086L22.686 151.117L22.8335 150.127ZM18.9143 147.689L19.4426 146.84L19.1734 146.672L18.8568 146.691L18.9143 147.689ZM14.8789 147.921L14.6978 148.905L14.8162 148.926L14.9364 148.919L14.8789 147.921ZM9.36297 146.905L8.43253 147.271L8.63593 147.788L9.18181 147.888L9.36297 146.905ZM9.17431 146.426L8.21901 146.13L8.1152 146.466L8.24387 146.792L9.17431 146.426ZM9.55168 145.207L8.6527 144.769L8.61908 144.838L8.59639 144.911L9.55168 145.207ZM10.3791 143.508L9.5769 142.911L9.52106 142.986L9.4801 143.07L10.3791 143.508ZM12.2806 140.954L13.0828 141.551L13.3452 141.198L13.263 140.767L12.2806 140.954ZM12.1645 140.344L13.1469 140.157L13.0444 139.619L12.5359 139.415L12.1645 140.344ZM8.89851 139.038L9.26989 138.109L8.81458 137.927L8.39181 138.175L8.89851 139.038ZM7.2437 140.01L6.96706 140.971L7.37996 141.09L7.75039 140.872L7.2437 140.01ZM6.28567 139.734L5.45986 140.298L5.66295 140.596L6.00902 140.695L6.28567 139.734ZM5.87923 139.139L4.90003 139.342L4.94061 139.538L5.05343 139.703L5.87923 139.139ZM5.5454 137.528L4.55044 137.428L4.53504 137.58L4.5662 137.731L5.5454 137.528ZM5.92278 133.783L6.91774 133.883L6.92817 133.78L6.91706 133.676L5.92278 133.783ZM5.64698 131.214L6.64126 131.107L6.62509 130.956L6.56504 130.817L5.64698 131.214ZM4.26802 128.02L3.26939 128.073L3.2788 128.252L3.34995 128.417L4.26802 128.02ZM4.0067 123.041L5.00533 122.989L4.9914 122.723L4.84751 122.5L4.0067 123.041ZM1.96004 119.862L0.984504 120.082L1.02342 120.255L1.11923 120.404L1.96004 119.862ZM1.72778 118.832L0.734593 118.715L0.714689 118.885L0.752249 119.052L1.72778 118.832ZM2.3084 113.882L1.47469 113.33L1.34299 113.529L1.31521 113.765L2.3084 113.882ZM6.00987 108.293L6.84358 108.846L6.97146 108.653L7.00145 108.423L6.00987 108.293ZM6.56147 104.069L5.82154 103.397L5.61051 103.629L5.56989 103.94L6.56147 104.069ZM7.57758 102.952L7.19361 102.028L6.98768 102.114L6.83765 102.279L7.57758 102.952ZM10.5097 101.732L10.8937 102.656L11.0573 102.588L11.1875 102.468L10.5097 101.732ZM13.2967 99.1631L13.9745 99.8983L14.0751 99.8056L14.1471 99.6893L13.2967 99.1631ZM15.1112 96.231L15.9615 96.7572L16.0645 96.5908L16.0972 96.3978L15.1112 96.231ZM15.5902 93.4004L14.694 92.9567L14.6287 93.0885L14.6042 93.2335L15.5902 93.4004ZM16.316 91.9343L15.6854 91.1582L15.5164 91.2955L15.4198 91.4907L16.316 91.9343ZM18.174 90.4247L18.8046 91.2008L18.9489 91.0835L19.0415 90.9222L18.174 90.4247ZM19.3643 88.349L20.2318 88.8464L20.3505 88.6393L20.3629 88.4009L19.3643 88.349ZM19.4804 86.1136L18.9956 85.2389L18.5105 85.5078L18.4817 86.0617L19.4804 86.1136ZM22.0206 84.7055L22.5054 85.5802L22.7635 85.4371L22.9026 85.1768L22.0206 84.7055ZM24.0528 80.9025L24.0038 79.9037L23.4379 79.9314L23.1708 80.4312L24.0528 80.9025ZM27.8995 80.7138L27.9485 81.7125L28.0776 81.7062L28.2009 81.6672L27.8995 80.7138ZM31.8477 79.4654L32.1492 80.4189L32.3488 80.3558L32.5063 80.2179L31.8477 79.4654ZM32.3122 79.0589L32.9707 79.8115L33.1274 79.6744L33.2163 79.4862L32.3122 79.0589ZM35.1863 72.9769L34.3823 72.3823L34.324 72.4611L34.2821 72.5497L35.1863 72.9769ZM36.2169 71.5834L37.0209 72.178L37.167 71.9804L37.2049 71.7376L36.2169 71.5834ZM37.1459 65.632L36.2563 65.1752L36.1827 65.3185L36.1579 65.4778L37.1459 65.632ZM37.6975 64.5579L36.9867 63.8544L36.8783 63.964L36.8079 64.101L37.6975 64.5579ZM40.4845 61.7418L39.9624 60.8889L39.859 60.9522L39.7737 61.0384L40.4845 61.7418ZM42.8796 60.2758L42.6435 59.304L42.4912 59.3411L42.3575 59.4229L42.8796 60.2758ZM44.4327 59.8983L44.9165 59.0232L44.5754 58.8346L44.1966 58.9266L44.4327 59.8983ZM46.2182 60.8854L45.7343 61.7606L46.24 62.0401L46.7347 61.7416L46.2182 60.8854ZM47.9745 59.8257L48.4911 60.682L48.6016 60.6153L48.6916 60.5228L47.9745 59.8257ZM49.9922 57.75L50.7093 58.447L50.8843 58.267L50.9535 58.0256L49.9922 57.75ZM51.2115 53.497L50.2855 53.1195L50.2651 53.1695L50.2503 53.2214L51.2115 53.497ZM52.9098 49.331L53.8359 49.7085L53.9123 49.521L53.9098 49.3185L52.9098 49.331ZM52.8954 48.1697L53.8953 48.1572L53.8928 47.9618L53.817 47.7816L52.8954 48.1697ZM52.1986 46.5149L51.2203 46.3078L51.1554 46.6143L51.277 46.903L52.1986 46.5149ZM53.0405 42.5377L52.1525 42.0779L52.0902 42.1981L52.0622 42.3306L53.0405 42.5377ZM55.363 38.0523L56.251 38.5121L56.3686 38.2849L56.3627 38.0291L55.363 38.0523ZM55.1888 30.5332L54.647 29.6927L54.1761 29.9963L54.1891 30.5564L55.1888 30.5332ZM56.9452 29.401L57.487 30.2415L57.7585 30.0665L57.8763 29.7657L56.9452 29.401ZM58.4403 25.5834L57.5946 25.0498L57.5438 25.1302L57.5092 25.2187L58.4403 25.5834ZM61.3434 20.982L62.1892 21.5156L62.2463 21.425L62.283 21.3244L61.3434 20.982ZM61.9095 19.4288L62.8491 19.7712L62.92 19.5767L62.9078 19.3701L61.9095 19.4288ZM61.6773 15.4805L60.7453 15.1181L60.6662 15.3214L60.679 15.5392L61.6773 15.4805ZM62.1853 14.1741L61.5219 13.4259L61.341 13.5863L61.2533 13.8117L62.1853 14.1741ZM63.5934 12.9258L64.2568 13.674L64.4927 13.4648L64.566 13.1582L63.5934 12.9258ZM63.9853 11.2855L64.9579 11.5179L65.0003 11.3405L64.9773 11.1596L63.9853 11.2855ZM63.8692 10.371L63.0713 9.76822L62.8258 10.0931L62.8771 10.497L63.8692 10.371ZM64.3627 9.71782L65.1606 10.3206L65.3277 10.0994L65.3571 9.82361L64.3627 9.71782ZM64.653 6.98887L63.7719 6.51606L63.6793 6.68849L63.6586 6.88308L64.653 6.98887ZM65.611 5.20348L64.8551 4.54882L64.7824 4.63279L64.7298 4.73067L65.611 5.20348ZM68.2383 2.16972L67.7661 1.28824L67.6033 1.37545L67.4824 1.51506L68.2383 2.16972ZM69.0513 1.73422L70.0511 1.75176L70.081 0.0481148L68.579 0.852745L69.0513 1.73422ZM69.0077 4.21638L69.8466 4.76074L70.0025 4.5204L70.0076 4.23392L69.0077 4.21638ZM67.2368 6.94533L66.398 6.40097L66.2998 6.55229L66.2606 6.72839L67.2368 6.94533ZM66.482 10.342L65.5058 10.125L65.2769 11.1549L66.3176 11.3284L66.482 10.342ZM69.9657 10.9226L70.3897 10.017L70.2654 9.9588L70.1301 9.93625L69.9657 10.9226ZM73.1592 12.4177L72.7351 13.3234L72.8889 13.3954L73.0579 13.4126L73.1592 12.4177ZM78.8638 12.9984L79.348 12.1234L79.1688 12.0242L78.965 12.0035L78.8638 12.9984ZM83.3491 15.4805L82.8649 16.3555L82.9384 16.3961L83.0176 16.424L83.3491 15.4805ZM89.257 17.5562L88.9255 18.4997L89.2634 18.6184L89.5999 18.4956L89.257 17.5562ZM90.1715 17.2224L90.5144 18.1618L90.9992 17.9848L91.1358 17.487L90.1715 17.2224ZM92.5375 8.60013L91.6857 8.07623L91.611 8.19783L91.5732 8.3355L92.5375 8.60013ZM94.6713 5.13087L94.0363 4.35838L93.9071 4.46456L93.8195 4.60698L94.6713 5.13087ZM96.3842 3.72286L97.1357 3.06314L96.497 2.3356L95.7491 2.95036L96.3842 3.72286ZM98.0534 5.6244L98.9285 5.14034L98.8762 5.04584L98.805 4.96468L98.0534 5.6244ZM99.5631 8.35334L100.521 8.06671L100.49 7.96353L100.438 7.86928L99.5631 8.35334ZM101.174 13.7386L102.155 13.5456L102.146 13.4982L102.132 13.452L101.174 13.7386ZM102.06 18.2385L101.079 18.4316L101.23 19.2031L102.016 19.2375L102.06 18.2385ZM103.715 18.3111L103.671 19.3101L104.11 19.3294L104.422 19.0182L103.715 18.3111ZM104.803 17.2224L105.51 17.9295L105.689 17.7513L105.761 17.5098L104.803 17.2224ZM105.239 15.7709L104.545 15.051L104.356 15.2327L104.281 15.4835L105.239 15.7709ZM106.052 14.987L106.174 13.9945L105.701 13.9362L105.357 14.2672L106.052 14.987ZM110.058 15.4805L109.936 16.473L110.055 16.4877L110.174 16.4737L110.058 15.4805ZM116.633 14.7112L117.592 14.4262L117.352 13.6203L116.517 13.718L116.633 14.7112ZM116.953 15.7853L117.894 16.1232L118.005 15.8146L117.911 15.5004L116.953 15.7853ZM116.14 18.0498L115.199 17.7119L114.891 18.5682L115.715 18.9549L116.14 18.0498ZM120.683 20.1836L120.258 21.0887L120.367 21.1397L120.484 21.1636L120.683 20.1836ZM125.546 21.1707L125.347 22.1507L125.503 22.1823L125.661 22.164L125.546 21.1707ZM126.548 21.0545L126.663 22.0479L127.42 21.9601L127.536 21.2073L126.548 21.0545ZM127.288 16.2644L127.342 15.2659L126.438 15.2165L126.3 16.1116L127.288 16.2644ZM128.086 16.3079L128.953 15.8086L128.682 15.3389L128.141 15.3094L128.086 16.3079ZM130.278 20.111L129.412 20.6104L129.557 20.8628L129.816 20.9976L130.278 20.111ZM130.946 20.4594L130.483 21.346L130.939 21.5836L131.397 21.3518L130.946 20.4594ZM133.53 19.153L133.981 20.0454L134.08 19.9951L134.166 19.9242L133.53 19.153ZM137.188 16.1337L136.972 15.1573L136.737 15.2092L136.551 15.3625L137.188 16.1337ZM143.763 14.6822V13.6822H143.654L143.548 13.7057L143.763 14.6822ZM146.013 14.6822V15.6822H146.219L146.408 15.601L146.013 14.6822ZM149.729 13.0855L150.124 14.0042L150.24 13.9545L150.339 13.8777L149.729 13.0855ZM152.255 11.1404L151.999 10.1737L151.804 10.2253L151.645 10.3481L152.255 11.1404ZM160.035 9.07913L160.706 8.33746L160.304 7.97353L159.779 8.11247L160.035 9.07913ZM163.983 12.65L164.982 12.5974L164.96 12.1852L164.654 11.9083L163.983 12.65ZM164.012 13.2016L164.608 14.0049L165.039 13.6852L165.011 13.149L164.012 13.2016ZM161.937 14.7402L161.341 13.9369L161.027 14.1694L160.954 14.5531L161.937 14.7402ZM161.24 18.3982L160.258 18.2111L160.212 18.4528L160.283 18.6882L161.24 18.3982ZM161.385 18.8772L160.428 19.1672L160.551 19.5722L160.927 19.7661L161.385 18.8772ZM163.751 20.0965L164.749 20.1602L164.791 19.5073L164.209 19.2076L163.751 20.0965ZM163.664 21.461L164.52 21.9788L164.646 21.7692L164.662 21.5247L163.664 21.461ZM163.33 22.0126L163.874 22.8518L164.067 22.7269L164.186 22.5304L163.33 22.0126ZM161.022 23.5077L160.479 22.6684L160.175 22.8652L160.067 23.2109L161.022 23.5077ZM159.295 29.0672L158.34 28.7705L158.3 28.8997L158.295 29.0349L159.295 29.0672ZM159.222 31.3171L158.223 31.2848L158.219 31.3885L158.237 31.4905L159.222 31.3171ZM160.122 36.4266L159.137 36.6L159.162 36.74L159.225 36.8675L160.122 36.4266ZM162.59 41.449L161.692 41.89L161.789 42.0858L161.958 42.2237L162.59 41.449ZM167.249 45.2521L168.244 45.1463L168.2 44.7374L167.882 44.4774L167.249 45.2521ZM167.322 45.9343L168.214 46.3866L168.348 46.1227L168.316 45.8286L167.322 45.9343ZM166.277 47.9955L165.385 47.5433L165.312 47.6877L165.288 47.8479L166.277 47.9955ZM166.132 48.9681L165.143 48.8205L165.103 49.0834L165.2 49.3311L166.132 48.9681ZM167.104 51.4648L168.089 51.2879L168.071 51.1923L168.036 51.1018L167.104 51.4648ZM167.438 53.3228L168.389 53.6316L168.467 53.3929L168.422 53.1459L167.438 53.3228ZM167.075 54.4405L167.875 55.0411L167.975 54.9078L168.026 54.7493L167.075 54.4405ZM164.927 57.3L165.638 58.0036L165.686 57.9552L165.726 57.9007L164.927 57.3ZM163.475 58.7661L163.371 59.7606L163.848 59.8109L164.186 59.4697L163.475 58.7661ZM158.787 58.2726L157.896 58.7279L158.143 59.2104L158.682 59.2671L158.787 58.2726ZM157.48 55.7178L158.371 55.2626L158.242 55.0117L158.002 54.8647L157.48 55.7178ZM153.968 53.5695L154.489 52.7164L153.731 52.2523L153.181 52.9519L153.968 53.5695ZM152.269 55.7324L151.483 55.1148L151.215 55.4558L151.281 55.8844L152.269 55.7324ZM153.111 61.2047L153.799 61.9307L154.179 61.5704L154.1 61.0527L153.111 61.2047ZM152.284 61.9886L152.593 62.9396L152.808 62.8698L152.972 62.7145L152.284 61.9886ZM151.703 62.1773L151.324 63.1025L151.663 63.2418L152.012 63.1283L151.703 62.1773ZM147.668 60.5225L148.047 59.5973L147.769 59.4834L147.475 59.5413L147.668 60.5225ZM145.97 60.8564L145.777 59.8752L145.55 59.9197L145.366 60.059L145.97 60.8564ZM145.432 61.2628L144.829 60.4654L144.538 60.6858L144.457 61.042L145.432 61.2628ZM144.387 65.8788L143.412 65.658L143.172 66.7195L144.25 66.8693L144.387 65.8788ZM145.432 66.0239L146.354 65.6348L146.133 65.1116L145.57 65.0335L145.432 66.0239ZM146.144 67.7078L146.999 68.2263L147.264 67.7894L147.065 67.3186L146.144 67.7078ZM145.316 69.0722L146.008 69.794L146.103 69.7031L146.171 69.5907L145.316 69.0722ZM144.257 70.0883L143.565 69.3665L143.248 69.6704L143.257 70.1093L144.257 70.0883ZM144.315 72.8463L143.315 72.8673L143.321 73.1667L143.491 73.4134L144.315 72.8463ZM144.924 73.7317L144.101 74.2988L144.284 74.5643L144.587 74.6731L144.924 73.7317ZM145.694 74.0075L146.681 73.8477L146.587 73.2653L146.031 73.0662L145.694 74.0075ZM146.695 80.1912L147.402 80.8983L147.764 80.5365L147.682 80.0313L146.695 80.1912ZM145.926 80.9605L146.185 81.9265L146.444 81.8571L146.633 81.6676L145.926 80.9605ZM141.049 82.2669L140.79 81.301L140.633 81.3429L140.498 81.4321L141.049 82.2669ZM137.725 84.4588L137.819 85.4543L138.067 85.4309L138.275 85.2936L137.725 84.4588ZM136.639 83.9804L135.376 82.5143L133.861 83.8195L135.123 85.2856L136.639 83.9804ZM135.615 83.2526L135.919 79.7108L133.927 79.5393L133.622 83.0812L135.615 83.2526ZM135.819 80.0693L136.676 78.3419L134.884 77.4535L134.027 79.1809L135.819 80.0693ZM136.779 77.8706L136.692 74.6626L134.693 74.7169L134.78 77.9249L136.779 77.8706ZM136.427 74.011L133.77 71.1369L132.302 72.4944L134.958 75.3685L136.427 74.011ZM133.037 70.8157L115.691 70.8011L115.689 72.8011L133.035 72.8157L133.037 70.8157ZM114.695 71.6998L114.144 77.1141L116.133 77.3168L116.685 71.9025L114.695 71.6998ZM114.245 76.7663L112.909 79.4227L114.696 80.321L116.032 77.6646L114.245 76.7663ZM112.815 80.0294L113.57 84.7614L115.545 84.4464L114.79 79.7143L112.815 80.0294ZM114.556 85.6039L135.88 85.633L135.883 83.633L114.559 83.6039L114.556 85.6039ZM134.937 84.3037L134.168 86.5101L136.056 87.1686L136.825 84.9622L134.937 84.3037ZM134.131 87.0331L134.581 89.312L136.543 88.9246L136.093 86.6456L134.131 87.0331ZM134.642 88.7251L133.655 91.0331L135.494 91.8195L136.481 89.5115L134.642 88.7251ZM133.806 90.7867L132.296 92.6012L133.834 93.8803L135.343 92.0659L133.806 90.7867ZM132.102 92.9721L131.507 95.1059L133.433 95.6432L134.028 93.5094L132.102 92.9721ZM131.652 95.9494L132.886 97.7057L134.522 96.5561L133.288 94.7997L131.652 95.9494ZM133.332 98.0594L134.566 98.5529L135.309 96.696L134.075 96.2024L133.332 98.0594ZM134.35 98.4339L136.412 99.929L137.586 98.3101L135.525 96.815L134.35 98.4339ZM136.059 99.4598L138.454 106.079L140.334 105.398L137.939 98.7793L136.059 99.4598ZM138.394 105.739V106.61H140.394V105.739H138.394ZM138.634 105.959L135.267 109.893L136.786 111.194L140.154 107.26L138.634 105.959ZM135.346 109.811L130.643 114.18L132.004 115.645L136.707 111.276L135.346 109.811ZM130.343 114.716L129.719 117.822L131.68 118.216L132.304 115.11L130.343 114.716ZM129.986 118.72L131.568 120.331L132.995 118.929L131.413 117.318L129.986 118.72ZM132.744 120.517L134.051 119.834L133.125 118.061L131.818 118.744L132.744 120.517ZM133.248 119.889L135.542 120.716L136.221 118.835L133.927 118.007L133.248 119.889ZM135.089 120.386L135.771 121.271L137.356 120.05L136.673 119.165L135.089 120.386ZM135.579 120.838L135.84 122.289L137.809 121.935L137.548 120.484L135.579 120.838ZM135.852 121.879L135.605 122.91L137.55 123.376L137.797 122.345L135.852 121.879ZM135.801 122.513L134.742 123.819L136.295 125.079L137.355 123.773L135.801 122.513ZM134.553 124.189L133.813 126.932L135.743 127.453L136.484 124.71L134.553 124.189ZM133.832 127.518L135.56 132.54L137.451 131.89L135.724 126.868L133.832 127.518ZM135.951 131.383L131.465 134.373L132.575 136.037L137.06 133.047L135.951 131.383ZM131.85 134.22L130.166 134.51L130.506 136.481L132.19 136.191L131.85 134.22ZM129.613 134.805L128.365 136.111L129.811 137.493L131.059 136.187L129.613 134.805ZM128.169 136.408L127.472 138.034L129.31 138.822L130.007 137.196L128.169 136.408ZM127.902 137.556L120.804 141.533L121.782 143.278L128.88 139.3L127.902 137.556ZM122.033 141.732L121.017 140.615L119.537 141.96L120.553 143.078L122.033 141.732ZM120.67 140.368L114.356 137.668L113.569 139.507L119.884 142.207L120.67 140.368ZM113.305 137.834L112.507 138.531L113.822 140.038L114.62 139.341L113.305 137.834ZM113.011 138.296L112.169 138.427L112.476 140.403L113.318 140.272L113.011 138.296ZM112.317 138.415L109.776 138.429L109.788 140.429L112.328 140.415L112.317 138.415ZM109.968 138.447L107.82 138.04L107.448 140.006L109.596 140.412L109.968 138.447ZM107.592 138.024L101.989 138.256L102.072 140.254L107.675 140.022L107.592 138.024ZM102.436 138.341L99.518 137.049L98.7082 138.878L101.626 140.17L102.436 138.341ZM98.5745 137.121L92.5796 140.953L93.6567 142.638L99.6517 138.806L98.5745 137.121ZM92.4098 141.09L88.1858 145.328L89.6024 146.74L93.8265 142.501L92.4098 141.09ZM88.8941 145.034H88.4151V147.034H88.8941V145.034ZM89.1501 145.356L87.2486 143.295L85.7785 144.651L87.6801 146.712L89.1501 145.356ZM86.7072 142.992L84.5008 142.556L84.1135 144.518L86.3199 144.954L86.7072 142.992ZM83.8499 142.648L79.2194 145.029L80.1339 146.807L84.7644 144.427L83.8499 142.648ZM79.8415 144.932L74.4562 144.032L74.1265 146.004L79.5118 146.904L79.8415 144.932ZM73.9304 144.085L70.3305 145.479L71.0525 147.344L74.6524 145.951L73.9304 144.085ZM70.4561 145.44L67.2192 146.223L67.6899 148.167L70.9268 147.383L70.4561 145.44ZM66.6243 146.638L64.5776 149.686L66.238 150.801L68.2847 147.753L66.6243 146.638ZM64.5105 149.802L62.7541 153.373L64.5488 154.256L66.3051 150.685L64.5105 149.802ZM62.6532 153.874L62.7403 155.326L64.7367 155.206L64.6496 153.755L62.6532 153.874ZM62.8986 154.723L61.6793 156.61L63.3591 157.696L64.5785 155.809L62.8986 154.723ZM62.1961 156.207L61.0058 156.613L61.6521 158.506L62.8424 158.099L62.1961 156.207ZM61.516 156.577L60.2967 156.345L59.9225 158.31L61.1418 158.542L61.516 156.577ZM59.8125 156.372L59.1593 156.576L59.7535 158.485L60.4067 158.282L59.8125 156.372ZM58.8379 156.745L57.4734 157.819L58.7105 159.39L60.075 158.316L58.8379 156.745ZM57.3038 157.989L54.9233 161.037L56.4995 162.268L58.8801 159.22L57.3038 157.989ZM54.7536 161.366L53.9262 164.124L55.8418 164.698L56.6692 161.94L54.7536 161.366ZM54.1473 165.087L54.9602 165.973L56.4335 164.62L55.6206 163.735L54.1473 165.087ZM54.6973 165.267L54.6828 165.76L56.6819 165.819L56.6964 165.326L54.6973 165.267ZM55.1439 164.947L54.6214 165.281L55.6982 166.966L56.2208 166.632L55.1439 164.947ZM55.6314 165.242L54.3831 164.574L53.4398 166.338L54.6882 167.005L55.6314 165.242ZM54.7938 164.985L54.4454 164.332L52.6807 165.273L53.0291 165.927L54.7938 164.985ZM54.2072 164.038L50.346 160.786L49.0578 162.316L52.9189 165.568L54.2072 164.038ZM49.892 160.57L45.3196 159.684L44.9394 161.648L49.5118 162.533L49.892 160.57ZM45.8208 159.943L43.4693 157.693L42.0866 159.138L44.4382 161.388L45.8208 159.943ZM42.9987 157.441L40.2407 156.816L39.7993 158.767L42.5572 159.391L42.9987 157.441ZM40.0468 156.792L37.884 156.734L37.8303 158.733L39.9932 158.791L40.0468 156.792ZM38.2285 156.805L33.3658 154.86L32.623 156.717L37.4858 158.662L38.2285 156.805ZM33.7753 155.164L32.7882 153.93L31.2265 155.179L32.2135 156.413L33.7753 155.164ZM32.4604 153.663L28.0041 151.399L27.098 153.182L31.5543 155.446L32.4604 153.663ZM28.2243 151.551L27.2517 150.665L25.9053 152.144L26.8778 153.03L28.2243 151.551ZM27.0208 150.508L24.9305 149.477L24.046 151.271L26.1363 152.302L27.0208 150.508ZM24.6357 149.385L22.9809 149.138L22.686 151.117L24.3408 151.363L24.6357 149.385ZM23.3618 149.278L19.4426 146.84L18.386 148.538L22.3052 150.977L23.3618 149.278ZM18.8568 146.691L14.8215 146.923L14.9364 148.919L18.9717 148.687L18.8568 146.691ZM15.0601 146.938L9.54413 145.922L9.18181 147.888L14.6978 148.905L15.0601 146.938ZM10.2934 146.539L10.1047 146.06L8.24387 146.792L8.43253 147.271L10.2934 146.539ZM10.1296 146.722L10.507 145.502L8.59639 144.911L8.21901 146.13L10.1296 146.722ZM10.4507 145.645L11.2781 143.946L9.4801 143.07L8.6527 144.769L10.4507 145.645ZM11.1813 144.105L13.0828 141.551L11.4784 140.357L9.5769 142.911L11.1813 144.105ZM13.263 140.767L13.1469 140.157L11.1822 140.531L11.2983 141.141L13.263 140.767ZM12.5359 139.415L9.26989 138.109L8.52712 139.966L11.7931 141.272L12.5359 139.415ZM8.39181 138.175L6.73701 139.148L7.75039 140.872L9.4052 139.9L8.39181 138.175ZM7.52035 139.049L6.56231 138.773L6.00902 140.695L6.96706 140.971L7.52035 139.049ZM7.11147 139.17L6.70503 138.575L5.05343 139.703L5.45986 140.298L7.11147 139.17ZM6.85843 138.936L6.5246 137.325L4.5662 137.731L4.90003 139.342L6.85843 138.936ZM6.54036 137.628L6.91774 133.883L4.92781 133.683L4.55044 137.428L6.54036 137.628ZM6.91706 133.676L6.64126 131.107L4.65269 131.32L4.92849 133.89L6.91706 133.676ZM6.56504 130.817L5.18608 127.624L3.34995 128.417L4.72891 131.61L6.56504 130.817ZM5.26664 127.968L5.00533 122.989L3.00808 123.094L3.26939 128.073L5.26664 127.968ZM4.84751 122.5L2.80085 119.321L1.11923 120.404L3.16589 123.583L4.84751 122.5ZM2.93557 119.643L2.70332 118.612L0.752249 119.052L0.984504 120.082L2.93557 119.643ZM2.72097 118.948L3.30159 113.998L1.31521 113.765L0.734593 118.715L2.72097 118.948ZM3.14211 114.434L6.84358 108.846L5.17615 107.741L1.47469 113.33L3.14211 114.434ZM7.00145 108.423L7.55305 104.199L5.56989 103.94L5.01828 108.164L7.00145 108.423ZM7.3014 104.742L8.31751 103.624L6.83765 102.279L5.82154 103.397L7.3014 104.742ZM7.96154 103.875L10.8937 102.656L10.1258 100.809L7.19361 102.028L7.96154 103.875ZM11.1875 102.468L13.9745 99.8983L12.6189 98.4279L9.83191 100.997L11.1875 102.468ZM14.1471 99.6893L15.9615 96.7572L14.2608 95.7047L12.4464 98.6369L14.1471 99.6893ZM16.0972 96.3978L16.5762 93.5672L14.6042 93.2335L14.1252 96.0641L16.0972 96.3978ZM16.4864 93.8441L17.2122 92.378L15.4198 91.4907L14.694 92.9567L16.4864 93.8441ZM16.9466 92.7105L18.8046 91.2008L17.5434 89.6486L15.6854 91.1582L16.9466 92.7105ZM19.0415 90.9222L20.2318 88.8464L18.4968 87.8515L17.3065 89.9273L19.0415 90.9222ZM20.3629 88.4009L20.479 86.1654L18.4817 86.0617L18.3656 88.2971L20.3629 88.4009ZM19.9652 86.9882L22.5054 85.5802L21.5358 83.8309L18.9956 85.2389L19.9652 86.9882ZM22.9026 85.1768L24.9348 81.3738L23.1708 80.4312L21.1386 84.2343L22.9026 85.1768ZM24.1018 81.9013L27.9485 81.7125L27.8505 79.715L24.0038 79.9037L24.1018 81.9013ZM28.2009 81.6672L32.1492 80.4189L31.5462 78.512L27.598 79.7603L28.2009 81.6672ZM32.5063 80.2179L32.9707 79.8115L31.6536 78.3064L31.1891 78.7129L32.5063 80.2179ZM33.2163 79.4862L36.0904 73.4042L34.2821 72.5497L31.408 78.6317L33.2163 79.4862ZM35.9903 73.5716L37.0209 72.178L35.4129 70.9888L34.3823 72.3823L35.9903 73.5716ZM37.2049 71.7376L38.1339 65.7862L36.1579 65.4778L35.2288 71.4292L37.2049 71.7376ZM38.0355 66.0888L38.5871 65.0147L36.8079 64.101L36.2563 65.1752L38.0355 66.0888ZM38.4083 65.2613L41.1952 62.4452L39.7737 61.0384L36.9867 63.8544L38.4083 65.2613ZM41.0065 62.5947L43.4017 61.1287L42.3575 59.4229L39.9624 60.8889L41.0065 62.5947ZM43.1157 61.2475L44.6689 60.8701L44.1966 58.9266L42.6435 59.304L43.1157 61.2475ZM43.9489 60.7735L45.7343 61.7606L46.702 60.0102L44.9165 59.0232L43.9489 60.7735ZM46.7347 61.7416L48.4911 60.682L47.458 58.9695L45.7016 60.0292L46.7347 61.7416ZM48.6916 60.5228L50.7093 58.447L49.2752 57.053L47.2575 59.1287L48.6916 60.5228ZM50.9535 58.0256L52.1728 53.7725L50.2503 53.2214L49.031 57.4744L50.9535 58.0256ZM52.1376 53.8744L53.8359 49.7085L51.9838 48.9535L50.2855 53.1195L52.1376 53.8744ZM53.9098 49.3185L53.8953 48.1572L51.8954 48.1822L51.9099 49.3434L53.9098 49.3185ZM53.817 47.7816L53.1202 46.1269L51.277 46.903L51.9737 48.5578L53.817 47.7816ZM53.1769 46.722L54.0188 42.7448L52.0622 42.3306L51.2203 46.3078L53.1769 46.722ZM53.9285 42.9975L56.251 38.5121L54.475 37.5925L52.1525 42.0779L53.9285 42.9975ZM56.3627 38.0291L56.1885 30.5101L54.1891 30.5564L54.3633 38.0755L56.3627 38.0291ZM55.7306 31.3737L57.487 30.2415L56.4034 28.5605L54.647 29.6927L55.7306 31.3737ZM57.8763 29.7657L59.3714 25.9481L57.5092 25.2187L56.014 29.0363L57.8763 29.7657ZM59.286 26.117L62.1892 21.5156L60.4977 20.4484L57.5946 25.0498L59.286 26.117ZM62.283 21.3244L62.8491 19.7712L60.97 19.0863L60.4039 20.6395L62.283 21.3244ZM62.9078 19.3701L62.6756 15.4218L60.679 15.5392L60.9113 19.4875L62.9078 19.3701ZM62.6093 15.843L63.1174 14.5366L61.2533 13.8117L60.7453 15.1181L62.6093 15.843ZM62.8488 14.9224L64.2568 13.674L62.93 12.1775L61.5219 13.4259L62.8488 14.9224ZM64.566 13.1582L64.9579 11.5179L63.0126 11.0531L62.6207 12.6934L64.566 13.1582ZM64.9773 11.1596L64.8612 10.2451L62.8771 10.497L62.9932 11.4115L64.9773 11.1596ZM64.667 10.9739L65.1606 10.3206L63.5648 9.115L63.0713 9.76822L64.667 10.9739ZM65.3571 9.82361L65.6474 7.09466L63.6586 6.88308L63.3683 9.61202L65.3571 9.82361ZM65.5342 7.46168L66.4922 5.67629L64.7298 4.73067L63.7719 6.51606L65.5342 7.46168ZM66.3669 5.85813L68.9943 2.82437L67.4824 1.51506L64.8551 4.54882L66.3669 5.85813ZM68.7106 3.0512L69.5235 2.6157L68.579 0.852745L67.7661 1.28824L68.7106 3.0512ZM68.0514 1.71668L68.0079 4.19884L70.0076 4.23392L70.0511 1.75176L68.0514 1.71668ZM68.1689 3.67202L66.398 6.40097L68.0757 7.48969L69.8466 4.76074L68.1689 3.67202ZM66.2606 6.72839L65.5058 10.125L67.4581 10.5589L68.213 7.16227L66.2606 6.72839ZM66.3176 11.3284L69.8013 11.909L70.1301 9.93625L66.6464 9.35559L66.3176 11.3284ZM69.5417 11.8283L72.7351 13.3234L73.5832 11.5121L70.3897 10.017L69.5417 11.8283ZM73.0579 13.4126L78.7625 13.9932L78.965 12.0035L73.2604 11.4229L73.0579 13.4126ZM78.3796 13.8733L82.8649 16.3555L83.8333 14.6056L79.348 12.1234L78.3796 13.8733ZM83.0176 16.424L88.9255 18.4997L89.5885 16.6128L83.6806 14.5371L83.0176 16.424ZM89.5999 18.4956L90.5144 18.1618L89.8286 16.283L88.9141 16.6169L89.5999 18.4956ZM91.1358 17.487L93.5019 8.86476L91.5732 8.3355L89.2071 16.9578L91.1358 17.487ZM93.3893 9.12403L95.5231 5.65477L93.8195 4.60698L91.6857 8.07623L93.3893 9.12403ZM95.3063 5.90337L97.0192 4.49535L95.7491 2.95036L94.0363 4.35838L95.3063 5.90337ZM95.6326 4.38258L97.3019 6.28412L98.805 4.96468L97.1357 3.06314L95.6326 4.38258ZM97.1784 6.10846L98.688 8.83741L100.438 7.86928L98.9285 5.14034L97.1784 6.10846ZM98.605 8.63998L100.216 14.0253L102.132 13.452L100.521 8.06671L98.605 8.63998ZM100.193 13.9317L101.079 18.4316L103.041 18.0454L102.155 13.5456L100.193 13.9317ZM102.016 19.2375L103.671 19.3101L103.758 17.312L102.104 17.2394L102.016 19.2375ZM104.422 19.0182L105.51 17.9295L104.096 16.5153L103.007 17.604L104.422 19.0182ZM105.761 17.5098L106.197 16.0582L104.281 15.4835L103.845 16.9351L105.761 17.5098ZM105.933 16.4907L106.746 15.7068L105.357 14.2672L104.545 15.051L105.933 16.4907ZM105.929 15.9795L109.936 16.473L110.18 14.488L106.174 13.9945L105.929 15.9795ZM110.174 16.4737L116.75 15.7044L116.517 13.718L109.942 14.4873L110.174 16.4737ZM115.675 14.9962L115.994 16.0703L117.911 15.5004L117.592 14.4262L115.675 14.9962ZM116.012 15.4475L115.199 17.7119L117.081 18.3877L117.894 16.1232L116.012 15.4475ZM115.715 18.9549L120.258 21.0887L121.108 19.2784L116.565 17.1446L115.715 18.9549ZM120.484 21.1636L125.347 22.1507L125.745 20.1907L120.882 19.2036L120.484 21.1636ZM125.661 22.164L126.663 22.0479L126.432 20.0612L125.431 20.1773L125.661 22.164ZM127.536 21.2073L128.276 16.4171L126.3 16.1116L125.559 20.9018L127.536 21.2073ZM127.233 17.2629L128.032 17.3064L128.141 15.3094L127.342 15.2659L127.233 17.2629ZM127.22 16.8073L129.412 20.6104L131.145 19.6117L128.953 15.8086L127.22 16.8073ZM129.816 20.9976L130.483 21.346L131.408 19.5728L130.741 19.2244L129.816 20.9976ZM131.397 21.3518L133.981 20.0454L133.078 18.2606L130.495 19.567L131.397 21.3518ZM134.166 19.9242L137.824 16.905L136.551 15.3625L132.893 18.3818L134.166 19.9242ZM137.403 17.1102L143.979 15.6587L143.548 13.7057L136.972 15.1573L137.403 17.1102ZM143.763 15.6822H146.013V13.6822H143.763V15.6822ZM146.408 15.601L150.124 14.0042L149.334 12.1667L145.618 13.7634L146.408 15.601ZM150.339 13.8777L152.865 11.9326L151.645 10.3481L149.119 12.2932L150.339 13.8777ZM152.511 12.107L160.291 10.0458L159.779 8.11247L151.999 10.1737L152.511 12.107ZM159.364 9.82079L163.313 13.3916L164.654 11.9083L160.706 8.33746L159.364 9.82079ZM162.985 12.7025L163.014 13.2541L165.011 13.149L164.982 12.5974L162.985 12.7025ZM163.417 12.3982L161.341 13.9369L162.532 15.5436L164.608 14.0049L163.417 12.3982ZM160.954 14.5531L160.258 18.2111L162.222 18.5853L162.919 14.9273L160.954 14.5531ZM160.283 18.6882L160.428 19.1672L162.342 18.5871L162.197 18.1081L160.283 18.6882ZM160.927 19.7661L163.293 20.9854L164.209 19.2076L161.843 17.9883L160.927 19.7661ZM162.753 20.0328L162.666 21.3973L164.662 21.5247L164.749 20.1602L162.753 20.0328ZM162.809 20.9431L162.475 21.4947L164.186 22.5304L164.52 21.9788L162.809 20.9431ZM162.787 21.1733L160.479 22.6684L161.566 24.3469L163.874 22.8518L162.787 21.1733ZM160.067 23.2109L158.34 28.7705L160.25 29.3639L161.977 23.8044L160.067 23.2109ZM158.295 29.0349L158.223 31.2848L160.222 31.3493L160.294 29.0994L158.295 29.0349ZM158.237 31.4905L159.137 36.6L161.107 36.2531L160.207 31.1436L158.237 31.4905ZM159.225 36.8675L161.692 41.89L163.487 41.008L161.02 35.9856L159.225 36.8675ZM161.958 42.2237L166.617 46.0268L167.882 44.4774L163.222 40.6743L161.958 42.2237ZM166.255 45.3578L166.328 46.0401L168.316 45.8286L168.244 45.1463L166.255 45.3578ZM166.43 45.4821L165.385 47.5433L167.169 48.4478L168.214 46.3866L166.43 45.4821ZM165.288 47.8479L165.143 48.8205L167.121 49.1157L167.266 48.1431L165.288 47.8479ZM165.2 49.3311L166.172 51.8277L168.036 51.1018L167.064 48.6051L165.2 49.3311ZM166.12 51.6416L166.454 53.4996L168.422 53.1459L168.089 51.2879L166.12 51.6416ZM166.487 53.014L166.124 54.1316L168.026 54.7493L168.389 53.6316L166.487 53.014ZM166.276 53.8398L164.127 56.6994L165.726 57.9007L167.875 55.0411L166.276 53.8398ZM164.216 56.5965L162.765 58.0626L164.186 59.4697L165.638 58.0036L164.216 56.5965ZM163.58 57.7716L158.891 57.2781L158.682 59.2671L163.371 59.7606L163.58 57.7716ZM159.677 57.8173L158.371 55.2626L156.59 56.1731L157.896 58.7279L159.677 57.8173ZM158.002 54.8647L154.489 52.7164L153.446 54.4226L156.959 56.5709L158.002 54.8647ZM153.181 52.9519L151.483 55.1148L153.056 56.35L154.754 54.1871L153.181 52.9519ZM151.281 55.8844L152.123 61.3568L154.1 61.0527L153.258 55.5803L151.281 55.8844ZM152.423 60.4788L151.596 61.2627L152.972 62.7145L153.799 61.9307L152.423 60.4788ZM151.975 61.0376L151.394 61.2263L152.012 63.1283L152.593 62.9396L151.975 61.0376ZM152.083 61.2521L148.047 59.5973L147.288 61.4477L151.324 63.1025L152.083 61.2521ZM147.475 59.5413L145.777 59.8752L146.162 61.8376L147.861 61.5037L147.475 59.5413ZM145.366 60.059L144.829 60.4654L146.036 62.0602L146.573 61.6538L145.366 60.059ZM144.457 61.042L143.412 65.658L145.363 66.0996L146.408 61.4836L144.457 61.042ZM144.25 66.8693L145.295 67.0144L145.57 65.0335L144.525 64.8883L144.25 66.8693ZM144.511 66.4131L145.223 68.0969L147.065 67.3186L146.354 65.6348L144.511 66.4131ZM145.289 67.1893L144.461 68.5537L146.171 69.5907L146.999 68.2263L145.289 67.1893ZM144.624 68.3505L143.565 69.3665L144.949 70.8101L146.008 69.794L144.624 68.3505ZM143.257 70.1093L143.315 72.8673L145.315 72.8252L145.256 70.0673L143.257 70.1093ZM143.491 73.4134L144.101 74.2988L145.748 73.1646L145.138 72.2792L143.491 73.4134ZM144.587 74.6731L145.356 74.9489L146.031 73.0662L145.262 72.7904L144.587 74.6731ZM144.707 74.1674L145.708 80.3511L147.682 80.0313L146.681 73.8477L144.707 74.1674ZM145.988 79.4841L145.219 80.2534L146.633 81.6676L147.402 80.8983L145.988 79.4841ZM145.667 79.9946L140.79 81.301L141.307 83.2329L146.185 81.9265L145.667 79.9946ZM140.498 81.4321L137.174 83.6239L138.275 85.2936L141.599 83.1018L140.498 81.4321ZM137.631 83.4632L135.787 83.6374L135.975 85.6286L137.819 85.4543L137.631 83.4632Z" fill="white" mask="url(#path-1-outside-1_2_41)"/>
</svg>
