<svg width="256" height="209" viewBox="0 0 256 209" fill="none" xmlns="http://www.w3.org/2000/svg">
<mask id="path-1-outside-1_2_43" maskUnits="userSpaceOnUse" x="-0.367432" y="-0.230103" width="257" height="210" fill="black">
<rect fill="white" x="-0.367432" y="-0.230103" width="257" height="210"/>
<path d="M246.7 89.2991L245.379 88.5008L241.692 87.325L239.398 87.4411L237.831 87.9057L236.611 88.7911L233.447 89.2121L231.502 89.0233L233.926 92.3184L233.897 93.4941L232.257 93.3345L230.733 92.2603L230.283 92.2894L227.133 94.1909L225.434 96.9924L225.87 98.0085L227.8 98.981L228.555 99.9391L228.512 102.726L228.076 104.962L228.381 105.557L230.283 106.065L230.529 108.561L230.065 109.171L228.686 109.519L227.278 109.476L226.117 108.968L223.968 109.098L223.344 109.897L224.056 110.927L225.159 111.334L225.812 110.913L226.567 111.044L228.163 112.887L230.007 116.966L230.428 120.493L229.644 124.804L227.162 127.838L225.362 129.086L224.984 129.725L224.636 132.222L223.359 135.546L221.747 137.389L220.339 142.092L219.541 142.557L212.066 142.513L209.569 145.504L209.337 146.113L210.193 150.642L209.366 152.529L208.727 155.926L209.148 156.129L205.475 159.54L203.676 159.932L202.863 160.658L203.937 161.674L200.511 170.456L197.753 175.841L197.623 176.93L199.713 177.119L200.134 178.004L199.829 178.759L196.156 180.181L182.352 186.757L180.363 187.047L180.392 186.38L179.681 186.133L176.009 185.741L175.181 185.828L172.83 187.193L171.015 187.425L166.37 187.541L165.848 187.076L165.108 187.193L159.156 189.776L157.632 190.894L155.15 192.012L154.424 191.605L150.664 191.852L146.44 193.797L142.928 194.871L141.941 195.583L140.126 196.642L136.933 196.962L134.131 198.442L132.346 200.242L129.747 201.215L126.293 201.578L122.896 201.461L122.882 200.75L123.39 200.039L123.259 199.531L121.532 200.01L121.27 203.348L121.619 203.682L121.546 204.902L120.457 206.324L118.57 206.789L117.743 206.164L112.503 207.616L112.227 206.847L109.309 207.195L107.684 206.832L104.737 202.027L106.508 200.997L105.753 198.515L103.14 197.31L100.542 195.524L99.5114 193.187L100.281 190.923L100.557 185.915L100.179 181.648L102.879 177.699L103.895 174.535L103.968 172.691L103.634 172.154L98.2631 170.238L96.8115 170.311L96.4051 170.833L95.2728 171.283L92.9358 171.356L92.9794 170.122L91.7746 167.234L89.8876 164.635L89.3505 161.427L88.9005 160.527L87.7538 159.453L88.0296 156.637L90.2359 153.69L90.323 152.878L89.7424 150.628L87.0134 148.871L86.1716 147.986L86.5925 144.546L87.4199 143.08L87.1296 141.57L82.383 136.707L80.4959 137.128L79.2621 138.057L76.867 136.925L73.4123 137.085L72.9623 137.97L73.2527 138.638L72.614 140.075L68.5786 141.062L66.9674 140.438L64.7755 138.333L63.3094 140.147L51.4357 141.134L50.7679 141.831L50.0712 143.559L50.4631 147.245L49.868 147.884L48.1406 147.129L48.1261 143.094L47.7632 141.701L47.2406 141.134L46.4278 141.062L46.0503 141.338L45.4552 142.978L44.4827 144.342L43.6988 144.807L42.7989 144.778L41.0425 141.73L40.5634 139.668L40.7667 138.347L38.3281 137.201L35.1636 135.139L32.275 135.996L29.9235 135.677L27.4994 136.185L21.2722 134.791L17.5707 134.675L15.0595 132.425L13.9708 132.222L11.7935 133.107L9.71774 135.56L6.93076 136.098L3.80991 137.709L2.039 139.349L2.48898 135.546L1.63257 130.886L3.0696 124.819L3.91149 124.456L5.15985 125.124L5.6824 124.79L5.69693 124.296L4.88405 123.411L5.71146 120.653L8.092 117.605L9.45647 116.53L10.1097 116.327L11.329 116.559L12.5193 116.153L13.7386 114.266L13.6515 112.814L15.4079 109.244L17.4546 106.195L20.6915 105.411L24.2914 104.018L29.6767 104.918L34.3072 102.537L36.5136 102.973L38.4152 105.034H38.8942L43.1182 100.795L49.1132 96.9634L52.0308 98.2553L57.6338 98.023L59.7822 98.4295L62.3224 98.415L63.1643 98.2843L63.9626 97.5876L70.2769 100.287L71.293 101.405L78.3912 97.4279L79.0879 95.8022L80.3363 94.4957L82.0201 94.2054L86.5054 91.2152L84.7781 86.1928L85.5183 83.4493L86.578 82.143L86.8247 81.1123L86.5635 79.6607L85.8812 78.7753L83.5878 77.9479L82.2814 78.6302L80.6992 77.0189L81.3233 73.9126L86.0264 69.5434L89.394 65.6096V64.7387L86.999 58.1196L84.9377 56.6245L83.7039 56.1309L82.47 54.3746L83.0652 52.2408L84.5748 50.4263L85.5619 48.1183L85.1119 45.8394L85.8812 43.633L87.7247 43.4588L91.0488 41.2669L95.9261 39.9605L96.6954 39.1912L95.6938 33.0076L94.9245 32.7318L94.3148 31.8463L94.2568 29.0883L95.3164 28.0722L96.1438 26.7078L95.4325 25.024L94.3874 24.8788L95.4325 20.2628L95.9696 19.8564L97.6679 19.5225L101.703 21.1773L102.284 20.9886L103.111 20.2048L102.269 14.7324L103.968 12.5695L107.48 14.7179L108.787 17.2726L113.475 17.7661L114.927 16.3001L115.667 19.7983L113.592 24.7917L114.172 25.1256L116.117 23.8047L117.133 22.3531L118.178 22.1644L121.27 22.716L122.78 21.5982L125.465 17.8678L126.902 18.0855L128.978 17.3162L131.605 15.0662L132.984 13.3679L135.917 12.7728L140.808 10.0728L141.737 8.46162L147.936 4.06339L153.481 1.7699L156.093 1.90058L157.835 2.62636L161 2.6699L164.309 3.43923L165.543 4.10694L163.67 8.0842L163.453 9.37612L163.83 11.5389L164.716 12.2647L172.452 14.384L173.381 14.1372L174.557 12.5115L177.286 11.2196L179.855 10.8422L183.818 11.9308L185.415 12.7147L191.729 17.9984L193.152 17.7371L196.302 20.0887L199.974 21.8596L201.324 22.1789L202.064 21.874L204.285 23.674L210.658 21.8886L211.209 22.1498L220.673 31.1496L221.312 36.8977L222.139 36.5929L225.928 37.2461L228.062 36.5203L229.978 35.0833L232.866 35.301L236.829 36.1139L240.11 37.6816L243.289 38.567L246.366 38.5235L250.474 42.1088L251.534 42.6604L252.825 42.7621L253.958 44.2426L254.567 45.941L252.434 50.4118L245.234 56.5374L245.016 60.384L245.829 61.8646V62.4743L244.348 63.5049L240.748 63.1565L239.558 64.4339L238.368 69.224L237.599 75.6109L237.918 75.9738L238.426 75.698L238.716 75.0448L239.645 74.6964L240.487 76.4818L240.168 78.6737L240.386 79.414L246.395 83.8558L247.164 85.3654L247.179 86.1347L246.192 88.0943L246.7 89.2991Z"/>
</mask>
<path d="M246.7 89.2991L245.379 88.5008L241.692 87.325L239.398 87.4411L237.831 87.9057L236.611 88.7911L233.447 89.2121L231.502 89.0233L233.926 92.3184L233.897 93.4941L232.257 93.3345L230.733 92.2603L230.283 92.2894L227.133 94.1909L225.434 96.9924L225.87 98.0085L227.8 98.981L228.555 99.9391L228.512 102.726L228.076 104.962L228.381 105.557L230.283 106.065L230.529 108.561L230.065 109.171L228.686 109.519L227.278 109.476L226.117 108.968L223.968 109.098L223.344 109.897L224.056 110.927L225.159 111.334L225.812 110.913L226.567 111.044L228.163 112.887L230.007 116.966L230.428 120.493L229.644 124.804L227.162 127.838L225.362 129.086L224.984 129.725L224.636 132.222L223.359 135.546L221.747 137.389L220.339 142.092L219.541 142.557L212.066 142.513L209.569 145.504L209.337 146.113L210.193 150.642L209.366 152.529L208.727 155.926L209.148 156.129L205.475 159.54L203.676 159.932L202.863 160.658L203.937 161.674L200.511 170.456L197.753 175.841L197.623 176.93L199.713 177.119L200.134 178.004L199.829 178.759L196.156 180.181L182.352 186.757L180.363 187.047L180.392 186.38L179.681 186.133L176.009 185.741L175.181 185.828L172.83 187.193L171.015 187.425L166.37 187.541L165.848 187.076L165.108 187.193L159.156 189.776L157.632 190.894L155.15 192.012L154.424 191.605L150.664 191.852L146.44 193.797L142.928 194.871L141.941 195.583L140.126 196.642L136.933 196.962L134.131 198.442L132.346 200.242L129.747 201.215L126.293 201.578L122.896 201.461L122.882 200.75L123.39 200.039L123.259 199.531L121.532 200.01L121.27 203.348L121.619 203.682L121.546 204.902L120.457 206.324L118.57 206.789L117.743 206.164L112.503 207.616L112.227 206.847L109.309 207.195L107.684 206.832L104.737 202.027L106.508 200.997L105.753 198.515L103.14 197.31L100.542 195.524L99.5114 193.187L100.281 190.923L100.557 185.915L100.179 181.648L102.879 177.699L103.895 174.535L103.968 172.691L103.634 172.154L98.2631 170.238L96.8115 170.311L96.4051 170.833L95.2728 171.283L92.9358 171.356L92.9794 170.122L91.7746 167.234L89.8876 164.635L89.3505 161.427L88.9005 160.527L87.7538 159.453L88.0296 156.637L90.2359 153.69L90.323 152.878L89.7424 150.628L87.0134 148.871L86.1716 147.986L86.5925 144.546L87.4199 143.08L87.1296 141.57L82.383 136.707L80.4959 137.128L79.2621 138.057L76.867 136.925L73.4123 137.085L72.9623 137.97L73.2527 138.638L72.614 140.075L68.5786 141.062L66.9674 140.438L64.7755 138.333L63.3094 140.147L51.4357 141.134L50.7679 141.831L50.0712 143.559L50.4631 147.245L49.868 147.884L48.1406 147.129L48.1261 143.094L47.7632 141.701L47.2406 141.134L46.4278 141.062L46.0503 141.338L45.4552 142.978L44.4827 144.342L43.6988 144.807L42.7989 144.778L41.0425 141.73L40.5634 139.668L40.7667 138.347L38.3281 137.201L35.1636 135.139L32.275 135.996L29.9235 135.677L27.4994 136.185L21.2722 134.791L17.5707 134.675L15.0595 132.425L13.9708 132.222L11.7935 133.107L9.71774 135.56L6.93076 136.098L3.80991 137.709L2.039 139.349L2.48898 135.546L1.63257 130.886L3.0696 124.819L3.91149 124.456L5.15985 125.124L5.6824 124.79L5.69693 124.296L4.88405 123.411L5.71146 120.653L8.092 117.605L9.45647 116.53L10.1097 116.327L11.329 116.559L12.5193 116.153L13.7386 114.266L13.6515 112.814L15.4079 109.244L17.4546 106.195L20.6915 105.411L24.2914 104.018L29.6767 104.918L34.3072 102.537L36.5136 102.973L38.4152 105.034H38.8942L43.1182 100.795L49.1132 96.9634L52.0308 98.2553L57.6338 98.023L59.7822 98.4295L62.3224 98.415L63.1643 98.2843L63.9626 97.5876L70.2769 100.287L71.293 101.405L78.3912 97.4279L79.0879 95.8022L80.3363 94.4957L82.0201 94.2054L86.5054 91.2152L84.7781 86.1928L85.5183 83.4493L86.578 82.143L86.8247 81.1123L86.5635 79.6607L85.8812 78.7753L83.5878 77.9479L82.2814 78.6302L80.6992 77.0189L81.3233 73.9126L86.0264 69.5434L89.394 65.6096V64.7387L86.999 58.1196L84.9377 56.6245L83.7039 56.1309L82.47 54.3746L83.0652 52.2408L84.5748 50.4263L85.5619 48.1183L85.1119 45.8394L85.8812 43.633L87.7247 43.4588L91.0488 41.2669L95.9261 39.9605L96.6954 39.1912L95.6938 33.0076L94.9245 32.7318L94.3148 31.8463L94.2568 29.0883L95.3164 28.0722L96.1438 26.7078L95.4325 25.024L94.3874 24.8788L95.4325 20.2628L95.9696 19.8564L97.6679 19.5225L101.703 21.1773L102.284 20.9886L103.111 20.2048L102.269 14.7324L103.968 12.5695L107.48 14.7179L108.787 17.2726L113.475 17.7661L114.927 16.3001L115.667 19.7983L113.592 24.7917L114.172 25.1256L116.117 23.8047L117.133 22.3531L118.178 22.1644L121.27 22.716L122.78 21.5982L125.465 17.8678L126.902 18.0855L128.978 17.3162L131.605 15.0662L132.984 13.3679L135.917 12.7728L140.808 10.0728L141.737 8.46162L147.936 4.06339L153.481 1.7699L156.093 1.90058L157.835 2.62636L161 2.6699L164.309 3.43923L165.543 4.10694L163.67 8.0842L163.453 9.37612L163.83 11.5389L164.716 12.2647L172.452 14.384L173.381 14.1372L174.557 12.5115L177.286 11.2196L179.855 10.8422L183.818 11.9308L185.415 12.7147L191.729 17.9984L193.152 17.7371L196.302 20.0887L199.974 21.8596L201.324 22.1789L202.064 21.874L204.285 23.674L210.658 21.8886L211.209 22.1498L220.673 31.1496L221.312 36.8977L222.139 36.5929L225.928 37.2461L228.062 36.5203L229.978 35.0833L232.866 35.301L236.829 36.1139L240.11 37.6816L243.289 38.567L246.366 38.5235L250.474 42.1088L251.534 42.6604L252.825 42.7621L253.958 44.2426L254.567 45.941L252.434 50.4118L245.234 56.5374L245.016 60.384L245.829 61.8646V62.4743L244.348 63.5049L240.748 63.1565L239.558 64.4339L238.368 69.224L237.599 75.6109L237.918 75.9738L238.426 75.698L238.716 75.0448L239.645 74.6964L240.487 76.4818L240.168 78.6737L240.386 79.414L246.395 83.8558L247.164 85.3654L247.179 86.1347L246.192 88.0943L246.7 89.2991Z" fill="black"/>
<path d="M246.7 89.2991L245.379 88.5008L241.692 87.325L239.398 87.4411L237.831 87.9057L236.611 88.7911L233.447 89.2121L231.502 89.0233L233.926 92.3184L233.897 93.4941L232.257 93.3345L230.733 92.2603L230.283 92.2894L227.133 94.1909L225.434 96.9924L225.87 98.0085L227.8 98.981L228.555 99.9391L228.512 102.726L228.076 104.962L228.381 105.557L230.283 106.065L230.529 108.561L230.065 109.171L228.686 109.519L227.278 109.476L226.117 108.968L223.968 109.098L223.344 109.897L224.056 110.927L225.159 111.334L225.812 110.913L226.567 111.044L228.163 112.887L230.007 116.966L230.428 120.493L229.644 124.804L227.162 127.838L225.362 129.086L224.984 129.725L224.636 132.222L223.359 135.546L221.747 137.389L220.339 142.092L219.541 142.557L212.066 142.513L209.569 145.504L209.337 146.113L210.193 150.642L209.366 152.529L208.727 155.926L209.148 156.129L205.475 159.54L203.676 159.932L202.863 160.658L203.937 161.674L200.511 170.456L197.753 175.841L197.623 176.93L199.713 177.119L200.134 178.004L199.829 178.759L196.156 180.181L182.352 186.757L180.363 187.047L180.392 186.38L179.681 186.133L176.009 185.741L175.181 185.828L172.83 187.193L171.015 187.425L166.37 187.541L165.848 187.076L165.108 187.193L159.156 189.776L157.632 190.894L155.15 192.012L154.424 191.605L150.664 191.852L146.44 193.797L142.928 194.871L141.941 195.583L140.126 196.642L136.933 196.962L134.131 198.442L132.346 200.242L129.747 201.215L126.293 201.578L122.896 201.461L122.882 200.75L123.39 200.039L123.259 199.531L121.532 200.01L121.27 203.348L121.619 203.682L121.546 204.902L120.457 206.324L118.57 206.789L117.743 206.164L112.503 207.616L112.227 206.847L109.309 207.195L107.684 206.832L104.737 202.027L106.508 200.997L105.753 198.515L103.14 197.31L100.542 195.524L99.5114 193.187L100.281 190.923L100.557 185.915L100.179 181.648L102.879 177.699L103.895 174.535L103.968 172.691L103.634 172.154L98.2631 170.238L96.8115 170.311L96.4051 170.833L95.2728 171.283L92.9358 171.356L92.9794 170.122L91.7746 167.234L89.8876 164.635L89.3505 161.427L88.9005 160.527L87.7538 159.453L88.0296 156.637L90.2359 153.69L90.323 152.878L89.7424 150.628L87.0134 148.871L86.1716 147.986L86.5925 144.546L87.4199 143.08L87.1296 141.57L82.383 136.707L80.4959 137.128L79.2621 138.057L76.867 136.925L73.4123 137.085L72.9623 137.97L73.2527 138.638L72.614 140.075L68.5786 141.062L66.9674 140.438L64.7755 138.333L63.3094 140.147L51.4357 141.134L50.7679 141.831L50.0712 143.559L50.4631 147.245L49.868 147.884L48.1406 147.129L48.1261 143.094L47.7632 141.701L47.2406 141.134L46.4278 141.062L46.0503 141.338L45.4552 142.978L44.4827 144.342L43.6988 144.807L42.7989 144.778L41.0425 141.73L40.5634 139.668L40.7667 138.347L38.3281 137.201L35.1636 135.139L32.275 135.996L29.9235 135.677L27.4994 136.185L21.2722 134.791L17.5707 134.675L15.0595 132.425L13.9708 132.222L11.7935 133.107L9.71774 135.56L6.93076 136.098L3.80991 137.709L2.039 139.349L2.48898 135.546L1.63257 130.886L3.0696 124.819L3.91149 124.456L5.15985 125.124L5.6824 124.79L5.69693 124.296L4.88405 123.411L5.71146 120.653L8.092 117.605L9.45647 116.53L10.1097 116.327L11.329 116.559L12.5193 116.153L13.7386 114.266L13.6515 112.814L15.4079 109.244L17.4546 106.195L20.6915 105.411L24.2914 104.018L29.6767 104.918L34.3072 102.537L36.5136 102.973L38.4152 105.034H38.8942L43.1182 100.795L49.1132 96.9634L52.0308 98.2553L57.6338 98.023L59.7822 98.4295L62.3224 98.415L63.1643 98.2843L63.9626 97.5876L70.2769 100.287L71.293 101.405L78.3912 97.4279L79.0879 95.8022L80.3363 94.4957L82.0201 94.2054L86.5054 91.2152L84.7781 86.1928L85.5183 83.4493L86.578 82.143L86.8247 81.1123L86.5635 79.6607L85.8812 78.7753L83.5878 77.9479L82.2814 78.6302L80.6992 77.0189L81.3233 73.9126L86.0264 69.5434L89.394 65.6096V64.7387L86.999 58.1196L84.9377 56.6245L83.7039 56.1309L82.47 54.3746L83.0652 52.2408L84.5748 50.4263L85.5619 48.1183L85.1119 45.8394L85.8812 43.633L87.7247 43.4588L91.0488 41.2669L95.9261 39.9605L96.6954 39.1912L95.6938 33.0076L94.9245 32.7318L94.3148 31.8463L94.2568 29.0883L95.3164 28.0722L96.1438 26.7078L95.4325 25.024L94.3874 24.8788L95.4325 20.2628L95.9696 19.8564L97.6679 19.5225L101.703 21.1773L102.284 20.9886L103.111 20.2048L102.269 14.7324L103.968 12.5695L107.48 14.7179L108.787 17.2726L113.475 17.7661L114.927 16.3001L115.667 19.7983L113.592 24.7917L114.172 25.1256L116.117 23.8047L117.133 22.3531L118.178 22.1644L121.27 22.716L122.78 21.5982L125.465 17.8678L126.902 18.0855L128.978 17.3162L131.605 15.0662L132.984 13.3679L135.917 12.7728L140.808 10.0728L141.737 8.46162L147.936 4.06339L153.481 1.7699L156.093 1.90058L157.835 2.62636L161 2.6699L164.309 3.43923L165.543 4.10694L163.67 8.0842L163.453 9.37612L163.83 11.5389L164.716 12.2647L172.452 14.384L173.381 14.1372L174.557 12.5115L177.286 11.2196L179.855 10.8422L183.818 11.9308L185.415 12.7147L191.729 17.9984L193.152 17.7371L196.302 20.0887L199.974 21.8596L201.324 22.1789L202.064 21.874L204.285 23.674L210.658 21.8886L211.209 22.1498L220.673 31.1496L221.312 36.8977L222.139 36.5929L225.928 37.2461L228.062 36.5203L229.978 35.0833L232.866 35.301L236.829 36.1139L240.11 37.6816L243.289 38.567L246.366 38.5235L250.474 42.1088L251.534 42.6604L252.825 42.7621L253.958 44.2426L254.567 45.941L252.434 50.4118L245.234 56.5374L245.016 60.384L245.829 61.8646V62.4743L244.348 63.5049L240.748 63.1565L239.558 64.4339L238.368 69.224L237.599 75.6109L237.918 75.9738L238.426 75.698L238.716 75.0448L239.645 74.6964L240.487 76.4818L240.168 78.6737L240.386 79.414L246.395 83.8558L247.164 85.3654L247.179 86.1347L246.192 88.0943L246.7 89.2991Z" stroke="white" stroke-width="2" mask="url(#path-1-outside-1_2_43)"/>
</svg>
