<svg width="264" height="250" viewBox="0 0 264 250" fill="none" xmlns="http://www.w3.org/2000/svg">
<mask id="path-1-outside-1_2_45" maskUnits="userSpaceOnUse" x="-0.296143" y="-0.552032" width="264" height="251" fill="black">
<rect fill="white" x="-0.296143" y="-0.552032" width="264" height="251"/>
<path d="M23.4161 146.735L25.5499 144.659L31.5158 140.929L32.2706 137.372L34.3463 131.885L35.6963 130.318L38.0769 129.548L38.701 128.953L39.5429 127.734L40.2977 124.468L42.7073 121.55L43.5202 118.299L43.6218 115.817L42.7799 113.654L42.838 110.678L40.6171 105.83L39.3107 105.873L38.4688 105.133L37.8446 100.416L38.0478 98.4994L40.0219 96.9318L42.0541 94.3915L42.3009 93.3029L40.2542 88.0917L38.701 87.4676L37.0898 87.3079L32.0093 87.4385L30.2384 85.8273L30.5868 85.0144L5.67798 84.9419L6.98438 71.8778L4.80704 67.886L4.41511 65.3312L4.45865 64.17L5.91022 59.0605L5.35864 56.259L6.72311 53.8349L5.51831 50.5398L5.30056 48.5222L4.92316 47.6367L3.79095 46.9545L3.70386 46.4464L5.57636 39.2031L6.67954 37.1419L5.80862 35.342L3.77642 33.9339L73.2337 33.4695L74.9901 32.4098L76.7029 24.8326L78.7061 18.707L78.0384 15.891L77.0803 13.9024L76.9352 12.6686L77.5448 11.4347L78.7932 10.5057L80.5351 7.86389L80.927 6.3978L80.4335 5.17849L80.5205 4.07531L80.8109 3.18986L82.5237 1.44797L84.222 3.01566L87.7784 8.909L88.359 11.4638L90.3476 17.2119L92.2637 20.0135L93.3814 22.365L93.0475 25.9068L93.7443 29.3905L94.8039 32.584L97.0248 34.1952L101.38 38.187L106.286 40.6547L106.62 42.0192L106.562 43.6159L106.895 44.3271L108.274 44.9078L109.465 44.661L111.831 45.3142L112.615 46.3593L112.905 47.927L113.413 48.3915L115.402 47.7383L120.758 49.9011L170.169 53.4139L261.574 58.4654L260.63 59.9459L259.818 62.6894L258.221 64.5038L257.582 69.0618L256.958 70.2956L256.421 70.6875L253.605 78.3663L252.821 82.6774L252.763 86.9595L250.034 95.6544L250.121 96.9027L252.139 98.8478L251.907 100.111L250.716 101.403L250.644 102.128L252.24 105.394L251.558 110.199L251.573 112.478L252.328 113.32L252.966 117.747L251.892 121.753L253.315 126.602L254.708 127.342L255.869 127.371L255.985 128.286L255.594 129.926L254.186 131.174L253.677 132.481L253.91 136.429L253.344 137.982L250.44 142.583L248.945 146.401L247.189 147.533L247.363 155.052L245.041 159.538L244.199 163.515L244.896 165.17L244.91 166.331L243.212 170.497L241.992 174.75L239.975 176.826L238.218 177.885L236.433 176.898L234.88 177.276L232.485 178.742L229.698 181.558L229.146 182.632L228.217 188.583L227.186 189.977L224.312 196.059L223.848 196.465L219.9 197.714L216.053 197.902L214.021 201.706L211.481 203.114L211.364 205.349L210.174 207.425L208.316 208.934L207.59 210.4L207.111 213.231L205.297 216.163L202.51 218.732L199.578 219.952L198.562 221.069L198.01 225.293L194.309 230.882L193.728 235.832L193.96 236.862L196.007 240.041L196.268 245.02L197.647 248.214L195.397 248.664L193.699 247.836L192.436 247.72L188.575 247.836L187.747 248.664L181.041 248.272L178.516 246.428L176.629 246.269L176.411 245.499L176.687 244.831L179.096 240.724L181.709 239.707L183.494 230.113L181.549 230.301L173.392 239.025L171.925 238.938L168.834 240.215L167.397 240.157L167.048 239.795L166.613 237.806L164.305 236.296L160.763 236.195L158.687 237.08L157.976 238.314L156.147 239.475L149.586 240.39L147.786 239.562L145.957 237.951L141.559 236.267L140.427 234.787L140.035 233.538L139.091 233.03L135.288 232.348L131.238 230.534L130.135 228.864L128.291 228.574L125.359 229.285L123.4 231.1L120.99 231.84L119.872 231.346L117.608 231.666L113.848 231.622L111.816 233.727L111.686 235.425L108.753 239.707L105.778 242.611L97.6199 245.47L94.4991 243.264L93.0185 241.667L92.0024 241.377L91.0444 240.404L90.5799 239.243L91.3637 238.212L87.8219 235.091L85.9639 236.006L85.2091 235.933L83.5108 234.946L82.8576 233.93L79.9254 231.884L77.182 230.78L76.7465 230.316L76.311 228.69L75.9772 224.437L75.0917 221.868L74.8159 216.555L76.0933 214.174L77.7481 212.592L78.2416 210.008L78.169 207.265L76.7755 207.352L76.1949 208.223L75.6433 208.455L36.6543 206.888L35.1302 188.525L27.3353 179.627L34.4189 179.54L33.9109 168.581L30.0787 160.859L29.3675 157.999L29.7449 156.46L30.6303 155.662L31.5739 153.804L29.4836 149.551L24.9692 148.041L23.4161 146.735Z"/>
</mask>
<path d="M23.4161 146.735L25.5499 144.659L31.5158 140.929L32.2706 137.372L34.3463 131.885L35.6963 130.318L38.0769 129.548L38.701 128.953L39.5429 127.734L40.2977 124.468L42.7073 121.55L43.5202 118.299L43.6218 115.817L42.7799 113.654L42.838 110.678L40.6171 105.83L39.3107 105.873L38.4688 105.133L37.8446 100.416L38.0478 98.4994L40.0219 96.9318L42.0541 94.3915L42.3009 93.3029L40.2542 88.0917L38.701 87.4676L37.0898 87.3079L32.0093 87.4385L30.2384 85.8273L30.5868 85.0144L5.67798 84.9419L6.98438 71.8778L4.80704 67.886L4.41511 65.3312L4.45865 64.17L5.91022 59.0605L5.35864 56.259L6.72311 53.8349L5.51831 50.5398L5.30056 48.5222L4.92316 47.6367L3.79095 46.9545L3.70386 46.4464L5.57636 39.2031L6.67954 37.1419L5.80862 35.342L3.77642 33.9339L73.2337 33.4695L74.9901 32.4098L76.7029 24.8326L78.7061 18.707L78.0384 15.891L77.0803 13.9024L76.9352 12.6686L77.5448 11.4347L78.7932 10.5057L80.5351 7.86389L80.927 6.3978L80.4335 5.17849L80.5205 4.07531L80.8109 3.18986L82.5237 1.44797L84.222 3.01566L87.7784 8.909L88.359 11.4638L90.3476 17.2119L92.2637 20.0135L93.3814 22.365L93.0475 25.9068L93.7443 29.3905L94.8039 32.584L97.0248 34.1952L101.38 38.187L106.286 40.6547L106.62 42.0192L106.562 43.6159L106.895 44.3271L108.274 44.9078L109.465 44.661L111.831 45.3142L112.615 46.3593L112.905 47.927L113.413 48.3915L115.402 47.7383L120.758 49.9011L170.169 53.4139L261.574 58.4654L260.63 59.9459L259.818 62.6894L258.221 64.5038L257.582 69.0618L256.958 70.2956L256.421 70.6875L253.605 78.3663L252.821 82.6774L252.763 86.9595L250.034 95.6544L250.121 96.9027L252.139 98.8478L251.907 100.111L250.716 101.403L250.644 102.128L252.24 105.394L251.558 110.199L251.573 112.478L252.328 113.32L252.966 117.747L251.892 121.753L253.315 126.602L254.708 127.342L255.869 127.371L255.985 128.286L255.594 129.926L254.186 131.174L253.677 132.481L253.91 136.429L253.344 137.982L250.44 142.583L248.945 146.401L247.189 147.533L247.363 155.052L245.041 159.538L244.199 163.515L244.896 165.17L244.91 166.331L243.212 170.497L241.992 174.75L239.975 176.826L238.218 177.885L236.433 176.898L234.88 177.276L232.485 178.742L229.698 181.558L229.146 182.632L228.217 188.583L227.186 189.977L224.312 196.059L223.848 196.465L219.9 197.714L216.053 197.902L214.021 201.706L211.481 203.114L211.364 205.349L210.174 207.425L208.316 208.934L207.59 210.4L207.111 213.231L205.297 216.163L202.51 218.732L199.578 219.952L198.562 221.069L198.01 225.293L194.309 230.882L193.728 235.832L193.96 236.862L196.007 240.041L196.268 245.02L197.647 248.214L195.397 248.664L193.699 247.836L192.436 247.72L188.575 247.836L187.747 248.664L181.041 248.272L178.516 246.428L176.629 246.269L176.411 245.499L176.687 244.831L179.096 240.724L181.709 239.707L183.494 230.113L181.549 230.301L173.392 239.025L171.925 238.938L168.834 240.215L167.397 240.157L167.048 239.795L166.613 237.806L164.305 236.296L160.763 236.195L158.687 237.08L157.976 238.314L156.147 239.475L149.586 240.39L147.786 239.562L145.957 237.951L141.559 236.267L140.427 234.787L140.035 233.538L139.091 233.03L135.288 232.348L131.238 230.534L130.135 228.864L128.291 228.574L125.359 229.285L123.4 231.1L120.99 231.84L119.872 231.346L117.608 231.666L113.848 231.622L111.816 233.727L111.686 235.425L108.753 239.707L105.778 242.611L97.6199 245.47L94.4991 243.264L93.0185 241.667L92.0024 241.377L91.0444 240.404L90.5799 239.243L91.3637 238.212L87.8219 235.091L85.9639 236.006L85.2091 235.933L83.5108 234.946L82.8576 233.93L79.9254 231.884L77.182 230.78L76.7465 230.316L76.311 228.69L75.9772 224.437L75.0917 221.868L74.8159 216.555L76.0933 214.174L77.7481 212.592L78.2416 210.008L78.169 207.265L76.7755 207.352L76.1949 208.223L75.6433 208.455L36.6543 206.888L35.1302 188.525L27.3353 179.627L34.4189 179.54L33.9109 168.581L30.0787 160.859L29.3675 157.999L29.7449 156.46L30.6303 155.662L31.5739 153.804L29.4836 149.551L24.9692 148.041L23.4161 146.735Z" fill="black"/>
<path d="M23.4161 146.735L25.5499 144.659L31.5158 140.929L32.2706 137.372L34.3463 131.885L35.6963 130.318L38.0769 129.548L38.701 128.953L39.5429 127.734L40.2977 124.468L42.7073 121.55L43.5202 118.299L43.6218 115.817L42.7799 113.654L42.838 110.678L40.6171 105.83L39.3107 105.873L38.4688 105.133L37.8446 100.416L38.0478 98.4994L40.0219 96.9318L42.0541 94.3915L42.3009 93.3029L40.2542 88.0917L38.701 87.4676L37.0898 87.3079L32.0093 87.4385L30.2384 85.8273L30.5868 85.0144L5.67798 84.9419L6.98438 71.8778L4.80704 67.886L4.41511 65.3312L4.45865 64.17L5.91022 59.0605L5.35864 56.259L6.72311 53.8349L5.51831 50.5398L5.30056 48.5222L4.92316 47.6367L3.79095 46.9545L3.70386 46.4464L5.57636 39.2031L6.67954 37.1419L5.80862 35.342L3.77642 33.9339L73.2337 33.4695L74.9901 32.4098L76.7029 24.8326L78.7061 18.707L78.0384 15.891L77.0803 13.9024L76.9352 12.6686L77.5448 11.4347L78.7932 10.5057L80.5351 7.86389L80.927 6.3978L80.4335 5.17849L80.5205 4.07531L80.8109 3.18986L82.5237 1.44797L84.222 3.01566L87.7784 8.909L88.359 11.4638L90.3476 17.2119L92.2637 20.0135L93.3814 22.365L93.0475 25.9068L93.7443 29.3905L94.8039 32.584L97.0248 34.1952L101.38 38.187L106.286 40.6547L106.62 42.0192L106.562 43.6159L106.895 44.3271L108.274 44.9078L109.465 44.661L111.831 45.3142L112.615 46.3593L112.905 47.927L113.413 48.3915L115.402 47.7383L120.758 49.9011L170.169 53.4139L261.574 58.4654L260.63 59.9459L259.818 62.6894L258.221 64.5038L257.582 69.0618L256.958 70.2956L256.421 70.6875L253.605 78.3663L252.821 82.6774L252.763 86.9595L250.034 95.6544L250.121 96.9027L252.139 98.8478L251.907 100.111L250.716 101.403L250.644 102.128L252.24 105.394L251.558 110.199L251.573 112.478L252.328 113.32L252.966 117.747L251.892 121.753L253.315 126.602L254.708 127.342L255.869 127.371L255.985 128.286L255.594 129.926L254.186 131.174L253.677 132.481L253.91 136.429L253.344 137.982L250.44 142.583L248.945 146.401L247.189 147.533L247.363 155.052L245.041 159.538L244.199 163.515L244.896 165.17L244.91 166.331L243.212 170.497L241.992 174.75L239.975 176.826L238.218 177.885L236.433 176.898L234.88 177.276L232.485 178.742L229.698 181.558L229.146 182.632L228.217 188.583L227.186 189.977L224.312 196.059L223.848 196.465L219.9 197.714L216.053 197.902L214.021 201.706L211.481 203.114L211.364 205.349L210.174 207.425L208.316 208.934L207.59 210.4L207.111 213.231L205.297 216.163L202.51 218.732L199.578 219.952L198.562 221.069L198.01 225.293L194.309 230.882L193.728 235.832L193.96 236.862L196.007 240.041L196.268 245.02L197.647 248.214L195.397 248.664L193.699 247.836L192.436 247.72L188.575 247.836L187.747 248.664L181.041 248.272L178.516 246.428L176.629 246.269L176.411 245.499L176.687 244.831L179.096 240.724L181.709 239.707L183.494 230.113L181.549 230.301L173.392 239.025L171.925 238.938L168.834 240.215L167.397 240.157L167.048 239.795L166.613 237.806L164.305 236.296L160.763 236.195L158.687 237.08L157.976 238.314L156.147 239.475L149.586 240.39L147.786 239.562L145.957 237.951L141.559 236.267L140.427 234.787L140.035 233.538L139.091 233.03L135.288 232.348L131.238 230.534L130.135 228.864L128.291 228.574L125.359 229.285L123.4 231.1L120.99 231.84L119.872 231.346L117.608 231.666L113.848 231.622L111.816 233.727L111.686 235.425L108.753 239.707L105.778 242.611L97.6199 245.47L94.4991 243.264L93.0185 241.667L92.0024 241.377L91.0444 240.404L90.5799 239.243L91.3637 238.212L87.8219 235.091L85.9639 236.006L85.2091 235.933L83.5108 234.946L82.8576 233.93L79.9254 231.884L77.182 230.78L76.7465 230.316L76.311 228.69L75.9772 224.437L75.0917 221.868L74.8159 216.555L76.0933 214.174L77.7481 212.592L78.2416 210.008L78.169 207.265L76.7755 207.352L76.1949 208.223L75.6433 208.455L36.6543 206.888L35.1302 188.525L27.3353 179.627L34.4189 179.54L33.9109 168.581L30.0787 160.859L29.3675 157.999L29.7449 156.46L30.6303 155.662L31.5739 153.804L29.4836 149.551L24.9692 148.041L23.4161 146.735Z" stroke="white" stroke-width="2" mask="url(#path-1-outside-1_2_45)"/>
</svg>
