<svg width="117" height="189" viewBox="0 0 117 189" fill="none" xmlns="http://www.w3.org/2000/svg">
<mask id="path-1-outside-1_2_59" maskUnits="userSpaceOnUse" x="-0.966064" y="-0.789017" width="118" height="189" fill="black">
<rect fill="white" x="-0.966064" y="-0.789017" width="118" height="189"/>
<path d="M103.035 175.079L95.2549 177.14L92.7292 179.085L89.0132 180.682H86.7633L80.1876 182.134L76.5297 185.153L73.9459 186.459L73.2782 186.111L71.0864 182.308L70.288 182.264L69.5477 187.055L68.5461 187.171L63.6834 186.184L59.14 184.05L59.9529 181.785L59.6335 180.711L53.058 181.481L49.0516 180.987L48.2388 181.771L47.8033 183.222L46.7146 184.311L45.0598 184.238L44.1744 179.739L42.5632 174.353L41.0535 171.624L39.3842 169.723L37.6714 171.131L35.5376 174.6L33.1715 183.222L32.2571 183.556L26.3492 181.481L21.8639 178.998L16.1592 178.418L12.9658 176.923L9.48204 176.342L10.2369 172.945L12.0078 170.216L12.0513 167.734L11.2384 168.17L8.61109 171.203L7.6531 172.989L7.36277 175.718L6.86924 176.371L5.70797 176.342L4.31448 175.602L2.89193 170.754L3.96612 166.747L3.32743 162.32L2.57263 161.478L2.5581 159.199L3.24034 154.394L1.64361 151.128L1.71617 150.403L2.90646 149.111L3.13872 147.848L1.12107 145.903L1.03394 144.654L3.76288 135.96L3.82095 131.677L4.60481 127.366L7.42085 119.688L7.95792 119.296L8.58208 118.062L9.22077 113.504L10.8175 111.689L11.6304 108.946L12.5739 107.465L14.9254 102.109L16.5657 95.6496L18.235 93.3562L19.9623 91.7595L21.7187 89.3208L23.2138 86.5338L25.2025 85.1984L26.7266 84.9662L27.7863 83.7323L29.1507 81.4969L29.412 80.0599L31.8796 75.3568L33.4619 74.1955L36.0166 66.72L36.9746 60.8557L36.7569 60.4202L35.6828 59.9557L33.2586 57.43L32.3877 56.051L32.1554 54.7737L32.3587 53.9463L34.4054 51.4931L36.2779 48.4448L36.1908 44.5692L35.5666 41.4048L35.8424 40.8967L39.4278 38.3129L44.3776 36.6581L48.0065 34.9018L48.3549 34.176L48.1372 31.9841L49.3855 30.1406L51.5773 28.1955L53.4499 27.9778L53.7257 26.0327L53.3047 24.2908L53.6676 23.6231L55.7869 22.9554L56.7159 22.2586L58.0658 18.2668L56.5853 16.3218L56.4546 14.2896L56.8755 13.8831L58.2836 13.767L59.3287 13.2299L59.8658 12.2719L59.9093 11.3429L58.0804 9.64456L56.8175 9.44134L56.2514 8.99136L54.7708 6.58178L52.8983 6.40758L50.1839 6.77047L46.8598 5.59471L47.6291 4.66571L51.4322 1.98031L54.2773 1.21098L55.5401 1.28357L59.5755 3.48995L61.6077 3.60607L62.9867 2.85126L65.5124 3.2722L66.3688 4.27378L66.4849 5.76889L66.8914 6.2334L68.6623 6.27694L73.5976 8.35267L74.8169 9.8478L75.4991 14.9283L76.4281 17.1056L76.1233 22.5054L76.4571 24.0731L77.4297 25.7134L77.4152 26.3521L74.8459 35.2792L74.3959 38.7194L74.8023 40.1709L74.4395 42.4789L71.8992 45.4401L69.3445 46.4126L69.0832 47.4433L71.8992 49.3593L72.5089 48.9674L74.4975 49.3158L74.8604 49.8238L75.0201 51.1012L74.1201 52.8285L75.3539 54.9188L76.6313 54.8172L80.986 60.8557L82.3069 62.0895L85.6165 66.4732L88.7228 64.5282L94.921 63.1637L97.5338 64.9346L97.65 67.4748L96.7209 72.1924L97.2871 74.152L92.3663 74.6601L90.4212 75.4439L89.5938 76.2423L88.6067 78.318L87.5471 82.2082L88.0841 84.0952L84.2666 87.7967L83.8891 88.8128L84.1794 89.4224L87.1987 89.8434L88.5632 90.845L89.6373 93.153L89.7244 95.5625L90.6244 97.0722L96.2564 99.9027L96.3871 100.672L94.0065 103.299L94.1952 105.694L97.3016 108.046L98.7386 112.212L100.684 115.115L101.714 115.376L104.298 115.072L105.75 115.507L106.94 116.146L107.825 117.336L109.683 118.294L113.951 118.599L112.949 119.542L112.63 120.965L111.817 121.647L106.272 124.579L101.613 128.382L101.337 128.919L103.209 131.532L102.687 132.098L101.221 132.49L99.9144 133.376L97.708 138.442L96.242 139.487L95.5162 141.171L95.85 142.506L98.5499 145.337L103.761 146.309L106.475 147.746L106.548 148.849L105.735 149.503L102.774 150.678L102.15 152.072L102.28 152.798L102.788 153.277L104.284 153.015L105.619 153.436L106.461 154.177L106.882 155.106L105.488 156.136L103.819 156.746L100.989 159.17L100.713 160.404L100.64 164.642L101.148 166.457L102.513 167.415L104.037 167.763L104.632 168.126L104.879 168.736L104.951 170.274L102.977 173.729L103.035 175.079Z"/>
</mask>
<path d="M103.035 175.079L95.2549 177.14L92.7292 179.085L89.0132 180.682H86.7633L80.1876 182.134L76.5297 185.153L73.9459 186.459L73.2782 186.111L71.0864 182.308L70.288 182.264L69.5477 187.055L68.5461 187.171L63.6834 186.184L59.14 184.05L59.9529 181.785L59.6335 180.711L53.058 181.481L49.0516 180.987L48.2388 181.771L47.8033 183.222L46.7146 184.311L45.0598 184.238L44.1744 179.739L42.5632 174.353L41.0535 171.624L39.3842 169.723L37.6714 171.131L35.5376 174.6L33.1715 183.222L32.2571 183.556L26.3492 181.481L21.8639 178.998L16.1592 178.418L12.9658 176.923L9.48204 176.342L10.2369 172.945L12.0078 170.216L12.0513 167.734L11.2384 168.17L8.61109 171.203L7.6531 172.989L7.36277 175.718L6.86924 176.371L5.70797 176.342L4.31448 175.602L2.89193 170.754L3.96612 166.747L3.32743 162.32L2.57263 161.478L2.5581 159.199L3.24034 154.394L1.64361 151.128L1.71617 150.403L2.90646 149.111L3.13872 147.848L1.12107 145.903L1.03394 144.654L3.76288 135.96L3.82095 131.677L4.60481 127.366L7.42085 119.688L7.95792 119.296L8.58208 118.062L9.22077 113.504L10.8175 111.689L11.6304 108.946L12.5739 107.465L14.9254 102.109L16.5657 95.6496L18.235 93.3562L19.9623 91.7595L21.7187 89.3208L23.2138 86.5338L25.2025 85.1984L26.7266 84.9662L27.7863 83.7323L29.1507 81.4969L29.412 80.0599L31.8796 75.3568L33.4619 74.1955L36.0166 66.72L36.9746 60.8557L36.7569 60.4202L35.6828 59.9557L33.2586 57.43L32.3877 56.051L32.1554 54.7737L32.3587 53.9463L34.4054 51.4931L36.2779 48.4448L36.1908 44.5692L35.5666 41.4048L35.8424 40.8967L39.4278 38.3129L44.3776 36.6581L48.0065 34.9018L48.3549 34.176L48.1372 31.9841L49.3855 30.1406L51.5773 28.1955L53.4499 27.9778L53.7257 26.0327L53.3047 24.2908L53.6676 23.6231L55.7869 22.9554L56.7159 22.2586L58.0658 18.2668L56.5853 16.3218L56.4546 14.2896L56.8755 13.8831L58.2836 13.767L59.3287 13.2299L59.8658 12.2719L59.9093 11.3429L58.0804 9.64456L56.8175 9.44134L56.2514 8.99136L54.7708 6.58178L52.8983 6.40758L50.1839 6.77047L46.8598 5.59471L47.6291 4.66571L51.4322 1.98031L54.2773 1.21098L55.5401 1.28357L59.5755 3.48995L61.6077 3.60607L62.9867 2.85126L65.5124 3.2722L66.3688 4.27378L66.4849 5.76889L66.8914 6.2334L68.6623 6.27694L73.5976 8.35267L74.8169 9.8478L75.4991 14.9283L76.4281 17.1056L76.1233 22.5054L76.4571 24.0731L77.4297 25.7134L77.4152 26.3521L74.8459 35.2792L74.3959 38.7194L74.8023 40.1709L74.4395 42.4789L71.8992 45.4401L69.3445 46.4126L69.0832 47.4433L71.8992 49.3593L72.5089 48.9674L74.4975 49.3158L74.8604 49.8238L75.0201 51.1012L74.1201 52.8285L75.3539 54.9188L76.6313 54.8172L80.986 60.8557L82.3069 62.0895L85.6165 66.4732L88.7228 64.5282L94.921 63.1637L97.5338 64.9346L97.65 67.4748L96.7209 72.1924L97.2871 74.152L92.3663 74.6601L90.4212 75.4439L89.5938 76.2423L88.6067 78.318L87.5471 82.2082L88.0841 84.0952L84.2666 87.7967L83.8891 88.8128L84.1794 89.4224L87.1987 89.8434L88.5632 90.845L89.6373 93.153L89.7244 95.5625L90.6244 97.0722L96.2564 99.9027L96.3871 100.672L94.0065 103.299L94.1952 105.694L97.3016 108.046L98.7386 112.212L100.684 115.115L101.714 115.376L104.298 115.072L105.75 115.507L106.94 116.146L107.825 117.336L109.683 118.294L113.951 118.599L112.949 119.542L112.63 120.965L111.817 121.647L106.272 124.579L101.613 128.382L101.337 128.919L103.209 131.532L102.687 132.098L101.221 132.49L99.9144 133.376L97.708 138.442L96.242 139.487L95.5162 141.171L95.85 142.506L98.5499 145.337L103.761 146.309L106.475 147.746L106.548 148.849L105.735 149.503L102.774 150.678L102.15 152.072L102.28 152.798L102.788 153.277L104.284 153.015L105.619 153.436L106.461 154.177L106.882 155.106L105.488 156.136L103.819 156.746L100.989 159.17L100.713 160.404L100.64 164.642L101.148 166.457L102.513 167.415L104.037 167.763L104.632 168.126L104.879 168.736L104.951 170.274L102.977 173.729L103.035 175.079Z" fill="black"/>
<path d="M103.035 175.079L95.2549 177.14L92.7292 179.085L89.0132 180.682H86.7633L80.1876 182.134L76.5297 185.153L73.9459 186.459L73.2782 186.111L71.0864 182.308L70.288 182.264L69.5477 187.055L68.5461 187.171L63.6834 186.184L59.14 184.05L59.9529 181.785L59.6335 180.711L53.058 181.481L49.0516 180.987L48.2388 181.771L47.8033 183.222L46.7146 184.311L45.0598 184.238L44.1744 179.739L42.5632 174.353L41.0535 171.624L39.3842 169.723L37.6714 171.131L35.5376 174.6L33.1715 183.222L32.2571 183.556L26.3492 181.481L21.8639 178.998L16.1592 178.418L12.9658 176.923L9.48204 176.342L10.2369 172.945L12.0078 170.216L12.0513 167.734L11.2384 168.17L8.61109 171.203L7.6531 172.989L7.36277 175.718L6.86924 176.371L5.70797 176.342L4.31448 175.602L2.89193 170.754L3.96612 166.747L3.32743 162.32L2.57263 161.478L2.5581 159.199L3.24034 154.394L1.64361 151.128L1.71617 150.403L2.90646 149.111L3.13872 147.848L1.12107 145.903L1.03394 144.654L3.76288 135.96L3.82095 131.677L4.60481 127.366L7.42085 119.688L7.95792 119.296L8.58208 118.062L9.22077 113.504L10.8175 111.689L11.6304 108.946L12.5739 107.465L14.9254 102.109L16.5657 95.6496L18.235 93.3562L19.9623 91.7595L21.7187 89.3208L23.2138 86.5338L25.2025 85.1984L26.7266 84.9662L27.7863 83.7323L29.1507 81.4969L29.412 80.0599L31.8796 75.3568L33.4619 74.1955L36.0166 66.72L36.9746 60.8557L36.7569 60.4202L35.6828 59.9557L33.2586 57.43L32.3877 56.051L32.1554 54.7737L32.3587 53.9463L34.4054 51.4931L36.2779 48.4448L36.1908 44.5692L35.5666 41.4048L35.8424 40.8967L39.4278 38.3129L44.3776 36.6581L48.0065 34.9018L48.3549 34.176L48.1372 31.9841L49.3855 30.1406L51.5773 28.1955L53.4499 27.9778L53.7257 26.0327L53.3047 24.2908L53.6676 23.6231L55.7869 22.9554L56.7159 22.2586L58.0658 18.2668L56.5853 16.3218L56.4546 14.2896L56.8755 13.8831L58.2836 13.767L59.3287 13.2299L59.8658 12.2719L59.9093 11.3429L58.0804 9.64456L56.8175 9.44134L56.2514 8.99136L54.7708 6.58178L52.8983 6.40758L50.1839 6.77047L46.8598 5.59471L47.6291 4.66571L51.4322 1.98031L54.2773 1.21098L55.5401 1.28357L59.5755 3.48995L61.6077 3.60607L62.9867 2.85126L65.5124 3.2722L66.3688 4.27378L66.4849 5.76889L66.8914 6.2334L68.6623 6.27694L73.5976 8.35267L74.8169 9.8478L75.4991 14.9283L76.4281 17.1056L76.1233 22.5054L76.4571 24.0731L77.4297 25.7134L77.4152 26.3521L74.8459 35.2792L74.3959 38.7194L74.8023 40.1709L74.4395 42.4789L71.8992 45.4401L69.3445 46.4126L69.0832 47.4433L71.8992 49.3593L72.5089 48.9674L74.4975 49.3158L74.8604 49.8238L75.0201 51.1012L74.1201 52.8285L75.3539 54.9188L76.6313 54.8172L80.986 60.8557L82.3069 62.0895L85.6165 66.4732L88.7228 64.5282L94.921 63.1637L97.5338 64.9346L97.65 67.4748L96.7209 72.1924L97.2871 74.152L92.3663 74.6601L90.4212 75.4439L89.5938 76.2423L88.6067 78.318L87.5471 82.2082L88.0841 84.0952L84.2666 87.7967L83.8891 88.8128L84.1794 89.4224L87.1987 89.8434L88.5632 90.845L89.6373 93.153L89.7244 95.5625L90.6244 97.0722L96.2564 99.9027L96.3871 100.672L94.0065 103.299L94.1952 105.694L97.3016 108.046L98.7386 112.212L100.684 115.115L101.714 115.376L104.298 115.072L105.75 115.507L106.94 116.146L107.825 117.336L109.683 118.294L113.951 118.599L112.949 119.542L112.63 120.965L111.817 121.647L106.272 124.579L101.613 128.382L101.337 128.919L103.209 131.532L102.687 132.098L101.221 132.49L99.9144 133.376L97.708 138.442L96.242 139.487L95.5162 141.171L95.85 142.506L98.5499 145.337L103.761 146.309L106.475 147.746L106.548 148.849L105.735 149.503L102.774 150.678L102.15 152.072L102.28 152.798L102.788 153.277L104.284 153.015L105.619 153.436L106.461 154.177L106.882 155.106L105.488 156.136L103.819 156.746L100.989 159.17L100.713 160.404L100.64 164.642L101.148 166.457L102.513 167.415L104.037 167.763L104.632 168.126L104.879 168.736L104.951 170.274L102.977 173.729L103.035 175.079Z" stroke="white" stroke-width="2" mask="url(#path-1-outside-1_2_59)"/>
</svg>
