<svg width="45" height="50" viewBox="0 0 45 50" fill="none" xmlns="http://www.w3.org/2000/svg">
<path d="M18.451 47.3372L18.4939 47.324L18.5338 47.3034L20.2757 46.4034L20.4205 46.3286L20.4934 46.1828L20.8708 45.428L20.9393 45.2911L21.0261 45.2744L22.1583 45.0567L22.4112 45.0081L22.5185 44.774L23.8462 41.8758L25.0626 40.2492L25.1385 40.1478L25.1569 40.0224L25.5152 37.5828L25.577 37.6235L26.0102 37.9096L26.2798 37.4659L28.1232 34.4322L28.1608 34.3702L28.1793 34.3001L28.3195 33.769L28.5937 33.7861L29.0582 33.8151L29.3379 33.8326L29.4988 33.6032L31.7174 30.4398L33.0539 29.2136L39.596 25.0049L42.9879 23.9218L43.5253 23.7502L43.2904 23.2373L42.4194 21.3357L42.3566 21.1987L42.2286 21.1192L37.0175 17.8822L36.9112 17.8162L36.7863 17.808L36.2142 17.7707L33.9468 16.6916L31.5166 14.6894L29.6762 11.2212L29.6079 11.0924L29.481 11.0205L21.6135 6.56422L21.556 6.53166L21.4921 6.51515L16.1939 5.14742L6.85768 0.840626L6.44499 0.650255L6.21621 1.04295L5.24369 2.71224L5.16167 2.85301L5.17834 3.01507L5.49773 6.12142L5.50723 6.21387L5.54932 6.29673L7.39275 9.92563L7.42994 9.99884L7.48858 10.0563L10.3382 12.8486L11.312 14.3418L11.2022 18.6093L10.2786 20.8763L10.2505 20.9454L10.2437 21.0197L10.1276 22.2971L10.1194 22.3877L10.1437 22.4755L11.1946 26.2784L10.8982 26.8515L10.0396 27.5358L6.65081 28.8515L5.22643 27.9061L5.1021 27.8236L4.95287 27.8227L2.4852 27.8082L2.28579 27.8071L2.1403 27.9434L1.67579 28.3789L1.59032 28.459L1.54934 28.5688L0.692966 30.8622L0.659024 30.9531L0.661546 31.0501L0.690605 32.1679L0.694024 32.2993L0.761685 32.4121L2.15513 34.7346L2.21798 34.8394L2.32205 34.9033L3.75268 35.7827L4.44879 37.7775L4.48412 37.8787L4.55784 37.9565L6.56555 40.0765L6.70581 40.4413L6.54249 42.2253L6.15528 42.6694L5.97543 42.8758L6.05231 43.1385L6.22649 43.7336L6.26778 43.8747L6.37888 43.971L7.24978 44.7258L7.30058 44.7699L7.3612 44.7989L10.0244 46.075L10.645 47.0059L10.7043 47.0947L10.7946 47.1516L11.5784 47.6452L11.6146 47.6679L11.654 47.6842L13.9039 48.6132L14.0698 48.6817L14.2415 48.6291L18.451 47.3372ZM23.8208 36.1414L23.8126 36.1137L24.226 36.1805L24.3712 36.4434L23.8208 36.1414ZM26.4626 29.6839L26.9997 29.5971L27.5002 30.4646H26.6915L26.4626 29.6839Z" fill="black" stroke="white"/>
</svg>
