<svg width="162" height="133" viewBox="0 0 162 133" fill="none" xmlns="http://www.w3.org/2000/svg">
<mask id="path-1-outside-1_2_53" maskUnits="userSpaceOnUse" x="0.531982" y="-0.542847" width="162" height="134" fill="black">
<rect fill="white" x="0.531982" y="-0.542847" width="162" height="134"/>
<path d="M111.907 124.332L110.035 122.227L109.396 119.498L107.132 118.743L105.883 119.208L103.256 119.324L97.348 116.697L97.3335 116.116L96.3755 115.231L94.532 116.087L91.6579 113.648L89.4516 112.24L88.2032 110.121L87.7968 108.103L86.2871 107.537L83.7179 109.163L81.947 109.12L79.9003 107.958L78.6374 106.028L74.094 103.734L71.2489 103.487L69.5942 104.271L68.2878 105.505L66.212 105.258L65.762 104.823L62.6557 104.083L58.2139 103.676L57.1107 103.052L55.3979 101.325L54.9624 98.4651L52.6689 97.7538L49.9255 96.3458L48.7352 93.8491L48.3143 93.5588L44.366 93.1523L43.8144 92.6443L42.5951 87.259L41.3177 85.9671L40.621 87.6509L39.663 87.1864L39.271 86.2574L40.171 84.0365L38.9517 81.8302L36.9776 81.264L35.1486 76.2272L34.9018 73.8176L37.1517 69.5935L36.8469 67.1839L35.1631 64.3243L34.0744 61.1889L33.9873 57.8649L34.8873 57.1391L35.4389 55.1504L36.9485 53.6263L37.4711 51.4925L37.1227 49.3297L36.5131 48.0378L36.3824 45.8169L37.1663 43.4218L35.4679 40.2574L33.9873 39.7058L32.4051 41.1284L32.3181 41.8686L31.0987 43.2621H30.2713L27.1069 41.7816L19.5878 41.8977L11.4446 44.4815L8.99143 44.4669L6.84312 45.1637L2.53198 43.3347L7.26407 39.6187L10.0511 38.7768L12.301 36.1495L12.5187 35.3366L12.2865 33.4641L18.0347 33.8415L22.2006 33.3625L23.2458 33.8996L26.5989 37.2817L27.136 37.2527L28.9069 36.1059L29.0956 35.0608L29.6907 34.2915L31.2584 33.5657L32.3761 33.7544L34.3647 33.1883L36.2518 31.4319L38.9226 29.9513L39.4742 30.082L40.4032 33.3625L41.3903 34.1318L42.3774 34.0157L46.0644 29.4287L45.6869 26.8885L46.4563 25.6692L48.9965 23.8402L49.6642 23.8693L50.8835 24.6676L53.4818 24.8128L55.2237 23.2596L58.3155 22.708L63.9331 23.3757L63.5847 21.2565L63.7444 18.6291L66.7346 16.8727L67.9103 15.2035L68.4329 13.7229L68.1861 13.0697L66.8798 12.0535L66.9523 11.081L68.6797 8.77302L72.2796 8.00369L72.657 7.68435L72.5263 5.98602L75.023 5.26024L77.0262 1.54424L92.6885 1.45715L95.8094 3.0974L96.4626 3.80868L97.6238 6.58117L99.5544 8.42464L103.241 9.84718L105.056 14.5938L105.724 14.8986L107.146 14.7099L108.046 15.0002L109.033 19.1807L113.736 21.329L114.723 21.0532L115.507 18.5275L118.294 16.9598L120.312 17.3663L120.834 17.9179L120.776 18.934L122.808 20.342L123.679 22.1419L122.576 24.2031L120.704 31.4464L120.791 31.9545L121.923 32.6367L122.3 33.5222L122.518 35.5398L123.723 38.8349L122.358 41.259L122.91 44.0605L121.458 49.17L121.415 50.3313L121.807 52.886L123.984 56.8778L122.678 69.9419L147.587 70.0144L147.238 70.8273L149.009 72.4386L154.09 72.3079L155.701 72.4676L157.254 73.0918L159.301 78.3029L159.054 79.3915L157.022 81.9318L155.048 83.4995L154.844 85.4155L155.469 90.1331L156.311 90.8734L157.617 90.8299L159.838 95.6781L159.78 98.6538L160.622 100.817L160.52 103.299L159.707 106.55L157.298 109.468L156.543 112.734L155.701 113.953L155.077 114.548L152.696 115.318L151.346 116.885L149.27 122.372L148.516 125.929L142.55 129.659L140.416 131.735L139.342 131.677L135.582 129.427L133.739 127.351L123.462 128.745L121.546 128.121L121.183 127.685L116.276 128.643L115.58 128.411L114.825 126.451L111.907 124.332Z"/>
</mask>
<path d="M111.907 124.332L110.035 122.227L109.396 119.498L107.132 118.743L105.883 119.208L103.256 119.324L97.348 116.697L97.3335 116.116L96.3755 115.231L94.532 116.087L91.6579 113.648L89.4516 112.24L88.2032 110.121L87.7968 108.103L86.2871 107.537L83.7179 109.163L81.947 109.12L79.9003 107.958L78.6374 106.028L74.094 103.734L71.2489 103.487L69.5942 104.271L68.2878 105.505L66.212 105.258L65.762 104.823L62.6557 104.083L58.2139 103.676L57.1107 103.052L55.3979 101.325L54.9624 98.4651L52.6689 97.7538L49.9255 96.3458L48.7352 93.8491L48.3143 93.5588L44.366 93.1523L43.8144 92.6443L42.5951 87.259L41.3177 85.9671L40.621 87.6509L39.663 87.1864L39.271 86.2574L40.171 84.0365L38.9517 81.8302L36.9776 81.264L35.1486 76.2272L34.9018 73.8176L37.1517 69.5935L36.8469 67.1839L35.1631 64.3243L34.0744 61.1889L33.9873 57.8649L34.8873 57.1391L35.4389 55.1504L36.9485 53.6263L37.4711 51.4925L37.1227 49.3297L36.5131 48.0378L36.3824 45.8169L37.1663 43.4218L35.4679 40.2574L33.9873 39.7058L32.4051 41.1284L32.3181 41.8686L31.0987 43.2621H30.2713L27.1069 41.7816L19.5878 41.8977L11.4446 44.4815L8.99143 44.4669L6.84312 45.1637L2.53198 43.3347L7.26407 39.6187L10.0511 38.7768L12.301 36.1495L12.5187 35.3366L12.2865 33.4641L18.0347 33.8415L22.2006 33.3625L23.2458 33.8996L26.5989 37.2817L27.136 37.2527L28.9069 36.1059L29.0956 35.0608L29.6907 34.2915L31.2584 33.5657L32.3761 33.7544L34.3647 33.1883L36.2518 31.4319L38.9226 29.9513L39.4742 30.082L40.4032 33.3625L41.3903 34.1318L42.3774 34.0157L46.0644 29.4287L45.6869 26.8885L46.4563 25.6692L48.9965 23.8402L49.6642 23.8693L50.8835 24.6676L53.4818 24.8128L55.2237 23.2596L58.3155 22.708L63.9331 23.3757L63.5847 21.2565L63.7444 18.6291L66.7346 16.8727L67.9103 15.2035L68.4329 13.7229L68.1861 13.0697L66.8798 12.0535L66.9523 11.081L68.6797 8.77302L72.2796 8.00369L72.657 7.68435L72.5263 5.98602L75.023 5.26024L77.0262 1.54424L92.6885 1.45715L95.8094 3.0974L96.4626 3.80868L97.6238 6.58117L99.5544 8.42464L103.241 9.84718L105.056 14.5938L105.724 14.8986L107.146 14.7099L108.046 15.0002L109.033 19.1807L113.736 21.329L114.723 21.0532L115.507 18.5275L118.294 16.9598L120.312 17.3663L120.834 17.9179L120.776 18.934L122.808 20.342L123.679 22.1419L122.576 24.2031L120.704 31.4464L120.791 31.9545L121.923 32.6367L122.3 33.5222L122.518 35.5398L123.723 38.8349L122.358 41.259L122.91 44.0605L121.458 49.17L121.415 50.3313L121.807 52.886L123.984 56.8778L122.678 69.9419L147.587 70.0144L147.238 70.8273L149.009 72.4386L154.09 72.3079L155.701 72.4676L157.254 73.0918L159.301 78.3029L159.054 79.3915L157.022 81.9318L155.048 83.4995L154.844 85.4155L155.469 90.1331L156.311 90.8734L157.617 90.8299L159.838 95.6781L159.78 98.6538L160.622 100.817L160.52 103.299L159.707 106.55L157.298 109.468L156.543 112.734L155.701 113.953L155.077 114.548L152.696 115.318L151.346 116.885L149.27 122.372L148.516 125.929L142.55 129.659L140.416 131.735L139.342 131.677L135.582 129.427L133.739 127.351L123.462 128.745L121.546 128.121L121.183 127.685L116.276 128.643L115.58 128.411L114.825 126.451L111.907 124.332Z" fill="black"/>
<path d="M111.907 124.332L110.035 122.227L109.396 119.498L107.132 118.743L105.883 119.208L103.256 119.324L97.348 116.697L97.3335 116.116L96.3755 115.231L94.532 116.087L91.6579 113.648L89.4516 112.24L88.2032 110.121L87.7968 108.103L86.2871 107.537L83.7179 109.163L81.947 109.12L79.9003 107.958L78.6374 106.028L74.094 103.734L71.2489 103.487L69.5942 104.271L68.2878 105.505L66.212 105.258L65.762 104.823L62.6557 104.083L58.2139 103.676L57.1107 103.052L55.3979 101.325L54.9624 98.4651L52.6689 97.7538L49.9255 96.3458L48.7352 93.8491L48.3143 93.5588L44.366 93.1523L43.8144 92.6443L42.5951 87.259L41.3177 85.9671L40.621 87.6509L39.663 87.1864L39.271 86.2574L40.171 84.0365L38.9517 81.8302L36.9776 81.264L35.1486 76.2272L34.9018 73.8176L37.1517 69.5935L36.8469 67.1839L35.1631 64.3243L34.0744 61.1889L33.9873 57.8649L34.8873 57.1391L35.4389 55.1504L36.9485 53.6263L37.4711 51.4925L37.1227 49.3297L36.5131 48.0378L36.3824 45.8169L37.1663 43.4218L35.4679 40.2574L33.9873 39.7058L32.4051 41.1284L32.3181 41.8686L31.0987 43.2621H30.2713L27.1069 41.7816L19.5878 41.8977L11.4446 44.4815L8.99143 44.4669L6.84312 45.1637L2.53198 43.3347L7.26407 39.6187L10.0511 38.7768L12.301 36.1495L12.5187 35.3366L12.2865 33.4641L18.0347 33.8415L22.2006 33.3625L23.2458 33.8996L26.5989 37.2817L27.136 37.2527L28.9069 36.1059L29.0956 35.0608L29.6907 34.2915L31.2584 33.5657L32.3761 33.7544L34.3647 33.1883L36.2518 31.4319L38.9226 29.9513L39.4742 30.082L40.4032 33.3625L41.3903 34.1318L42.3774 34.0157L46.0644 29.4287L45.6869 26.8885L46.4563 25.6692L48.9965 23.8402L49.6642 23.8693L50.8835 24.6676L53.4818 24.8128L55.2237 23.2596L58.3155 22.708L63.9331 23.3757L63.5847 21.2565L63.7444 18.6291L66.7346 16.8727L67.9103 15.2035L68.4329 13.7229L68.1861 13.0697L66.8798 12.0535L66.9523 11.081L68.6797 8.77302L72.2796 8.00369L72.657 7.68435L72.5263 5.98602L75.023 5.26024L77.0262 1.54424L92.6885 1.45715L95.8094 3.0974L96.4626 3.80868L97.6238 6.58117L99.5544 8.42464L103.241 9.84718L105.056 14.5938L105.724 14.8986L107.146 14.7099L108.046 15.0002L109.033 19.1807L113.736 21.329L114.723 21.0532L115.507 18.5275L118.294 16.9598L120.312 17.3663L120.834 17.9179L120.776 18.934L122.808 20.342L123.679 22.1419L122.576 24.2031L120.704 31.4464L120.791 31.9545L121.923 32.6367L122.3 33.5222L122.518 35.5398L123.723 38.8349L122.358 41.259L122.91 44.0605L121.458 49.17L121.415 50.3313L121.807 52.886L123.984 56.8778L122.678 69.9419L147.587 70.0144L147.238 70.8273L149.009 72.4386L154.09 72.3079L155.701 72.4676L157.254 73.0918L159.301 78.3029L159.054 79.3915L157.022 81.9318L155.048 83.4995L154.844 85.4155L155.469 90.1331L156.311 90.8734L157.617 90.8299L159.838 95.6781L159.78 98.6538L160.622 100.817L160.52 103.299L159.707 106.55L157.298 109.468L156.543 112.734L155.701 113.953L155.077 114.548L152.696 115.318L151.346 116.885L149.27 122.372L148.516 125.929L142.55 129.659L140.416 131.735L139.342 131.677L135.582 129.427L133.739 127.351L123.462 128.745L121.546 128.121L121.183 127.685L116.276 128.643L115.58 128.411L114.825 126.451L111.907 124.332Z" stroke="white" stroke-width="2" mask="url(#path-1-outside-1_2_53)"/>
</svg>
