<svg width="86" height="52" viewBox="0 0 86 52" fill="none" xmlns="http://www.w3.org/2000/svg">
<path d="M84.5481 39.9892L84.9794 39.8779L84.9184 39.4367L84.6137 37.2303L84.6066 37.1792L84.5893 37.1307L83.1958 33.226L83.1452 33.0843L83.0248 32.994L82.1496 32.3375L81.871 30.1095L81.8666 30.0737L81.857 30.0389L79.7302 22.3078L79.7839 21.3001L79.7883 21.2181L79.7662 21.1389L79.0404 18.5407L79.0282 18.4969L79.0083 18.4561L75.6552 11.5757L75.6394 11.5432L75.6191 11.5134L74.69 10.1489L74.6481 10.0873L74.59 10.0406L73.1095 8.85034L73.0582 8.80909L72.998 8.78253L70.1674 7.53419L70.0785 7.49498L69.9814 7.49192L68.1805 7.43521L61.6903 6.10832L61.5638 6.08246L61.4406 6.12105L58.1086 7.16498L54.5423 7.50194L50.4293 6.75934L50.3614 6.74707L50.2927 6.75368L45.5749 7.20702L43.8725 6.56219L41.4972 4.10252L41.4125 4.01477L41.2968 3.97591L39.526 3.38076L39.4477 3.35445L39.3651 3.35471L35.01 3.36864L33.9605 2.45336L33.3179 1.41437L33.1114 1.08047L32.7381 1.20187L25.64 3.50987L25.5579 3.53656L25.4895 3.58922L21.7009 6.50686L21.6089 6.57769L21.5575 6.68181L16.788 16.3511L15.6492 17.8695L14.4597 18.6489L14.3258 18.7366L14.2678 18.8857L13.3242 21.3098L13.271 21.4467L13.3001 21.5906L13.4804 22.48L11.573 25.8044L9.49694 27.9515L9.4461 28.0041L9.41245 28.069L8.68853 29.466L7.62408 29.7347L6.67528 29.1144L6.51884 29.0121L6.33366 29.0375L5.59344 29.1391L5.42038 29.1629L5.29977 29.2892L4.08042 30.5666L4.04536 30.6033L4.01841 30.6464L1.97174 33.9124L1.91946 33.9958L1.90271 34.0928L1.40914 36.9524L1.33133 37.4032L1.77349 37.5207L2.70251 37.7675L2.90173 37.8204L3.08037 37.7175L4.03836 37.1659L4.07235 37.1463L4.10288 37.1217L4.60804 36.714L7.09401 38.8265L7.14532 38.8701L7.20634 38.8985L8.51278 39.5082L8.56463 39.5324L8.62061 39.5442L12.8011 40.4297L13.0623 40.485L13.2536 40.2987L14.8837 38.7108L19.5056 36.3354L19.5589 36.308L19.6043 36.2687L20.7946 35.2381L20.9459 35.1071L20.965 34.908L21.1027 33.4765L21.583 32.3636L25.9356 30.7074L27.9411 30.5392L27.9974 30.5344L28.0513 30.5173L32.6786 29.0411L33.3535 29.1254L33.8318 29.5225L33.8426 30.8184L29.6382 35.3322L29.5832 35.3913L29.5496 35.4646L28.9109 36.8581L28.8884 36.9071L28.8769 36.9598L28.3588 39.3322L27.9649 39.6972L26.8437 40.027L26.6715 40.0776L26.5708 40.2263L26.2661 40.6763L26.1871 40.7928L26.1806 40.9334L26.0644 43.4301L26.0434 43.8821L26.491 43.948L31.4948 44.6851L31.7063 44.8371L32.1146 46.6548L32.1533 46.8271L32.2917 46.9369L32.7126 47.2708L32.9398 47.451L33.2091 47.3433L37.7029 45.5457L40.138 45.4357L42.7199 45.8329L43.7289 47.1592L43.0589 49.1432L42.9532 49.4564L43.1999 49.6764L44.4047 50.7505L44.6348 50.9556L44.9215 50.8422L48.3326 49.4923L48.4764 49.4354L48.5629 49.3073L49.2887 48.2331L49.3122 48.1983L49.3296 48.1601L50.1279 46.4037L50.2266 46.1866L50.12 45.9732L49.4775 44.6881L49.2786 42.9238L49.6283 42.4941L50.7701 42.8558L51.7196 43.1567L51.3936 42.2155L50.6242 39.9946L50.59 39.8959L50.5192 39.8192L49.6489 38.8763L50.0071 37.1662L52.3717 35.4122L54.013 35.3527L54.2891 35.6091L54.1686 36.8135L54.1414 37.0858L54.3561 37.2555L55.2561 37.9668L55.3672 38.0547L55.508 38.0711L60.3542 38.6379L61.0242 39.0804L61.1649 39.1733L61.3331 39.1621L69.7447 38.5994L72.7732 39.0181L76.279 40.5857L76.4687 40.6705L76.6626 40.5959L78.071 40.0542L83.0433 40.3526L83.1219 40.3573L83.1981 40.3376L84.5481 39.9892Z" fill="black" stroke="white"/>
</svg>
