<svg width="137" height="155" viewBox="0 0 137 155" fill="none" xmlns="http://www.w3.org/2000/svg">
<mask id="path-1-outside-1_2_54" maskUnits="userSpaceOnUse" x="-0.511475" y="0" width="138" height="155" fill="black">
<rect fill="white" x="-0.511475" width="138" height="155"/>
<path d="M133.552 91.1259L135.874 115.759L109.035 115.657L109.078 116.644L105.696 121.376L103.287 125.775L103.185 127.415L101.516 131.247L101.356 132.205L101.69 133.265L103.345 135.311L103.316 136.081L102.706 136.647L99.7593 137.445L97.7126 139.492L95.8981 140.16L93.2563 139.826L91.9208 136.182L89.2064 133.221L85.0985 131.871L82.776 131.958L81.9777 133.25L78.9439 134.281L77.0859 135.282L75.6053 137.111L74.415 141.423L74.9521 144.035L74.5892 146.547L73.5005 149.87L74.1392 152.933L70.7135 151.424L68.7684 152.033L67.9991 151.932L66.4895 148.97L64.3412 146.576L61.4961 144.674L60.7413 144.616L53.469 138.2L53.6722 136.545L56.3431 137.024L57.9978 135.108L58.0849 134.266L56.4447 127.981L55.6028 126.675L53.8319 125.455L52.5545 122.305L52.1335 115.077L52.9609 113.683L54.0786 109.27L53.1206 106.977L52.598 104.669L54.9496 102.55L54.877 101.896L53.6141 100.271L53.3383 96.9902L50.9287 90.0808L46.966 84.6519L47.9966 82.4746L49.3175 77.6554L48.6062 76.6973L45.7757 75.3184L43.8016 75.1587L42.5242 75.4635L41.1162 74.9264L39.3598 73.2281L39.2727 71.8346L38.3582 71.6749L36.7179 72.2846L35.8325 72.2701L34.7438 71.7765L33.6987 70.6443L34.1341 69.9766L34.468 66.667L34.0326 66.3477L29.1408 66.0138L23.6974 66.2171L18.8927 65.201L18.6024 64.33L19.7637 61.7753L19.9379 59.627L18.8782 57.0577L16.0622 51.9192L15.0026 48.929L14.3203 43.5291L15.4671 41.3808L15.3509 39.9873L12.6801 37.0842L9.54468 35.5455L5.46579 31.5102L3.92714 28.8829L3.5062 27.4894L1.85142 26.5459L1.48853 25.9798L1.53207 24.7604L1.95301 24.2814L3.25943 24.383L4.88518 25.3411L6.24965 27.8523L7.1351 27.9829L12.0559 27.2571L14.0155 27.4023L16.788 28.2587L17.6734 30.0006L18.4718 32.8021L19.2556 33.3101L20.6491 33.194L21.7233 32.2505L23.1023 31.6699L27.7182 31.9021L28.4005 31.9747L30.302 33.7311L31.173 33.9488L31.9278 33.7456L32.8132 31.4812L34.7148 31.6844L36.8195 33.0343L42.5242 39.668L44.0483 40.4954L45.0789 40.6551L47.2708 39.668L48.345 38.0277L48.4901 36.8084L47.2853 32.8021L47.8079 30.2764L48.4756 29.8699L51.2771 29.7974L52.7432 28.2006L54.9931 26.6184L56.0818 26.691L61.7429 28.6361L62.5993 28.3893L63.7605 27.3442L65.2557 26.9088L66.8959 27.4168L68.391 27.112L70.3361 25.254L71.7877 24.8911L73.457 25.2249L75.0682 25.1233L76.0553 23.8895L76.1279 21.9299L80.5261 19.3026L83.9082 19.5784L87.9145 19.0123L89.2064 17.372L89.3371 16.3414L90.1935 14.7157L91.2822 14.527L93.9676 13.2206L95.5643 11.711L97.1755 9.22878L95.4336 4.06122L93.7353 3.53866L94.6643 3.27738L96.74 3.37899L97.9013 3.84349L103.083 3.69833L104.622 2.31934L105.696 2L107.685 2.60966L108.454 4.5112L109.964 5.67245L110.661 7.66109L109.688 14.7738L108.643 16.7768L106.828 17.7929L106.915 18.9977L109.253 19.5929L111.604 19.2735L115.015 20.4493L117.657 22.046L116.38 24.1218L116.365 25.7911L119.762 30.7554L120.052 33.0053L117.86 37.2439L115.131 39.2906L114.086 41.4679L114.478 42.034L114.565 45.1839L112.431 48.6822L111.125 52.703L110.675 56.4335L110.544 60.3092L111.967 63.0236L112.707 65.5784L112.693 67.6106L114.972 69.1057L116.278 69.396L116.467 70.3831L115.799 77.8586L115.973 78.9328L118.601 79.3537L117.643 81.052L118.31 81.7778L121.431 82.852L123.55 85.639L127.412 89.6163L133.552 91.1259Z"/>
</mask>
<path d="M133.552 91.1259L135.874 115.759L109.035 115.657L109.078 116.644L105.696 121.376L103.287 125.775L103.185 127.415L101.516 131.247L101.356 132.205L101.69 133.265L103.345 135.311L103.316 136.081L102.706 136.647L99.7593 137.445L97.7126 139.492L95.8981 140.16L93.2563 139.826L91.9208 136.182L89.2064 133.221L85.0985 131.871L82.776 131.958L81.9777 133.25L78.9439 134.281L77.0859 135.282L75.6053 137.111L74.415 141.423L74.9521 144.035L74.5892 146.547L73.5005 149.87L74.1392 152.933L70.7135 151.424L68.7684 152.033L67.9991 151.932L66.4895 148.97L64.3412 146.576L61.4961 144.674L60.7413 144.616L53.469 138.2L53.6722 136.545L56.3431 137.024L57.9978 135.108L58.0849 134.266L56.4447 127.981L55.6028 126.675L53.8319 125.455L52.5545 122.305L52.1335 115.077L52.9609 113.683L54.0786 109.27L53.1206 106.977L52.598 104.669L54.9496 102.55L54.877 101.896L53.6141 100.271L53.3383 96.9902L50.9287 90.0808L46.966 84.6519L47.9966 82.4746L49.3175 77.6554L48.6062 76.6973L45.7757 75.3184L43.8016 75.1587L42.5242 75.4635L41.1162 74.9264L39.3598 73.2281L39.2727 71.8346L38.3582 71.6749L36.7179 72.2846L35.8325 72.2701L34.7438 71.7765L33.6987 70.6443L34.1341 69.9766L34.468 66.667L34.0326 66.3477L29.1408 66.0138L23.6974 66.2171L18.8927 65.201L18.6024 64.33L19.7637 61.7753L19.9379 59.627L18.8782 57.0577L16.0622 51.9192L15.0026 48.929L14.3203 43.5291L15.4671 41.3808L15.3509 39.9873L12.6801 37.0842L9.54468 35.5455L5.46579 31.5102L3.92714 28.8829L3.5062 27.4894L1.85142 26.5459L1.48853 25.9798L1.53207 24.7604L1.95301 24.2814L3.25943 24.383L4.88518 25.3411L6.24965 27.8523L7.1351 27.9829L12.0559 27.2571L14.0155 27.4023L16.788 28.2587L17.6734 30.0006L18.4718 32.8021L19.2556 33.3101L20.6491 33.194L21.7233 32.2505L23.1023 31.6699L27.7182 31.9021L28.4005 31.9747L30.302 33.7311L31.173 33.9488L31.9278 33.7456L32.8132 31.4812L34.7148 31.6844L36.8195 33.0343L42.5242 39.668L44.0483 40.4954L45.0789 40.6551L47.2708 39.668L48.345 38.0277L48.4901 36.8084L47.2853 32.8021L47.8079 30.2764L48.4756 29.8699L51.2771 29.7974L52.7432 28.2006L54.9931 26.6184L56.0818 26.691L61.7429 28.6361L62.5993 28.3893L63.7605 27.3442L65.2557 26.9088L66.8959 27.4168L68.391 27.112L70.3361 25.254L71.7877 24.8911L73.457 25.2249L75.0682 25.1233L76.0553 23.8895L76.1279 21.9299L80.5261 19.3026L83.9082 19.5784L87.9145 19.0123L89.2064 17.372L89.3371 16.3414L90.1935 14.7157L91.2822 14.527L93.9676 13.2206L95.5643 11.711L97.1755 9.22878L95.4336 4.06122L93.7353 3.53866L94.6643 3.27738L96.74 3.37899L97.9013 3.84349L103.083 3.69833L104.622 2.31934L105.696 2L107.685 2.60966L108.454 4.5112L109.964 5.67245L110.661 7.66109L109.688 14.7738L108.643 16.7768L106.828 17.7929L106.915 18.9977L109.253 19.5929L111.604 19.2735L115.015 20.4493L117.657 22.046L116.38 24.1218L116.365 25.7911L119.762 30.7554L120.052 33.0053L117.86 37.2439L115.131 39.2906L114.086 41.4679L114.478 42.034L114.565 45.1839L112.431 48.6822L111.125 52.703L110.675 56.4335L110.544 60.3092L111.967 63.0236L112.707 65.5784L112.693 67.6106L114.972 69.1057L116.278 69.396L116.467 70.3831L115.799 77.8586L115.973 78.9328L118.601 79.3537L117.643 81.052L118.31 81.7778L121.431 82.852L123.55 85.639L127.412 89.6163L133.552 91.1259Z" fill="black"/>
<path d="M133.552 91.1259L135.874 115.759L109.035 115.657L109.078 116.644L105.696 121.376L103.287 125.775L103.185 127.415L101.516 131.247L101.356 132.205L101.69 133.265L103.345 135.311L103.316 136.081L102.706 136.647L99.7593 137.445L97.7126 139.492L95.8981 140.16L93.2563 139.826L91.9208 136.182L89.2064 133.221L85.0985 131.871L82.776 131.958L81.9777 133.25L78.9439 134.281L77.0859 135.282L75.6053 137.111L74.415 141.423L74.9521 144.035L74.5892 146.547L73.5005 149.87L74.1392 152.933L70.7135 151.424L68.7684 152.033L67.9991 151.932L66.4895 148.97L64.3412 146.576L61.4961 144.674L60.7413 144.616L53.469 138.2L53.6722 136.545L56.3431 137.024L57.9978 135.108L58.0849 134.266L56.4447 127.981L55.6028 126.675L53.8319 125.455L52.5545 122.305L52.1335 115.077L52.9609 113.683L54.0786 109.27L53.1206 106.977L52.598 104.669L54.9496 102.55L54.877 101.896L53.6141 100.271L53.3383 96.9902L50.9287 90.0808L46.966 84.6519L47.9966 82.4746L49.3175 77.6554L48.6062 76.6973L45.7757 75.3184L43.8016 75.1587L42.5242 75.4635L41.1162 74.9264L39.3598 73.2281L39.2727 71.8346L38.3582 71.6749L36.7179 72.2846L35.8325 72.2701L34.7438 71.7765L33.6987 70.6443L34.1341 69.9766L34.468 66.667L34.0326 66.3477L29.1408 66.0138L23.6974 66.2171L18.8927 65.201L18.6024 64.33L19.7637 61.7753L19.9379 59.627L18.8782 57.0577L16.0622 51.9192L15.0026 48.929L14.3203 43.5291L15.4671 41.3808L15.3509 39.9873L12.6801 37.0842L9.54468 35.5455L5.46579 31.5102L3.92714 28.8829L3.5062 27.4894L1.85142 26.5459L1.48853 25.9798L1.53207 24.7604L1.95301 24.2814L3.25943 24.383L4.88518 25.3411L6.24965 27.8523L7.1351 27.9829L12.0559 27.2571L14.0155 27.4023L16.788 28.2587L17.6734 30.0006L18.4718 32.8021L19.2556 33.3101L20.6491 33.194L21.7233 32.2505L23.1023 31.6699L27.7182 31.9021L28.4005 31.9747L30.302 33.7311L31.173 33.9488L31.9278 33.7456L32.8132 31.4812L34.7148 31.6844L36.8195 33.0343L42.5242 39.668L44.0483 40.4954L45.0789 40.6551L47.2708 39.668L48.345 38.0277L48.4901 36.8084L47.2853 32.8021L47.8079 30.2764L48.4756 29.8699L51.2771 29.7974L52.7432 28.2006L54.9931 26.6184L56.0818 26.691L61.7429 28.6361L62.5993 28.3893L63.7605 27.3442L65.2557 26.9088L66.8959 27.4168L68.391 27.112L70.3361 25.254L71.7877 24.8911L73.457 25.2249L75.0682 25.1233L76.0553 23.8895L76.1279 21.9299L80.5261 19.3026L83.9082 19.5784L87.9145 19.0123L89.2064 17.372L89.3371 16.3414L90.1935 14.7157L91.2822 14.527L93.9676 13.2206L95.5643 11.711L97.1755 9.22878L95.4336 4.06122L93.7353 3.53866L94.6643 3.27738L96.74 3.37899L97.9013 3.84349L103.083 3.69833L104.622 2.31934L105.696 2L107.685 2.60966L108.454 4.5112L109.964 5.67245L110.661 7.66109L109.688 14.7738L108.643 16.7768L106.828 17.7929L106.915 18.9977L109.253 19.5929L111.604 19.2735L115.015 20.4493L117.657 22.046L116.38 24.1218L116.365 25.7911L119.762 30.7554L120.052 33.0053L117.86 37.2439L115.131 39.2906L114.086 41.4679L114.478 42.034L114.565 45.1839L112.431 48.6822L111.125 52.703L110.675 56.4335L110.544 60.3092L111.967 63.0236L112.707 65.5784L112.693 67.6106L114.972 69.1057L116.278 69.396L116.467 70.3831L115.799 77.8586L115.973 78.9328L118.601 79.3537L117.643 81.052L118.31 81.7778L121.431 82.852L123.55 85.639L127.412 89.6163L133.552 91.1259Z" stroke="white" stroke-width="2" mask="url(#path-1-outside-1_2_54)"/>
</svg>
