<svg width="207" height="139" viewBox="0 0 207 139" fill="none" xmlns="http://www.w3.org/2000/svg">
<mask id="path-1-outside-1_2_58" maskUnits="userSpaceOnUse" x="0.324463" y="-0.763672" width="206" height="140" fill="black">
<rect fill="white" x="0.324463" y="-0.763672" width="206" height="140"/>
<path d="M116.274 136.246L116.041 134.316L113.98 133.488L112.921 128.698L113.501 125.868L110.395 125.026L109.292 125.272L107.695 129.293L106.737 130.527L105.198 129.758L104.69 128.625L105.692 123.835L106.984 122.877L107.187 122.297L104.85 120.453L102.542 120.264L100.248 120.54L99.5227 119.989L94.5728 120.758L91.1181 120.932L89.652 120.627L88.7811 120.061L88.3021 117.1L90.1601 114.023L90.5229 112.499L90.1601 111.86L89.2891 111.424L87.9537 108.565L88.0408 107.273L87.315 106.286L86.3424 105.865L84.5861 104.21L82.4232 99.841L82.9458 99.0426L83.0619 96.4879L81.1749 94.2815L80.6233 91.6106L80.8701 90.4349L81.4362 89.5929L81.4071 85.6157L80.1153 83.0609L74.9041 78.953L73.2639 76.7031L68.9528 77.9514L61.245 77.7627L60.2869 76.9789L57.8918 76.7757L57.2822 77.2692L54.7855 77.1676L53.7404 75.2515L52.8259 74.5112L47.7309 73.35L45.1906 72.1306L44.0584 70.6791L40.3134 70.6936L38.7602 71.4775L36.8442 71.2887L33.0121 69.7066L29.3396 69.0388L27.1913 67.8921L25.493 67.4711L24.4333 68.0082L23.9398 68.8792L22.1834 69.7791L17.4223 69.3582L11.6015 69.5178L6.04204 68.5743L1.32446 71.8984L2.54377 70.3307L3.60338 68.0953L5.43237 66.4405L16.4062 59.8504L19.2367 57.136L21.0657 53.6087L23.5769 51.1556L24.1575 49.3992L26.2478 47.9041L26.6542 46.1332L26.1461 44.9138L29.0493 41.6333L30.8057 38.2367L30.9073 36.8722L30.4573 34.0707L30.7912 33.5046L32.1846 32.7498L35.9587 27.4661L36.191 23.213L37.0909 20.7744L38.557 20.3389L39.6166 19.4099L42.5053 15.5197L44.2762 14.0391L44.9584 13.7052L46.86 13.6472L49.0373 12.515L49.4437 11.9343L50.0244 8.36351L51.7953 6.72323L54.9161 5.11202L57.7031 4.57495L59.7789 2.1218L61.9562 1.23633L63.0449 1.43957L65.5561 3.68947L69.2576 3.80562L75.4848 5.19911L77.9089 4.67652L80.2604 4.99587L83.1635 4.13945L86.328 6.20069L88.752 7.34744L88.5633 8.68285L89.0424 10.7441L90.7987 13.7778L91.7132 13.8214L92.4971 13.3569L93.4696 11.9924L94.0648 10.3521L94.4422 10.0763L95.2405 10.1489L95.7631 10.715L96.126 12.1086L96.1405 16.1439L97.8824 16.9132L98.4775 16.26L98.0856 12.573L98.7969 10.8457L99.45 10.1489L111.324 9.17638L112.79 7.36192L114.967 9.48124L116.593 10.1054L120.628 9.10382L121.267 7.66678L120.977 6.99903L121.427 6.1136L124.881 5.95391L127.291 7.08612L128.525 6.15715L130.426 5.73618L135.158 10.5989L135.449 12.1086L134.621 13.5746L134.2 17.0148L135.042 17.9003L137.786 19.6567L138.366 21.9066L138.279 22.7195L136.073 25.6662L135.812 28.4822L136.958 29.5563L137.408 30.4418L137.946 33.6497L139.833 36.2625L141.037 39.1511L140.994 40.385L143.331 40.3124L144.463 39.8624L144.869 39.3398L146.321 39.2673L151.692 41.1834L152.026 41.7204L151.953 43.5639L150.937 46.7283L148.237 50.6765L148.614 54.9441L148.339 59.952L147.569 62.2165L148.614 64.539L151.198 66.3389L153.826 67.5437L154.566 70.0404L152.809 71.0565L155.742 75.8612L157.382 76.2241L160.3 75.8757L160.561 76.645L165.815 75.1935L166.628 75.8031L168.53 75.3386L169.619 73.9161L169.691 72.6968L169.343 72.3484L169.59 69.0098L171.317 68.5308L171.448 69.0388L170.939 69.7501L170.954 70.4469L174.351 70.563L177.82 70.2001L180.418 69.2275L182.204 67.4276L185.005 65.947L188.213 65.6277L190.013 64.568L191.857 65.3519L192.669 67.0502L194.455 69.3582L197.024 69.9243L201.596 69.155L204.064 69.1695L205.153 71.55L202.758 74.6709L200.58 75.7015L196.56 76.2241L195.834 76.0063L192.423 77.4724L190.84 79.1417L189.258 84.2222L189.331 84.8173L191.697 87.3285L192.394 87.7059L192.306 87.9962L189.853 88.6059L188.315 87.4156L186.166 89.0268L185.542 89.9704L185.934 90.2897L184.831 91.2187L180.157 93.4686L176.891 94.4847L176.484 95.1234L176.543 96.5169L177.268 98.7668L176.804 99.3765L174.772 99.7539L173.756 98.8249L171.81 98.4039L167.282 97.6781L166.033 97.8959L164.117 98.3894L161.606 99.5797L160.88 100.32L159.124 103.441L157.222 104.268L156.496 104.094L157.338 103.412L156.642 101.641L154.943 100.407L153.739 102.193L154.116 103.281L153.68 104.167L142.62 110.321L141.241 111.512L140.791 113.195L136.044 117.55L131.326 120.381L128.539 121.15L122.007 125.809L118.625 128.654L117.653 128.771L117.014 129.671L118.32 130.295L119.278 130.382L120.628 129.859V130.962L119.728 132.864L117.812 134.098L116.274 136.246ZM180.592 102.846L178.357 101.902L176.673 102.163L175.962 101.612L176.107 100.48L177.486 99.5361L179.068 96.8507L180.113 97.2136L181.071 98.1572L181.26 102.381L180.592 102.846Z"/>
</mask>
<path d="M116.274 136.246L116.041 134.316L113.98 133.488L112.921 128.698L113.501 125.868L110.395 125.026L109.292 125.272L107.695 129.293L106.737 130.527L105.198 129.758L104.69 128.625L105.692 123.835L106.984 122.877L107.187 122.297L104.85 120.453L102.542 120.264L100.248 120.54L99.5227 119.989L94.5728 120.758L91.1181 120.932L89.652 120.627L88.7811 120.061L88.3021 117.1L90.1601 114.023L90.5229 112.499L90.1601 111.86L89.2891 111.424L87.9537 108.565L88.0408 107.273L87.315 106.286L86.3424 105.865L84.5861 104.21L82.4232 99.841L82.9458 99.0426L83.0619 96.4879L81.1749 94.2815L80.6233 91.6106L80.8701 90.4349L81.4362 89.5929L81.4071 85.6157L80.1153 83.0609L74.9041 78.953L73.2639 76.7031L68.9528 77.9514L61.245 77.7627L60.2869 76.9789L57.8918 76.7757L57.2822 77.2692L54.7855 77.1676L53.7404 75.2515L52.8259 74.5112L47.7309 73.35L45.1906 72.1306L44.0584 70.6791L40.3134 70.6936L38.7602 71.4775L36.8442 71.2887L33.0121 69.7066L29.3396 69.0388L27.1913 67.8921L25.493 67.4711L24.4333 68.0082L23.9398 68.8792L22.1834 69.7791L17.4223 69.3582L11.6015 69.5178L6.04204 68.5743L1.32446 71.8984L2.54377 70.3307L3.60338 68.0953L5.43237 66.4405L16.4062 59.8504L19.2367 57.136L21.0657 53.6087L23.5769 51.1556L24.1575 49.3992L26.2478 47.9041L26.6542 46.1332L26.1461 44.9138L29.0493 41.6333L30.8057 38.2367L30.9073 36.8722L30.4573 34.0707L30.7912 33.5046L32.1846 32.7498L35.9587 27.4661L36.191 23.213L37.0909 20.7744L38.557 20.3389L39.6166 19.4099L42.5053 15.5197L44.2762 14.0391L44.9584 13.7052L46.86 13.6472L49.0373 12.515L49.4437 11.9343L50.0244 8.36351L51.7953 6.72323L54.9161 5.11202L57.7031 4.57495L59.7789 2.1218L61.9562 1.23633L63.0449 1.43957L65.5561 3.68947L69.2576 3.80562L75.4848 5.19911L77.9089 4.67652L80.2604 4.99587L83.1635 4.13945L86.328 6.20069L88.752 7.34744L88.5633 8.68285L89.0424 10.7441L90.7987 13.7778L91.7132 13.8214L92.4971 13.3569L93.4696 11.9924L94.0648 10.3521L94.4422 10.0763L95.2405 10.1489L95.7631 10.715L96.126 12.1086L96.1405 16.1439L97.8824 16.9132L98.4775 16.26L98.0856 12.573L98.7969 10.8457L99.45 10.1489L111.324 9.17638L112.79 7.36192L114.967 9.48124L116.593 10.1054L120.628 9.10382L121.267 7.66678L120.977 6.99903L121.427 6.1136L124.881 5.95391L127.291 7.08612L128.525 6.15715L130.426 5.73618L135.158 10.5989L135.449 12.1086L134.621 13.5746L134.2 17.0148L135.042 17.9003L137.786 19.6567L138.366 21.9066L138.279 22.7195L136.073 25.6662L135.812 28.4822L136.958 29.5563L137.408 30.4418L137.946 33.6497L139.833 36.2625L141.037 39.1511L140.994 40.385L143.331 40.3124L144.463 39.8624L144.869 39.3398L146.321 39.2673L151.692 41.1834L152.026 41.7204L151.953 43.5639L150.937 46.7283L148.237 50.6765L148.614 54.9441L148.339 59.952L147.569 62.2165L148.614 64.539L151.198 66.3389L153.826 67.5437L154.566 70.0404L152.809 71.0565L155.742 75.8612L157.382 76.2241L160.3 75.8757L160.561 76.645L165.815 75.1935L166.628 75.8031L168.53 75.3386L169.619 73.9161L169.691 72.6968L169.343 72.3484L169.59 69.0098L171.317 68.5308L171.448 69.0388L170.939 69.7501L170.954 70.4469L174.351 70.563L177.82 70.2001L180.418 69.2275L182.204 67.4276L185.005 65.947L188.213 65.6277L190.013 64.568L191.857 65.3519L192.669 67.0502L194.455 69.3582L197.024 69.9243L201.596 69.155L204.064 69.1695L205.153 71.55L202.758 74.6709L200.58 75.7015L196.56 76.2241L195.834 76.0063L192.423 77.4724L190.84 79.1417L189.258 84.2222L189.331 84.8173L191.697 87.3285L192.394 87.7059L192.306 87.9962L189.853 88.6059L188.315 87.4156L186.166 89.0268L185.542 89.9704L185.934 90.2897L184.831 91.2187L180.157 93.4686L176.891 94.4847L176.484 95.1234L176.543 96.5169L177.268 98.7668L176.804 99.3765L174.772 99.7539L173.756 98.8249L171.81 98.4039L167.282 97.6781L166.033 97.8959L164.117 98.3894L161.606 99.5797L160.88 100.32L159.124 103.441L157.222 104.268L156.496 104.094L157.338 103.412L156.642 101.641L154.943 100.407L153.739 102.193L154.116 103.281L153.68 104.167L142.62 110.321L141.241 111.512L140.791 113.195L136.044 117.55L131.326 120.381L128.539 121.15L122.007 125.809L118.625 128.654L117.653 128.771L117.014 129.671L118.32 130.295L119.278 130.382L120.628 129.859V130.962L119.728 132.864L117.812 134.098L116.274 136.246ZM180.592 102.846L178.357 101.902L176.673 102.163L175.962 101.612L176.107 100.48L177.486 99.5361L179.068 96.8507L180.113 97.2136L181.071 98.1572L181.26 102.381L180.592 102.846Z" fill="black"/>
<path d="M116.274 136.246L116.041 134.316L113.98 133.488L112.921 128.698L113.501 125.868L110.395 125.026L109.292 125.272L107.695 129.293L106.737 130.527L105.198 129.758L104.69 128.625L105.692 123.835L106.984 122.877L107.187 122.297L104.85 120.453L102.542 120.264L100.248 120.54L99.5227 119.989L94.5728 120.758L91.1181 120.932L89.652 120.627L88.7811 120.061L88.3021 117.1L90.1601 114.023L90.5229 112.499L90.1601 111.86L89.2891 111.424L87.9537 108.565L88.0408 107.273L87.315 106.286L86.3424 105.865L84.5861 104.21L82.4232 99.841L82.9458 99.0426L83.0619 96.4879L81.1749 94.2815L80.6233 91.6106L80.8701 90.4349L81.4362 89.5929L81.4071 85.6157L80.1153 83.0609L74.9041 78.953L73.2639 76.7031L68.9528 77.9514L61.245 77.7627L60.2869 76.9789L57.8918 76.7757L57.2822 77.2692L54.7855 77.1676L53.7404 75.2515L52.8259 74.5112L47.7309 73.35L45.1906 72.1306L44.0584 70.6791L40.3134 70.6936L38.7602 71.4775L36.8442 71.2887L33.0121 69.7066L29.3396 69.0388L27.1913 67.8921L25.493 67.4711L24.4333 68.0082L23.9398 68.8792L22.1834 69.7791L17.4223 69.3582L11.6015 69.5178L6.04204 68.5743L1.32446 71.8984L2.54377 70.3307L3.60338 68.0953L5.43237 66.4405L16.4062 59.8504L19.2367 57.136L21.0657 53.6087L23.5769 51.1556L24.1575 49.3992L26.2478 47.9041L26.6542 46.1332L26.1461 44.9138L29.0493 41.6333L30.8057 38.2367L30.9073 36.8722L30.4573 34.0707L30.7912 33.5046L32.1846 32.7498L35.9587 27.4661L36.191 23.213L37.0909 20.7744L38.557 20.3389L39.6166 19.4099L42.5053 15.5197L44.2762 14.0391L44.9584 13.7052L46.86 13.6472L49.0373 12.515L49.4437 11.9343L50.0244 8.36351L51.7953 6.72323L54.9161 5.11202L57.7031 4.57495L59.7789 2.1218L61.9562 1.23633L63.0449 1.43957L65.5561 3.68947L69.2576 3.80562L75.4848 5.19911L77.9089 4.67652L80.2604 4.99587L83.1635 4.13945L86.328 6.20069L88.752 7.34744L88.5633 8.68285L89.0424 10.7441L90.7987 13.7778L91.7132 13.8214L92.4971 13.3569L93.4696 11.9924L94.0648 10.3521L94.4422 10.0763L95.2405 10.1489L95.7631 10.715L96.126 12.1086L96.1405 16.1439L97.8824 16.9132L98.4775 16.26L98.0856 12.573L98.7969 10.8457L99.45 10.1489L111.324 9.17638L112.79 7.36192L114.967 9.48124L116.593 10.1054L120.628 9.10382L121.267 7.66678L120.977 6.99903L121.427 6.1136L124.881 5.95391L127.291 7.08612L128.525 6.15715L130.426 5.73618L135.158 10.5989L135.449 12.1086L134.621 13.5746L134.2 17.0148L135.042 17.9003L137.786 19.6567L138.366 21.9066L138.279 22.7195L136.073 25.6662L135.812 28.4822L136.958 29.5563L137.408 30.4418L137.946 33.6497L139.833 36.2625L141.037 39.1511L140.994 40.385L143.331 40.3124L144.463 39.8624L144.869 39.3398L146.321 39.2673L151.692 41.1834L152.026 41.7204L151.953 43.5639L150.937 46.7283L148.237 50.6765L148.614 54.9441L148.339 59.952L147.569 62.2165L148.614 64.539L151.198 66.3389L153.826 67.5437L154.566 70.0404L152.809 71.0565L155.742 75.8612L157.382 76.2241L160.3 75.8757L160.561 76.645L165.815 75.1935L166.628 75.8031L168.53 75.3386L169.619 73.9161L169.691 72.6968L169.343 72.3484L169.59 69.0098L171.317 68.5308L171.448 69.0388L170.939 69.7501L170.954 70.4469L174.351 70.563L177.82 70.2001L180.418 69.2275L182.204 67.4276L185.005 65.947L188.213 65.6277L190.013 64.568L191.857 65.3519L192.669 67.0502L194.455 69.3582L197.024 69.9243L201.596 69.155L204.064 69.1695L205.153 71.55L202.758 74.6709L200.58 75.7015L196.56 76.2241L195.834 76.0063L192.423 77.4724L190.84 79.1417L189.258 84.2222L189.331 84.8173L191.697 87.3285L192.394 87.7059L192.306 87.9962L189.853 88.6059L188.315 87.4156L186.166 89.0268L185.542 89.9704L185.934 90.2897L184.831 91.2187L180.157 93.4686L176.891 94.4847L176.484 95.1234L176.543 96.5169L177.268 98.7668L176.804 99.3765L174.772 99.7539L173.756 98.8249L171.81 98.4039L167.282 97.6781L166.033 97.8959L164.117 98.3894L161.606 99.5797L160.88 100.32L159.124 103.441L157.222 104.268L156.496 104.094L157.338 103.412L156.642 101.641L154.943 100.407L153.739 102.193L154.116 103.281L153.68 104.167L142.62 110.321L141.241 111.512L140.791 113.195L136.044 117.55L131.326 120.381L128.539 121.15L122.007 125.809L118.625 128.654L117.653 128.771L117.014 129.671L118.32 130.295L119.278 130.382L120.628 129.859V130.962L119.728 132.864L117.812 134.098L116.274 136.246ZM180.592 102.846L178.357 101.902L176.673 102.163L175.962 101.612L176.107 100.48L177.486 99.5361L179.068 96.8507L180.113 97.2136L181.071 98.1572L181.26 102.381L180.592 102.846Z" stroke="white" stroke-width="2" mask="url(#path-1-outside-1_2_58)"/>
</svg>
