<svg width="398" height="277" viewBox="0 0 398 277" fill="none" xmlns="http://www.w3.org/2000/svg">
<mask id="path-1-outside-1_2_36" maskUnits="userSpaceOnUse" x="-0.35498" y="-0.355682" width="399" height="277" fill="black">
<rect fill="white" x="-0.35498" y="-0.355682" width="399" height="277"/>
<path d="M237.699 2.64432L238.744 3.77653L239.833 4.27007L240.718 4.28458L242.358 3.67493L243.273 3.8346L243.36 5.2281L245.116 6.92642L246.524 7.4635L247.802 7.15867L249.776 7.31834L252.606 8.69733L253.318 9.65536L251.997 14.4745L250.966 16.6519L254.929 22.0807L257.338 28.9902L257.614 32.2707L258.877 33.8966L258.95 34.5497L256.598 36.6689L257.121 38.9771L258.079 41.2704L256.961 45.6831L256.134 47.0766L256.555 54.3054L257.832 57.4553L259.603 58.6746L260.445 59.9812L262.085 66.2663L261.998 67.1082L260.343 69.0243L257.672 68.5453L257.469 70.2L264.741 76.6161L265.496 76.6741L268.341 78.5755L270.49 80.9705L271.999 83.9317L272.768 84.0333L274.714 83.4236L278.139 84.9332L277.501 81.8704L278.589 78.5465L278.952 76.0353L278.415 73.4225L279.605 69.1114L281.086 67.2825L282.944 66.2808L285.978 65.2502L286.776 63.9583L289.099 63.8714L293.206 65.2212L295.921 68.1824L297.256 71.8258L299.898 72.1598L301.713 71.4921L303.759 69.4452L306.706 68.6469L307.316 68.0808L307.345 67.3114L305.69 65.2649L305.356 64.2051L305.516 63.2472L307.185 59.4149L307.287 57.7747L309.696 53.3764L313.078 48.6443L313.035 47.6573L339.874 47.7589L340.455 54.8135L339.831 56.9184L340.092 60.2133L340.44 61.2003L342.908 62.4342L343.169 63.0293L342.661 64.0309L342.589 67.0937L345.245 69.9824L345.768 70.2581L346.784 69.9968L349.455 71.7822L350.253 74.4387L350.311 75.7887L350.746 76.4417L357.482 81.914L364.13 85.601L365.044 86.9074L367.004 88.4896L369.733 89.4621L373.173 91.3637L376.454 92.3072L378.428 92.5249L380.344 93.7152L380.46 94.6006L382.303 96.5457L386.223 98.636L387.819 101.786L390.534 102.933L391.768 102.047L393.771 101.539L394.047 102.236L393.858 103.368L396.485 105.792L353.083 199.041L351.951 200.942L349.846 202.582L349.005 203.99L348.961 205.631L350.151 209.013L350.703 209.84L352.256 210.682L354.549 212.947L355.479 214.775L355.696 217.621L356.524 218.448L354.811 220.19L354.52 221.075L354.433 222.178L354.927 223.398L354.535 224.864L352.793 227.506L351.545 228.435L350.935 229.669L351.08 230.902L352.038 232.891L352.706 235.707L350.703 241.833L348.99 249.41L347.234 250.469L277.776 250.934L277.834 249.918L277.312 249.366L275.294 248.96L272.507 250.527L271.723 253.053L270.736 253.329L266.033 251.181L265.046 247L264.146 246.71L262.724 246.899L262.056 246.594L260.241 241.847L256.555 240.425L254.624 238.581L253.463 235.809L252.809 235.097L249.689 233.457L234.026 233.544L232.023 237.26L229.526 237.986L229.657 239.684L229.28 240.004L225.68 240.773L223.952 243.081L223.88 244.054L225.186 245.07L225.433 245.723L224.91 247.203L223.735 248.873L220.744 250.629L220.585 253.256L220.933 255.376L215.316 254.708L212.224 255.26L210.482 256.813L207.884 256.668L206.664 255.869L205.997 255.84L203.456 257.669L202.687 258.888L203.064 261.429L199.377 266.016L198.39 266.132L197.403 265.362L196.474 262.082L195.923 261.951L193.252 263.432L191.365 265.188L189.376 265.754L188.258 265.566L186.691 266.291L186.096 267.061L185.907 268.106L184.136 269.253L183.599 269.282L180.246 265.9L179.201 265.362L175.035 265.841L169.287 265.464L169.519 267.337L169.301 268.149L167.051 270.777L164.264 271.619L159.532 275.335L118.147 257.727L79.7681 237.159L62.1462 232.601L27.8022 224.385L1.74663 213.527L1.64502 212.584L2.66111 208.345L4.43202 206.313L11.5737 201.276L14.8543 200.928L15.5365 200.492L16.959 198.228L17.0751 196.733L14.5494 190.215L15.101 188.488L16.8139 185.309L18.6719 183.393L20.0073 181.578L20.617 180.156L21.0524 177.63L20.6315 175.714L21.604 172.753L22.054 169.4L23.1136 168.311L28.4264 165.945L31.6053 164.16L33.2746 162.65L33.9133 160.618L35.0455 160.081L37.0922 159.921L39.4873 158.571L44.6258 154.608L48.1386 153.984L50.3304 154.405L56.4125 152.634L58.5898 151.516L61.2317 150.994L66.0654 151.545L67.9524 149.237L68.8669 147.133L70.4491 146.247L73.5554 146.538L74.4844 147.321L76.4005 146.973L77.9972 145.899L80.4794 146.073L80.9294 146.842L80.9003 148.555L83.2374 150.428L87.3453 150.544L88.1872 149.963L88.8549 148.831L88.6952 148.265L90.3936 141.123L100.119 87.1686L101.803 82.9301L100.366 75.7305L100.54 75.3531L98.653 73.8289L96.5046 69.8371L96.4466 69.1259L97.3901 67.1082L96.6353 64.5244L96.0982 63.9438L93.6306 63.0875L89.2323 59.6762L86.4163 56.3666L86.7066 39.6593L92.3532 39.2817L94.8934 37.5836L99.9739 36.248L103.864 38.8027L105.635 38.9624L107.478 38.3382L106.767 35.8851L107.203 33.3886L105.214 30.3401L104.387 29.5563L102.717 28.6853L100.525 29.4547L96.4756 28.5692L91.2935 28.6999L91.2064 14.3294L92.5999 14.3875L94.516 13.5455L97.8256 12.6746L101.948 13.9375L129.571 14.0246L128.904 13.0665L127.757 12.8633L127.205 11.1214L128.584 8.31993L130.66 8.90055L131.545 11.1069L132.808 13.023L133.766 13.531L134.971 13.5455L137.308 12.6601L140.124 9.62633L140.589 8.40702L142.418 6.60708L146.12 4.58941L147.992 5.25713L149.69 9.00216L152.042 11.8908L153.116 13.7778L154.074 16.3616L154.408 18.6115L153.697 23.8807L153.987 26.4354L158.632 25.3468L170.695 35.5948L171.841 36.0012L175.47 36.306L178.809 34.8545L181.276 32.3868L184.339 30.703L187.518 30.5433L188.331 30.9643L189.449 32.532L189.42 33.94L187.809 36.4077L188.346 37.8302L189.187 38.2221L191.118 37.177L191.931 35.8561L192.265 33.9835L193.716 32.2999L194.399 31.9659L195.85 32.2272L196.649 31.9659L197.244 31.0078L197.911 27.6547L198.652 27.1177L200.844 26.5952L205.097 24.0258L206.505 24.8242L207.855 24.4032L210.177 22.8936L211.658 20.5566L214.72 18.8002L217.667 19.5986L221.093 17.2035L221.891 16.0132L222.53 12.1521L222.486 10.2795L223.604 8.9441L225.099 8.33444L227.625 8.30541L229.57 7.7393L232.56 5.4168L233.954 4.87972L237.263 4.44425L237.699 2.64432Z"/>
</mask>
<path d="M237.699 2.64432L238.744 3.77653L239.833 4.27007L240.718 4.28458L242.358 3.67493L243.273 3.8346L243.36 5.2281L245.116 6.92642L246.524 7.4635L247.802 7.15867L249.776 7.31834L252.606 8.69733L253.318 9.65536L251.997 14.4745L250.966 16.6519L254.929 22.0807L257.338 28.9902L257.614 32.2707L258.877 33.8966L258.95 34.5497L256.598 36.6689L257.121 38.9771L258.079 41.2704L256.961 45.6831L256.134 47.0766L256.555 54.3054L257.832 57.4553L259.603 58.6746L260.445 59.9812L262.085 66.2663L261.998 67.1082L260.343 69.0243L257.672 68.5453L257.469 70.2L264.741 76.6161L265.496 76.6741L268.341 78.5755L270.49 80.9705L271.999 83.9317L272.768 84.0333L274.714 83.4236L278.139 84.9332L277.501 81.8704L278.589 78.5465L278.952 76.0353L278.415 73.4225L279.605 69.1114L281.086 67.2825L282.944 66.2808L285.978 65.2502L286.776 63.9583L289.099 63.8714L293.206 65.2212L295.921 68.1824L297.256 71.8258L299.898 72.1598L301.713 71.4921L303.759 69.4452L306.706 68.6469L307.316 68.0808L307.345 67.3114L305.69 65.2649L305.356 64.2051L305.516 63.2472L307.185 59.4149L307.287 57.7747L309.696 53.3764L313.078 48.6443L313.035 47.6573L339.874 47.7589L340.455 54.8135L339.831 56.9184L340.092 60.2133L340.44 61.2003L342.908 62.4342L343.169 63.0293L342.661 64.0309L342.589 67.0937L345.245 69.9824L345.768 70.2581L346.784 69.9968L349.455 71.7822L350.253 74.4387L350.311 75.7887L350.746 76.4417L357.482 81.914L364.13 85.601L365.044 86.9074L367.004 88.4896L369.733 89.4621L373.173 91.3637L376.454 92.3072L378.428 92.5249L380.344 93.7152L380.46 94.6006L382.303 96.5457L386.223 98.636L387.819 101.786L390.534 102.933L391.768 102.047L393.771 101.539L394.047 102.236L393.858 103.368L396.485 105.792L353.083 199.041L351.951 200.942L349.846 202.582L349.005 203.99L348.961 205.631L350.151 209.013L350.703 209.84L352.256 210.682L354.549 212.947L355.479 214.775L355.696 217.621L356.524 218.448L354.811 220.19L354.52 221.075L354.433 222.178L354.927 223.398L354.535 224.864L352.793 227.506L351.545 228.435L350.935 229.669L351.08 230.902L352.038 232.891L352.706 235.707L350.703 241.833L348.99 249.41L347.234 250.469L277.776 250.934L277.834 249.918L277.312 249.366L275.294 248.96L272.507 250.527L271.723 253.053L270.736 253.329L266.033 251.181L265.046 247L264.146 246.71L262.724 246.899L262.056 246.594L260.241 241.847L256.555 240.425L254.624 238.581L253.463 235.809L252.809 235.097L249.689 233.457L234.026 233.544L232.023 237.26L229.526 237.986L229.657 239.684L229.28 240.004L225.68 240.773L223.952 243.081L223.88 244.054L225.186 245.07L225.433 245.723L224.91 247.203L223.735 248.873L220.744 250.629L220.585 253.256L220.933 255.376L215.316 254.708L212.224 255.26L210.482 256.813L207.884 256.668L206.664 255.869L205.997 255.84L203.456 257.669L202.687 258.888L203.064 261.429L199.377 266.016L198.39 266.132L197.403 265.362L196.474 262.082L195.923 261.951L193.252 263.432L191.365 265.188L189.376 265.754L188.258 265.566L186.691 266.291L186.096 267.061L185.907 268.106L184.136 269.253L183.599 269.282L180.246 265.9L179.201 265.362L175.035 265.841L169.287 265.464L169.519 267.337L169.301 268.149L167.051 270.777L164.264 271.619L159.532 275.335L118.147 257.727L79.7681 237.159L62.1462 232.601L27.8022 224.385L1.74663 213.527L1.64502 212.584L2.66111 208.345L4.43202 206.313L11.5737 201.276L14.8543 200.928L15.5365 200.492L16.959 198.228L17.0751 196.733L14.5494 190.215L15.101 188.488L16.8139 185.309L18.6719 183.393L20.0073 181.578L20.617 180.156L21.0524 177.63L20.6315 175.714L21.604 172.753L22.054 169.4L23.1136 168.311L28.4264 165.945L31.6053 164.16L33.2746 162.65L33.9133 160.618L35.0455 160.081L37.0922 159.921L39.4873 158.571L44.6258 154.608L48.1386 153.984L50.3304 154.405L56.4125 152.634L58.5898 151.516L61.2317 150.994L66.0654 151.545L67.9524 149.237L68.8669 147.133L70.4491 146.247L73.5554 146.538L74.4844 147.321L76.4005 146.973L77.9972 145.899L80.4794 146.073L80.9294 146.842L80.9003 148.555L83.2374 150.428L87.3453 150.544L88.1872 149.963L88.8549 148.831L88.6952 148.265L90.3936 141.123L100.119 87.1686L101.803 82.9301L100.366 75.7305L100.54 75.3531L98.653 73.8289L96.5046 69.8371L96.4466 69.1259L97.3901 67.1082L96.6353 64.5244L96.0982 63.9438L93.6306 63.0875L89.2323 59.6762L86.4163 56.3666L86.7066 39.6593L92.3532 39.2817L94.8934 37.5836L99.9739 36.248L103.864 38.8027L105.635 38.9624L107.478 38.3382L106.767 35.8851L107.203 33.3886L105.214 30.3401L104.387 29.5563L102.717 28.6853L100.525 29.4547L96.4756 28.5692L91.2935 28.6999L91.2064 14.3294L92.5999 14.3875L94.516 13.5455L97.8256 12.6746L101.948 13.9375L129.571 14.0246L128.904 13.0665L127.757 12.8633L127.205 11.1214L128.584 8.31993L130.66 8.90055L131.545 11.1069L132.808 13.023L133.766 13.531L134.971 13.5455L137.308 12.6601L140.124 9.62633L140.589 8.40702L142.418 6.60708L146.12 4.58941L147.992 5.25713L149.69 9.00216L152.042 11.8908L153.116 13.7778L154.074 16.3616L154.408 18.6115L153.697 23.8807L153.987 26.4354L158.632 25.3468L170.695 35.5948L171.841 36.0012L175.47 36.306L178.809 34.8545L181.276 32.3868L184.339 30.703L187.518 30.5433L188.331 30.9643L189.449 32.532L189.42 33.94L187.809 36.4077L188.346 37.8302L189.187 38.2221L191.118 37.177L191.931 35.8561L192.265 33.9835L193.716 32.2999L194.399 31.9659L195.85 32.2272L196.649 31.9659L197.244 31.0078L197.911 27.6547L198.652 27.1177L200.844 26.5952L205.097 24.0258L206.505 24.8242L207.855 24.4032L210.177 22.8936L211.658 20.5566L214.72 18.8002L217.667 19.5986L221.093 17.2035L221.891 16.0132L222.53 12.1521L222.486 10.2795L223.604 8.9441L225.099 8.33444L227.625 8.30541L229.57 7.7393L232.56 5.4168L233.954 4.87972L237.263 4.44425L237.699 2.64432Z" fill="black"/>
<path d="M237.699 2.64432L238.744 3.77653L239.833 4.27007L240.718 4.28458L242.358 3.67493L243.273 3.8346L243.36 5.2281L245.116 6.92642L246.524 7.4635L247.802 7.15867L249.776 7.31834L252.606 8.69733L253.318 9.65536L251.997 14.4745L250.966 16.6519L254.929 22.0807L257.338 28.9902L257.614 32.2707L258.877 33.8966L258.95 34.5497L256.598 36.6689L257.121 38.9771L258.079 41.2704L256.961 45.6831L256.134 47.0766L256.555 54.3054L257.832 57.4553L259.603 58.6746L260.445 59.9812L262.085 66.2663L261.998 67.1082L260.343 69.0243L257.672 68.5453L257.469 70.2L264.741 76.6161L265.496 76.6741L268.341 78.5755L270.49 80.9705L271.999 83.9317L272.768 84.0333L274.714 83.4236L278.139 84.9332L277.501 81.8704L278.589 78.5465L278.952 76.0353L278.415 73.4225L279.605 69.1114L281.086 67.2825L282.944 66.2808L285.978 65.2502L286.776 63.9583L289.099 63.8714L293.206 65.2212L295.921 68.1824L297.256 71.8258L299.898 72.1598L301.713 71.4921L303.759 69.4452L306.706 68.6469L307.316 68.0808L307.345 67.3114L305.69 65.2649L305.356 64.2051L305.516 63.2472L307.185 59.4149L307.287 57.7747L309.696 53.3764L313.078 48.6443L313.035 47.6573L339.874 47.7589L340.455 54.8135L339.831 56.9184L340.092 60.2133L340.44 61.2003L342.908 62.4342L343.169 63.0293L342.661 64.0309L342.589 67.0937L345.245 69.9824L345.768 70.2581L346.784 69.9968L349.455 71.7822L350.253 74.4387L350.311 75.7887L350.746 76.4417L357.482 81.914L364.13 85.601L365.044 86.9074L367.004 88.4896L369.733 89.4621L373.173 91.3637L376.454 92.3072L378.428 92.5249L380.344 93.7152L380.46 94.6006L382.303 96.5457L386.223 98.636L387.819 101.786L390.534 102.933L391.768 102.047L393.771 101.539L394.047 102.236L393.858 103.368L396.485 105.792L353.083 199.041L351.951 200.942L349.846 202.582L349.005 203.99L348.961 205.631L350.151 209.013L350.703 209.84L352.256 210.682L354.549 212.947L355.479 214.775L355.696 217.621L356.524 218.448L354.811 220.19L354.52 221.075L354.433 222.178L354.927 223.398L354.535 224.864L352.793 227.506L351.545 228.435L350.935 229.669L351.08 230.902L352.038 232.891L352.706 235.707L350.703 241.833L348.99 249.41L347.234 250.469L277.776 250.934L277.834 249.918L277.312 249.366L275.294 248.96L272.507 250.527L271.723 253.053L270.736 253.329L266.033 251.181L265.046 247L264.146 246.71L262.724 246.899L262.056 246.594L260.241 241.847L256.555 240.425L254.624 238.581L253.463 235.809L252.809 235.097L249.689 233.457L234.026 233.544L232.023 237.26L229.526 237.986L229.657 239.684L229.28 240.004L225.68 240.773L223.952 243.081L223.88 244.054L225.186 245.07L225.433 245.723L224.91 247.203L223.735 248.873L220.744 250.629L220.585 253.256L220.933 255.376L215.316 254.708L212.224 255.26L210.482 256.813L207.884 256.668L206.664 255.869L205.997 255.84L203.456 257.669L202.687 258.888L203.064 261.429L199.377 266.016L198.39 266.132L197.403 265.362L196.474 262.082L195.923 261.951L193.252 263.432L191.365 265.188L189.376 265.754L188.258 265.566L186.691 266.291L186.096 267.061L185.907 268.106L184.136 269.253L183.599 269.282L180.246 265.9L179.201 265.362L175.035 265.841L169.287 265.464L169.519 267.337L169.301 268.149L167.051 270.777L164.264 271.619L159.532 275.335L118.147 257.727L79.7681 237.159L62.1462 232.601L27.8022 224.385L1.74663 213.527L1.64502 212.584L2.66111 208.345L4.43202 206.313L11.5737 201.276L14.8543 200.928L15.5365 200.492L16.959 198.228L17.0751 196.733L14.5494 190.215L15.101 188.488L16.8139 185.309L18.6719 183.393L20.0073 181.578L20.617 180.156L21.0524 177.63L20.6315 175.714L21.604 172.753L22.054 169.4L23.1136 168.311L28.4264 165.945L31.6053 164.16L33.2746 162.65L33.9133 160.618L35.0455 160.081L37.0922 159.921L39.4873 158.571L44.6258 154.608L48.1386 153.984L50.3304 154.405L56.4125 152.634L58.5898 151.516L61.2317 150.994L66.0654 151.545L67.9524 149.237L68.8669 147.133L70.4491 146.247L73.5554 146.538L74.4844 147.321L76.4005 146.973L77.9972 145.899L80.4794 146.073L80.9294 146.842L80.9003 148.555L83.2374 150.428L87.3453 150.544L88.1872 149.963L88.8549 148.831L88.6952 148.265L90.3936 141.123L100.119 87.1686L101.803 82.9301L100.366 75.7305L100.54 75.3531L98.653 73.8289L96.5046 69.8371L96.4466 69.1259L97.3901 67.1082L96.6353 64.5244L96.0982 63.9438L93.6306 63.0875L89.2323 59.6762L86.4163 56.3666L86.7066 39.6593L92.3532 39.2817L94.8934 37.5836L99.9739 36.248L103.864 38.8027L105.635 38.9624L107.478 38.3382L106.767 35.8851L107.203 33.3886L105.214 30.3401L104.387 29.5563L102.717 28.6853L100.525 29.4547L96.4756 28.5692L91.2935 28.6999L91.2064 14.3294L92.5999 14.3875L94.516 13.5455L97.8256 12.6746L101.948 13.9375L129.571 14.0246L128.904 13.0665L127.757 12.8633L127.205 11.1214L128.584 8.31993L130.66 8.90055L131.545 11.1069L132.808 13.023L133.766 13.531L134.971 13.5455L137.308 12.6601L140.124 9.62633L140.589 8.40702L142.418 6.60708L146.12 4.58941L147.992 5.25713L149.69 9.00216L152.042 11.8908L153.116 13.7778L154.074 16.3616L154.408 18.6115L153.697 23.8807L153.987 26.4354L158.632 25.3468L170.695 35.5948L171.841 36.0012L175.47 36.306L178.809 34.8545L181.276 32.3868L184.339 30.703L187.518 30.5433L188.331 30.9643L189.449 32.532L189.42 33.94L187.809 36.4077L188.346 37.8302L189.187 38.2221L191.118 37.177L191.931 35.8561L192.265 33.9835L193.716 32.2999L194.399 31.9659L195.85 32.2272L196.649 31.9659L197.244 31.0078L197.911 27.6547L198.652 27.1177L200.844 26.5952L205.097 24.0258L206.505 24.8242L207.855 24.4032L210.177 22.8936L211.658 20.5566L214.72 18.8002L217.667 19.5986L221.093 17.2035L221.891 16.0132L222.53 12.1521L222.486 10.2795L223.604 8.9441L225.099 8.33444L227.625 8.30541L229.57 7.7393L232.56 5.4168L233.954 4.87972L237.263 4.44425L237.699 2.64432Z" stroke="white" stroke-width="2" mask="url(#path-1-outside-1_2_36)"/>
</svg>
