<svg width="295" height="283" viewBox="0 0 295 283" fill="none" xmlns="http://www.w3.org/2000/svg">
<mask id="path-1-outside-1_2_46" maskUnits="userSpaceOnUse" x="-0.477295" y="-0.569916" width="296" height="284" fill="black">
<rect fill="white" x="-0.477295" y="-0.569916" width="296" height="284"/>
<path d="M199.574 281.465L108.169 276.414L58.7578 272.901L53.4015 270.738L51.4129 271.392L50.9048 270.942L50.6146 269.359L49.8162 268.314L47.4502 267.661L46.2599 267.908L44.8809 267.342L44.547 266.616L44.6051 265.019L44.2712 263.655L39.3649 261.187L35.0103 257.181L32.7748 255.569L31.7297 252.376L31.033 248.907L31.3668 245.365L30.2491 242.999L28.3186 240.197L26.3299 234.464L25.7638 231.909L22.2075 226.016L20.4946 224.448L19.6672 223.635L19.4495 220.79L18.5205 218.961L16.2125 216.697L14.6593 215.855L14.1223 215.027L12.9175 211.631L12.961 209.99L13.8029 208.582L15.9077 206.942L17.0399 205.041L60.4416 111.792L57.8143 109.368L58.003 108.236L57.7272 107.539L55.7096 108.047L54.4757 108.933L51.7613 107.8L50.1646 104.651L46.2599 102.546L44.4164 100.601L44.3003 99.7298L42.3842 98.5395L40.3955 98.3217L37.1295 97.3782L33.6748 95.4767L30.9459 94.5041L28.9863 92.9219L28.0718 91.6155L21.4236 87.9285L14.6884 82.4563L14.2529 81.8176L14.1948 80.4677L13.3965 77.8113L10.7256 76.0259L9.70952 76.3017L9.18695 76.0114L6.53059 73.1374L6.60317 70.0746L7.11123 69.0729L6.84994 68.4778L4.39679 67.2439L4.04843 66.2569L3.78714 62.9618L4.41132 60.8571L3.83068 53.8025L1.52271 29.1694L2.61138 29.6339L3.23556 30.4758L3.20652 31.1726L3.85972 31.7532L5.19516 32.1597L7.18381 31.1291L7.86605 29.9533L11.7998 30.2871L12.9755 28.763L12.1917 26.1357L14.79 25.6131L16.8367 23.2471L20.6688 24.7131L23.3978 24.7567L24.1816 22.5503L29.0153 20.1988L31.8749 20.7649L33.5587 20.6052L34.2699 20.2423L36.0118 18.094L36.5925 16.0618L38.7117 14.4651L39.9601 14.3054L40.9036 14.9732L43.9664 13.3329L44.5615 13.4926L45.0986 14.9296L46.1582 15.5828L49.1049 16.2796L51.442 16.6425L52.2548 15.7715L54.6789 15.2054L55.8111 15.6119L57.0014 15.5973L58.2498 15.1038L61.5013 15.5393L68.28 17.5424L69.6736 17.3392L71.1251 16.0764L71.0816 12.7668L68.0769 9.13788L66.2769 8.2234L66.9882 5.78477L68.8897 3.68001L69.2962 2.06877L69.7461 1.82201L70.7767 2.0978L71.9816 3.20099L75.3927 4.81222L92.2599 1.43008L94.5388 3.88322L96.0194 3.97032L96.6581 3.54936L97.5581 4.37675L98.0952 7.71535L97.1952 9.60238L96.8323 16.1925L97.1807 18.2827L97.6306 19.0666L99.329 19.0956L100.897 18.6746L105.817 19.2117L107.69 19.923L110.492 21.4471L111.464 22.6084L112.175 24.4664L113.903 24.6406L115.557 25.8599L116.719 27.2824L117.938 27.6743L119.869 27.4711L120.42 26.8615L121.785 26.6582L125.907 30.5194L126.894 30.4758L127.605 32.1887L126.618 32.5226L126.343 33.5677L127.446 37.6757L130.378 40.9561L134.108 42.0158L134.355 42.4949L133.731 47.0528L134.007 50.1156L134.979 52.3074L135.879 53.1204L136.736 55.7476L136.547 58.0412L138.724 63.0925L139.915 63.3683L141.047 62.8457L145.3 67.6068L145.184 71.1341L145.779 72.4986L147.158 72.7745L147.637 73.4566L148.087 75.7501L147.782 76.7517L147.942 78.6387L150.656 80.6564L151.28 82.8337L153.385 84.329L157.435 85.3157L159.322 85.1415L160.44 84.6482L161.804 84.7353L161.035 85.8093L161.456 88.1173L161.209 88.8866L159.337 90.4978L157.319 90.7446L156.593 90.4833L155.374 89.3366L154.416 89.1188L149.51 91.4123L148.972 92.1961L146.65 93.2413L145.735 93.2122L143.486 94.0687L143.544 94.9106L152.921 93.3719L154.198 94.3299L154.387 94.9977V95.9557L153.487 96.6815L153.922 97.204L154.837 96.9137L156.085 95.4622L157.566 95.4476L158.335 95.0557L159.206 95.2299L160.759 94.6202L162.414 93.7929L167.175 90.3962L169.352 89.8882L172.023 88.7124L176.61 86.0415L177.394 84.5902L178.367 83.8353L181.4 82.3692L182.358 81.3242L181.995 80.3515L182.3 79.7564L183.941 79.3501L185.523 79.4371L186.118 79.7419L186.67 85.2577L185.915 89.0027L186.394 91.3542L187.569 93.6767L189.471 95.6364L189.906 98.0169L189.732 98.6991L187.061 101.37L186.379 101.559L185.116 100.804L182.474 100.049L180.645 99.5991L179.296 99.8023L176.204 98.2927L175.826 96.667L174.549 95.8976L171.239 101.443L170.354 104.883L171.341 109.194L172.038 110.123L173.373 111.023L171.907 109.368L171.283 105.463L171.457 104.709L175.188 98.583L178.541 100.296L178.7 100.949L182.373 104.505L182.01 107.438L180.936 108.236L181.516 111.618L182.271 113.258L183.897 114.347L184.971 114.565L185.726 115.276L185.232 114.347L184.115 113.999L182.373 112.489L182.054 111.502L182.547 105.405L183.737 103.678L185.813 104.738L187.018 106.48L186.887 107.626L188.629 108.875L188.992 108.454L187.54 106.625L186.205 103.576V102.938L189.486 99.5701L191.837 99.7007L194.639 100.63L195.132 101.443L194.247 102.299L194.711 102.705L195.408 102.749L196.903 102.502L198.834 101.196L204.77 99.8023L205.888 100.093L208.414 101.631L213.015 101.022L214.569 100.426L216.049 98.9604L217.472 98.104L219.997 97.3637L221.115 97.4653L221.202 98.554L218.241 104.389L217.893 106.567L217.225 108.12L216.02 109.615L216.006 110.892L216.847 112.953L216.383 116.539L217.66 114.811L217.675 112.779L219.91 108.425L221.551 103.794L223.176 101.53L223.568 101.138L224.671 101.065L225.513 100.557L228.155 100.223L229.433 98.2637L231.624 95.8105L233.599 92.53L234.353 91.8623L235.5 92.5736L236.4 91.9058L238.752 95.3025L240.479 96.1589L240.406 95.0847L239.898 93.9961L240.798 92.53L245.893 91.7897L244.398 91.3252L239.303 91.9929L238.853 91.6881L239.274 88.1608L240.014 87.7398L240.987 88.2914L242.468 88.4511L244.021 83.9514L243.034 81.9337L243.077 80.9467L244.776 78.3195L248.898 74.7195L249.421 74.6033L251.032 76.2581L255.285 73.2244L255.953 73.1228L256.533 73.776L256.678 74.6033L256.214 75.5759L257.767 75.3436L258.943 74.5017L259.465 73.3695L260.38 73.0937L260.786 73.3115L261.86 75.3291L263.791 77.0712L264.081 76.2581L263.922 75.7065L262.528 74.9954L262.325 74.5743L262.136 72.8324L262.383 72.2228L263.022 71.947L266.331 72.3244L268.044 73.2679L268.944 74.7485L271.31 75.7793L273.705 74.6469L274.475 77.7532L273.749 78.2032L273.705 79.0596L275.041 78.3048L276.724 74.8938L277.276 75.2275L276.942 77.1581L277.537 77.7969L281.181 77.4194L281.834 78.363L282.502 80.8017L281.631 82.1805L282.865 81.4547L283.242 81.9919L285.985 82.195L291.109 80.3952L290.659 82.6885L289.571 85.3448L291.705 84.6336L292.561 83.7337L293.475 86.0851L292.358 86.7383L291.676 88.2334L291.908 90.2365L290.877 96.6089L290.05 97.683L288.395 97.9008L288.322 98.8008L288.714 99.512L290.151 99.2798L290.776 100.049L290.659 102.386L289.353 106.77L288.83 107.8L286.305 110.079L285.579 113.534L285.768 115.915L280.426 120.4L281.936 122.693L280.789 123.869L281.05 126.511L280.382 128.369L279.178 130.474L277.029 133.029L274.184 135.264L271.862 142.072L271.441 144.83L270.759 146.586L267.217 149.954L265.591 150.622L264.691 154.802L262.441 156.5L261.817 158.17L259.567 161.32L257.869 162.655L254.457 162.321L233.105 179.493L233.816 179.609L237.14 180.785L239.855 180.437L241.727 180.611L243.208 183.02L243.774 183.47L245.037 183.674L246.866 185.372L246.808 186.286L246.271 187.259L245.226 187.796L243.818 187.898L243.397 188.304L243.527 190.351L244.993 192.296L243.658 196.288L242.729 196.984L240.61 197.652L240.247 198.32L240.668 200.062L240.392 202.007L238.505 202.225L236.313 204.17L235.079 206.013L235.297 208.205L234.948 208.931L231.32 210.673L226.37 212.327L222.784 214.911L222.509 215.419L223.133 218.598L223.22 222.474L221.362 225.522L219.315 227.961L219.097 228.788L219.344 230.066L220.201 231.459L222.625 233.985L223.713 234.449L223.931 234.885L222.973 240.749L220.418 248.225L218.851 249.4L216.383 254.103L216.122 255.54L214.757 257.776L213.683 259.01L212.159 259.242L210.17 260.577L208.675 263.364L206.919 265.803L205.206 267.385L203.537 269.679L201.896 276.153L199.574 281.465ZM230.289 92.3123L223.728 95.1573L218.807 95.9121L215.875 95.4622L214.931 97.1024L212.261 98.8298L211.215 97.9443L210.33 95.7234L209.996 96.1299L210.606 97.9153L210.112 99.0911L209.082 99.6862L203.609 97.3056L202.448 98.3508L196.366 100.18L191.721 99.3523L190.545 98.4669L190.197 95.7815L189.863 95.1864L188.252 93.7058L186.713 91.3833L186.408 88.7995L187.163 84.8077L188.063 84.2562L190.618 84.7787L191.968 83.6901L192.084 82.8774L190.197 83.5016L188.426 83.3127L187.061 82.2821L186.8 80.7581L187.294 73.384L188.353 72.2808L188.861 73.3695L191.416 74.2405L192.214 74.1534L191.547 73.5439L189.703 73.2244L188.397 70.089L188.919 67.6504L190.211 64.7909L192.142 62.8602L193.535 62.033L195.48 61.3216L197.397 61.1328L202.419 61.8878L212.885 64.4569L218.255 63.7892L218.415 63.3537L220.07 62.4539L223.205 61.9167L227.4 62.3376L231.465 63.5279L240.871 64.7618L241.785 65.444L241.713 67.2294L240.697 68.3036L239.71 70.4809L239.187 74.3277L237.939 79.1177L236.066 80.1048L235.558 81.1064L235.892 82.8337L233.018 86.5786L231 91.6591L230.289 92.3123ZM161.761 92.0655L160.672 91.3252L162.269 88.0592L162.138 85.4609L162.501 85.1561L165.883 84.4595L167.19 83.2111L167.407 82.4853L167.117 79.0888L168.365 75.3436L170.194 73.181L173.518 71.047L177.684 70.7567L178.729 74.1824L177.133 77.3613L175.899 81.7741L174.302 82.7466L172.357 85.6931L171.225 86.7383L164.054 91.5429L161.761 92.0655ZM203.101 58.825L201.606 58.4621L198.05 58.5781L196.903 58.3458L196.482 57.9684L195.93 56.3864L195.945 54.5863L198.137 53.9766L200.88 54.0347L204.059 52.1622L211.041 51.2913L212.159 51.6688L213.146 52.6559L212.885 54.1363L209.169 56.154L206.585 59.754L204.988 60.4798L203.101 58.825ZM210.054 58.825L212.754 57.083L215.628 57.1265L218.023 58.0265L218.793 59.4635L218.865 60.3635L217.588 61.4812L213.451 61.8878L211.753 62.3523L208.472 61.0603L208.182 60.2909L210.054 58.825ZM185.407 65.1974L184.681 64.8198L183.795 64.8779L181.56 63.8763L181.865 62.1926L182.794 60.8571L185.581 60.2766L189.007 58.97L190.923 59.0863L192.084 60.0734L192.214 60.2619L189.413 62.5989L187.86 63.0925L185.407 65.1974ZM199.08 51.1316L197.89 50.6961L197.643 48.2865L197.861 47.4157L199.559 45.514L203.116 44.1786L203.479 44.3528L204.248 45.34L204.306 46.6317L201.475 49.5203L199.08 51.1316ZM179.005 80.4822L178.802 79.887L179.078 78.5371L180.587 74.4582L184.347 72.0051L185.392 71.5986L186.394 71.8018L186.161 74.4001L183.897 75.0388L181.545 78.2179L179.005 80.4822ZM194.842 54.9782L193.114 54.5282L192.679 53.8315L193.956 52.438L194.987 46.7043L196.279 44.9189L196.7 45.1076L196.801 45.5721L196.772 49.172L197.643 51.8864L197.179 53.1638L195.684 53.7445L194.842 54.9782ZM173.344 69.7697L172.952 69.4939L173.126 68.6084L173.925 68.0858L175.652 65.6037L176.755 63.3683L177.815 62.4102L179.92 61.6265L179.629 63.7892L179.049 65.2408L176.552 67.6504L173.344 69.7697ZM193.477 59.5652L192.606 59.3476L191.387 58.3168L189.994 55.9363L189.921 55.3847L190.255 54.9637L191.431 54.1218L194.116 55.3411L194.537 55.9653L194.885 58.999L193.477 59.5652ZM185.668 103.925L184.724 103.765L183.447 103.01L182.445 103.678L181.357 103.272L178.918 100.746V99.8604L180.776 99.8459L185.218 101.762L185.668 103.925ZM154.967 95.8831L155.025 94.388L154.735 93.9525L155.606 92.5155L159.032 91.2381L160.164 91.7897L161.427 93.0381L161.006 93.5461L159.511 94.2283L155.824 94.8235L154.967 95.8831ZM173.402 86.1722L173.141 86.1286L173.155 85.6206L173.939 84.2562L176.538 81.9047L177.147 80.1048L177.22 78.2179L177.568 77.7823L178.033 78.4211V80.6128L176.741 84.5756L175.841 85.519L173.402 86.1722ZM182.547 71.8018L184.942 67.5052L186.219 67.2004L187.25 67.4763L187.642 68.739L186.8 69.7697L182.547 71.8018ZM228.155 99.3378L226.936 98.8298L226.442 97.2911L227.952 94.7944L229.505 94.3154L229.781 94.4606L229.752 95.5347L228.678 98.7862L228.155 99.3378ZM179.557 71.076L178.773 70.7857L179.237 67.8246L181.168 65.1974L181.502 65.2554L183.374 66.5327L183.36 66.8956L181.11 67.8246L179.557 71.076ZM182.794 78.3774L183.839 78.4211L183.258 79.0742L181.894 79.5242L181.734 81.1499L180.587 82.1805L178.134 83.4L177.902 83.1387L178.294 81.9337L178.976 81.0193L181.487 78.5951L182.794 78.3774ZM150.047 93.1977L149.248 92.9219L149.147 92.4139L149.771 91.8333L154.938 89.5108L155.722 90.5268L155.708 90.8172L153.675 91.8768L150.047 93.1977ZM242.264 86.2593L240.769 85.9835L239.579 84.8367L240.842 83.0224L242.787 83.0079L243.063 84.7353L242.918 85.5915L242.264 86.2593ZM188.194 58.825L184.768 59.841L183.912 59.8556L183.65 59.5508L185.145 58.0412L186.655 57.3007L188.165 57.5475L188.803 58.0412L189.021 58.3749L188.803 58.6797L188.194 58.825ZM180.544 71.2938L180.428 70.1906L180.791 69.4648L184.391 67.3455L183.084 70.2487L181.908 71.1633L180.544 71.2938ZM183.65 77.8694L182.997 77.6953L182.895 77.3613L184.028 75.184L185.755 75.213L185.581 77.1728L183.65 77.8694ZM224.352 100.847L223.946 100.514L225.252 98.1911L226.239 97.6105L226.573 98.6991L227.313 99.2362L226.936 99.991L226.312 100.485L225.397 100.223L224.352 100.847ZM185.653 66.9972L184.361 66.8956L184.391 66.6198L187.816 63.9489L187.874 65.3424L187.54 66.2569L187.178 66.7505L185.653 66.9972ZM283.576 81.8321L283.024 81.0629L283.3 79.9596L284.781 78.6387L285.144 78.8564L285.477 81.3967L283.576 81.8321Z"/>
</mask>
<path d="M199.574 281.465L108.169 276.414L58.7578 272.901L53.4015 270.738L51.4129 271.392L50.9048 270.942L50.6146 269.359L49.8162 268.314L47.4502 267.661L46.2599 267.908L44.8809 267.342L44.547 266.616L44.6051 265.019L44.2712 263.655L39.3649 261.187L35.0103 257.181L32.7748 255.569L31.7297 252.376L31.033 248.907L31.3668 245.365L30.2491 242.999L28.3186 240.197L26.3299 234.464L25.7638 231.909L22.2075 226.016L20.4946 224.448L19.6672 223.635L19.4495 220.79L18.5205 218.961L16.2125 216.697L14.6593 215.855L14.1223 215.027L12.9175 211.631L12.961 209.99L13.8029 208.582L15.9077 206.942L17.0399 205.041L60.4416 111.792L57.8143 109.368L58.003 108.236L57.7272 107.539L55.7096 108.047L54.4757 108.933L51.7613 107.8L50.1646 104.651L46.2599 102.546L44.4164 100.601L44.3003 99.7298L42.3842 98.5395L40.3955 98.3217L37.1295 97.3782L33.6748 95.4767L30.9459 94.5041L28.9863 92.9219L28.0718 91.6155L21.4236 87.9285L14.6884 82.4563L14.2529 81.8176L14.1948 80.4677L13.3965 77.8113L10.7256 76.0259L9.70952 76.3017L9.18695 76.0114L6.53059 73.1374L6.60317 70.0746L7.11123 69.0729L6.84994 68.4778L4.39679 67.2439L4.04843 66.2569L3.78714 62.9618L4.41132 60.8571L3.83068 53.8025L1.52271 29.1694L2.61138 29.6339L3.23556 30.4758L3.20652 31.1726L3.85972 31.7532L5.19516 32.1597L7.18381 31.1291L7.86605 29.9533L11.7998 30.2871L12.9755 28.763L12.1917 26.1357L14.79 25.6131L16.8367 23.2471L20.6688 24.7131L23.3978 24.7567L24.1816 22.5503L29.0153 20.1988L31.8749 20.7649L33.5587 20.6052L34.2699 20.2423L36.0118 18.094L36.5925 16.0618L38.7117 14.4651L39.9601 14.3054L40.9036 14.9732L43.9664 13.3329L44.5615 13.4926L45.0986 14.9296L46.1582 15.5828L49.1049 16.2796L51.442 16.6425L52.2548 15.7715L54.6789 15.2054L55.8111 15.6119L57.0014 15.5973L58.2498 15.1038L61.5013 15.5393L68.28 17.5424L69.6736 17.3392L71.1251 16.0764L71.0816 12.7668L68.0769 9.13788L66.2769 8.2234L66.9882 5.78477L68.8897 3.68001L69.2962 2.06877L69.7461 1.82201L70.7767 2.0978L71.9816 3.20099L75.3927 4.81222L92.2599 1.43008L94.5388 3.88322L96.0194 3.97032L96.6581 3.54936L97.5581 4.37675L98.0952 7.71535L97.1952 9.60238L96.8323 16.1925L97.1807 18.2827L97.6306 19.0666L99.329 19.0956L100.897 18.6746L105.817 19.2117L107.69 19.923L110.492 21.4471L111.464 22.6084L112.175 24.4664L113.903 24.6406L115.557 25.8599L116.719 27.2824L117.938 27.6743L119.869 27.4711L120.42 26.8615L121.785 26.6582L125.907 30.5194L126.894 30.4758L127.605 32.1887L126.618 32.5226L126.343 33.5677L127.446 37.6757L130.378 40.9561L134.108 42.0158L134.355 42.4949L133.731 47.0528L134.007 50.1156L134.979 52.3074L135.879 53.1204L136.736 55.7476L136.547 58.0412L138.724 63.0925L139.915 63.3683L141.047 62.8457L145.3 67.6068L145.184 71.1341L145.779 72.4986L147.158 72.7745L147.637 73.4566L148.087 75.7501L147.782 76.7517L147.942 78.6387L150.656 80.6564L151.28 82.8337L153.385 84.329L157.435 85.3157L159.322 85.1415L160.44 84.6482L161.804 84.7353L161.035 85.8093L161.456 88.1173L161.209 88.8866L159.337 90.4978L157.319 90.7446L156.593 90.4833L155.374 89.3366L154.416 89.1188L149.51 91.4123L148.972 92.1961L146.65 93.2413L145.735 93.2122L143.486 94.0687L143.544 94.9106L152.921 93.3719L154.198 94.3299L154.387 94.9977V95.9557L153.487 96.6815L153.922 97.204L154.837 96.9137L156.085 95.4622L157.566 95.4476L158.335 95.0557L159.206 95.2299L160.759 94.6202L162.414 93.7929L167.175 90.3962L169.352 89.8882L172.023 88.7124L176.61 86.0415L177.394 84.5902L178.367 83.8353L181.4 82.3692L182.358 81.3242L181.995 80.3515L182.3 79.7564L183.941 79.3501L185.523 79.4371L186.118 79.7419L186.67 85.2577L185.915 89.0027L186.394 91.3542L187.569 93.6767L189.471 95.6364L189.906 98.0169L189.732 98.6991L187.061 101.37L186.379 101.559L185.116 100.804L182.474 100.049L180.645 99.5991L179.296 99.8023L176.204 98.2927L175.826 96.667L174.549 95.8976L171.239 101.443L170.354 104.883L171.341 109.194L172.038 110.123L173.373 111.023L171.907 109.368L171.283 105.463L171.457 104.709L175.188 98.583L178.541 100.296L178.7 100.949L182.373 104.505L182.01 107.438L180.936 108.236L181.516 111.618L182.271 113.258L183.897 114.347L184.971 114.565L185.726 115.276L185.232 114.347L184.115 113.999L182.373 112.489L182.054 111.502L182.547 105.405L183.737 103.678L185.813 104.738L187.018 106.48L186.887 107.626L188.629 108.875L188.992 108.454L187.54 106.625L186.205 103.576V102.938L189.486 99.5701L191.837 99.7007L194.639 100.63L195.132 101.443L194.247 102.299L194.711 102.705L195.408 102.749L196.903 102.502L198.834 101.196L204.77 99.8023L205.888 100.093L208.414 101.631L213.015 101.022L214.569 100.426L216.049 98.9604L217.472 98.104L219.997 97.3637L221.115 97.4653L221.202 98.554L218.241 104.389L217.893 106.567L217.225 108.12L216.02 109.615L216.006 110.892L216.847 112.953L216.383 116.539L217.66 114.811L217.675 112.779L219.91 108.425L221.551 103.794L223.176 101.53L223.568 101.138L224.671 101.065L225.513 100.557L228.155 100.223L229.433 98.2637L231.624 95.8105L233.599 92.53L234.353 91.8623L235.5 92.5736L236.4 91.9058L238.752 95.3025L240.479 96.1589L240.406 95.0847L239.898 93.9961L240.798 92.53L245.893 91.7897L244.398 91.3252L239.303 91.9929L238.853 91.6881L239.274 88.1608L240.014 87.7398L240.987 88.2914L242.468 88.4511L244.021 83.9514L243.034 81.9337L243.077 80.9467L244.776 78.3195L248.898 74.7195L249.421 74.6033L251.032 76.2581L255.285 73.2244L255.953 73.1228L256.533 73.776L256.678 74.6033L256.214 75.5759L257.767 75.3436L258.943 74.5017L259.465 73.3695L260.38 73.0937L260.786 73.3115L261.86 75.3291L263.791 77.0712L264.081 76.2581L263.922 75.7065L262.528 74.9954L262.325 74.5743L262.136 72.8324L262.383 72.2228L263.022 71.947L266.331 72.3244L268.044 73.2679L268.944 74.7485L271.31 75.7793L273.705 74.6469L274.475 77.7532L273.749 78.2032L273.705 79.0596L275.041 78.3048L276.724 74.8938L277.276 75.2275L276.942 77.1581L277.537 77.7969L281.181 77.4194L281.834 78.363L282.502 80.8017L281.631 82.1805L282.865 81.4547L283.242 81.9919L285.985 82.195L291.109 80.3952L290.659 82.6885L289.571 85.3448L291.705 84.6336L292.561 83.7337L293.475 86.0851L292.358 86.7383L291.676 88.2334L291.908 90.2365L290.877 96.6089L290.05 97.683L288.395 97.9008L288.322 98.8008L288.714 99.512L290.151 99.2798L290.776 100.049L290.659 102.386L289.353 106.77L288.83 107.8L286.305 110.079L285.579 113.534L285.768 115.915L280.426 120.4L281.936 122.693L280.789 123.869L281.05 126.511L280.382 128.369L279.178 130.474L277.029 133.029L274.184 135.264L271.862 142.072L271.441 144.83L270.759 146.586L267.217 149.954L265.591 150.622L264.691 154.802L262.441 156.5L261.817 158.17L259.567 161.32L257.869 162.655L254.457 162.321L233.105 179.493L233.816 179.609L237.14 180.785L239.855 180.437L241.727 180.611L243.208 183.02L243.774 183.47L245.037 183.674L246.866 185.372L246.808 186.286L246.271 187.259L245.226 187.796L243.818 187.898L243.397 188.304L243.527 190.351L244.993 192.296L243.658 196.288L242.729 196.984L240.61 197.652L240.247 198.32L240.668 200.062L240.392 202.007L238.505 202.225L236.313 204.17L235.079 206.013L235.297 208.205L234.948 208.931L231.32 210.673L226.37 212.327L222.784 214.911L222.509 215.419L223.133 218.598L223.22 222.474L221.362 225.522L219.315 227.961L219.097 228.788L219.344 230.066L220.201 231.459L222.625 233.985L223.713 234.449L223.931 234.885L222.973 240.749L220.418 248.225L218.851 249.4L216.383 254.103L216.122 255.54L214.757 257.776L213.683 259.01L212.159 259.242L210.17 260.577L208.675 263.364L206.919 265.803L205.206 267.385L203.537 269.679L201.896 276.153L199.574 281.465ZM230.289 92.3123L223.728 95.1573L218.807 95.9121L215.875 95.4622L214.931 97.1024L212.261 98.8298L211.215 97.9443L210.33 95.7234L209.996 96.1299L210.606 97.9153L210.112 99.0911L209.082 99.6862L203.609 97.3056L202.448 98.3508L196.366 100.18L191.721 99.3523L190.545 98.4669L190.197 95.7815L189.863 95.1864L188.252 93.7058L186.713 91.3833L186.408 88.7995L187.163 84.8077L188.063 84.2562L190.618 84.7787L191.968 83.6901L192.084 82.8774L190.197 83.5016L188.426 83.3127L187.061 82.2821L186.8 80.7581L187.294 73.384L188.353 72.2808L188.861 73.3695L191.416 74.2405L192.214 74.1534L191.547 73.5439L189.703 73.2244L188.397 70.089L188.919 67.6504L190.211 64.7909L192.142 62.8602L193.535 62.033L195.48 61.3216L197.397 61.1328L202.419 61.8878L212.885 64.4569L218.255 63.7892L218.415 63.3537L220.07 62.4539L223.205 61.9167L227.4 62.3376L231.465 63.5279L240.871 64.7618L241.785 65.444L241.713 67.2294L240.697 68.3036L239.71 70.4809L239.187 74.3277L237.939 79.1177L236.066 80.1048L235.558 81.1064L235.892 82.8337L233.018 86.5786L231 91.6591L230.289 92.3123ZM161.761 92.0655L160.672 91.3252L162.269 88.0592L162.138 85.4609L162.501 85.1561L165.883 84.4595L167.19 83.2111L167.407 82.4853L167.117 79.0888L168.365 75.3436L170.194 73.181L173.518 71.047L177.684 70.7567L178.729 74.1824L177.133 77.3613L175.899 81.7741L174.302 82.7466L172.357 85.6931L171.225 86.7383L164.054 91.5429L161.761 92.0655ZM203.101 58.825L201.606 58.4621L198.05 58.5781L196.903 58.3458L196.482 57.9684L195.93 56.3864L195.945 54.5863L198.137 53.9766L200.88 54.0347L204.059 52.1622L211.041 51.2913L212.159 51.6688L213.146 52.6559L212.885 54.1363L209.169 56.154L206.585 59.754L204.988 60.4798L203.101 58.825ZM210.054 58.825L212.754 57.083L215.628 57.1265L218.023 58.0265L218.793 59.4635L218.865 60.3635L217.588 61.4812L213.451 61.8878L211.753 62.3523L208.472 61.0603L208.182 60.2909L210.054 58.825ZM185.407 65.1974L184.681 64.8198L183.795 64.8779L181.56 63.8763L181.865 62.1926L182.794 60.8571L185.581 60.2766L189.007 58.97L190.923 59.0863L192.084 60.0734L192.214 60.2619L189.413 62.5989L187.86 63.0925L185.407 65.1974ZM199.08 51.1316L197.89 50.6961L197.643 48.2865L197.861 47.4157L199.559 45.514L203.116 44.1786L203.479 44.3528L204.248 45.34L204.306 46.6317L201.475 49.5203L199.08 51.1316ZM179.005 80.4822L178.802 79.887L179.078 78.5371L180.587 74.4582L184.347 72.0051L185.392 71.5986L186.394 71.8018L186.161 74.4001L183.897 75.0388L181.545 78.2179L179.005 80.4822ZM194.842 54.9782L193.114 54.5282L192.679 53.8315L193.956 52.438L194.987 46.7043L196.279 44.9189L196.7 45.1076L196.801 45.5721L196.772 49.172L197.643 51.8864L197.179 53.1638L195.684 53.7445L194.842 54.9782ZM173.344 69.7697L172.952 69.4939L173.126 68.6084L173.925 68.0858L175.652 65.6037L176.755 63.3683L177.815 62.4102L179.92 61.6265L179.629 63.7892L179.049 65.2408L176.552 67.6504L173.344 69.7697ZM193.477 59.5652L192.606 59.3476L191.387 58.3168L189.994 55.9363L189.921 55.3847L190.255 54.9637L191.431 54.1218L194.116 55.3411L194.537 55.9653L194.885 58.999L193.477 59.5652ZM185.668 103.925L184.724 103.765L183.447 103.01L182.445 103.678L181.357 103.272L178.918 100.746V99.8604L180.776 99.8459L185.218 101.762L185.668 103.925ZM154.967 95.8831L155.025 94.388L154.735 93.9525L155.606 92.5155L159.032 91.2381L160.164 91.7897L161.427 93.0381L161.006 93.5461L159.511 94.2283L155.824 94.8235L154.967 95.8831ZM173.402 86.1722L173.141 86.1286L173.155 85.6206L173.939 84.2562L176.538 81.9047L177.147 80.1048L177.22 78.2179L177.568 77.7823L178.033 78.4211V80.6128L176.741 84.5756L175.841 85.519L173.402 86.1722ZM182.547 71.8018L184.942 67.5052L186.219 67.2004L187.25 67.4763L187.642 68.739L186.8 69.7697L182.547 71.8018ZM228.155 99.3378L226.936 98.8298L226.442 97.2911L227.952 94.7944L229.505 94.3154L229.781 94.4606L229.752 95.5347L228.678 98.7862L228.155 99.3378ZM179.557 71.076L178.773 70.7857L179.237 67.8246L181.168 65.1974L181.502 65.2554L183.374 66.5327L183.36 66.8956L181.11 67.8246L179.557 71.076ZM182.794 78.3774L183.839 78.4211L183.258 79.0742L181.894 79.5242L181.734 81.1499L180.587 82.1805L178.134 83.4L177.902 83.1387L178.294 81.9337L178.976 81.0193L181.487 78.5951L182.794 78.3774ZM150.047 93.1977L149.248 92.9219L149.147 92.4139L149.771 91.8333L154.938 89.5108L155.722 90.5268L155.708 90.8172L153.675 91.8768L150.047 93.1977ZM242.264 86.2593L240.769 85.9835L239.579 84.8367L240.842 83.0224L242.787 83.0079L243.063 84.7353L242.918 85.5915L242.264 86.2593ZM188.194 58.825L184.768 59.841L183.912 59.8556L183.65 59.5508L185.145 58.0412L186.655 57.3007L188.165 57.5475L188.803 58.0412L189.021 58.3749L188.803 58.6797L188.194 58.825ZM180.544 71.2938L180.428 70.1906L180.791 69.4648L184.391 67.3455L183.084 70.2487L181.908 71.1633L180.544 71.2938ZM183.65 77.8694L182.997 77.6953L182.895 77.3613L184.028 75.184L185.755 75.213L185.581 77.1728L183.65 77.8694ZM224.352 100.847L223.946 100.514L225.252 98.1911L226.239 97.6105L226.573 98.6991L227.313 99.2362L226.936 99.991L226.312 100.485L225.397 100.223L224.352 100.847ZM185.653 66.9972L184.361 66.8956L184.391 66.6198L187.816 63.9489L187.874 65.3424L187.54 66.2569L187.178 66.7505L185.653 66.9972ZM283.576 81.8321L283.024 81.0629L283.3 79.9596L284.781 78.6387L285.144 78.8564L285.477 81.3967L283.576 81.8321Z" fill="black"/>
<path d="M199.574 281.465L108.169 276.414L58.7578 272.901L53.4015 270.738L51.4129 271.392L50.9048 270.942L50.6146 269.359L49.8162 268.314L47.4502 267.661L46.2599 267.908L44.8809 267.342L44.547 266.616L44.6051 265.019L44.2712 263.655L39.3649 261.187L35.0103 257.181L32.7748 255.569L31.7297 252.376L31.033 248.907L31.3668 245.365L30.2491 242.999L28.3186 240.197L26.3299 234.464L25.7638 231.909L22.2075 226.016L20.4946 224.448L19.6672 223.635L19.4495 220.79L18.5205 218.961L16.2125 216.697L14.6593 215.855L14.1223 215.027L12.9175 211.631L12.961 209.99L13.8029 208.582L15.9077 206.942L17.0399 205.041L60.4416 111.792L57.8143 109.368L58.003 108.236L57.7272 107.539L55.7096 108.047L54.4757 108.933L51.7613 107.8L50.1646 104.651L46.2599 102.546L44.4164 100.601L44.3003 99.7298L42.3842 98.5395L40.3955 98.3217L37.1295 97.3782L33.6748 95.4767L30.9459 94.5041L28.9863 92.9219L28.0718 91.6155L21.4236 87.9285L14.6884 82.4563L14.2529 81.8176L14.1948 80.4677L13.3965 77.8113L10.7256 76.0259L9.70952 76.3017L9.18695 76.0114L6.53059 73.1374L6.60317 70.0746L7.11123 69.0729L6.84994 68.4778L4.39679 67.2439L4.04843 66.2569L3.78714 62.9618L4.41132 60.8571L3.83068 53.8025L1.52271 29.1694L2.61138 29.6339L3.23556 30.4758L3.20652 31.1726L3.85972 31.7532L5.19516 32.1597L7.18381 31.1291L7.86605 29.9533L11.7998 30.2871L12.9755 28.763L12.1917 26.1357L14.79 25.6131L16.8367 23.2471L20.6688 24.7131L23.3978 24.7567L24.1816 22.5503L29.0153 20.1988L31.8749 20.7649L33.5587 20.6052L34.2699 20.2423L36.0118 18.094L36.5925 16.0618L38.7117 14.4651L39.9601 14.3054L40.9036 14.9732L43.9664 13.3329L44.5615 13.4926L45.0986 14.9296L46.1582 15.5828L49.1049 16.2796L51.442 16.6425L52.2548 15.7715L54.6789 15.2054L55.8111 15.6119L57.0014 15.5973L58.2498 15.1038L61.5013 15.5393L68.28 17.5424L69.6736 17.3392L71.1251 16.0764L71.0816 12.7668L68.0769 9.13788L66.2769 8.2234L66.9882 5.78477L68.8897 3.68001L69.2962 2.06877L69.7461 1.82201L70.7767 2.0978L71.9816 3.20099L75.3927 4.81222L92.2599 1.43008L94.5388 3.88322L96.0194 3.97032L96.6581 3.54936L97.5581 4.37675L98.0952 7.71535L97.1952 9.60238L96.8323 16.1925L97.1807 18.2827L97.6306 19.0666L99.329 19.0956L100.897 18.6746L105.817 19.2117L107.69 19.923L110.492 21.4471L111.464 22.6084L112.175 24.4664L113.903 24.6406L115.557 25.8599L116.719 27.2824L117.938 27.6743L119.869 27.4711L120.42 26.8615L121.785 26.6582L125.907 30.5194L126.894 30.4758L127.605 32.1887L126.618 32.5226L126.343 33.5677L127.446 37.6757L130.378 40.9561L134.108 42.0158L134.355 42.4949L133.731 47.0528L134.007 50.1156L134.979 52.3074L135.879 53.1204L136.736 55.7476L136.547 58.0412L138.724 63.0925L139.915 63.3683L141.047 62.8457L145.3 67.6068L145.184 71.1341L145.779 72.4986L147.158 72.7745L147.637 73.4566L148.087 75.7501L147.782 76.7517L147.942 78.6387L150.656 80.6564L151.28 82.8337L153.385 84.329L157.435 85.3157L159.322 85.1415L160.44 84.6482L161.804 84.7353L161.035 85.8093L161.456 88.1173L161.209 88.8866L159.337 90.4978L157.319 90.7446L156.593 90.4833L155.374 89.3366L154.416 89.1188L149.51 91.4123L148.972 92.1961L146.65 93.2413L145.735 93.2122L143.486 94.0687L143.544 94.9106L152.921 93.3719L154.198 94.3299L154.387 94.9977V95.9557L153.487 96.6815L153.922 97.204L154.837 96.9137L156.085 95.4622L157.566 95.4476L158.335 95.0557L159.206 95.2299L160.759 94.6202L162.414 93.7929L167.175 90.3962L169.352 89.8882L172.023 88.7124L176.61 86.0415L177.394 84.5902L178.367 83.8353L181.4 82.3692L182.358 81.3242L181.995 80.3515L182.3 79.7564L183.941 79.3501L185.523 79.4371L186.118 79.7419L186.67 85.2577L185.915 89.0027L186.394 91.3542L187.569 93.6767L189.471 95.6364L189.906 98.0169L189.732 98.6991L187.061 101.37L186.379 101.559L185.116 100.804L182.474 100.049L180.645 99.5991L179.296 99.8023L176.204 98.2927L175.826 96.667L174.549 95.8976L171.239 101.443L170.354 104.883L171.341 109.194L172.038 110.123L173.373 111.023L171.907 109.368L171.283 105.463L171.457 104.709L175.188 98.583L178.541 100.296L178.7 100.949L182.373 104.505L182.01 107.438L180.936 108.236L181.516 111.618L182.271 113.258L183.897 114.347L184.971 114.565L185.726 115.276L185.232 114.347L184.115 113.999L182.373 112.489L182.054 111.502L182.547 105.405L183.737 103.678L185.813 104.738L187.018 106.48L186.887 107.626L188.629 108.875L188.992 108.454L187.54 106.625L186.205 103.576V102.938L189.486 99.5701L191.837 99.7007L194.639 100.63L195.132 101.443L194.247 102.299L194.711 102.705L195.408 102.749L196.903 102.502L198.834 101.196L204.77 99.8023L205.888 100.093L208.414 101.631L213.015 101.022L214.569 100.426L216.049 98.9604L217.472 98.104L219.997 97.3637L221.115 97.4653L221.202 98.554L218.241 104.389L217.893 106.567L217.225 108.12L216.02 109.615L216.006 110.892L216.847 112.953L216.383 116.539L217.66 114.811L217.675 112.779L219.91 108.425L221.551 103.794L223.176 101.53L223.568 101.138L224.671 101.065L225.513 100.557L228.155 100.223L229.433 98.2637L231.624 95.8105L233.599 92.53L234.353 91.8623L235.5 92.5736L236.4 91.9058L238.752 95.3025L240.479 96.1589L240.406 95.0847L239.898 93.9961L240.798 92.53L245.893 91.7897L244.398 91.3252L239.303 91.9929L238.853 91.6881L239.274 88.1608L240.014 87.7398L240.987 88.2914L242.468 88.4511L244.021 83.9514L243.034 81.9337L243.077 80.9467L244.776 78.3195L248.898 74.7195L249.421 74.6033L251.032 76.2581L255.285 73.2244L255.953 73.1228L256.533 73.776L256.678 74.6033L256.214 75.5759L257.767 75.3436L258.943 74.5017L259.465 73.3695L260.38 73.0937L260.786 73.3115L261.86 75.3291L263.791 77.0712L264.081 76.2581L263.922 75.7065L262.528 74.9954L262.325 74.5743L262.136 72.8324L262.383 72.2228L263.022 71.947L266.331 72.3244L268.044 73.2679L268.944 74.7485L271.31 75.7793L273.705 74.6469L274.475 77.7532L273.749 78.2032L273.705 79.0596L275.041 78.3048L276.724 74.8938L277.276 75.2275L276.942 77.1581L277.537 77.7969L281.181 77.4194L281.834 78.363L282.502 80.8017L281.631 82.1805L282.865 81.4547L283.242 81.9919L285.985 82.195L291.109 80.3952L290.659 82.6885L289.571 85.3448L291.705 84.6336L292.561 83.7337L293.475 86.0851L292.358 86.7383L291.676 88.2334L291.908 90.2365L290.877 96.6089L290.05 97.683L288.395 97.9008L288.322 98.8008L288.714 99.512L290.151 99.2798L290.776 100.049L290.659 102.386L289.353 106.77L288.83 107.8L286.305 110.079L285.579 113.534L285.768 115.915L280.426 120.4L281.936 122.693L280.789 123.869L281.05 126.511L280.382 128.369L279.178 130.474L277.029 133.029L274.184 135.264L271.862 142.072L271.441 144.83L270.759 146.586L267.217 149.954L265.591 150.622L264.691 154.802L262.441 156.5L261.817 158.17L259.567 161.32L257.869 162.655L254.457 162.321L233.105 179.493L233.816 179.609L237.14 180.785L239.855 180.437L241.727 180.611L243.208 183.02L243.774 183.47L245.037 183.674L246.866 185.372L246.808 186.286L246.271 187.259L245.226 187.796L243.818 187.898L243.397 188.304L243.527 190.351L244.993 192.296L243.658 196.288L242.729 196.984L240.61 197.652L240.247 198.32L240.668 200.062L240.392 202.007L238.505 202.225L236.313 204.17L235.079 206.013L235.297 208.205L234.948 208.931L231.32 210.673L226.37 212.327L222.784 214.911L222.509 215.419L223.133 218.598L223.22 222.474L221.362 225.522L219.315 227.961L219.097 228.788L219.344 230.066L220.201 231.459L222.625 233.985L223.713 234.449L223.931 234.885L222.973 240.749L220.418 248.225L218.851 249.4L216.383 254.103L216.122 255.54L214.757 257.776L213.683 259.01L212.159 259.242L210.17 260.577L208.675 263.364L206.919 265.803L205.206 267.385L203.537 269.679L201.896 276.153L199.574 281.465ZM230.289 92.3123L223.728 95.1573L218.807 95.9121L215.875 95.4622L214.931 97.1024L212.261 98.8298L211.215 97.9443L210.33 95.7234L209.996 96.1299L210.606 97.9153L210.112 99.0911L209.082 99.6862L203.609 97.3056L202.448 98.3508L196.366 100.18L191.721 99.3523L190.545 98.4669L190.197 95.7815L189.863 95.1864L188.252 93.7058L186.713 91.3833L186.408 88.7995L187.163 84.8077L188.063 84.2562L190.618 84.7787L191.968 83.6901L192.084 82.8774L190.197 83.5016L188.426 83.3127L187.061 82.2821L186.8 80.7581L187.294 73.384L188.353 72.2808L188.861 73.3695L191.416 74.2405L192.214 74.1534L191.547 73.5439L189.703 73.2244L188.397 70.089L188.919 67.6504L190.211 64.7909L192.142 62.8602L193.535 62.033L195.48 61.3216L197.397 61.1328L202.419 61.8878L212.885 64.4569L218.255 63.7892L218.415 63.3537L220.07 62.4539L223.205 61.9167L227.4 62.3376L231.465 63.5279L240.871 64.7618L241.785 65.444L241.713 67.2294L240.697 68.3036L239.71 70.4809L239.187 74.3277L237.939 79.1177L236.066 80.1048L235.558 81.1064L235.892 82.8337L233.018 86.5786L231 91.6591L230.289 92.3123ZM161.761 92.0655L160.672 91.3252L162.269 88.0592L162.138 85.4609L162.501 85.1561L165.883 84.4595L167.19 83.2111L167.407 82.4853L167.117 79.0888L168.365 75.3436L170.194 73.181L173.518 71.047L177.684 70.7567L178.729 74.1824L177.133 77.3613L175.899 81.7741L174.302 82.7466L172.357 85.6931L171.225 86.7383L164.054 91.5429L161.761 92.0655ZM203.101 58.825L201.606 58.4621L198.05 58.5781L196.903 58.3458L196.482 57.9684L195.93 56.3864L195.945 54.5863L198.137 53.9766L200.88 54.0347L204.059 52.1622L211.041 51.2913L212.159 51.6688L213.146 52.6559L212.885 54.1363L209.169 56.154L206.585 59.754L204.988 60.4798L203.101 58.825ZM210.054 58.825L212.754 57.083L215.628 57.1265L218.023 58.0265L218.793 59.4635L218.865 60.3635L217.588 61.4812L213.451 61.8878L211.753 62.3523L208.472 61.0603L208.182 60.2909L210.054 58.825ZM185.407 65.1974L184.681 64.8198L183.795 64.8779L181.56 63.8763L181.865 62.1926L182.794 60.8571L185.581 60.2766L189.007 58.97L190.923 59.0863L192.084 60.0734L192.214 60.2619L189.413 62.5989L187.86 63.0925L185.407 65.1974ZM199.08 51.1316L197.89 50.6961L197.643 48.2865L197.861 47.4157L199.559 45.514L203.116 44.1786L203.479 44.3528L204.248 45.34L204.306 46.6317L201.475 49.5203L199.08 51.1316ZM179.005 80.4822L178.802 79.887L179.078 78.5371L180.587 74.4582L184.347 72.0051L185.392 71.5986L186.394 71.8018L186.161 74.4001L183.897 75.0388L181.545 78.2179L179.005 80.4822ZM194.842 54.9782L193.114 54.5282L192.679 53.8315L193.956 52.438L194.987 46.7043L196.279 44.9189L196.7 45.1076L196.801 45.5721L196.772 49.172L197.643 51.8864L197.179 53.1638L195.684 53.7445L194.842 54.9782ZM173.344 69.7697L172.952 69.4939L173.126 68.6084L173.925 68.0858L175.652 65.6037L176.755 63.3683L177.815 62.4102L179.92 61.6265L179.629 63.7892L179.049 65.2408L176.552 67.6504L173.344 69.7697ZM193.477 59.5652L192.606 59.3476L191.387 58.3168L189.994 55.9363L189.921 55.3847L190.255 54.9637L191.431 54.1218L194.116 55.3411L194.537 55.9653L194.885 58.999L193.477 59.5652ZM185.668 103.925L184.724 103.765L183.447 103.01L182.445 103.678L181.357 103.272L178.918 100.746V99.8604L180.776 99.8459L185.218 101.762L185.668 103.925ZM154.967 95.8831L155.025 94.388L154.735 93.9525L155.606 92.5155L159.032 91.2381L160.164 91.7897L161.427 93.0381L161.006 93.5461L159.511 94.2283L155.824 94.8235L154.967 95.8831ZM173.402 86.1722L173.141 86.1286L173.155 85.6206L173.939 84.2562L176.538 81.9047L177.147 80.1048L177.22 78.2179L177.568 77.7823L178.033 78.4211V80.6128L176.741 84.5756L175.841 85.519L173.402 86.1722ZM182.547 71.8018L184.942 67.5052L186.219 67.2004L187.25 67.4763L187.642 68.739L186.8 69.7697L182.547 71.8018ZM228.155 99.3378L226.936 98.8298L226.442 97.2911L227.952 94.7944L229.505 94.3154L229.781 94.4606L229.752 95.5347L228.678 98.7862L228.155 99.3378ZM179.557 71.076L178.773 70.7857L179.237 67.8246L181.168 65.1974L181.502 65.2554L183.374 66.5327L183.36 66.8956L181.11 67.8246L179.557 71.076ZM182.794 78.3774L183.839 78.4211L183.258 79.0742L181.894 79.5242L181.734 81.1499L180.587 82.1805L178.134 83.4L177.902 83.1387L178.294 81.9337L178.976 81.0193L181.487 78.5951L182.794 78.3774ZM150.047 93.1977L149.248 92.9219L149.147 92.4139L149.771 91.8333L154.938 89.5108L155.722 90.5268L155.708 90.8172L153.675 91.8768L150.047 93.1977ZM242.264 86.2593L240.769 85.9835L239.579 84.8367L240.842 83.0224L242.787 83.0079L243.063 84.7353L242.918 85.5915L242.264 86.2593ZM188.194 58.825L184.768 59.841L183.912 59.8556L183.65 59.5508L185.145 58.0412L186.655 57.3007L188.165 57.5475L188.803 58.0412L189.021 58.3749L188.803 58.6797L188.194 58.825ZM180.544 71.2938L180.428 70.1906L180.791 69.4648L184.391 67.3455L183.084 70.2487L181.908 71.1633L180.544 71.2938ZM183.65 77.8694L182.997 77.6953L182.895 77.3613L184.028 75.184L185.755 75.213L185.581 77.1728L183.65 77.8694ZM224.352 100.847L223.946 100.514L225.252 98.1911L226.239 97.6105L226.573 98.6991L227.313 99.2362L226.936 99.991L226.312 100.485L225.397 100.223L224.352 100.847ZM185.653 66.9972L184.361 66.8956L184.391 66.6198L187.816 63.9489L187.874 65.3424L187.54 66.2569L187.178 66.7505L185.653 66.9972ZM283.576 81.8321L283.024 81.0629L283.3 79.9596L284.781 78.6387L285.144 78.8564L285.477 81.3967L283.576 81.8321Z" stroke="white" stroke-width="2" mask="url(#path-1-outside-1_2_46)"/>
</svg>
