<svg width="185" height="177" viewBox="0 0 185 177" fill="none" xmlns="http://www.w3.org/2000/svg">
<mask id="path-1-outside-1_2_55" maskUnits="userSpaceOnUse" x="-0.530029" y="-0.394104" width="186" height="178" fill="black">
<rect fill="white" x="-0.530029" y="-0.394104" width="186" height="178"/>
<path d="M99.3892 175.851L98.8667 175.866L96.0506 174.255L95.7603 173.587L96.5151 167.389L95.8474 161.22L96.0651 159.666L96.9796 157.867L101.102 154.412L102.307 152.147L105.645 148.431L103.526 146.036L101.973 145.136L98.707 144.265L95.3394 140.999L93.5829 138.648L93.4378 136.34L92.8136 134.627L91.0282 131.68L88.038 128.429L87.0654 127.572L83.5962 125.816L81.4914 126.121L78.7335 123.929L76.5271 121.563L74.7126 120.431L74.5094 117.963L71.7515 114.828L66.9323 114.16L65.5968 113.478L63.0856 111.068L60.5309 111.257L57.381 109.254L54.6085 103.868L52.9973 101.706L49.3248 98.6283L48.3087 98.7444L47.3362 101.343L43.5766 104.594L39.701 104.768L39.8461 100.617L40.4267 98.759L39.8607 97.3074L34.5624 91.0801L31.1222 88.5109L27.9578 85.5207L25.4176 82.4579L21.5129 79.25L18.7549 79.0467L15.6341 79.3516L13.9793 81.3257L13.8922 82.7191L12.3971 84.1272L10.7859 84.1562L9.94393 83.4594L5.35698 83.6627L4.41348 82.966L4.18122 81.645L3.46997 81.3257L4.70381 81.0063L6.2134 79.9612L9.87137 75.9404L10.031 73.2695L10.902 71.4551L12.0923 70.8019L13.9648 70.7002L14.8938 70.3228L16.2292 68.8712L24.1402 59.4652L25.0547 57.404L25.3015 55.7927L26.4917 54.2395L28.2336 53.0057L30.2223 52.4106L33.0673 46.2849L33.2125 45.3995L33.6625 44.8624L36.043 43.6141L38.4091 41.0012L39.6429 39.332L40.3832 37.4594L42.3283 34.4112L43.6782 33.9902L45.9572 34.2515L46.7556 35.3982L47.4378 33.5403L47.1329 32.6983L45.1734 31.508L45.1008 30.9855L45.6088 30.5065L47.1765 29.9549L48.3668 28.5613L52.4167 27.1824L53.9408 25.6292L54.0859 24.2937L55.2762 22.9729L58.4842 21.3035L62.0695 20.7229L64.6388 18.0956L64.8566 16.557L66.7726 13.1313L67.2516 13.0732L67.3242 13.5957L67.7452 13.8861L69.6757 13.6393L73.2175 11.999L77.1077 11.1426L78.8641 10.3153L81.9124 6.90405L82.6382 6.91858L83.6107 6.35244L85.0768 4.39287L88.4299 3.33326L88.8654 3.88477L93.9749 4.4509L98.707 2.78166L99.5198 1.6059L101.479 2.44774L101.262 3.78324L105.733 3.73965L108.099 5.17668L111.815 4.63961L114.602 6.30894L118.347 5.71375L120.582 5.97502L124.646 5.74281L127.927 7.07823L131.527 9.11045L132.978 12.6523L135.286 12.9281L135.417 12.2313L138.044 11.7232L146.115 16.8617L148.104 19.1117L149.134 19.0681L151.399 20.4906L155.797 25.5567L158.177 28.7646L158.874 30.9129L162.024 34.7741L163.722 35.5724L173.433 37.1111L176.496 36.5305L181.359 37.024L182.636 40.4207L179.617 42.7141L177.774 43.3093L176.714 46.0091L177.033 49.1881L176.482 51.4525L175.727 53.3395L174.014 53.6298L172.141 56.083L172.098 58.1297L174.711 59.828L175.103 59.5377L174.696 58.1297L174.711 56.7362L176.874 55.5459L179.167 56.4749L180.227 57.7958L181.925 59.0297L182.578 58.9861L180.546 61.4973L174.885 71.7163L168.774 88.5544L159.629 103.767L151.733 113.434L142.283 122.086L133.443 127.427L128.943 133.684L128.682 133.059L129.625 130.766L130.119 127.601L128.406 125.119L128.551 124.51L129.901 124.263L131.367 124.843L132.18 125.685L133.661 125.743L137.406 123.697L138.596 122.71L142.733 117.324L143.822 116.323L144.475 116.599L145.955 116.323L147.479 115.104L148.829 113.26L149.367 111.112L149.628 109.762L149.294 106.713L149.584 104.725L151.863 104.623L152.937 105.059L153.329 106.264L153.837 105.886L153.416 103.854L154.157 100.849L154.853 100.022L158.831 97.7138L159.89 96.1461L160.573 92.1543L160.268 88.8448L161.081 87.8577L161.806 89.0189L162.343 89.0625L162.968 88.4528L163.65 83.9821L163.505 83.3434L162.126 81.5724L161.153 81.5289L160.776 82.5305L161.023 83.0965L160.819 83.9239L160.311 84.2143L158.119 84.1852L155.202 84.7659L154.708 87.1029L153.939 87.1754L152.763 86.5367L152.908 84.0546L151.718 82.7627L150.208 83.2418L149.337 82.5449L148.278 80.716L147.697 78.6113L147.871 77.7839L146.942 76.7823L146.057 80.716L146.696 83.9821L148.51 87.0448L147.683 88.2206L146.609 91.9075L147.16 96.3058L146.899 97.4235L146.202 96.8864L146.58 96.538L146.536 95.5075L145.854 93.6494L145.201 93.0833L144.431 94.0414L144.388 96.03L142.341 100.777L142.268 103.52L142.588 104.275L141.543 105.291L139.206 106.22L138.32 108.513L132.383 110.792L131.338 111.562L130.569 113.87L130.424 117.165L129.016 120.46L125.59 122.347L125.43 124.902L126.127 126.106L126.49 127.587L125.111 128.4L124.748 130.592L125.372 131.463L126.359 131.259L128.246 132.174L128.464 133.495L125.372 135.89L122.005 142.451L119.203 152.438L116.285 158.955L113.847 162.613L102.539 173.543L99.3892 175.851Z"/>
</mask>
<path d="M99.3892 175.851L98.8667 175.866L96.0506 174.255L95.7603 173.587L96.5151 167.389L95.8474 161.22L96.0651 159.666L96.9796 157.867L101.102 154.412L102.307 152.147L105.645 148.431L103.526 146.036L101.973 145.136L98.707 144.265L95.3394 140.999L93.5829 138.648L93.4378 136.34L92.8136 134.627L91.0282 131.68L88.038 128.429L87.0654 127.572L83.5962 125.816L81.4914 126.121L78.7335 123.929L76.5271 121.563L74.7126 120.431L74.5094 117.963L71.7515 114.828L66.9323 114.16L65.5968 113.478L63.0856 111.068L60.5309 111.257L57.381 109.254L54.6085 103.868L52.9973 101.706L49.3248 98.6283L48.3087 98.7444L47.3362 101.343L43.5766 104.594L39.701 104.768L39.8461 100.617L40.4267 98.759L39.8607 97.3074L34.5624 91.0801L31.1222 88.5109L27.9578 85.5207L25.4176 82.4579L21.5129 79.25L18.7549 79.0467L15.6341 79.3516L13.9793 81.3257L13.8922 82.7191L12.3971 84.1272L10.7859 84.1562L9.94393 83.4594L5.35698 83.6627L4.41348 82.966L4.18122 81.645L3.46997 81.3257L4.70381 81.0063L6.2134 79.9612L9.87137 75.9404L10.031 73.2695L10.902 71.4551L12.0923 70.8019L13.9648 70.7002L14.8938 70.3228L16.2292 68.8712L24.1402 59.4652L25.0547 57.404L25.3015 55.7927L26.4917 54.2395L28.2336 53.0057L30.2223 52.4106L33.0673 46.2849L33.2125 45.3995L33.6625 44.8624L36.043 43.6141L38.4091 41.0012L39.6429 39.332L40.3832 37.4594L42.3283 34.4112L43.6782 33.9902L45.9572 34.2515L46.7556 35.3982L47.4378 33.5403L47.1329 32.6983L45.1734 31.508L45.1008 30.9855L45.6088 30.5065L47.1765 29.9549L48.3668 28.5613L52.4167 27.1824L53.9408 25.6292L54.0859 24.2937L55.2762 22.9729L58.4842 21.3035L62.0695 20.7229L64.6388 18.0956L64.8566 16.557L66.7726 13.1313L67.2516 13.0732L67.3242 13.5957L67.7452 13.8861L69.6757 13.6393L73.2175 11.999L77.1077 11.1426L78.8641 10.3153L81.9124 6.90405L82.6382 6.91858L83.6107 6.35244L85.0768 4.39287L88.4299 3.33326L88.8654 3.88477L93.9749 4.4509L98.707 2.78166L99.5198 1.6059L101.479 2.44774L101.262 3.78324L105.733 3.73965L108.099 5.17668L111.815 4.63961L114.602 6.30894L118.347 5.71375L120.582 5.97502L124.646 5.74281L127.927 7.07823L131.527 9.11045L132.978 12.6523L135.286 12.9281L135.417 12.2313L138.044 11.7232L146.115 16.8617L148.104 19.1117L149.134 19.0681L151.399 20.4906L155.797 25.5567L158.177 28.7646L158.874 30.9129L162.024 34.7741L163.722 35.5724L173.433 37.1111L176.496 36.5305L181.359 37.024L182.636 40.4207L179.617 42.7141L177.774 43.3093L176.714 46.0091L177.033 49.1881L176.482 51.4525L175.727 53.3395L174.014 53.6298L172.141 56.083L172.098 58.1297L174.711 59.828L175.103 59.5377L174.696 58.1297L174.711 56.7362L176.874 55.5459L179.167 56.4749L180.227 57.7958L181.925 59.0297L182.578 58.9861L180.546 61.4973L174.885 71.7163L168.774 88.5544L159.629 103.767L151.733 113.434L142.283 122.086L133.443 127.427L128.943 133.684L128.682 133.059L129.625 130.766L130.119 127.601L128.406 125.119L128.551 124.51L129.901 124.263L131.367 124.843L132.18 125.685L133.661 125.743L137.406 123.697L138.596 122.71L142.733 117.324L143.822 116.323L144.475 116.599L145.955 116.323L147.479 115.104L148.829 113.26L149.367 111.112L149.628 109.762L149.294 106.713L149.584 104.725L151.863 104.623L152.937 105.059L153.329 106.264L153.837 105.886L153.416 103.854L154.157 100.849L154.853 100.022L158.831 97.7138L159.89 96.1461L160.573 92.1543L160.268 88.8448L161.081 87.8577L161.806 89.0189L162.343 89.0625L162.968 88.4528L163.65 83.9821L163.505 83.3434L162.126 81.5724L161.153 81.5289L160.776 82.5305L161.023 83.0965L160.819 83.9239L160.311 84.2143L158.119 84.1852L155.202 84.7659L154.708 87.1029L153.939 87.1754L152.763 86.5367L152.908 84.0546L151.718 82.7627L150.208 83.2418L149.337 82.5449L148.278 80.716L147.697 78.6113L147.871 77.7839L146.942 76.7823L146.057 80.716L146.696 83.9821L148.51 87.0448L147.683 88.2206L146.609 91.9075L147.16 96.3058L146.899 97.4235L146.202 96.8864L146.58 96.538L146.536 95.5075L145.854 93.6494L145.201 93.0833L144.431 94.0414L144.388 96.03L142.341 100.777L142.268 103.52L142.588 104.275L141.543 105.291L139.206 106.22L138.32 108.513L132.383 110.792L131.338 111.562L130.569 113.87L130.424 117.165L129.016 120.46L125.59 122.347L125.43 124.902L126.127 126.106L126.49 127.587L125.111 128.4L124.748 130.592L125.372 131.463L126.359 131.259L128.246 132.174L128.464 133.495L125.372 135.89L122.005 142.451L119.203 152.438L116.285 158.955L113.847 162.613L102.539 173.543L99.3892 175.851Z" fill="black"/>
<path d="M99.3892 175.851L98.8667 175.866L96.0506 174.255L95.7603 173.587L96.5151 167.389L95.8474 161.22L96.0651 159.666L96.9796 157.867L101.102 154.412L102.307 152.147L105.645 148.431L103.526 146.036L101.973 145.136L98.707 144.265L95.3394 140.999L93.5829 138.648L93.4378 136.34L92.8136 134.627L91.0282 131.68L88.038 128.429L87.0654 127.572L83.5962 125.816L81.4914 126.121L78.7335 123.929L76.5271 121.563L74.7126 120.431L74.5094 117.963L71.7515 114.828L66.9323 114.16L65.5968 113.478L63.0856 111.068L60.5309 111.257L57.381 109.254L54.6085 103.868L52.9973 101.706L49.3248 98.6283L48.3087 98.7444L47.3362 101.343L43.5766 104.594L39.701 104.768L39.8461 100.617L40.4267 98.759L39.8607 97.3074L34.5624 91.0801L31.1222 88.5109L27.9578 85.5207L25.4176 82.4579L21.5129 79.25L18.7549 79.0467L15.6341 79.3516L13.9793 81.3257L13.8922 82.7191L12.3971 84.1272L10.7859 84.1562L9.94393 83.4594L5.35698 83.6627L4.41348 82.966L4.18122 81.645L3.46997 81.3257L4.70381 81.0063L6.2134 79.9612L9.87137 75.9404L10.031 73.2695L10.902 71.4551L12.0923 70.8019L13.9648 70.7002L14.8938 70.3228L16.2292 68.8712L24.1402 59.4652L25.0547 57.404L25.3015 55.7927L26.4917 54.2395L28.2336 53.0057L30.2223 52.4106L33.0673 46.2849L33.2125 45.3995L33.6625 44.8624L36.043 43.6141L38.4091 41.0012L39.6429 39.332L40.3832 37.4594L42.3283 34.4112L43.6782 33.9902L45.9572 34.2515L46.7556 35.3982L47.4378 33.5403L47.1329 32.6983L45.1734 31.508L45.1008 30.9855L45.6088 30.5065L47.1765 29.9549L48.3668 28.5613L52.4167 27.1824L53.9408 25.6292L54.0859 24.2937L55.2762 22.9729L58.4842 21.3035L62.0695 20.7229L64.6388 18.0956L64.8566 16.557L66.7726 13.1313L67.2516 13.0732L67.3242 13.5957L67.7452 13.8861L69.6757 13.6393L73.2175 11.999L77.1077 11.1426L78.8641 10.3153L81.9124 6.90405L82.6382 6.91858L83.6107 6.35244L85.0768 4.39287L88.4299 3.33326L88.8654 3.88477L93.9749 4.4509L98.707 2.78166L99.5198 1.6059L101.479 2.44774L101.262 3.78324L105.733 3.73965L108.099 5.17668L111.815 4.63961L114.602 6.30894L118.347 5.71375L120.582 5.97502L124.646 5.74281L127.927 7.07823L131.527 9.11045L132.978 12.6523L135.286 12.9281L135.417 12.2313L138.044 11.7232L146.115 16.8617L148.104 19.1117L149.134 19.0681L151.399 20.4906L155.797 25.5567L158.177 28.7646L158.874 30.9129L162.024 34.7741L163.722 35.5724L173.433 37.1111L176.496 36.5305L181.359 37.024L182.636 40.4207L179.617 42.7141L177.774 43.3093L176.714 46.0091L177.033 49.1881L176.482 51.4525L175.727 53.3395L174.014 53.6298L172.141 56.083L172.098 58.1297L174.711 59.828L175.103 59.5377L174.696 58.1297L174.711 56.7362L176.874 55.5459L179.167 56.4749L180.227 57.7958L181.925 59.0297L182.578 58.9861L180.546 61.4973L174.885 71.7163L168.774 88.5544L159.629 103.767L151.733 113.434L142.283 122.086L133.443 127.427L128.943 133.684L128.682 133.059L129.625 130.766L130.119 127.601L128.406 125.119L128.551 124.51L129.901 124.263L131.367 124.843L132.18 125.685L133.661 125.743L137.406 123.697L138.596 122.71L142.733 117.324L143.822 116.323L144.475 116.599L145.955 116.323L147.479 115.104L148.829 113.26L149.367 111.112L149.628 109.762L149.294 106.713L149.584 104.725L151.863 104.623L152.937 105.059L153.329 106.264L153.837 105.886L153.416 103.854L154.157 100.849L154.853 100.022L158.831 97.7138L159.89 96.1461L160.573 92.1543L160.268 88.8448L161.081 87.8577L161.806 89.0189L162.343 89.0625L162.968 88.4528L163.65 83.9821L163.505 83.3434L162.126 81.5724L161.153 81.5289L160.776 82.5305L161.023 83.0965L160.819 83.9239L160.311 84.2143L158.119 84.1852L155.202 84.7659L154.708 87.1029L153.939 87.1754L152.763 86.5367L152.908 84.0546L151.718 82.7627L150.208 83.2418L149.337 82.5449L148.278 80.716L147.697 78.6113L147.871 77.7839L146.942 76.7823L146.057 80.716L146.696 83.9821L148.51 87.0448L147.683 88.2206L146.609 91.9075L147.16 96.3058L146.899 97.4235L146.202 96.8864L146.58 96.538L146.536 95.5075L145.854 93.6494L145.201 93.0833L144.431 94.0414L144.388 96.03L142.341 100.777L142.268 103.52L142.588 104.275L141.543 105.291L139.206 106.22L138.32 108.513L132.383 110.792L131.338 111.562L130.569 113.87L130.424 117.165L129.016 120.46L125.59 122.347L125.43 124.902L126.127 126.106L126.49 127.587L125.111 128.4L124.748 130.592L125.372 131.463L126.359 131.259L128.246 132.174L128.464 133.495L125.372 135.89L122.005 142.451L119.203 152.438L116.285 158.955L113.847 162.613L102.539 173.543L99.3892 175.851Z" stroke="white" stroke-width="2" mask="url(#path-1-outside-1_2_55)"/>
</svg>
