<svg width="89" height="63" viewBox="0 0 89 63" fill="none" xmlns="http://www.w3.org/2000/svg">
<mask id="path-1-inside-1_2_51" fill="white">
<path d="M19.84 56.6093L19.7384 55.4771L20.29 55.0852L24.9205 55.4046L28.68 54.5481L25.0076 52.2982L22.9754 51.5724L18.8965 52.5595L16.9223 54.882L15.4272 55.3465L14.4111 55.2739L12.4515 52.1531H11.7548L10.4484 52.7627L9.0549 54.3013L4.48244 55.4626L3.98892 56.7836L3.71311 59.5415L6.89204 59.7302L8.44522 61.1963L6.77593 62.764L5.41146 62.5172L3.35022 62.764L2.6535 62.3866L0.287448 59.8753L0.214844 59.2802L1.79709 54.1998L3.37928 52.5304L6.79042 51.0644L7.5162 51.2821L11.5371 50.7595L13.7144 49.7289L16.1095 46.6081L15.0208 44.2275L12.5531 44.213L7.98071 44.9823L5.41146 44.4162L3.62602 42.1082L2.81315 40.4099L0.969685 39.6261L1.95674 38.9148L5.46954 37.8406L9.69355 35.8955L13.4386 35.6488L14.1644 36.0407L16.6611 34.923L18.1852 33.8053L24.1221 31.207L24.8769 31.1054L25.3995 31.5554L30.0445 31.4538L31.8589 31.207L34.225 29.8426L35.0523 29.7554L38.7248 30.1474L39.4361 30.3941L39.407 31.0763L41.4102 30.7861L55.2146 24.2105L58.887 22.7734L59.1918 22.0186L58.7854 21.1332L56.6951 20.9445L56.8258 19.8558L59.5693 14.4705L62.9949 5.70306L61.9353 4.67242L62.7482 3.96117L64.5481 3.56927L68.2206 0.143555L71.0221 1.24676L71.9946 8.0836L75.6235 9.72388L81.9088 11.19L86.2489 10.6529L88.6005 12.1916L88.4844 14.035L87.1199 16.3721L86.8005 19.4638L88.4553 29.3054L87.7296 30.2925L83.2587 32.8328L74.5929 35.6488L70.485 38.1455L65.4045 43.5017L65.2449 45.9113L65.6949 47.6387L65.4191 49.9902L64.3594 52.1385L61.7176 52.8788L52.2098 52.6321L43.8053 53.6482L40.3361 52.9804L39.6248 52.4289L39.5377 51.4418L41.0328 49.2935L42.0053 47.1887L41.8747 46.2887L40.7425 46.0275L36.6926 47.6968L36.3152 48.6983L36.7652 49.8451L38.7684 51.5434L39.1313 52.9514L38.2748 53.7062L35.9088 54.4465L33.6298 54.403L21.9593 55.9562L19.84 56.6093ZM12.4225 59.498L11.45 58.09L14.5127 55.84L17.2127 57.2045L17.8368 58.2206L14.266 58.9464L13.6709 58.4383H12.9886L12.4225 59.498Z"/>
</mask>
<path d="M19.84 56.6093L19.7384 55.4771L20.29 55.0852L24.9205 55.4046L28.68 54.5481L25.0076 52.2982L22.9754 51.5724L18.8965 52.5595L16.9223 54.882L15.4272 55.3465L14.4111 55.2739L12.4515 52.1531H11.7548L10.4484 52.7627L9.0549 54.3013L4.48244 55.4626L3.98892 56.7836L3.71311 59.5415L6.89204 59.7302L8.44522 61.1963L6.77593 62.764L5.41146 62.5172L3.35022 62.764L2.6535 62.3866L0.287448 59.8753L0.214844 59.2802L1.79709 54.1998L3.37928 52.5304L6.79042 51.0644L7.5162 51.2821L11.5371 50.7595L13.7144 49.7289L16.1095 46.6081L15.0208 44.2275L12.5531 44.213L7.98071 44.9823L5.41146 44.4162L3.62602 42.1082L2.81315 40.4099L0.969685 39.6261L1.95674 38.9148L5.46954 37.8406L9.69355 35.8955L13.4386 35.6488L14.1644 36.0407L16.6611 34.923L18.1852 33.8053L24.1221 31.207L24.8769 31.1054L25.3995 31.5554L30.0445 31.4538L31.8589 31.207L34.225 29.8426L35.0523 29.7554L38.7248 30.1474L39.4361 30.3941L39.407 31.0763L41.4102 30.7861L55.2146 24.2105L58.887 22.7734L59.1918 22.0186L58.7854 21.1332L56.6951 20.9445L56.8258 19.8558L59.5693 14.4705L62.9949 5.70306L61.9353 4.67242L62.7482 3.96117L64.5481 3.56927L68.2206 0.143555L71.0221 1.24676L71.9946 8.0836L75.6235 9.72388L81.9088 11.19L86.2489 10.6529L88.6005 12.1916L88.4844 14.035L87.1199 16.3721L86.8005 19.4638L88.4553 29.3054L87.7296 30.2925L83.2587 32.8328L74.5929 35.6488L70.485 38.1455L65.4045 43.5017L65.2449 45.9113L65.6949 47.6387L65.4191 49.9902L64.3594 52.1385L61.7176 52.8788L52.2098 52.6321L43.8053 53.6482L40.3361 52.9804L39.6248 52.4289L39.5377 51.4418L41.0328 49.2935L42.0053 47.1887L41.8747 46.2887L40.7425 46.0275L36.6926 47.6968L36.3152 48.6983L36.7652 49.8451L38.7684 51.5434L39.1313 52.9514L38.2748 53.7062L35.9088 54.4465L33.6298 54.403L21.9593 55.9562L19.84 56.6093ZM12.4225 59.498L11.45 58.09L14.5127 55.84L17.2127 57.2045L17.8368 58.2206L14.266 58.9464L13.6709 58.4383H12.9886L12.4225 59.498Z" fill="black" stroke="white" stroke-width="2" mask="url(#path-1-inside-1_2_51)"/>
</svg>
