<svg width="168" height="169" viewBox="0 0 168 169" fill="none" xmlns="http://www.w3.org/2000/svg">
<mask id="path-1-outside-1_2_44" maskUnits="userSpaceOnUse" x="-0.0134277" y="-0.426025" width="168" height="169" fill="black">
<rect fill="white" x="-0.0134277" y="-0.426025" width="168" height="169"/>
<path d="M164.039 70.349L163.458 73.9199L163.052 74.5005L160.875 75.6327L158.959 75.6908L158.276 76.0101L156.505 77.5052L153.617 81.3954L152.557 82.3389L151.091 82.7744L150.191 85.213L149.959 89.4661L146.199 94.7498L144.806 95.5046L144.472 96.0562L144.922 98.8577L144.806 100.237L143.049 103.633L140.146 106.914L140.654 108.148L140.248 109.904L138.158 111.399L137.577 113.156L135.066 115.609L133.237 119.151L130.406 121.865L119.433 128.441L117.604 130.095L116.529 132.331L115.31 133.898L107.457 137.193L105.846 138.384L104.496 141.766L104.525 143.435L102.42 148.603L101.448 149.59L99.0381 151.056L97.4268 151.52L96.9478 152.028L94.6688 163.525L94.1463 164.715L90.6916 166.98L86.9901 163.597L82.0402 160.854L76.2485 163.713L75.2615 164.802L72.8519 165.513L69.1068 166.138L65.6811 165.47L64.2151 164.526L63.5328 158.328L63.0683 157.312L61.7619 155.933L61.4281 152.348L62.1683 150.403L61.2394 149.256L61.1087 148.617V144.451L59.8168 141.592L58.9459 137.614L58.8733 136.569L59.7297 134.595L59.7587 132.258L57.4798 130.676L56.9282 129.515L56.696 126.379L54.3009 123.737L51.151 123.36L48.9592 123.81L46.3028 123.389L42.7319 120.544L41.9191 118.381L39.6837 118.86L36.5337 122.837L35.0822 121.967L32.5855 123.142L31.0178 123.375L28.4921 122.373L24.7761 121.662L19.7537 121.996L14.441 120.965L13.7442 119.644L10.8556 119.455L9.56373 120.21L5.93482 118.933L7.25575 108.38L6.63157 104.925L7.50251 102.864L8.92504 100.745L9.79599 91.9918L8.83795 88.6097L8.76537 86.0984L7.66219 84.705L7.038 84.5743L6.32675 85.5178L5.39775 80.7857L4.25101 78.0713L2.49463 75.1392L1.98657 72.4828L7.83637 69.1442L8.93957 67.8668L2.84299 62.2638L10.6524 45.6869L12.2781 45.5999L11.8717 42.508L10.7976 42.3193L15.4861 27.3247L16.4441 25.6409L11.9588 17.1492L12.0024 14.3767L13.0185 14.6671L14.499 16.2638L17.6199 18.4701L25.7777 15.6106L28.7534 12.7074L31.6855 8.42535L31.8162 6.727L33.8484 4.62222L37.6079 4.66581L39.8724 4.34646L40.9901 4.83999L43.3996 4.09968L45.3593 2.28523L48.2914 1.57397L50.1349 1.86426L51.2381 3.53355L55.2879 5.348L59.091 6.03024L60.0345 6.53829L60.4265 7.78666L61.5587 9.26724L65.9569 10.9511L67.7859 12.5623L69.5858 13.3897L76.1469 12.4752L77.9759 11.3139L78.6871 10.0801L80.7629 9.19468L84.3047 9.29625L86.6126 10.8059L87.0481 12.7945L87.3965 13.1574L88.8336 13.2155L91.9254 11.9381L93.3915 12.0252L101.549 3.30134L103.494 3.11263L101.709 12.7074L99.0961 13.7235L96.6865 17.8314L96.4107 18.4992L96.6285 19.2685L98.5155 19.4282L101.041 21.2716L107.747 21.6636L108.575 20.8362L112.436 20.7201L113.699 20.8362L115.397 21.6636L117.647 21.2136L117.923 23.7829L117.545 27.5279L117.879 29.1391L118.286 29.7343L119.244 30.0101L120.899 29.0375L124.165 30.3439L124.281 30.9536L122.379 33.5084L121.552 35.2067L121.174 36.426L121.363 36.905L126.879 37.9211L130.914 37.6889L134.834 40.1275L136.488 40.3742L138.579 41.4049L139.551 42.2903L144.007 44.5547L144.994 45.7886L149.857 47.7336L152.02 47.7917L154.778 48.4159L157.13 50.6658L161.702 51.5513L165.563 54.8028L165.912 55.456L165.07 55.8189L163.633 61.8864L164.489 66.5459L164.039 70.349Z"/>
</mask>
<path d="M164.039 70.349L163.458 73.9199L163.052 74.5005L160.875 75.6327L158.959 75.6908L158.276 76.0101L156.505 77.5052L153.617 81.3954L152.557 82.3389L151.091 82.7744L150.191 85.213L149.959 89.4661L146.199 94.7498L144.806 95.5046L144.472 96.0562L144.922 98.8577L144.806 100.237L143.049 103.633L140.146 106.914L140.654 108.148L140.248 109.904L138.158 111.399L137.577 113.156L135.066 115.609L133.237 119.151L130.406 121.865L119.433 128.441L117.604 130.095L116.529 132.331L115.31 133.898L107.457 137.193L105.846 138.384L104.496 141.766L104.525 143.435L102.42 148.603L101.448 149.59L99.0381 151.056L97.4268 151.52L96.9478 152.028L94.6688 163.525L94.1463 164.715L90.6916 166.98L86.9901 163.597L82.0402 160.854L76.2485 163.713L75.2615 164.802L72.8519 165.513L69.1068 166.138L65.6811 165.47L64.2151 164.526L63.5328 158.328L63.0683 157.312L61.7619 155.933L61.4281 152.348L62.1683 150.403L61.2394 149.256L61.1087 148.617V144.451L59.8168 141.592L58.9459 137.614L58.8733 136.569L59.7297 134.595L59.7587 132.258L57.4798 130.676L56.9282 129.515L56.696 126.379L54.3009 123.737L51.151 123.36L48.9592 123.81L46.3028 123.389L42.7319 120.544L41.9191 118.381L39.6837 118.86L36.5337 122.837L35.0822 121.967L32.5855 123.142L31.0178 123.375L28.4921 122.373L24.7761 121.662L19.7537 121.996L14.441 120.965L13.7442 119.644L10.8556 119.455L9.56373 120.21L5.93482 118.933L7.25575 108.38L6.63157 104.925L7.50251 102.864L8.92504 100.745L9.79599 91.9918L8.83795 88.6097L8.76537 86.0984L7.66219 84.705L7.038 84.5743L6.32675 85.5178L5.39775 80.7857L4.25101 78.0713L2.49463 75.1392L1.98657 72.4828L7.83637 69.1442L8.93957 67.8668L2.84299 62.2638L10.6524 45.6869L12.2781 45.5999L11.8717 42.508L10.7976 42.3193L15.4861 27.3247L16.4441 25.6409L11.9588 17.1492L12.0024 14.3767L13.0185 14.6671L14.499 16.2638L17.6199 18.4701L25.7777 15.6106L28.7534 12.7074L31.6855 8.42535L31.8162 6.727L33.8484 4.62222L37.6079 4.66581L39.8724 4.34646L40.9901 4.83999L43.3996 4.09968L45.3593 2.28523L48.2914 1.57397L50.1349 1.86426L51.2381 3.53355L55.2879 5.348L59.091 6.03024L60.0345 6.53829L60.4265 7.78666L61.5587 9.26724L65.9569 10.9511L67.7859 12.5623L69.5858 13.3897L76.1469 12.4752L77.9759 11.3139L78.6871 10.0801L80.7629 9.19468L84.3047 9.29625L86.6126 10.8059L87.0481 12.7945L87.3965 13.1574L88.8336 13.2155L91.9254 11.9381L93.3915 12.0252L101.549 3.30134L103.494 3.11263L101.709 12.7074L99.0961 13.7235L96.6865 17.8314L96.4107 18.4992L96.6285 19.2685L98.5155 19.4282L101.041 21.2716L107.747 21.6636L108.575 20.8362L112.436 20.7201L113.699 20.8362L115.397 21.6636L117.647 21.2136L117.923 23.7829L117.545 27.5279L117.879 29.1391L118.286 29.7343L119.244 30.0101L120.899 29.0375L124.165 30.3439L124.281 30.9536L122.379 33.5084L121.552 35.2067L121.174 36.426L121.363 36.905L126.879 37.9211L130.914 37.6889L134.834 40.1275L136.488 40.3742L138.579 41.4049L139.551 42.2903L144.007 44.5547L144.994 45.7886L149.857 47.7336L152.02 47.7917L154.778 48.4159L157.13 50.6658L161.702 51.5513L165.563 54.8028L165.912 55.456L165.07 55.8189L163.633 61.8864L164.489 66.5459L164.039 70.349Z" fill="black"/>
<path d="M164.039 70.349L163.458 73.9199L163.052 74.5005L160.875 75.6327L158.959 75.6908L158.276 76.0101L156.505 77.5052L153.617 81.3954L152.557 82.3389L151.091 82.7744L150.191 85.213L149.959 89.4661L146.199 94.7498L144.806 95.5046L144.472 96.0562L144.922 98.8577L144.806 100.237L143.049 103.633L140.146 106.914L140.654 108.148L140.248 109.904L138.158 111.399L137.577 113.156L135.066 115.609L133.237 119.151L130.406 121.865L119.433 128.441L117.604 130.095L116.529 132.331L115.31 133.898L107.457 137.193L105.846 138.384L104.496 141.766L104.525 143.435L102.42 148.603L101.448 149.59L99.0381 151.056L97.4268 151.52L96.9478 152.028L94.6688 163.525L94.1463 164.715L90.6916 166.98L86.9901 163.597L82.0402 160.854L76.2485 163.713L75.2615 164.802L72.8519 165.513L69.1068 166.138L65.6811 165.47L64.2151 164.526L63.5328 158.328L63.0683 157.312L61.7619 155.933L61.4281 152.348L62.1683 150.403L61.2394 149.256L61.1087 148.617V144.451L59.8168 141.592L58.9459 137.614L58.8733 136.569L59.7297 134.595L59.7587 132.258L57.4798 130.676L56.9282 129.515L56.696 126.379L54.3009 123.737L51.151 123.36L48.9592 123.81L46.3028 123.389L42.7319 120.544L41.9191 118.381L39.6837 118.86L36.5337 122.837L35.0822 121.967L32.5855 123.142L31.0178 123.375L28.4921 122.373L24.7761 121.662L19.7537 121.996L14.441 120.965L13.7442 119.644L10.8556 119.455L9.56373 120.21L5.93482 118.933L7.25575 108.38L6.63157 104.925L7.50251 102.864L8.92504 100.745L9.79599 91.9918L8.83795 88.6097L8.76537 86.0984L7.66219 84.705L7.038 84.5743L6.32675 85.5178L5.39775 80.7857L4.25101 78.0713L2.49463 75.1392L1.98657 72.4828L7.83637 69.1442L8.93957 67.8668L2.84299 62.2638L10.6524 45.6869L12.2781 45.5999L11.8717 42.508L10.7976 42.3193L15.4861 27.3247L16.4441 25.6409L11.9588 17.1492L12.0024 14.3767L13.0185 14.6671L14.499 16.2638L17.6199 18.4701L25.7777 15.6106L28.7534 12.7074L31.6855 8.42535L31.8162 6.727L33.8484 4.62222L37.6079 4.66581L39.8724 4.34646L40.9901 4.83999L43.3996 4.09968L45.3593 2.28523L48.2914 1.57397L50.1349 1.86426L51.2381 3.53355L55.2879 5.348L59.091 6.03024L60.0345 6.53829L60.4265 7.78666L61.5587 9.26724L65.9569 10.9511L67.7859 12.5623L69.5858 13.3897L76.1469 12.4752L77.9759 11.3139L78.6871 10.0801L80.7629 9.19468L84.3047 9.29625L86.6126 10.8059L87.0481 12.7945L87.3965 13.1574L88.8336 13.2155L91.9254 11.9381L93.3915 12.0252L101.549 3.30134L103.494 3.11263L101.709 12.7074L99.0961 13.7235L96.6865 17.8314L96.4107 18.4992L96.6285 19.2685L98.5155 19.4282L101.041 21.2716L107.747 21.6636L108.575 20.8362L112.436 20.7201L113.699 20.8362L115.397 21.6636L117.647 21.2136L117.923 23.7829L117.545 27.5279L117.879 29.1391L118.286 29.7343L119.244 30.0101L120.899 29.0375L124.165 30.3439L124.281 30.9536L122.379 33.5084L121.552 35.2067L121.174 36.426L121.363 36.905L126.879 37.9211L130.914 37.6889L134.834 40.1275L136.488 40.3742L138.579 41.4049L139.551 42.2903L144.007 44.5547L144.994 45.7886L149.857 47.7336L152.02 47.7917L154.778 48.4159L157.13 50.6658L161.702 51.5513L165.563 54.8028L165.912 55.456L165.07 55.8189L163.633 61.8864L164.489 66.5459L164.039 70.349Z" stroke="white" stroke-width="2" mask="url(#path-1-outside-1_2_44)"/>
</svg>
