<svg width="49" height="27" viewBox="0 0 49 27" fill="none" xmlns="http://www.w3.org/2000/svg">
<path d="M3.62994 10.98L3.42999 10.25L2.00995 9.47L1.56 9.56001L0.539978 9.27L0 7.87001L1.31995 6.8L1.95996 5.71001L4.12994 4.95001L6.50995 1.66L6.59998 0.970001L7.41998 0.37001L8.41998 1.59001L10.09 1.89L11.17 1.77L13.72 3.79001L15.62 5.91L17.4 6.96001L19.31 7.44L21.81 6.79001L24.95 7.08L26.12 6.97L27.98 5.91L29.14 5.96001L30.95 4.85001L33.1299 2.56001L33.25 2.11L34.8 0.87001L36.8 0.630005L39.04 1.48001L41.6 0.190002L43.0699 0L44.99 0.810013L47.89 1.08L48.16 1.29001L45.3799 6.25L40.83 11.38L37.25 14.96L34.21 19.54L30.8799 22.42L29.8799 24.45L28.56 26.24L27.96 24.93L24.37 22.7L23.91 22.67L22.25 21.88L20.49 20.43L19.1899 17.98L13.77 14.91L10.09 13.96L3.62994 10.98Z" fill="black"/>
</svg>
