<svg width="171" height="96" viewBox="0 0 171 96" fill="none" xmlns="http://www.w3.org/2000/svg">
<mask id="path-1-outside-1_2_35" maskUnits="userSpaceOnUse" x="0" y="-0.472809" width="171" height="96" fill="black">
<rect fill="white" y="-0.472809" width="171" height="96"/>
<path d="M46.2291 68.1378L43.2099 68.0798L43.9937 65.4524L43.6889 64.2476L43.326 63.5364L41.5116 62.5203L41.3084 61.8671L41.7003 60.1978L40.5826 57.3672L39.0004 56.4382L30.8716 54.6238L20.2171 54.348L20.6091 53.5351L24.2235 50.2546L25.5154 48.4692L25.9363 46.7273L25.617 44.9418L24.6299 43.6209L23.4251 42.9823L20.9865 38.7001L19.8688 38.0615L18.5624 37.7857L16.9221 36.1454L15.5866 32.6907L12.6835 30.4698L11.261 25.2151L9.99811 22.8346L7.26917 21.2669L7.15304 19.5685L8.32881 19.7137L8.93846 18.9589L9.04007 17.9863L8.74976 17.3767L5.67245 16.0267L5.14989 15.0687L2 12.3252L2.05806 11.7882L2.95803 11.7156L3.68381 9.79953L3.66929 7.89799L8.0385 7.33188L8.76428 6.76577L8.44493 4.80615L6.7466 2.52719L32.8022 13.3849L67.1462 21.6007L84.7681 26.1586L123.147 46.7273L164.532 64.3347L168.843 66.1637L168.408 66.8605L166.129 67.8185L163.095 70.1265L158.944 74.1763L156.548 75.4247L155.59 75.1634L153.37 75.4247L153.297 76.2375L150.51 78.1246L147.491 79.5616L145.4 82.218L144.761 83.9308L143.876 84.3373L142.177 83.2486L141.074 83.0599L137.634 83.1325L136.647 83.5099L135.732 84.1631L135.21 85.4114L131.668 90.4629L126.196 92.2773L124.976 93.2789L122.16 94.0192L120.665 94.0627L120.781 90.9999L118.807 91.2903L113.654 90.1725L106.048 89.4903L98.6596 90.0419L97.7016 89.2L94.4065 88.9532L89.2389 91.6096L85.2762 92.5096L82.8376 91.537L80.8054 89.4468L78.4248 91.1306L78.4829 65.6557L78.5554 64.0589L79.2377 63.0283L79.3393 59.6171L78.9619 58.3398L80.3699 56.6269L81.0667 54.9722L79.3828 55.2625L75.0717 59.022L72.7492 60.4881L69.759 63.9428L66.9284 64.9154L65.9849 66.4831L63.3576 67.9201L46.2291 68.1378Z"/>
</mask>
<path d="M46.2291 68.1378L43.2099 68.0798L43.9937 65.4524L43.6889 64.2476L43.326 63.5364L41.5116 62.5203L41.3084 61.8671L41.7003 60.1978L40.5826 57.3672L39.0004 56.4382L30.8716 54.6238L20.2171 54.348L20.6091 53.5351L24.2235 50.2546L25.5154 48.4692L25.9363 46.7273L25.617 44.9418L24.6299 43.6209L23.4251 42.9823L20.9865 38.7001L19.8688 38.0615L18.5624 37.7857L16.9221 36.1454L15.5866 32.6907L12.6835 30.4698L11.261 25.2151L9.99811 22.8346L7.26917 21.2669L7.15304 19.5685L8.32881 19.7137L8.93846 18.9589L9.04007 17.9863L8.74976 17.3767L5.67245 16.0267L5.14989 15.0687L2 12.3252L2.05806 11.7882L2.95803 11.7156L3.68381 9.79953L3.66929 7.89799L8.0385 7.33188L8.76428 6.76577L8.44493 4.80615L6.7466 2.52719L32.8022 13.3849L67.1462 21.6007L84.7681 26.1586L123.147 46.7273L164.532 64.3347L168.843 66.1637L168.408 66.8605L166.129 67.8185L163.095 70.1265L158.944 74.1763L156.548 75.4247L155.59 75.1634L153.37 75.4247L153.297 76.2375L150.51 78.1246L147.491 79.5616L145.4 82.218L144.761 83.9308L143.876 84.3373L142.177 83.2486L141.074 83.0599L137.634 83.1325L136.647 83.5099L135.732 84.1631L135.21 85.4114L131.668 90.4629L126.196 92.2773L124.976 93.2789L122.16 94.0192L120.665 94.0627L120.781 90.9999L118.807 91.2903L113.654 90.1725L106.048 89.4903L98.6596 90.0419L97.7016 89.2L94.4065 88.9532L89.2389 91.6096L85.2762 92.5096L82.8376 91.537L80.8054 89.4468L78.4248 91.1306L78.4829 65.6557L78.5554 64.0589L79.2377 63.0283L79.3393 59.6171L78.9619 58.3398L80.3699 56.6269L81.0667 54.9722L79.3828 55.2625L75.0717 59.022L72.7492 60.4881L69.759 63.9428L66.9284 64.9154L65.9849 66.4831L63.3576 67.9201L46.2291 68.1378Z" fill="black"/>
<path d="M46.2291 68.1378L43.2099 68.0798L43.9937 65.4524L43.6889 64.2476L43.326 63.5364L41.5116 62.5203L41.3084 61.8671L41.7003 60.1978L40.5826 57.3672L39.0004 56.4382L30.8716 54.6238L20.2171 54.348L20.6091 53.5351L24.2235 50.2546L25.5154 48.4692L25.9363 46.7273L25.617 44.9418L24.6299 43.6209L23.4251 42.9823L20.9865 38.7001L19.8688 38.0615L18.5624 37.7857L16.9221 36.1454L15.5866 32.6907L12.6835 30.4698L11.261 25.2151L9.99811 22.8346L7.26917 21.2669L7.15304 19.5685L8.32881 19.7137L8.93846 18.9589L9.04007 17.9863L8.74976 17.3767L5.67245 16.0267L5.14989 15.0687L2 12.3252L2.05806 11.7882L2.95803 11.7156L3.68381 9.79953L3.66929 7.89799L8.0385 7.33188L8.76428 6.76577L8.44493 4.80615L6.7466 2.52719L32.8022 13.3849L67.1462 21.6007L84.7681 26.1586L123.147 46.7273L164.532 64.3347L168.843 66.1637L168.408 66.8605L166.129 67.8185L163.095 70.1265L158.944 74.1763L156.548 75.4247L155.59 75.1634L153.37 75.4247L153.297 76.2375L150.51 78.1246L147.491 79.5616L145.4 82.218L144.761 83.9308L143.876 84.3373L142.177 83.2486L141.074 83.0599L137.634 83.1325L136.647 83.5099L135.732 84.1631L135.21 85.4114L131.668 90.4629L126.196 92.2773L124.976 93.2789L122.16 94.0192L120.665 94.0627L120.781 90.9999L118.807 91.2903L113.654 90.1725L106.048 89.4903L98.6596 90.0419L97.7016 89.2L94.4065 88.9532L89.2389 91.6096L85.2762 92.5096L82.8376 91.537L80.8054 89.4468L78.4248 91.1306L78.4829 65.6557L78.5554 64.0589L79.2377 63.0283L79.3393 59.6171L78.9619 58.3398L80.3699 56.6269L81.0667 54.9722L79.3828 55.2625L75.0717 59.022L72.7492 60.4881L69.759 63.9428L66.9284 64.9154L65.9849 66.4831L63.3576 67.9201L46.2291 68.1378Z" stroke="white" stroke-width="2" mask="url(#path-1-outside-1_2_35)"/>
</svg>
