<svg width="91" height="52" viewBox="0 0 91 52" fill="none" xmlns="http://www.w3.org/2000/svg">
<path d="M88.0779 35.0785L84.449 32.0882L83.2587 31.7108L79.4121 31.406L76.059 32.9592L73.9107 34.8172L73.2574 37.43L70.4995 38.9251L67.5819 39.5783L65.9271 39.5493V40.4202L64.7658 41.1895L61.6014 41.6105L55.9694 41.2331L53.6324 42.5105L52.834 43.4395L50.1922 43.5846L48.9003 44.5862L48.1164 45.6894L48.6825 46.749L48.697 47.5329L48.1164 48.2296L45.5326 50.4505L43.5876 50.6828L41.1925 51.9021L38.87 50.7553L37.491 49.3909L36.9829 46.1394L37.3313 45.4281L37.07 44.9926L35.4153 44.5281L34.7766 44.9491L32.5847 45.312L32.6427 44.6588L36.3152 40.8267L36.562 40.2025L35.5168 37.4881L35.4588 36.8058L35.9958 35.6736L40.3505 34.1204L40.5102 33.685L39.7844 31.6673L34.7039 28.8803L32.5556 29.4754L29.3332 31.3044L27.9833 33.4963L25.8349 34.7591L24.3108 35.2091L20.3915 37.938L18.1852 40.3186L15.8192 40.6525L12.0016 42.0605L10.8838 41.5815L10.9564 40.5944L10.0419 38.7945L9.4903 38.6783L8.14036 39.738L5.94848 40.2025L4.51145 39.7235L2.47932 36.951L1.89866 36.8203L1.65191 36.4574L3.37928 34.8317L5.71627 29.7658L5.2227 28.0384L4.22112 27.9223L2.4212 26.6304L2.45026 24.2208L1.94225 23.1756L1.10031 22.7547L0.751953 22.1596L0.926134 20.8096L1.17287 20.258L2.75512 19.3435L3.71311 17.442L2.95827 15.5404L4.45342 11.1858L5.67268 9.51644L5.78883 8.73261L6.61623 8.06488L9.41774 10.4454L10.7242 11.0551L14.9047 11.9405L16.5885 10.3003L21.277 7.8907L22.4673 6.86008L22.6125 5.35046L23.2076 3.97148L27.8235 2.21508L29.8993 2.0409L34.6314 0.531265L35.5604 0.647393L36.3298 1.28608L36.3442 3.01345L32.004 7.67297L31.3654 9.06646L30.8138 11.5922L30.2187 12.1438L28.9848 12.5067L28.68 12.9567L28.5639 15.4533L33.6879 16.2081L34.1524 16.542L34.6024 18.5452L35.0233 18.879L39.5958 17.0501L42.165 16.9339L44.9956 17.3694L46.2875 19.0677L45.5326 21.3031L46.7374 22.3773L50.1486 21.0273L50.8744 19.9532L51.6727 18.1968L50.9905 16.8323L50.7582 14.7711L51.455 13.9147L52.9211 14.3792L52.1517 12.1583L51.1067 11.0261L51.5566 8.87775L54.1985 6.91815L56.2016 6.84557L56.8113 7.41168L56.6661 8.86324L57.566 9.57451L62.5305 10.1551L63.2997 10.6632L71.7624 10.0971L74.9122 10.5326L78.4831 12.1293L79.9927 11.5486L85.0732 11.8535L86.4231 11.5051L86.5538 14.9888L88.6586 21.3612L88.7457 22.2902L88.4844 23.6547L87.9473 24.3079L87.9037 25.5852L88.7457 24.5111L89.486 22.3337L89.5004 25.2078L90.3569 26.6739L89.9649 34.193L89.4424 35.0639L88.0779 35.0785Z" fill="black"/>
</svg>
