<svg width="154" height="54" viewBox="0 0 154 54" fill="none" xmlns="http://www.w3.org/2000/svg">
<mask id="path-1-outside-1_2_48" maskUnits="userSpaceOnUse" x="0.324951" y="-0.11969" width="153" height="54" fill="black">
<rect fill="white" x="0.324951" y="-0.11969" width="153" height="54"/>
<path d="M74.379 48.7803L72.608 44.3675L72.5935 43.0031L69.5307 41.7547L68.805 41.2176L68.1517 40.0128L69.0372 38.721L69.0082 37.821L68.355 37.3565L66.9034 37.371L66.2792 38.0097L65.8582 40.5354L65.2341 40.7532L64.668 40.3757L63.8841 37.9807L61.5906 36.3114L57.2505 35.7307L53.8248 34.613L51.8652 33.4373L50.6604 31.347L48.4976 30.5341L47.6411 30.6938L43.9687 32.8131L41.5736 33.4518L40.4559 36.4275L37.2189 37.0807L36.798 37.4436L37.1609 39.4177L36.9141 40.2741L35.3174 42.0741L31.8481 43.5692L30.9192 43.4821L29.8015 42.7127L28.6983 42.9595L27.9725 44.2224L26.8548 49.4045L22.6888 50.6818L21.4985 52.0173L20.1051 52.3511L17.4341 51.4512L18.7696 49.0125L18.3922 46.1094L15.1842 44.7885L14.1392 41.9725L14.2262 38.0097L13.5876 37.2694L9.50867 35.2662L6.31521 34.8453L4.63139 35.2227L3.32495 34.6421L7.12808 32.7986L9.98762 30.3164L10.7715 29.0535L14.0956 27.123L15.5035 26.7165L21.1501 21.099L22.2243 18.5442L22.3114 15.2492L21.8904 14.4654L19.5389 12.1719L19.6405 8.99296L18.7696 7.35268L18.6825 5.9737L18.8422 5.32051L19.597 4.84149L22.1953 4.60923L29.3515 4.89954L30.6434 5.24792L33.0095 4.97212L36.1157 3.81087L37.9883 3.66573L42.4591 4.27538L46.5961 7.03334L49.2524 8.23814L49.9201 9.67519L51.3862 11.2284L53.3603 11.9251L54.4926 12.7525L55.4071 15.1331L57.8021 15.0605L60.0375 11.7364L61.5906 10.5316L63.8987 9.82034L64.4793 9.95099L66.5115 12.7235L67.9485 13.2025L70.1404 12.738L71.4903 11.6784L72.0419 11.7945L72.9564 13.5944L72.8838 14.5815L74.0016 15.0605L77.8192 13.6525L80.1852 13.3186L82.3916 10.938L86.3108 8.20912L87.8349 7.75912L89.9833 6.49627L91.3332 4.30442L94.5557 2.47543L96.7039 1.88031L101.784 4.66731L102.51 6.68498L102.351 7.12045L97.9959 8.67361L97.4588 9.80583L97.5168 10.4881L98.562 13.2025L98.3152 13.8267L94.6427 17.6588L94.5847 18.312L96.7766 17.9491L97.4153 17.5282L99.07 17.9926L99.3313 18.4281L98.9829 19.1394L99.491 22.3909L100.87 23.7553L103.192 24.9021L105.588 23.6828L107.533 23.4505L110.116 21.2296L110.697 20.5329L110.682 19.749L110.116 18.6894L110.9 17.5862L112.192 16.5846L114.834 16.4395L115.632 15.5105L117.969 14.2331L123.601 14.6105L126.766 14.1896L127.927 13.4202V12.5493L129.582 12.5783L132.5 11.9251L135.257 10.43L135.911 7.8172L138.059 5.9592L141.412 4.40601L145.259 4.71085L146.449 5.08825L150.078 8.07847L151.355 8.41234L152.154 10.1832L150.31 12.6799L150.15 13.4783L150.165 14.175L151.181 14.7121L151.573 15.4379L151.849 16.9766L149.004 26.2375L144.286 39.229L143.894 38.9242L139.685 38.5323L136.898 37.3565L134.764 37.6323L131.048 39.5048L127.796 38.271L124.893 38.6194L122.643 40.4193L122.469 41.0725L119.305 44.3966L116.677 46.0078L114.994 45.9352L112.294 47.4739L110.595 47.6335L106.038 47.2126L102.409 48.1561L99.6361 47.4594L97.0524 45.9352L94.2944 42.8579L90.5929 39.9258L89.0252 40.0999L86.6011 39.6645L85.1496 37.8936L83.9593 38.7645L83.8286 39.7661L80.3739 44.5417L77.224 45.6449L76.295 47.2271L74.379 48.7803Z"/>
</mask>
<path d="M74.379 48.7803L72.608 44.3675L72.5935 43.0031L69.5307 41.7547L68.805 41.2176L68.1517 40.0128L69.0372 38.721L69.0082 37.821L68.355 37.3565L66.9034 37.371L66.2792 38.0097L65.8582 40.5354L65.2341 40.7532L64.668 40.3757L63.8841 37.9807L61.5906 36.3114L57.2505 35.7307L53.8248 34.613L51.8652 33.4373L50.6604 31.347L48.4976 30.5341L47.6411 30.6938L43.9687 32.8131L41.5736 33.4518L40.4559 36.4275L37.2189 37.0807L36.798 37.4436L37.1609 39.4177L36.9141 40.2741L35.3174 42.0741L31.8481 43.5692L30.9192 43.4821L29.8015 42.7127L28.6983 42.9595L27.9725 44.2224L26.8548 49.4045L22.6888 50.6818L21.4985 52.0173L20.1051 52.3511L17.4341 51.4512L18.7696 49.0125L18.3922 46.1094L15.1842 44.7885L14.1392 41.9725L14.2262 38.0097L13.5876 37.2694L9.50867 35.2662L6.31521 34.8453L4.63139 35.2227L3.32495 34.6421L7.12808 32.7986L9.98762 30.3164L10.7715 29.0535L14.0956 27.123L15.5035 26.7165L21.1501 21.099L22.2243 18.5442L22.3114 15.2492L21.8904 14.4654L19.5389 12.1719L19.6405 8.99296L18.7696 7.35268L18.6825 5.9737L18.8422 5.32051L19.597 4.84149L22.1953 4.60923L29.3515 4.89954L30.6434 5.24792L33.0095 4.97212L36.1157 3.81087L37.9883 3.66573L42.4591 4.27538L46.5961 7.03334L49.2524 8.23814L49.9201 9.67519L51.3862 11.2284L53.3603 11.9251L54.4926 12.7525L55.4071 15.1331L57.8021 15.0605L60.0375 11.7364L61.5906 10.5316L63.8987 9.82034L64.4793 9.95099L66.5115 12.7235L67.9485 13.2025L70.1404 12.738L71.4903 11.6784L72.0419 11.7945L72.9564 13.5944L72.8838 14.5815L74.0016 15.0605L77.8192 13.6525L80.1852 13.3186L82.3916 10.938L86.3108 8.20912L87.8349 7.75912L89.9833 6.49627L91.3332 4.30442L94.5557 2.47543L96.7039 1.88031L101.784 4.66731L102.51 6.68498L102.351 7.12045L97.9959 8.67361L97.4588 9.80583L97.5168 10.4881L98.562 13.2025L98.3152 13.8267L94.6427 17.6588L94.5847 18.312L96.7766 17.9491L97.4153 17.5282L99.07 17.9926L99.3313 18.4281L98.9829 19.1394L99.491 22.3909L100.87 23.7553L103.192 24.9021L105.588 23.6828L107.533 23.4505L110.116 21.2296L110.697 20.5329L110.682 19.749L110.116 18.6894L110.9 17.5862L112.192 16.5846L114.834 16.4395L115.632 15.5105L117.969 14.2331L123.601 14.6105L126.766 14.1896L127.927 13.4202V12.5493L129.582 12.5783L132.5 11.9251L135.257 10.43L135.911 7.8172L138.059 5.9592L141.412 4.40601L145.259 4.71085L146.449 5.08825L150.078 8.07847L151.355 8.41234L152.154 10.1832L150.31 12.6799L150.15 13.4783L150.165 14.175L151.181 14.7121L151.573 15.4379L151.849 16.9766L149.004 26.2375L144.286 39.229L143.894 38.9242L139.685 38.5323L136.898 37.3565L134.764 37.6323L131.048 39.5048L127.796 38.271L124.893 38.6194L122.643 40.4193L122.469 41.0725L119.305 44.3966L116.677 46.0078L114.994 45.9352L112.294 47.4739L110.595 47.6335L106.038 47.2126L102.409 48.1561L99.6361 47.4594L97.0524 45.9352L94.2944 42.8579L90.5929 39.9258L89.0252 40.0999L86.6011 39.6645L85.1496 37.8936L83.9593 38.7645L83.8286 39.7661L80.3739 44.5417L77.224 45.6449L76.295 47.2271L74.379 48.7803Z" fill="black"/>
<path d="M74.379 48.7803L72.608 44.3675L72.5935 43.0031L69.5307 41.7547L68.805 41.2176L68.1517 40.0128L69.0372 38.721L69.0082 37.821L68.355 37.3565L66.9034 37.371L66.2792 38.0097L65.8582 40.5354L65.2341 40.7532L64.668 40.3757L63.8841 37.9807L61.5906 36.3114L57.2505 35.7307L53.8248 34.613L51.8652 33.4373L50.6604 31.347L48.4976 30.5341L47.6411 30.6938L43.9687 32.8131L41.5736 33.4518L40.4559 36.4275L37.2189 37.0807L36.798 37.4436L37.1609 39.4177L36.9141 40.2741L35.3174 42.0741L31.8481 43.5692L30.9192 43.4821L29.8015 42.7127L28.6983 42.9595L27.9725 44.2224L26.8548 49.4045L22.6888 50.6818L21.4985 52.0173L20.1051 52.3511L17.4341 51.4512L18.7696 49.0125L18.3922 46.1094L15.1842 44.7885L14.1392 41.9725L14.2262 38.0097L13.5876 37.2694L9.50867 35.2662L6.31521 34.8453L4.63139 35.2227L3.32495 34.6421L7.12808 32.7986L9.98762 30.3164L10.7715 29.0535L14.0956 27.123L15.5035 26.7165L21.1501 21.099L22.2243 18.5442L22.3114 15.2492L21.8904 14.4654L19.5389 12.1719L19.6405 8.99296L18.7696 7.35268L18.6825 5.9737L18.8422 5.32051L19.597 4.84149L22.1953 4.60923L29.3515 4.89954L30.6434 5.24792L33.0095 4.97212L36.1157 3.81087L37.9883 3.66573L42.4591 4.27538L46.5961 7.03334L49.2524 8.23814L49.9201 9.67519L51.3862 11.2284L53.3603 11.9251L54.4926 12.7525L55.4071 15.1331L57.8021 15.0605L60.0375 11.7364L61.5906 10.5316L63.8987 9.82034L64.4793 9.95099L66.5115 12.7235L67.9485 13.2025L70.1404 12.738L71.4903 11.6784L72.0419 11.7945L72.9564 13.5944L72.8838 14.5815L74.0016 15.0605L77.8192 13.6525L80.1852 13.3186L82.3916 10.938L86.3108 8.20912L87.8349 7.75912L89.9833 6.49627L91.3332 4.30442L94.5557 2.47543L96.7039 1.88031L101.784 4.66731L102.51 6.68498L102.351 7.12045L97.9959 8.67361L97.4588 9.80583L97.5168 10.4881L98.562 13.2025L98.3152 13.8267L94.6427 17.6588L94.5847 18.312L96.7766 17.9491L97.4153 17.5282L99.07 17.9926L99.3313 18.4281L98.9829 19.1394L99.491 22.3909L100.87 23.7553L103.192 24.9021L105.588 23.6828L107.533 23.4505L110.116 21.2296L110.697 20.5329L110.682 19.749L110.116 18.6894L110.9 17.5862L112.192 16.5846L114.834 16.4395L115.632 15.5105L117.969 14.2331L123.601 14.6105L126.766 14.1896L127.927 13.4202V12.5493L129.582 12.5783L132.5 11.9251L135.257 10.43L135.911 7.8172L138.059 5.9592L141.412 4.40601L145.259 4.71085L146.449 5.08825L150.078 8.07847L151.355 8.41234L152.154 10.1832L150.31 12.6799L150.15 13.4783L150.165 14.175L151.181 14.7121L151.573 15.4379L151.849 16.9766L149.004 26.2375L144.286 39.229L143.894 38.9242L139.685 38.5323L136.898 37.3565L134.764 37.6323L131.048 39.5048L127.796 38.271L124.893 38.6194L122.643 40.4193L122.469 41.0725L119.305 44.3966L116.677 46.0078L114.994 45.9352L112.294 47.4739L110.595 47.6335L106.038 47.2126L102.409 48.1561L99.6361 47.4594L97.0524 45.9352L94.2944 42.8579L90.5929 39.9258L89.0252 40.0999L86.6011 39.6645L85.1496 37.8936L83.9593 38.7645L83.8286 39.7661L80.3739 44.5417L77.224 45.6449L76.295 47.2271L74.379 48.7803Z" stroke="white" stroke-width="2" mask="url(#path-1-outside-1_2_48)"/>
</svg>
