<svg width="162" height="213" viewBox="0 0 162 213" fill="none" xmlns="http://www.w3.org/2000/svg">
<mask id="path-1-outside-1_2_42" maskUnits="userSpaceOnUse" x="0.0615234" y="0.0949707" width="162" height="213" fill="black">
<rect fill="white" x="0.0615234" y="0.0949707" width="162" height="213"/>
<path d="M96.6438 46.1352L96.5857 46.6142L93.6245 49.7351L93.0003 49.9819L92.9423 52.0721L95.8018 49.6045L96.7889 47.8481L99.8662 45.5546L101.158 43.8998L102.653 34.7114L104.322 33.6953L105.934 33.5211L108.358 32.1857L109.301 31.997L109.969 32.1712L110.085 34.5372L109.795 35.1904L107.734 37.9049L103.074 40.4451L103.031 41.4902L104.09 41.6644L104.743 40.4886L106.413 40.0387L106.732 41.2435L105.876 41.9838L106.239 42.4192L112.35 35.205L113.598 35.684L117.343 34.334L123.207 34.9582L122.54 31.4599L123.425 31.1261L126.938 31.2422L129.522 31.7938L133.339 33.3179L134.849 33.4776L137.97 35.4808L140.002 35.5243L141.831 37.4113L144.574 39.3274L148.203 40.1693L149.887 39.8935L150.7 40.9967L151.193 41.0693L153.501 40.9386L157.072 41.8967L157.45 40.5903L156.477 39.908L158.901 39.3564L159.729 39.5161L159.598 40.1258L158.93 42.2015L159.264 43.2466L160.179 44.0305L159.627 46.2514L157.029 49.5464L151.034 55.3091L146.215 55.9768L145.053 55.7446L140.815 60.6799L140.873 63.2927L139.595 65.949L136.852 68.6344L135.662 71.5085L134.733 71.7553L133.615 73.2794L134.138 76.0664L135.923 77.2712L136.475 79.1292L136.068 81.2485L134.413 85.4145L136.707 89.4934L137.505 93.8191L137.346 97.3463L137.041 98.1447L131.089 104.561L130.843 108.16L131.017 111.223L131.757 114.562L134.341 117.523L136.678 118.844L136.925 119.57L137.113 120.789L136.547 123.983L136.126 124.621L135.952 126.378L135.226 128.497L133.47 130.398L130.146 130.819L129.202 130.413L127.998 130.471L124.47 131.719L122.264 131.879L118.635 129.237L117.169 128.932L115.05 129.208L113.583 130.079L111.958 130.456L111.624 130.021L110.405 130.369L109.679 130.689L106.921 133.461L106.935 134.129L106.021 135.392L103.103 138.295L99.7065 139.616L95.5406 143.332L93.61 144.101L92.0858 144.159L89.6182 146.38L88.0505 146.903L84.2619 147.367L80.3137 148.47L77.2218 151.301L75.7993 155.612L75.2332 159.923L74.3187 163.291L72.2139 167.268L71.7785 167.587L71.285 168.778L71.0963 170.984L69.3544 174.584L66.8867 176.616L65.8271 179.519L66.8577 182.335L67.5399 186.951L70.0511 191.393L69.9931 192.148L68.8899 194.18L68.7012 203.412L67.0319 206.968L66.6545 208.507L66.5819 211.294L64.7239 210.336L63.8384 209.146L62.6481 208.492L61.2111 208.072L58.6273 208.362L57.5967 208.101L55.6371 205.197L54.2 201.046L51.1083 198.694L50.905 196.299L53.2856 193.672L53.1694 192.903L47.5374 190.072L46.6374 188.548L46.5503 186.138L45.4617 183.83L44.0972 182.829L41.0779 182.422L40.7876 181.813L41.165 180.782L44.9827 177.095L44.4455 175.194L45.5052 171.303L46.5068 169.228L47.3342 168.429L49.2793 167.646L54.2 167.137L53.634 165.178L54.5629 160.46L54.4468 157.906L51.834 156.149L45.6358 157.514L42.515 159.459L39.22 155.075L37.899 153.841L33.5443 147.817L32.267 147.919L31.0476 145.829L31.9331 144.101L31.7734 142.824L31.4105 142.33L29.4219 141.982L28.8122 142.374L26.0107 140.443L26.272 139.413L28.8268 138.455L31.367 135.493L31.7299 133.185L31.3234 131.734L31.7734 128.308L34.3427 119.367L34.3572 118.742L33.3702 117.088L33.0363 115.52L33.3411 110.12L32.4121 107.943L31.7299 102.877L30.5106 101.382L25.5752 99.2914L23.8044 99.2624L23.3979 98.7979L23.2818 97.3028L22.4254 96.3012L19.8997 95.8803L18.5061 96.6351L16.4739 96.5044L12.4386 94.3126L11.1903 94.2255L8.34519 94.9948L4.5421 97.6802L3.77277 98.6092L3.06152 98.4931L24.414 81.3211L27.8252 81.655L29.5235 80.3195L31.7734 77.1696L32.3976 75.5003L34.6475 73.802L35.5475 69.6215L37.1732 68.9538L40.7151 65.5862L41.3973 63.8298L41.8182 61.0718L44.1407 54.264L46.9858 52.0286L49.1341 49.4738L50.3389 47.3691L51.0066 45.5111L50.7454 42.8692L51.8921 41.6934L50.3825 39.4L55.7242 34.9146L55.5355 32.5341L56.2613 29.0794L58.787 26.8004L59.3096 25.7698L60.616 21.3861L60.7321 19.0491L60.1079 18.2797L58.6709 18.512L58.279 17.8007L58.3515 16.9008L60.0063 16.683L60.8337 15.6089L61.8643 9.23651L61.6321 7.23335L62.3143 5.73824L63.432 5.08504H64.3465L64.6949 4.73667L64.6078 3.95282L65.1013 2.8643L65.9432 2.09497L67.8883 3.5175L68.5415 6.18823L70.2689 6.36241L71.3866 4.38829L72.272 8.64137L73.709 8.69943L74.13 7.98817L74.2316 6.62369L75.4655 6.56563L77.9186 7.33496L78.6444 8.33654L76.5686 10.8042L77.5412 11.8203L77.5702 12.6187L79.3266 9.65747L80.0379 7.42206H80.6911L81.2717 8.90265V9.74456L80.0088 11.08L79.6169 12.517L79.7331 16.4508L80.1104 16.9298L80.7927 17.104L81.6346 16.9008L83.0281 15.5508L82.3459 14.0992L82.5491 13.2283L84.4651 11.1526L85.9893 10.7897L89.0811 11.6461L91.2584 10.0349L91.331 11.3703L90.8085 11.6751L89.1682 13.896L90.0246 14.7379L90.1698 14.2009L91.9842 13.3299L92.8261 14.4767L92.6229 16.233L94.989 18.7733L96.2373 18.1346L98.5308 19.1071L99.6485 22.5909L99.4888 23.9699L96.3099 27.9326L95.7583 29.2245L95.9035 30.1826L96.7744 28.6874L99.3146 26.2488L100.519 26.2053L101.782 27.381L102.537 30.1245L102.145 31.9099L100.737 32.1857L99.242 33.5066L97.5583 35.6695L97.6598 36.7872L95.976 40.1983L95.076 45.3078L95.3809 45.8014L96.6438 46.1352ZM97.3986 46.7884L97.3115 45.6417L98.0808 43.4208L97.4856 41.8676L97.6744 40.9096L98.9953 39.1097L99.7936 38.8339L99.8662 42.245L99.5469 44.1901L98.3856 45.0611L97.3986 46.7884ZM88.2537 9.39618L87.615 8.72847L87.4989 7.85752L88.6602 6.23178L89.8795 6.18823L90.8665 6.79789L91.0117 7.29141L90.7359 7.81398L88.2537 9.39618ZM93.3342 15.4637L92.9132 15.0282L93.0003 14.2589L94.539 12.967L95.2357 13.0686L95.9615 14.3025L95.7583 15.1879L95.1777 14.9412L93.3342 15.4637ZM72.7801 8.48169L72.4753 8.40912L73.8542 3.21267L74.2897 3.34332L74.3333 3.67717L73.7381 8.1188L72.7801 8.48169Z"/>
</mask>
<path d="M96.6438 46.1352L96.5857 46.6142L93.6245 49.7351L93.0003 49.9819L92.9423 52.0721L95.8018 49.6045L96.7889 47.8481L99.8662 45.5546L101.158 43.8998L102.653 34.7114L104.322 33.6953L105.934 33.5211L108.358 32.1857L109.301 31.997L109.969 32.1712L110.085 34.5372L109.795 35.1904L107.734 37.9049L103.074 40.4451L103.031 41.4902L104.09 41.6644L104.743 40.4886L106.413 40.0387L106.732 41.2435L105.876 41.9838L106.239 42.4192L112.35 35.205L113.598 35.684L117.343 34.334L123.207 34.9582L122.54 31.4599L123.425 31.1261L126.938 31.2422L129.522 31.7938L133.339 33.3179L134.849 33.4776L137.97 35.4808L140.002 35.5243L141.831 37.4113L144.574 39.3274L148.203 40.1693L149.887 39.8935L150.7 40.9967L151.193 41.0693L153.501 40.9386L157.072 41.8967L157.45 40.5903L156.477 39.908L158.901 39.3564L159.729 39.5161L159.598 40.1258L158.93 42.2015L159.264 43.2466L160.179 44.0305L159.627 46.2514L157.029 49.5464L151.034 55.3091L146.215 55.9768L145.053 55.7446L140.815 60.6799L140.873 63.2927L139.595 65.949L136.852 68.6344L135.662 71.5085L134.733 71.7553L133.615 73.2794L134.138 76.0664L135.923 77.2712L136.475 79.1292L136.068 81.2485L134.413 85.4145L136.707 89.4934L137.505 93.8191L137.346 97.3463L137.041 98.1447L131.089 104.561L130.843 108.16L131.017 111.223L131.757 114.562L134.341 117.523L136.678 118.844L136.925 119.57L137.113 120.789L136.547 123.983L136.126 124.621L135.952 126.378L135.226 128.497L133.47 130.398L130.146 130.819L129.202 130.413L127.998 130.471L124.47 131.719L122.264 131.879L118.635 129.237L117.169 128.932L115.05 129.208L113.583 130.079L111.958 130.456L111.624 130.021L110.405 130.369L109.679 130.689L106.921 133.461L106.935 134.129L106.021 135.392L103.103 138.295L99.7065 139.616L95.5406 143.332L93.61 144.101L92.0858 144.159L89.6182 146.38L88.0505 146.903L84.2619 147.367L80.3137 148.47L77.2218 151.301L75.7993 155.612L75.2332 159.923L74.3187 163.291L72.2139 167.268L71.7785 167.587L71.285 168.778L71.0963 170.984L69.3544 174.584L66.8867 176.616L65.8271 179.519L66.8577 182.335L67.5399 186.951L70.0511 191.393L69.9931 192.148L68.8899 194.18L68.7012 203.412L67.0319 206.968L66.6545 208.507L66.5819 211.294L64.7239 210.336L63.8384 209.146L62.6481 208.492L61.2111 208.072L58.6273 208.362L57.5967 208.101L55.6371 205.197L54.2 201.046L51.1083 198.694L50.905 196.299L53.2856 193.672L53.1694 192.903L47.5374 190.072L46.6374 188.548L46.5503 186.138L45.4617 183.83L44.0972 182.829L41.0779 182.422L40.7876 181.813L41.165 180.782L44.9827 177.095L44.4455 175.194L45.5052 171.303L46.5068 169.228L47.3342 168.429L49.2793 167.646L54.2 167.137L53.634 165.178L54.5629 160.46L54.4468 157.906L51.834 156.149L45.6358 157.514L42.515 159.459L39.22 155.075L37.899 153.841L33.5443 147.817L32.267 147.919L31.0476 145.829L31.9331 144.101L31.7734 142.824L31.4105 142.33L29.4219 141.982L28.8122 142.374L26.0107 140.443L26.272 139.413L28.8268 138.455L31.367 135.493L31.7299 133.185L31.3234 131.734L31.7734 128.308L34.3427 119.367L34.3572 118.742L33.3702 117.088L33.0363 115.52L33.3411 110.12L32.4121 107.943L31.7299 102.877L30.5106 101.382L25.5752 99.2914L23.8044 99.2624L23.3979 98.7979L23.2818 97.3028L22.4254 96.3012L19.8997 95.8803L18.5061 96.6351L16.4739 96.5044L12.4386 94.3126L11.1903 94.2255L8.34519 94.9948L4.5421 97.6802L3.77277 98.6092L3.06152 98.4931L24.414 81.3211L27.8252 81.655L29.5235 80.3195L31.7734 77.1696L32.3976 75.5003L34.6475 73.802L35.5475 69.6215L37.1732 68.9538L40.7151 65.5862L41.3973 63.8298L41.8182 61.0718L44.1407 54.264L46.9858 52.0286L49.1341 49.4738L50.3389 47.3691L51.0066 45.5111L50.7454 42.8692L51.8921 41.6934L50.3825 39.4L55.7242 34.9146L55.5355 32.5341L56.2613 29.0794L58.787 26.8004L59.3096 25.7698L60.616 21.3861L60.7321 19.0491L60.1079 18.2797L58.6709 18.512L58.279 17.8007L58.3515 16.9008L60.0063 16.683L60.8337 15.6089L61.8643 9.23651L61.6321 7.23335L62.3143 5.73824L63.432 5.08504H64.3465L64.6949 4.73667L64.6078 3.95282L65.1013 2.8643L65.9432 2.09497L67.8883 3.5175L68.5415 6.18823L70.2689 6.36241L71.3866 4.38829L72.272 8.64137L73.709 8.69943L74.13 7.98817L74.2316 6.62369L75.4655 6.56563L77.9186 7.33496L78.6444 8.33654L76.5686 10.8042L77.5412 11.8203L77.5702 12.6187L79.3266 9.65747L80.0379 7.42206H80.6911L81.2717 8.90265V9.74456L80.0088 11.08L79.6169 12.517L79.7331 16.4508L80.1104 16.9298L80.7927 17.104L81.6346 16.9008L83.0281 15.5508L82.3459 14.0992L82.5491 13.2283L84.4651 11.1526L85.9893 10.7897L89.0811 11.6461L91.2584 10.0349L91.331 11.3703L90.8085 11.6751L89.1682 13.896L90.0246 14.7379L90.1698 14.2009L91.9842 13.3299L92.8261 14.4767L92.6229 16.233L94.989 18.7733L96.2373 18.1346L98.5308 19.1071L99.6485 22.5909L99.4888 23.9699L96.3099 27.9326L95.7583 29.2245L95.9035 30.1826L96.7744 28.6874L99.3146 26.2488L100.519 26.2053L101.782 27.381L102.537 30.1245L102.145 31.9099L100.737 32.1857L99.242 33.5066L97.5583 35.6695L97.6598 36.7872L95.976 40.1983L95.076 45.3078L95.3809 45.8014L96.6438 46.1352ZM97.3986 46.7884L97.3115 45.6417L98.0808 43.4208L97.4856 41.8676L97.6744 40.9096L98.9953 39.1097L99.7936 38.8339L99.8662 42.245L99.5469 44.1901L98.3856 45.0611L97.3986 46.7884ZM88.2537 9.39618L87.615 8.72847L87.4989 7.85752L88.6602 6.23178L89.8795 6.18823L90.8665 6.79789L91.0117 7.29141L90.7359 7.81398L88.2537 9.39618ZM93.3342 15.4637L92.9132 15.0282L93.0003 14.2589L94.539 12.967L95.2357 13.0686L95.9615 14.3025L95.7583 15.1879L95.1777 14.9412L93.3342 15.4637ZM72.7801 8.48169L72.4753 8.40912L73.8542 3.21267L74.2897 3.34332L74.3333 3.67717L73.7381 8.1188L72.7801 8.48169Z" fill="black"/>
<path d="M96.6438 46.1352L96.5857 46.6142L93.6245 49.7351L93.0003 49.9819L92.9423 52.0721L95.8018 49.6045L96.7889 47.8481L99.8662 45.5546L101.158 43.8998L102.653 34.7114L104.322 33.6953L105.934 33.5211L108.358 32.1857L109.301 31.997L109.969 32.1712L110.085 34.5372L109.795 35.1904L107.734 37.9049L103.074 40.4451L103.031 41.4902L104.09 41.6644L104.743 40.4886L106.413 40.0387L106.732 41.2435L105.876 41.9838L106.239 42.4192L112.35 35.205L113.598 35.684L117.343 34.334L123.207 34.9582L122.54 31.4599L123.425 31.1261L126.938 31.2422L129.522 31.7938L133.339 33.3179L134.849 33.4776L137.97 35.4808L140.002 35.5243L141.831 37.4113L144.574 39.3274L148.203 40.1693L149.887 39.8935L150.7 40.9967L151.193 41.0693L153.501 40.9386L157.072 41.8967L157.45 40.5903L156.477 39.908L158.901 39.3564L159.729 39.5161L159.598 40.1258L158.93 42.2015L159.264 43.2466L160.179 44.0305L159.627 46.2514L157.029 49.5464L151.034 55.3091L146.215 55.9768L145.053 55.7446L140.815 60.6799L140.873 63.2927L139.595 65.949L136.852 68.6344L135.662 71.5085L134.733 71.7553L133.615 73.2794L134.138 76.0664L135.923 77.2712L136.475 79.1292L136.068 81.2485L134.413 85.4145L136.707 89.4934L137.505 93.8191L137.346 97.3463L137.041 98.1447L131.089 104.561L130.843 108.16L131.017 111.223L131.757 114.562L134.341 117.523L136.678 118.844L136.925 119.57L137.113 120.789L136.547 123.983L136.126 124.621L135.952 126.378L135.226 128.497L133.47 130.398L130.146 130.819L129.202 130.413L127.998 130.471L124.47 131.719L122.264 131.879L118.635 129.237L117.169 128.932L115.05 129.208L113.583 130.079L111.958 130.456L111.624 130.021L110.405 130.369L109.679 130.689L106.921 133.461L106.935 134.129L106.021 135.392L103.103 138.295L99.7065 139.616L95.5406 143.332L93.61 144.101L92.0858 144.159L89.6182 146.38L88.0505 146.903L84.2619 147.367L80.3137 148.47L77.2218 151.301L75.7993 155.612L75.2332 159.923L74.3187 163.291L72.2139 167.268L71.7785 167.587L71.285 168.778L71.0963 170.984L69.3544 174.584L66.8867 176.616L65.8271 179.519L66.8577 182.335L67.5399 186.951L70.0511 191.393L69.9931 192.148L68.8899 194.18L68.7012 203.412L67.0319 206.968L66.6545 208.507L66.5819 211.294L64.7239 210.336L63.8384 209.146L62.6481 208.492L61.2111 208.072L58.6273 208.362L57.5967 208.101L55.6371 205.197L54.2 201.046L51.1083 198.694L50.905 196.299L53.2856 193.672L53.1694 192.903L47.5374 190.072L46.6374 188.548L46.5503 186.138L45.4617 183.83L44.0972 182.829L41.0779 182.422L40.7876 181.813L41.165 180.782L44.9827 177.095L44.4455 175.194L45.5052 171.303L46.5068 169.228L47.3342 168.429L49.2793 167.646L54.2 167.137L53.634 165.178L54.5629 160.46L54.4468 157.906L51.834 156.149L45.6358 157.514L42.515 159.459L39.22 155.075L37.899 153.841L33.5443 147.817L32.267 147.919L31.0476 145.829L31.9331 144.101L31.7734 142.824L31.4105 142.33L29.4219 141.982L28.8122 142.374L26.0107 140.443L26.272 139.413L28.8268 138.455L31.367 135.493L31.7299 133.185L31.3234 131.734L31.7734 128.308L34.3427 119.367L34.3572 118.742L33.3702 117.088L33.0363 115.52L33.3411 110.12L32.4121 107.943L31.7299 102.877L30.5106 101.382L25.5752 99.2914L23.8044 99.2624L23.3979 98.7979L23.2818 97.3028L22.4254 96.3012L19.8997 95.8803L18.5061 96.6351L16.4739 96.5044L12.4386 94.3126L11.1903 94.2255L8.34519 94.9948L4.5421 97.6802L3.77277 98.6092L3.06152 98.4931L24.414 81.3211L27.8252 81.655L29.5235 80.3195L31.7734 77.1696L32.3976 75.5003L34.6475 73.802L35.5475 69.6215L37.1732 68.9538L40.7151 65.5862L41.3973 63.8298L41.8182 61.0718L44.1407 54.264L46.9858 52.0286L49.1341 49.4738L50.3389 47.3691L51.0066 45.5111L50.7454 42.8692L51.8921 41.6934L50.3825 39.4L55.7242 34.9146L55.5355 32.5341L56.2613 29.0794L58.787 26.8004L59.3096 25.7698L60.616 21.3861L60.7321 19.0491L60.1079 18.2797L58.6709 18.512L58.279 17.8007L58.3515 16.9008L60.0063 16.683L60.8337 15.6089L61.8643 9.23651L61.6321 7.23335L62.3143 5.73824L63.432 5.08504H64.3465L64.6949 4.73667L64.6078 3.95282L65.1013 2.8643L65.9432 2.09497L67.8883 3.5175L68.5415 6.18823L70.2689 6.36241L71.3866 4.38829L72.272 8.64137L73.709 8.69943L74.13 7.98817L74.2316 6.62369L75.4655 6.56563L77.9186 7.33496L78.6444 8.33654L76.5686 10.8042L77.5412 11.8203L77.5702 12.6187L79.3266 9.65747L80.0379 7.42206H80.6911L81.2717 8.90265V9.74456L80.0088 11.08L79.6169 12.517L79.7331 16.4508L80.1104 16.9298L80.7927 17.104L81.6346 16.9008L83.0281 15.5508L82.3459 14.0992L82.5491 13.2283L84.4651 11.1526L85.9893 10.7897L89.0811 11.6461L91.2584 10.0349L91.331 11.3703L90.8085 11.6751L89.1682 13.896L90.0246 14.7379L90.1698 14.2009L91.9842 13.3299L92.8261 14.4767L92.6229 16.233L94.989 18.7733L96.2373 18.1346L98.5308 19.1071L99.6485 22.5909L99.4888 23.9699L96.3099 27.9326L95.7583 29.2245L95.9035 30.1826L96.7744 28.6874L99.3146 26.2488L100.519 26.2053L101.782 27.381L102.537 30.1245L102.145 31.9099L100.737 32.1857L99.242 33.5066L97.5583 35.6695L97.6598 36.7872L95.976 40.1983L95.076 45.3078L95.3809 45.8014L96.6438 46.1352ZM97.3986 46.7884L97.3115 45.6417L98.0808 43.4208L97.4856 41.8676L97.6744 40.9096L98.9953 39.1097L99.7936 38.8339L99.8662 42.245L99.5469 44.1901L98.3856 45.0611L97.3986 46.7884ZM88.2537 9.39618L87.615 8.72847L87.4989 7.85752L88.6602 6.23178L89.8795 6.18823L90.8665 6.79789L91.0117 7.29141L90.7359 7.81398L88.2537 9.39618ZM93.3342 15.4637L92.9132 15.0282L93.0003 14.2589L94.539 12.967L95.2357 13.0686L95.9615 14.3025L95.7583 15.1879L95.1777 14.9412L93.3342 15.4637ZM72.7801 8.48169L72.4753 8.40912L73.8542 3.21267L74.2897 3.34332L74.3333 3.67717L73.7381 8.1188L72.7801 8.48169Z" stroke="white" stroke-width="2" mask="url(#path-1-outside-1_2_42)"/>
</svg>
